<svg width="500" height="500" fill="none" xmlns="http://www.w3.org/2000/svg"><g clip-path="url(#a)" fill="#1E1E1C"><path d="M121.84 476.1c-.66-5.94-1.33-11.88-1.99-17.82-1.06-9.46-2.12-18.93-3.17-28.39-.24-2.17-.48-4.33-.73-6.5l-1.75 3.82c3.52-.43 7.05-.87 10.57-1.3 8.42-1.04 16.84-2.07 25.26-3.11 10.23-1.26 20.45-2.51 30.68-3.77l26.43-3.25 8.78-1.08 2.69-.33c.43-.05 1.03-.02 1.44-.18.05-.02.13-.02.18-.02l-.82-.94c.93 6.61 1.86 13.23 2.8 19.84 1.48 10.53 2.97 21.06 4.45 31.59l1.02 7.21c.14.97.8 1.19 1.48.48.75-.78 1.24-2.29 1.09-3.36-.93-6.61-1.86-13.23-2.8-19.84-1.48-10.53-2.97-21.06-4.45-31.59l-1.02-7.21c-.07-.48-.23-1.01-.82-.94-3.52.43-7.05.87-10.57 1.3-8.42 1.04-16.84 2.07-25.26 3.11-10.23 1.26-20.45 2.51-30.68 3.77l-26.43 3.25-8.78 1.08c-1.35.17-2.81.2-4.13.51-.06.01-.12.02-.18.02-1.31.16-1.86 2.84-1.75 3.82.66 5.94 1.33 11.88 1.99 17.82l3.17 28.39c.24 2.17.48 4.33.73 6.5.11.98.81 1.17 1.48.48.76-.79 1.21-2.27 1.09-3.36zM116.96 405.75c0-1.68.01-3.36.02-5.04l.05-13.71.08-20.38c.03-8.25.07-16.51.1-24.76.04-9.04.07-18.08.11-27.12l.11-27.38.1-25.53.09-21.67.06-15.51.02-4.81c0-.82.11-1.72.01-2.54-.01-.1 0-.21 0-.32l-.58.85 26.38-1.26c13.92-.67 27.84-1.33 41.76-2 3.21-.15 6.43-.31 9.64-.46l-3.2-2.75.69 5c.62 4.53 1.25 9.07 1.87 13.6.92 6.67 1.83 13.34 2.75 20.02l3.37 24.53 3.69 26.87 3.73 27.13c1.16 8.43 2.32 16.86 3.47 25.29l2.92 21.29 2.11 15.39c.33 2.42.57 4.89 1 7.29.02.1.03.21.04.31.15 1.09 1.34 2.3 2.35 2.65 1.01.35 1.51-.22 1.38-1.22l-.69-5-1.87-13.6c-.92-6.67-1.83-13.34-2.75-20.02-1.12-8.18-2.25-16.35-3.37-24.53l-3.69-26.87-3.73-27.13-3.47-25.29c-.97-7.1-1.95-14.19-2.92-21.29l-2.11-15.39c-.33-2.42-.57-4.89-1-7.29-.02-.1-.03-.21-.04-.31-.19-1.38-1.83-2.81-3.2-2.75l-26.38 1.26c-13.92.67-27.84 1.33-41.76 2-3.21.15-6.43.31-9.64.46-.39.02-.58.55-.58.85 0 1.68-.01 3.36-.02 5.04l-.05 13.71c-.03 6.79-.05 13.59-.08 20.38l-.1 24.76c-.04 9.04-.07 18.08-.11 27.12l-.11 27.38c-.03 8.51-.07 17.02-.1 25.53l-.09 21.67-.06 15.51c0 2.45-.09 4.9-.03 7.35v.32c0 1.15.99 2.31 1.92 2.87.68.41 1.92.65 1.93-.51l-.02.01zM269.37 473.88v-50.95l-1.77 3.28c3.82-.12 7.64-.24 11.46-.37l27.39-.87c11.04-.35 22.08-.7 33.12-1.06 9.58-.31 19.15-.61 28.73-.92l9.4-.3 2.97-.09c.46-.01 1.07.07 1.53-.05.06-.02.13 0 .19 0l-.8-.94c.95 14.23 1.46 28.5 2.04 42.75l.42 10.47c.04 1.01.83 1.14 1.46.48.81-.83 1.16-2.23 1.11-3.36-.56-14.42-1.14-28.84-1.89-43.25-.17-3.32-.35-6.65-.57-9.97-.03-.52-.24-.96-.8-.94-3.82.12-7.64.24-11.46.37l-27.39.87c-11.04.35-22.08.7-33.12 1.06-9.58.31-19.15.61-28.73.92l-9.4.3c-1.46.05-3.05-.09-4.5.14h-.19c-1.08.03-1.77 2.55-1.77 3.28v50.95c0 .72.16 1.87 1.13 1.32.87-.49 1.45-2.19 1.45-3.12h-.01zM274.75 349.88v59.06c0 .99.69 1.15 1.33.51.8-.8 1.25-2.19 1.25-3.31v-59.06c0-.99-.69-1.15-1.33-.51-.8.8-1.25 2.19-1.25 3.31zM370.49 348.22v56.25c0 1.53 4.97 1.88 4.97.53v-56.25c0-1.53-4.97-1.88-4.97-.53zM294.71 305.11c0-5.54.01-11.07.02-16.61.01-13.2.02-26.4.04-39.6.01-15.95.03-31.9.04-47.84.01-13.78.02-27.56.04-41.35 0-6.69.16-13.41.02-20.1v-.28c0-.96-.5-2.47-1.68-2.48-1.18-.01-1.62 1.61-1.63 2.52 0 5.54-.01 11.07-.02 16.61-.01 13.2-.02 26.4-.04 39.6-.01 15.95-.03 31.9-.04 47.84-.01 13.78-.02 27.56-.04 41.35 0 6.69-.16 13.41-.02 20.1v.28c0 .96.5 2.47 1.68 2.48 1.18.01 1.62-1.61 1.63-2.52zM354.11 305.73c.02-5.54.05-11.07.07-16.61.06-13.2.12-26.4.17-39.6l.21-47.84.18-41.35.06-13.63c0-2.15.13-4.33.03-6.47v-.28c0-1.92-4.73-3.42-4.74-1.19-.02 5.54-.05 11.07-.07 16.61l-.17 39.6-.21 47.84-.18 41.35-.06 13.63c0 2.15-.13 4.33-.03 6.47v.28c0 1.92 4.73 3.42 4.74 1.19zM295.67 78.31V56.86l-1.98.72h58.43l-2.96-1.52v21.45c0 1.62 4.93 2.16 4.93.81V56.86c0-1.14-2.18-1.52-2.96-1.52H292.7c-.4 0-1.98-.01-1.98.72v21.45c0 1.62 4.93 2.16 4.93.81l.02-.01zM308.7 53.41c.06-3.24.29-6.48.64-9.69.55-5.03 1.36-10.27 4.27-14.55 1.38-2.02 3.34-3.9 5.87-4.24 2.53-.34 4.74 1.13 6.22 3.08 2.93 3.86 3.66 8.6 4.15 13.41.26 2.49.39 5 .45 7.51v.87-.03 1.1c0 .29 0 .58-.01.87-.03 1.12.36 2.62 1.48 3.14 1.03.48 1.84-.46 1.87-1.46.09-3.52-.05-7.07-.37-10.58-.53-5.85-1.58-11.78-4.78-16.81-1.63-2.57-3.94-4.88-6.93-5.72-2.99-.84-5.81.16-8 2.06-4.56 3.97-6.2 10.23-7.09 15.96-.69 4.42-1.05 8.93-1.13 13.41-.02 1.12.35 2.62 1.48 3.14 1.03.47 1.85-.45 1.87-1.46l.01-.01zM365.85 86.43c0 4.81-.34 9.63-.84 14.41-.44 4.19-1.05 8.37-1.99 12.47-.86 3.78-1.97 7.6-3.9 10.99-.39.68-.8 1.33-1.17 1.8-.23.3-.48.58-.72.86-.06.06-.11.12-.17.19-.21.22.24-.23.02-.02l-.42.39c-.34.32-.08.08-.08.08-.13.09-.26.18-.38.27-.11.08.49-.22.04-.03-.57.25-.05.06-.08.05-.02 0-.61.23-.21.09.36-.13-.21.06-.3.08-.38.09.31-.04-.08.01-.21.03-.41.06-.62.08-.3.03.11 0-.2 0-.19 0-.38 0-.57-.02-.34-.02-.69-.07-1.02-.14-.52-.12-1.23-.41-1.78-.71-1.3-.71-2.35-1.75-3.24-2.92-2.24-2.94-3.56-6.54-4.57-10.06-1.17-4.05-1.92-8.21-2.47-12.38-.75-5.69-.97-11.37-1.22-17.09v-.3c0-1.34-4.46.5-4.46 1.89 0 5.15.38 10.33.98 15.45.51 4.39 1.21 8.77 2.31 13.06.97 3.79 2.24 7.67 4.42 10.96 1.77 2.65 4.29 4.85 7.57 5.16 3.93.37 7.78-1.85 10.34-4.69 2.56-2.84 4.07-6.6 5.2-10.23 1.31-4.17 2.12-8.5 2.72-12.83.84-6.04 1.52-12.34 1.37-18.45v-.32c0-1.34-4.46.5-4.46 1.89l-.02.01z"/><path d="M335.41 86.43c0 4.81-.34 9.63-.84 14.41-.44 4.19-1.05 8.37-1.99 12.47-.86 3.78-1.97 7.6-3.9 10.99-.39.68-.8 1.33-1.17 1.8-.23.3-.48.58-.72.86-.06.06-.11.12-.17.19-.21.22.24-.23.02-.02l-.42.39c-.34.32-.08.08-.08.08-.13.09-.26.18-.38.27-.11.08.49-.22.04-.03-.57.25-.05.06-.08.05-.02 0-.61.23-.21.09.36-.13-.21.06-.3.08-.38.09.31-.04-.08.01-.21.03-.41.06-.62.08-.3.03.11 0-.2 0-.19 0-.38 0-.57-.02-.34-.02-.69-.07-1.02-.14-.52-.12-1.23-.41-1.78-.71-1.3-.71-2.35-1.75-3.24-2.92-2.24-2.94-3.56-6.54-4.57-10.06-1.17-4.05-1.92-8.21-2.47-12.38-.75-5.69-.97-11.37-1.22-17.09v-.3c0-1.34-4.46.5-4.46 1.89 0 5.15.38 10.33.98 15.45.51 4.39 1.21 8.77 2.31 13.06.97 3.79 2.24 7.67 4.42 10.96 1.77 2.65 4.29 4.85 7.57 5.16 3.93.37 7.78-1.85 10.34-4.69 2.56-2.84 4.07-6.6 5.2-10.23 1.31-4.17 2.12-8.5 2.72-12.83.84-6.04 1.52-12.34 1.37-18.45v-.32c0-1.34-4.46.5-4.46 1.89l-.02.01z"/><path d="M304.96 86.43c0 4.81-.34 9.63-.84 14.41-.44 4.19-1.05 8.37-1.99 12.47-.86 3.78-1.97 7.6-3.9 10.99-.39.68-.8 1.33-1.17 1.8-.23.3-.48.58-.72.86-.06.06-.11.12-.17.19-.21.22.24-.23.02-.02l-.42.39c-.34.32-.08.08-.08.08-.13.09-.26.18-.38.27-.11.08.49-.22.04-.03-.57.25-.05.06-.08.05-.02 0-.61.23-.21.09.36-.13-.21.06-.3.08-.38.09.31-.04-.08.01-.21.03-.41.06-.62.08-.3.03.11 0-.2 0-.19 0-.38 0-.57-.02-.34-.02-.69-.07-1.02-.14-.52-.12-1.23-.41-1.78-.71-1.3-.71-2.35-1.75-3.24-2.92-2.24-2.94-3.56-6.54-4.57-10.06-1.17-4.05-1.92-8.21-2.47-12.38-.75-5.69-.97-11.37-1.22-17.09v-.3c0-1.34-4.46.5-4.46 1.89 0 5.15.38 10.33.98 15.45.51 4.39 1.21 8.77 2.31 13.06.97 3.79 2.24 7.67 4.42 10.96 1.77 2.65 4.29 4.85 7.57 5.16 3.93.37 7.78-1.85 10.34-4.69 2.56-2.84 4.07-6.6 5.2-10.23 1.31-4.17 2.12-8.5 2.72-12.83.84-6.04 1.52-12.34 1.37-18.45v-.32c0-1.34-4.46.5-4.46 1.89l-.02.01zM263.76 339.46c0-2.51.34-5.06.83-7.52.84-4.25 2.51-9.19 5.61-11.96.48-.42.35-.33 1.01-.77-.46.3.29-.16.4-.21.09-.05.44-.2.01 0 .17-.08.35-.15.53-.22.36-.14-.29.09.09-.03.11-.04.22-.07.34-.11.32-.09.4-.12.66-.17.66-.13 1.34-.2 2.01-.21 2.61-.04 5.13.67 7.28 2.16 3.87 2.69 5.89 7.45 7.01 11.87.75 2.94 1.22 6.04 1.22 9.08 0 1.34 4.46-.5 4.46-1.89 0-2.84-.43-5.73-1.05-8.5-1.09-4.87-3.13-9.88-7.22-13-4.86-3.7-11.86-3.26-16.93-.23s-7.75 7.93-9.25 13.37c-.91 3.3-1.46 6.82-1.47 10.25 0 1.34 4.46-.5 4.46-1.89v-.02z"/><path d="M295.22 339.46c0-2.51.34-5.06.83-7.52.84-4.25 2.51-9.19 5.61-11.96.48-.42.35-.33 1.01-.77-.46.3.29-.16.4-.21.09-.05.44-.2.01 0 .17-.08.35-.15.53-.22.36-.14-.29.09.09-.03.11-.04.22-.07.34-.11.32-.09.4-.12.66-.17.66-.13 1.34-.2 2.01-.21 2.61-.04 5.13.67 7.28 2.16 3.87 2.69 5.89 7.45 7.01 11.87.75 2.94 1.22 6.04 1.22 9.08 0 1.34 4.46-.5 4.46-1.89 0-2.84-.43-5.73-1.05-8.5-1.09-4.87-3.13-9.88-7.22-13-4.86-3.7-11.86-3.26-16.93-.23s-7.75 7.93-9.25 13.37c-.91 3.3-1.46 6.82-1.47 10.25 0 1.34 4.46-.5 4.46-1.89v-.02z"/><path d="M326.68 339.46c0-2.51.34-5.06.83-7.52.84-4.25 2.51-9.19 5.61-11.96.48-.42.35-.33 1.01-.77-.46.3.29-.16.4-.21.09-.05.44-.2.01 0 .17-.08.35-.15.53-.22.36-.14-.29.09.09-.03.11-.04.22-.07.34-.11.32-.09.4-.12.66-.17.66-.13 1.34-.2 2.01-.21 2.61-.04 5.13.67 7.28 2.16 3.87 2.69 5.89 7.45 7.01 11.87.75 2.94 1.22 6.04 1.22 9.08 0 1.34 4.46-.5 4.46-1.89 0-2.84-.43-5.73-1.05-8.5-1.09-4.87-3.13-9.88-7.22-13-4.86-3.7-11.86-3.26-16.93-.23s-7.75 7.93-9.25 13.37c-.91 3.3-1.46 6.82-1.47 10.25 0 1.34 4.46-.5 4.46-1.89v-.02z"/><path d="M359.47 339.46c0-2.51.34-5.06.83-7.52.84-4.25 2.51-9.19 5.61-11.96.48-.42.35-.33 1.01-.77-.46.3.29-.16.4-.21.09-.05.44-.2.01 0 .17-.08.35-.15.53-.22.36-.14-.29.09.09-.03.11-.04.22-.07.34-.11.32-.09.4-.12.66-.17.66-.13 1.34-.2 2.01-.21 2.61-.04 5.13.67 7.28 2.16 3.87 2.69 5.89 7.45 7.01 11.87.75 2.94 1.22 6.04 1.22 9.08 0 1.34 4.46-.5 4.46-1.89 0-2.84-.43-5.73-1.05-8.5-1.09-4.87-3.13-9.88-7.22-13-4.86-3.7-11.86-3.26-16.93-.23s-7.75 7.93-9.25 13.37c-.91 3.3-1.46 6.82-1.47 10.25 0 1.34 4.46-.5 4.46-1.89v-.02z"/></g><defs><clipPath id="a"><path fill="#fff" d="M0 0h500v500H0z"/></clipPath></defs></svg>