<svg width="75" height="76" fill="none" xmlns="http://www.w3.org/2000/svg"><g clip-path="url(#a)" fill="#1D1D1B"><path d="M17.75 67.22c-.31-2.31-.61-4.62-.92-6.94l-.88 1.91 14.42-1.5c.69-.07 1.38-.14 2.07-.22l-.41-.47c.43 2.57.86 5.14 1.29 7.72.08.49.39.59.74.24.37-.37.63-1.16.55-1.68-.43-2.57-.86-5.14-1.29-7.72-.04-.24-.11-.5-.41-.47l-14.42 1.5c-.69.07-1.38.14-2.07.22-.64.07-.94 1.43-.88 1.91.31 2.31.61 4.62.92 6.94.07.5.4.58.74.24.38-.38.62-1.15.55-1.68z"/><path d="M17.21 58.93c.03-7.25.07-14.51.1-21.76 0-1.03 0-2.05.01-3.08l-.49.44c4.03-.16 8.06-.33 12.1-.49l-1.4-1.38c1.16 7.18 2.33 14.35 3.49 21.53.16 1.01.33 2.03.49 3.04.13.82 2.09 2.12 1.86.71-1.16-7.18-2.33-14.35-3.49-21.53-.16-1.01-.33-2.03-.49-3.04-.08-.51-.82-1.41-1.4-1.38-4.03.16-8.06.33-12.1.49-.29.01-.49.11-.49.44-.03 7.25-.07 14.51-.1 21.76 0 1.03 0 2.05-.01 3.08 0 .81 1.92 2.32 1.92 1.18v-.01zM40.7 67.13v-6.7l-.89 1.64 15.62-.42 2.23-.06-.4-.47c.18 2.33.27 4.67.38 7 .02.51.41.56.73.24.41-.4.58-1.13.56-1.68-.11-2.33-.2-4.67-.38-7-.02-.26-.12-.48-.4-.47l-15.62.42-2.23.06c-.54.01-.89 1.28-.89 1.64v6.7c0 .4.07.88.56.66.44-.2.72-1.13.72-1.56h.01z"/><path d="M40.64 51.66v7.77c0 .48.35.59.67.25.39-.41.63-1.09.63-1.65v-7.77c0-.48-.35-.59-.67-.25-.39.41-.63 1.09-.63 1.65zM55.12 50.83v7.4c0 .46.85.61 1.19.64.25.02 1.3.08 1.3-.37v-7.4c0-.46-.85-.61-1.19-.64-.25-.02-1.3-.08-1.3.37zM44.76 45.25c0-6.36.01-12.71.02-19.07v-2.75c0-1.54-1.65-1.52-1.65.02 0 6.36-.01 12.71-.02 19.07v2.75c0 1.54 1.65 1.52 1.65-.02zM54.24 45.55c.03-6.36.07-12.71.1-19.07v-2.75c.02-.96-2.35-1.71-2.35-.6-.03 6.36-.07 12.71-.1 19.07v2.75c-.02.96 2.35 1.71 2.35.6zM45.19 15.56v-2.82l-.99.36h9.09l-1.48-.76v2.82c0 .81 2.47 1.08 2.47.4v-2.82c0-.57-1.09-.76-1.48-.76h-9.09c-.2 0-.99 0-.99.36v2.82c0 .81 2.47 1.08 2.47.4z"/><path d="M46.94 12.44c0-.45.05-.89.11-1.34.01-.09.02-.18.04-.26 0-.04.02-.09.02-.13 0 .05-.05.27-.02.09.03-.17.07-.33.13-.5.02-.08.05-.15.08-.22.04-.11-.11.21-.03.07l.06-.12c.09-.17.2-.32.32-.47l-.15.17c.16-.18.33-.33.54-.44l-.19.1c.16-.08.33-.13.52-.14h-.22c.16 0 .31.03.46.07l-.22-.07c.05.02.11.04.16.06.04.02.11.08.15.08-.12-.09-.15-.11-.09-.06.02.02.04.03.07.05l.12.12c-.21-.18-.11-.12-.04-.04.04.04.07.09.1.14.06.09.1.24-.04-.08.02.05.05.1.08.14l.06.12c.08.18-.11-.33-.05-.13.03.09.06.17.08.26.03.1.05.2.07.3.03.14-.06-.37-.02-.12 0 .05.02.1.02.15.05.37.08.73.09 1.1v.21-.19V11.57c0 .33.04.65.18.95.11.22.32.52.56.62.2.09.45.12.63-.05.18-.17.3-.43.31-.68.02-.56 0-1.13-.07-1.69-.12-1.02-.37-2.1-1.04-2.9-.4-.48-.89-.88-1.52-.99-.51-.09-1.03.08-1.44.38-.72.54-1.09 1.45-1.25 2.3-.13.68-.22 1.37-.23 2.06 0 .33.04.65.18.95.11.22.32.52.56.62.2.09.45.12.63-.05.18-.17.3-.43.31-.68l-.02.03zM54.49 16.83c0 .62-.05 1.24-.12 1.85-.07.54-.16 1.09-.3 1.62-.03.13-.07.26-.11.39-.01.03-.06.19-.04.12.03-.08 0 .02-.02.04-.02.04-.03.08-.05.12-.09.23-.2.45-.33.66-.11.18.07-.07 0 0-.03.04-.06.08-.1.12-.01.02-.03.03-.04.05-.09.11.09-.09.1-.1-.02 0-.04.04-.06.06-.13.11.23-.17.13-.1-.18.13.29-.17.13-.08-.09.05-.21.08.19-.09-.08.04-.19.05.17-.06-.19.06.15-.03.08-.01h-.06c-.14.01.15.02.07 0-.05-.01-.12 0-.17 0-.08 0-.14-.03-.02 0-.11-.03-.21-.07-.3-.12-.09-.04-.16-.1-.24-.16-.08-.06-.01 0 0 0l-.06-.06c-.04-.04-.08-.08-.12-.13-.32-.38-.53-.85-.68-1.32a11.086 11.086 0 0 1-.36-1.53c-.11-.74-.18-1.49-.18-2.24 0-.48-.82-.18-1.04-.08-.29.13-.59.29-.82.51-.14.13-.37.32-.37.52 0 .7.06 1.4.16 2.09.15 1.09.36 2.38 1.09 3.25 1.06 1.28 2.86.62 3.93-.33.97-.86 1.35-2.19 1.56-3.43.14-.83.22-1.68.22-2.53 0-.48-.82-.18-1.04-.08-.29.13-.59.29-.82.51-.14.13-.37.32-.37.52l-.01.02z"/><path d="M49.75 16.83c0 .62-.05 1.24-.12 1.85-.07.54-.16 1.09-.3 1.62-.03.13-.07.26-.11.39-.01.03-.06.19-.04.12.03-.08 0 .02-.02.04-.02.04-.03.08-.05.12-.09.23-.2.45-.33.66-.11.18.07-.07 0 0-.03.04-.06.08-.1.12-.01.02-.03.03-.04.05-.09.11.09-.09.1-.1-.02 0-.04.04-.06.06-.13.11.23-.17.13-.1-.18.13.29-.17.13-.08-.09.05-.21.08.19-.09-.08.04-.19.05.17-.06-.19.06.15-.03.08-.01h-.06c-.14.01.15.02.07 0-.05-.01-.12 0-.17 0-.08 0-.14-.03-.02 0-.11-.03-.21-.07-.3-.12-.09-.04-.16-.1-.24-.16-.08-.06-.01 0 0 0l-.06-.06c-.04-.04-.08-.08-.12-.13-.32-.38-.53-.85-.68-1.32a11.086 11.086 0 0 1-.36-1.53c-.11-.74-.18-1.49-.18-2.24 0-.48-.82-.18-1.04-.08-.29.13-.59.29-.82.51-.14.13-.37.32-.37.52 0 .7.06 1.4.16 2.09.15 1.09.36 2.38 1.09 3.25 1.06 1.28 2.86.62 3.93-.33.97-.86 1.35-2.19 1.56-3.43.14-.83.22-1.68.22-2.53 0-.48-.82-.18-1.04-.08-.29.13-.59.29-.82.51-.14.13-.37.32-.37.52l-.01.02z"/><path d="M45.02 16.83c0 .62-.05 1.24-.12 1.85-.07.54-.16 1.09-.3 1.62-.03.13-.07.26-.11.39-.01.03-.06.19-.04.12.03-.08 0 .02-.02.04-.02.04-.03.08-.05.12-.09.23-.2.45-.33.66-.11.18.07-.07 0 0-.03.04-.06.08-.1.12-.01.02-.03.03-.04.05-.09.11.09-.09.1-.1-.02 0-.04.04-.06.06-.13.11.23-.17.13-.1-.18.13.29-.17.13-.08-.09.05-.21.08.19-.09-.08.04-.19.05.17-.06-.19.06.15-.03.08-.01h-.06c-.14.01.15.02.07 0-.05-.01-.12 0-.17 0-.08 0-.14-.03-.02 0-.11-.03-.21-.07-.3-.12-.09-.04-.16-.1-.24-.16-.08-.06-.01 0 0 0l-.06-.06c-.04-.04-.08-.08-.12-.13-.32-.38-.53-.85-.68-1.32a11.086 11.086 0 0 1-.36-1.53c-.11-.74-.18-1.49-.18-2.24 0-.48-.82-.18-1.04-.08-.29.13-.59.29-.82.51-.14.13-.37.32-.37.52 0 .7.06 1.4.16 2.09.15 1.09.36 2.38 1.09 3.25 1.06 1.28 2.86.62 3.93-.33.97-.86 1.35-2.19 1.56-3.43.14-.83.22-1.68.22-2.53 0-.48-.82-.18-1.04-.08-.29.13-.59.29-.82.51-.14.13-.37.32-.37.52l-.01.02zM40.15 49.42c0-.32.05-.65.12-.97.03-.14.07-.27.11-.41.04-.14-.06.14 0 0 .01-.03.03-.06.04-.1.03-.08.07-.17.11-.25.03-.06.07-.13.1-.19l.07-.11c.02.02-.14.18-.02.04.04-.05.11-.11.14-.16-.11.19-.16.15-.06.06s.14-.04-.1.07c.04-.02.08-.05.11-.08-.29.23-.24.15-.12.08-.36.19-.26.12-.17.09.19-.08-.3.09-.1.04.09-.02.22-.02-.06 0 .04 0 .09-.02.13-.02.04 0 .09-.01.14-.02h-.05.12c.1 0 .19 0 .29.02.05 0 .11.02.16.03-.14-.02-.02 0 .01 0 .18.06.35.12.51.22.08.05.15.1.22.16.02.01.07.07 0 0l.09.09c.12.13.22.26.32.41.16.26.28.54.36.83.05.15.08.31.11.46 0 .02 0 .04.01.07.02.09-.01-.12 0 .02 0 .06.01.11.02.17.01.12.02.24.02.36 0 .48.82.18 1.04.08.29-.13.59-.29.82-.51.14-.13.37-.32.37-.52 0-1.12-.41-2.4-1.41-3.01-1-.61-2.43-.34-3.43.19s-1.7 1.33-2.05 2.38c-.14.44-.24.92-.24 1.38 0 .46.82.18 1.04.08.29-.13.59-.29.82-.51.14-.13.37-.32.37-.52l.04.05z"/><path d="M45.04 49.42c0-.32.05-.65.12-.97.03-.14.07-.27.11-.41.04-.14-.06.14 0 0 .01-.03.03-.06.04-.1.03-.08.07-.17.11-.25.03-.06.07-.13.1-.19l.07-.11c.02.02-.14.18-.02.04.04-.05.11-.11.14-.16-.11.19-.16.15-.06.06s.14-.04-.1.07c.04-.02.08-.05.11-.08-.29.23-.24.15-.12.08-.36.19-.26.12-.17.09.19-.08-.3.09-.1.04.09-.02.22-.02-.06 0 .04 0 .09-.02.13-.02.04 0 .09-.01.14-.02h-.05.12c.1 0 .19 0 .29.02.05 0 .11.02.16.03-.14-.02-.02 0 .01 0 .18.06.35.12.51.22.08.05.15.1.22.16.02.01.07.07 0 0l.09.09c.12.13.22.26.32.41.16.26.28.54.36.83.05.15.08.31.11.46 0 .02 0 .04.01.07.02.09-.01-.12 0 .02 0 .06.01.11.02.17.01.12.02.24.02.36 0 .48.82.18 1.04.08.29-.13.59-.29.82-.51.14-.13.37-.32.37-.52 0-1.12-.41-2.4-1.41-3.01-1-.61-2.43-.34-3.43.19s-1.7 1.33-2.05 2.38c-.14.44-.24.92-.24 1.38 0 .46.82.18 1.04.08.29-.13.59-.29.82-.51.14-.13.37-.32.37-.52l.04.05z"/><path d="M49.93 49.42c0-.32.05-.65.12-.97.03-.14.07-.27.11-.41.04-.14-.06.14 0 0 .01-.03.03-.06.04-.1.03-.08.07-.17.11-.25.03-.06.07-.13.1-.19l.07-.11c.02.02-.14.18-.02.04.04-.05.11-.11.14-.16-.11.19-.16.15-.06.06s.14-.04-.1.07c.04-.02.08-.05.11-.08-.29.23-.24.15-.12.08-.36.19-.26.12-.17.09.19-.08-.3.09-.1.04.09-.02.22-.02-.06 0 .04 0 .09-.02.13-.02.04 0 .09-.01.14-.02h-.05.12c.1 0 .19 0 .29.02.05 0 .11.02.16.03-.14-.02-.02 0 .01 0 .18.06.35.12.51.22.08.05.15.1.22.16.02.01.07.07 0 0l.09.09c.12.13.22.26.32.41.16.26.28.54.36.83.05.15.08.31.11.46 0 .02 0 .04.01.07.02.09-.01-.12 0 .02 0 .06.01.11.02.17.01.12.02.24.02.36 0 .48.82.18 1.04.08.29-.13.59-.29.82-.51.14-.13.37-.32.37-.52 0-1.12-.41-2.4-1.41-3.01-1-.61-2.43-.34-3.43.19s-1.7 1.33-2.05 2.38c-.14.44-.24.92-.24 1.38 0 .46.82.18 1.04.08.29-.13.59-.29.82-.51.14-.13.37-.32.37-.52l.04.05z"/><path d="M55.03 49.42c0-.32.05-.65.12-.97.03-.14.07-.27.11-.41.04-.14-.06.14 0 0 .01-.03.03-.06.04-.1.03-.08.07-.17.11-.25.03-.06.07-.13.1-.19l.07-.11c.02.02-.14.18-.02.04.04-.05.11-.11.14-.16-.11.19-.16.15-.06.06s.14-.04-.1.07c.04-.02.08-.05.11-.08-.29.23-.24.15-.12.08-.36.19-.26.12-.17.09.19-.08-.3.09-.1.04.09-.02.22-.02-.06 0 .04 0 .09-.02.13-.02.04 0 .09-.01.14-.02h-.05.12c.1 0 .19 0 .29.02.05 0 .11.02.16.03-.14-.02-.02 0 .01 0 .18.06.35.12.51.22.08.05.15.1.22.16.02.01.07.07 0 0l.09.09c.12.13.22.26.32.41.16.26.28.54.36.83.05.15.08.31.11.46 0 .02 0 .04.01.07.02.09-.01-.12 0 .02 0 .06.01.11.02.17.01.12.02.24.02.36 0 .48.82.18 1.04.08.29-.13.59-.29.82-.51.14-.13.37-.32.37-.52 0-1.12-.41-2.4-1.41-3.01-1-.61-2.43-.34-3.43.19s-1.7 1.33-2.05 2.38c-.14.44-.24.92-.24 1.38 0 .46.82.18 1.04.08.29-.13.59-.29.82-.51.14-.13.37-.32.37-.52l.04.05z"/></g><defs><clipPath id="a"><path fill="#fff" transform="translate(0 .5)" d="M0 0h75v75H0z"/></clipPath></defs></svg>