<svg width="500" height="500" fill="none" xmlns="http://www.w3.org/2000/svg"><g clip-path="url(#a)" fill="#1E1E1C"><path d="M351.37 63.23c6.68.96 13.51.64 20.06-.97 1.1-.27 2.12-1.08 2.82-1.96.27-.34 1.05-1.74-.06-1.47a50.977 50.977 0 0 1-19.41.96c-.98-.14-2.11.88-2.74 1.52-.21.21-1.56 1.79-.67 1.92zM119.39 370.77c-.28-3.22-.51-6.44-.73-9.66-.54-7.68-.99-15.37-1.33-23.06-.41-9.37-.68-18.74-.62-28.12.05-8.1.23-16.27 1.4-24.3.39-2.7.88-5.45 1.86-8.01.05-.13.34-.8.18-.46.11-.23.21-.46.33-.68.2-.37.42-.73.67-1.07.11-.15.24-.28.36-.43.2-.25-.27.13.15-.13.12-.07.26-.16.37-.25.27-.22-.39.21-.17.08.07-.04.16-.07.24-.09.31-.09-.62.09-.04.03-.08 0-.74.01-.34.03.4.02-.75-.11-.36-.04.49.09-.72-.24-.21-.05-.16-.06-.55-.3-.08 0-.61-.38-.2-.19-.02.02.05.06.13.12.19.17.17.13-.31-.4-.07-.07s.5.63.71.97c.12.19.23.39.34.59.06.1.11.21.17.32-.02-.03-.1-.23.05.1.22.5.44 1 .63 1.52.46 1.24.83 2.51 1.16 3.79 1.87 7.27 2.62 14.85 3.27 22.31.8 9.12 1.23 18.27 1.52 27.42.26 8.19.39 16.38.43 24.57.02 4.45.02 8.9-.04 13.36v.63c-.03 2.02 4.89 2.73 4.92.9.05-3.24.06-6.49.06-9.73 0-7.79-.09-15.57-.28-23.36-.24-9.51-.62-19.01-1.31-28.5-.59-8.12-1.31-16.31-2.95-24.3-.56-2.73-1.22-5.51-2.33-8.07-.83-1.9-1.91-3.79-3.82-4.77-2.22-1.14-5.01-.94-6.75.91-1.45 1.54-2.13 3.83-2.66 5.83-1.86 7.04-2.11 14.58-2.34 21.82-.3 9.5-.14 19.01.18 28.5.29 8.73.74 17.45 1.31 26.16.31 4.78.64 9.55 1.04 14.32l.06.67c.15 1.78 5.07 2.33 4.88.12l-.03.01zM186.78 370.77c-.28-3.22-.51-6.44-.73-9.66-.54-7.68-.99-15.37-1.33-23.06-.41-9.37-.68-18.74-.62-28.12.05-8.1.23-16.27 1.4-24.3.39-2.7.88-5.45 1.86-8.01.05-.13.34-.8.18-.46.11-.23.21-.46.33-.68.2-.37.42-.73.67-1.07.11-.15.24-.28.36-.43.2-.25-.27.13.15-.13.12-.07.26-.16.37-.25.27-.22-.39.21-.17.08.07-.04.16-.07.24-.09.31-.09-.62.09-.04.03-.08 0-.74.01-.34.03.4.02-.75-.11-.36-.04.49.09-.72-.24-.21-.05-.16-.06-.55-.3-.08 0-.61-.38-.2-.19-.02.02.05.06.13.12.19.17.17.13-.31-.4-.07-.07s.5.63.71.97c.12.19.23.39.34.59.06.1.11.21.17.32-.02-.03-.1-.23.05.1.22.5.44 1 .63 1.52.46 1.24.83 2.51 1.16 3.79 1.87 7.27 2.62 14.85 3.27 22.31.8 9.12 1.23 18.27 1.52 27.42.26 8.19.39 16.38.43 24.57.02 4.45.02 8.9-.04 13.36v.63c-.03 2.02 4.89 2.73 4.92.9.05-3.24.06-6.49.06-9.73 0-7.79-.09-15.57-.28-23.36-.24-9.51-.62-19.01-1.31-28.5-.59-8.12-1.31-16.31-2.95-24.3-.56-2.73-1.22-5.51-2.33-8.07-.83-1.9-1.91-3.79-3.82-4.77-2.22-1.14-5.01-.94-6.75.91-1.45 1.54-2.13 3.83-2.66 5.83-1.86 7.04-2.11 14.58-2.34 21.82-.3 9.5-.14 19.01.18 28.5.29 8.73.74 17.45 1.31 26.16.31 4.78.64 9.55 1.04 14.32l.06.67c.15 1.78 5.07 2.33 4.88.12l-.03.01zM323.95 458.38c-.34-4.06-.42-8.24-.34-12.6.07-3.63.28-7.27.79-10.87.44-3.14 1.06-6.47 2.42-9.33.55-1.16 1.24-2.3 2.17-3.19-.19.19.27-.23.37-.3.23-.18.48-.33.73-.48.42-.24-.36.14.08-.04.11-.05.23-.08.34-.13.11-.05.23-.07.35-.11-.59.18.06.01.18-.02.15-.04.66-.02-.01-.02.12 0 .25-.02.37 0 .19.03.52.12-.16-.03.14.03.29.03.42.07.5.15-.61-.1-.1-.02.1.02.24.07.33.12-.46-.24.08.05.39.23-.53-.31.18.14.31.25.21.18.42.37.61.57-.28-.29.31.38.4.5.21.27.4.55.59.83 1.63 2.5 2.55 5.58 3.26 8.56.85 3.52 1.37 7.11 1.75 10.7.52 4.9.81 9.86.75 14.78-.02 2.02 4.9 2.73 4.92.9.05-4.57-.19-9.18-.61-13.73-.64-7.05-1.52-14.84-5.11-21.09-1.56-2.72-3.98-4.86-7.13-5.44-3.15-.58-6.15.43-8.18 2.84-2.03 2.41-3.02 5.77-3.69 8.81-.83 3.76-1.18 7.62-1.37 11.46-.26 5.53-.2 11.12.27 16.63.15 1.78 5.06 2.33 4.88.12l.02.03z"/><path d="M345.68 458.38c-.34-4.06-.42-8.24-.34-12.6.07-3.63.28-7.27.79-10.87.44-3.14 1.06-6.47 2.42-9.33.55-1.16 1.24-2.3 2.17-3.19-.19.19.27-.23.37-.3.23-.18.48-.33.73-.48.42-.24-.36.14.08-.04.11-.05.23-.08.34-.13.11-.05.23-.07.35-.11-.59.18.06.01.18-.02.15-.04.66-.02-.01-.02.12 0 .25-.02.37 0 .19.03.52.12-.16-.03.14.03.29.03.42.07.5.15-.61-.1-.1-.02.1.02.24.07.33.12-.46-.24.08.05.39.23-.53-.31.18.14.31.25.21.18.42.37.61.57-.28-.29.31.38.4.5.21.27.4.55.59.83 1.63 2.5 2.55 5.58 3.26 8.56.85 3.52 1.37 7.11 1.75 10.7.52 4.9.81 9.86.75 14.78-.02 2.02 4.9 2.73 4.92.9.05-4.57-.19-9.18-.61-13.73-.64-7.05-1.52-14.84-5.11-21.09-1.56-2.72-3.98-4.86-7.13-5.44-3.15-.58-6.15.43-8.18 2.84-2.03 2.41-3.02 5.77-3.69 8.81-.83 3.76-1.18 7.62-1.37 11.46-.26 5.53-.2 11.12.27 16.63.15 1.78 5.06 2.33 4.88.12l.02.03z"/><path d="M367.71 458.38c-.34-4.06-.42-8.24-.34-12.6.07-3.63.28-7.27.79-10.87.44-3.14 1.06-6.47 2.42-9.33.55-1.16 1.24-2.3 2.17-3.19-.19.19.27-.23.37-.3.23-.18.48-.33.73-.48.42-.24-.36.14.08-.04.11-.05.23-.08.34-.13.11-.05.23-.07.35-.11-.59.18.06.01.18-.02.15-.04.66-.02-.01-.02.12 0 .25-.02.37 0 .19.03.52.12-.16-.03.14.03.29.03.42.07.5.15-.61-.1-.1-.02.1.02.24.07.33.12-.46-.24.08.05.39.23-.53-.31.18.14.31.25.21.18.42.37.61.57-.28-.29.31.38.4.5.21.27.4.55.59.83 1.63 2.5 2.55 5.58 3.26 8.56.85 3.52 1.37 7.11 1.75 10.7.52 4.9.81 9.86.75 14.78-.02 2.02 4.9 2.73 4.92.9.05-4.57-.19-9.18-.61-13.73-.64-7.05-1.52-14.84-5.11-21.09-1.56-2.72-3.98-4.86-7.13-5.44-3.15-.58-6.15.43-8.18 2.84-2.03 2.41-3.02 5.77-3.69 8.81-.83 3.76-1.18 7.62-1.37 11.46-.26 5.53-.2 11.12.27 16.63.15 1.78 5.06 2.33 4.88.12l.02.03z"/><path d="M389.44 458.38c-.34-4.06-.42-8.24-.34-12.6.07-3.63.28-7.27.79-10.87.44-3.14 1.06-6.47 2.42-9.33.55-1.16 1.24-2.3 2.17-3.19-.19.19.27-.23.37-.3.23-.18.48-.33.73-.48.42-.24-.36.14.08-.04.11-.05.23-.08.34-.13.11-.05.23-.07.35-.11-.59.18.06.01.18-.02.15-.04.66-.02-.01-.02.12 0 .25-.02.37 0 .19.03.52.12-.16-.03.14.03.29.03.42.07.5.15-.61-.1-.1-.02.1.02.24.07.33.12-.46-.24.08.05.39.23-.53-.31.18.14.31.25.21.18.42.37.61.57-.28-.29.31.38.4.5.21.27.4.55.59.83 1.63 2.5 2.55 5.58 3.26 8.56.85 3.52 1.37 7.11 1.75 10.7.52 4.9.81 9.86.75 14.78-.02 2.02 4.9 2.73 4.92.9.05-4.57-.19-9.18-.61-13.73-.64-7.05-1.52-14.84-5.11-21.09-1.56-2.72-3.98-4.86-7.13-5.44-3.15-.58-6.15.43-8.18 2.84-2.03 2.41-3.02 5.77-3.69 8.81-.83 3.76-1.18 7.62-1.37 11.46-.26 5.53-.2 11.12.27 16.63.15 1.78 5.06 2.33 4.88.12l.02.03z"/><path d="M304.42 453.75V350.44c0-1.4.1-2.85 0-4.24v-.18l-1.92 2.88h117.01c1.53 0 3.25.22 4.77 0h.21l-1.05-2.05V441.3c0 4.37-.08 8.74 0 13.11v.18c0 .84.32 2.25 1.45 2.03 1.13-.22 1.52-1.97 1.52-2.85V359.32c0-4.37.08-8.74 0-13.11v-.18c0-.56-.2-2.05-1.05-2.05H318.4c-4.94 0-9.88-.08-14.82 0h-.21c-1.35 0-1.92 1.77-1.92 2.88V441.31c0 8.95-.08 8.74 0 13.11v.18c0 .84.32 2.25 1.45 2.03 1.13-.22 1.52-1.97 1.52-2.85v-.03zM304.78 310.33c-18.7.04-37.41.04-56.11.05h-15.89c-.99 0-3.2.67-3.2 2.02 0 25.34 0 50.69.15 76.03.04 7.18.1 14.36.17 21.53.02 2.26 4.84 1.12 4.82-.79-.25-25.27-.31-50.53-.32-75.8v-21.76l-3.2 2.02c18.7 0 37.41 0 56.11-.02 5.3 0 10.59-.01 15.89-.02 1.08 0 2.61-.51 3.07-1.6.46-1.09-.55-1.65-1.5-1.65l.01-.01zM486.81 408.36c-.16-25.27-.19-50.53-.2-75.8V310.8c0-.54-.29-1.13-.89-1.13-20.71 0-41.42 0-62.13-.05-1.74 0-3.41 4.66-1.42 4.66 20.71.04 41.42.05 62.13.05l-.89-1.13c0 25.34 0 50.69.1 76.03.03 7.18.06 14.36.11 21.53 0 1.06.9 1.35 1.7.8.96-.67 1.51-2.06 1.51-3.2h-.02zM314.47 334.19c.02-5.19 1.87-10.55 3.97-15.43 2.66-6.19 6.08-12.03 9.81-17.64 3.85-5.8 8.08-11.35 12.65-16.61 3.8-4.38 7.88-8.69 12.36-12.31 1.68-1.36 3.44-2.66 5.34-3.69.37-.2.75-.4 1.14-.58.19-.09.38-.17.57-.25.45-.19-.14.03.22-.09.32-.1.64-.2.97-.27.14-.03.29-.05.43-.08.48-.1 0-.03.09-.02.24.02.49.05.73.05-.68 0 .05.02.4.12.23.07 1.25.48.47.14.37.16.73.32 1.09.5.79.39 1.56.83 2.32 1.29l.66.42c.3.19-.41-.27-.11-.07.13.08.26.17.38.25.48.32.96.65 1.43.99 4.47 3.19 8.9 7.13 12.55 10.69 4.89 4.77 9.5 9.84 13.79 15.17 4.26 5.3 8.15 10.8 11.45 16.78 1.49 2.7 2.77 5.32 3.84 8.12.93 2.44 1.77 5.28 2.11 7.61.17 1.18.26 2.37.27 3.56.01 2.14 4.47 4.08 4.46 1.32-.03-5.85-2.07-11.53-4.51-16.77-2.98-6.39-6.89-12.32-11.09-17.97-8.03-10.79-17.49-20.96-28.11-29.25-3.34-2.61-7.07-5.48-11.2-6.7-3.47-1.03-6.74.64-9.59 2.54-4.64 3.09-8.72 7.09-12.54 11.13-4.83 5.12-9.27 10.61-13.36 16.33-4.09 5.72-8.04 12.02-11.26 18.49-2.66 5.33-5.04 11.03-5.87 16.97-.18 1.3-.3 2.6-.31 3.92 0 2.14 4.45 4.09 4.46 1.32l-.01.02zM414.43 297.5c.02-3.52 1.27-7.19 2.62-10.46 1.73-4.2 3.97-8.18 6.4-12.01 4.61-7.24 10.03-14.4 16.58-20 1.04-.89 2.11-1.72 3.29-2.41.45-.27.92-.51 1.41-.71.23-.09.46-.17.69-.24-.45.13.19 0 .32-.04.57-.13-.24-.08.13-.02.21.04.8.25.12 0 .17.06.35.12.52.18.11.04.22.1.34.14.59.23-.33-.19.04.02.49.27.98.54 1.46.84.29.19.58.38.87.58-.58-.39.36.26.53.39 1.4 1.03 2.73 2.14 4.03 3.29 1.65 1.46 2.6 2.38 4.16 3.96 3.25 3.3 6.3 6.79 9.13 10.45 2.98 3.86 5.78 8.02 7.96 12.42 1.86 3.76 3.41 7.79 3.43 12.02.01 1.78 4.27 4.13 4.26 1.61-.03-4.06-1.41-8.08-3.09-11.72-2.02-4.39-4.59-8.53-7.41-12.44-5.44-7.53-11.77-14.68-19.02-20.52-2.26-1.82-4.8-3.82-7.62-4.71-2.47-.78-4.63.2-6.66 1.6-3.09 2.14-5.79 4.84-8.31 7.62-3.21 3.53-6.15 7.31-8.85 11.24-3.11 4.52-5.92 9.26-8.18 14.26-1.85 4.11-3.39 8.52-3.42 13.08-.01 1.78 4.24 4.13 4.26 1.61l.01-.03zM240.33 303.78c.02-3.63 1.16-7.17 2.53-10.5 1.74-4.23 3.97-8.25 6.41-12.1 4.58-7.24 9.97-14.39 16.51-19.98 1.82-1.56 3.89-3.17 5.99-3.59.1-.02.2-.01.29-.02.34-.03-.38-.05-.07 0 .18.03.36.07.54.1.07.01.13.04.2.05.37.09-.41-.16-.04-.01a12.046 12.046 0 0 1 1.42.67c.13.07.94.56.47.27.61.38 1.2.78 1.78 1.2 6.34 4.59 12.15 10.94 17.04 17.24 3.17 4.08 5.88 8.05 8.17 12.58 1.78 3.53 3.4 7.53 3.42 11.41 0 1.19.65 2.35 1.62 3.05.56.41 2.03.85 2.02-.36-.06-9.05-5.42-17.72-10.51-24.85-5.42-7.61-11.82-14.77-19.06-20.7-2.25-1.84-4.76-3.83-7.57-4.72-2.19-.69-4.25.41-6.04 1.63-3.05 2.07-5.68 4.76-8.15 7.48-3.22 3.55-6.19 7.33-8.92 11.27-3.1 4.48-5.94 9.19-8.18 14.16-1.83 4.06-3.48 8.54-3.51 13.05 0 1.19.66 2.35 1.62 3.05.57.42 2.01.84 2.02-.36v-.02zM308.55 154.9c.06-14.85 8.88-28.56 17.91-39.7 8.27-10.2 17.88-19.53 28.29-27.55 1.42-1.09 2.86-2.17 4.35-3.17.44-.29.88-.58 1.33-.84.15-.08.31-.15.45-.24.28-.19.19 0-.09 0-.12 0-.48-.19-.18-.01.11.07.28.11.4.16.4.15.39.19.14.06.25.13.5.25.74.38 1.41.74 2.77 1.57 4.12 2.41a135.038 135.038 0 0 1 27.57 22.84c9.82 10.61 18.13 23.39 19.94 37.95.23 1.82.36 3.65.36 5.49 0 1.18.51 2.53 1.57 3.17.85.51 1.9.19 1.9-.94-.05-16.28-7.68-31.3-17.84-43.64-8.59-10.43-18.94-19.49-30.16-27.01-2.8-1.87-5.7-3.85-8.8-5.19-.74-.32-1.33-.38-2.08-.03-1.11.53-2.13 1.33-3.13 2.04-10.22 7.32-19.58 16.17-27.87 25.59-10.12 11.5-19.87 25.34-22.02 40.87-.24 1.7-.36 3.42-.36 5.14 0 1.18.52 2.53 1.57 3.17.85.51 1.89.19 1.9-.94l-.01-.01zM356.36 45.07v23.17c0 1.58 4.76 2.52 4.76 1.52V46.59c0-1.58-4.76-2.52-4.76-1.52z"/><path d="M94.29 211.98h217.29c.95 0 2 .13 2.94 0 .12-.02.25 0 .37 0l-.56-.47v64.25c0 1.24 4.41-.64 4.41-2.01v-64.24c0-.33-.25-.47-.56-.47H106.57c-2.87 0-5.75-.05-8.62 0h-.37c-1.12 0-2.32.71-3.12 1.44-.38.34-1.29 1.51-.16 1.51l-.01-.01zM287.89 164.57h141.19c.59 0 1.37.14 1.94 0 .07-.02.17 0 .25 0l-.56-.47v84.59c0 1.24 4.41-.64 4.41-2.01v-84.59c0-.33-.25-.47-.56-.47H308.88c-5.81 0-11.63-.14-17.44 0h-.25c-1.12 0-2.32.71-3.12 1.44-.38.34-1.29 1.51-.16 1.51h-.02zM24.17 167.33c.01 1.9.03 3.79.04 5.69l.11 15.4c.05 7.62.11 15.24.16 22.86.07 9.26.13 18.52.2 27.78.07 10.18.14 20.37.22 30.55.08 10.18.15 20.48.22 30.72.07 9.59.14 19.17.2 28.76.06 8.07.11 16.14.17 24.21l.12 17.48c.02 2.74-.07 5.51.06 8.25v.36c0 1.16 1.35.72 1.92.3.91-.68 1.68-1.85 1.67-3.02-.01-1.9-.03-3.79-.04-5.69l-.11-15.4c-.05-7.62-.11-15.24-.16-22.86-.07-9.26-.13-18.52-.2-27.78-.07-10.18-.14-20.37-.22-30.55-.08-10.18-.15-20.48-.22-30.72-.07-9.59-.14-19.17-.2-28.76-.06-8.07-.11-16.14-.17-24.21l-.12-17.48c-.02-2.74.07-5.51-.06-8.25v-.36c0-1.16-1.35-.72-1.92-.3-.91.68-1.68 1.85-1.67 3.02zM16.67 154.61c4.34-5.17 8.69-10.33 13.03-15.5l20.76-24.69 4.75-5.65-4.13 1.26 11.5 14.71 18.33 23.46c1.4 1.8 2.81 3.59 4.21 5.39.92 1.17 5.16-1.32 4.51-2.16l-11.5-14.71-18.33-23.46c-1.4-1.8-2.81-3.59-4.21-5.39-.81-1.03-3.52.54-4.13 1.26-4.34 5.17-8.69 10.33-13.03 15.5l-20.76 24.69-4.75 5.65c-.59.7-.41 1.22.56 1.17 1.04-.06 2.51-.72 3.19-1.53zM78.81 166.71V370.1c0 2.75-.04 5.5 0 8.25v.36c0 1.08.82 1.69 1.84 1.26 1.02-.43 2-1.76 2-2.92V173.67c0-2.75.04-5.5 0-8.25v-.36c0-1.08-.82-1.69-1.84-1.26-1.02.43-2 1.76-2 2.92v-.01zM358.29 81.58c-10.78 16.75-14.71 37.21-16.29 56.78-.44 5.45-.67 10.91-.74 16.37-.01 1.07.81 1.56 1.76 1.11 1.03-.49 1.87-1.86 1.89-2.99.24-18.86 2.11-38.36 9.01-56.06 1.86-4.76 4.1-9.34 6.86-13.63.47-.73 1.02-2.28.09-2.9-.93-.62-2.15.65-2.58 1.33v-.01z"/><path d="M359.17 83.7c1.61 4.69 4.18 8.97 6.24 13.46 2.06 4.49 3.71 8.78 5.2 13.31 3 9.11 5.07 18.51 6.25 28.02.68 5.43 1.07 10.88 1.23 16.35.02.83.61 1.79 1.47 1.18.94-.65 1.07-2.28 1.05-3.29-.56-19.49-4.31-38.94-12.02-56.9-1.08-2.51-2.24-4.99-3.47-7.43-1.31-2.58-2.68-5.14-3.62-7.88-.32-.94-1.06-1.11-1.69-.31-.63.8-.99 2.45-.64 3.48v.01z"/></g><defs><clipPath id="a"><path fill="#fff" d="M0 0h500v500H0z"/></clipPath></defs></svg>