<svg width="75" height="76" fill="none" xmlns="http://www.w3.org/2000/svg"><g clip-path="url(#a)" fill="#1D1D1B"><path d="M48.15 9.51c.56.08 1.15.06 1.72.07.99.01 1.98.01 2.98 0s1.99-.03 2.99-.07c.57-.02 1.19 0 1.75-.14s1.06-.54 1.41-.98c.14-.18.52-.86-.03-.73s-1.15.12-1.71.14c-.94.04-1.87.06-2.81.07-.94.01-1.91.01-2.87 0-.57 0-1.15 0-1.72-.07-.49-.07-1.05.44-1.37.76-.1.1-.78.9-.33.96l-.01-.01zM45.86 66.89V51.38l-.96 1.44h17.56l-.53-1.02v15.51c0 .42.16 1.13.72 1.01.56-.12.76-.99.76-1.43V51.38c0-.28-.1-1.02-.53-1.02H45.32c-.67 0-.96.89-.96 1.44v15.51c0 .42.16 1.13.72 1.01.56-.12.76-.99.76-1.43h.02zM45.67 45.81H35.3c-.49 0-1.6.34-1.6 1.01 0 4.68 0 9.37.05 14.05.01 1.13 2.42.56 2.41-.39-.05-4.68-.05-9.36-.05-14.05l-1.6 1.01h10.37c.54 0 1.31-.26 1.54-.8.23-.54-.28-.83-.75-.82v-.01zM72.17 60.08c-.03-4.68-.03-9.36-.03-14.05 0-.27-.14-.57-.45-.57h-8.95c-.87 0-1.7 2.33-.71 2.33h8.95l-.45-.57c0 4.68 0 9.37.03 14.05 0 .54.45.67.85.4.48-.33.76-1.04.75-1.6l.01.01z"/><path d="M47.58 50.06c.03-1.55 1.02-3.13 1.85-4.38.95-1.44 2.07-2.88 3.38-4.01.22-.19.46-.37.7-.52.11-.07.22-.13.33-.18.06-.03.08-.1.16-.05-.04-.02-.3-.03-.21-.01.16.03-.23-.13.02 0 .11.06.22.12.32.18.12.07-.05-.03-.06-.04.1.06.19.13.29.2 1.35.97 2.49 2.18 3.53 3.48 1.04 1.3 2.3 2.95 2.33 4.69.02 1.07 2.26 2.04 2.23.66-.04-2.04-1.3-3.94-2.47-5.52-1.17-1.58-2.68-3.21-4.31-4.46-1.12-.86-2.37-1.64-3.74-.82-1.57.95-2.85 2.57-3.92 4.04-1.26 1.73-2.64 3.88-2.68 6.09-.02 1.07 2.2 2.04 2.23.66l.02-.01z"/><path d="M61.93 44.83c0 .12.01-.14.02-.2.02-.12.04-.24.07-.35.07-.28.16-.54.27-.81.23-.56.53-1.09.86-1.6.64-1 1.38-1.98 2.27-2.78.19-.17.24-.22.39-.31.06-.04.12-.08.19-.11.14-.07.25-.03.07-.05.15.02-.27-.03-.06 0 0 0-.3-.09-.15-.03s-.17-.04-.14-.07l.18.1c.31.18-.1-.09.05.03.18.15.37.29.54.44.1.09.2.18.29.27-.22-.2.12.12.17.18.45.46.87.94 1.26 1.44-.1-.13.17.24.21.28.1.14.2.29.3.44.1.15.19.29.27.44.03.05.23.41.17.29.15.29.27.59.37.9.04.13.09.39.09.68.02.89 2.15 2.06 2.13.81-.02-1.38-.86-2.74-1.64-3.82-.88-1.21-1.89-2.37-3.06-3.31-.78-.63-1.85-1.37-2.84-.75-1.09.68-1.95 1.81-2.67 2.85-.85 1.23-1.73 2.69-1.75 4.23-.02.89 2.11 2.07 2.13.81h.01zM36.76 45.92c.02-1.08.63-2.13 1.2-3.04.62-.99 1.34-1.95 2.22-2.74.16-.14.32-.28.49-.39.06-.04.13-.08.19-.12.03-.02.07-.04.1-.05-.21.09 0-.01.01 0 0 0 .09-.02.08-.01-.01 0-.2-.03-.1 0 .18.05-.12-.09-.02-.01.04.03.12.07.17.09.12.05-.18-.13-.07-.04.05.04.1.07.15.1.18.13.35.27.52.41-.23-.19.09.08.13.12.11.11.23.21.34.32.21.21.42.42.62.65.09.1.18.2.27.31-.15-.17-.01-.02.01.02.08.09.15.18.22.28.22.28.43.57.63.87.04.06.09.13.13.2.13.2-.03-.06.04.06.09.15.17.29.25.44.08.16.16.32.24.49-.1-.22.06.18.08.24.02.05.03.09.04.14.09.29-.03-.19.02.09.01.07.05.43.05.27.01.6.32 1.17.81 1.53.28.2 1.02.43 1.01-.18-.03-1.55-.81-2.96-1.68-4.21-.87-1.25-1.91-2.41-3.08-3.38-.72-.6-1.57-1.24-2.49-.7-1.07.62-1.92 1.81-2.62 2.8-.82 1.17-1.75 2.66-1.78 4.14-.01.59.33 1.18.81 1.53.29.21 1 .42 1.01-.18v-.05zM46.55 24.4c.03-2 1.18-3.8 2.4-5.32 1.13-1.41 2.45-2.71 3.87-3.84.12-.09 1.03-.61 1.05-.74.02-.12-.49.04-.31.02.14-.02-.13-.07-.04-.02.19.1.37.21.55.32 1.32.81 2.54 1.81 3.62 2.92 1.44 1.49 2.76 3.39 2.79 5.54 0 .59.25 1.27.79 1.58.42.25.96.1.95-.47-.07-4.78-3.64-8.71-7.41-11.26-.45-.31-.94-.66-1.46-.85-.41-.15-.65 0-.98.22-1.51 1.04-2.89 2.35-4.11 3.72-1.73 1.94-3.4 4.37-3.44 7.06 0 .58.26 1.27.79 1.58.43.26.94.09.95-.47l-.01.01z"/><path d="M51.97 5.22v6.04c0 .79 2.38 1.26 2.38.76V5.98c0-.79-2.38-1.26-2.38-.76zM14.5 32.75h31.76l-.28-.23v9.25c0 .62 2.21-.32 2.21-1v-9.25c0-.17-.12-.23-.28-.23H16.14c-.54 0-1.18.34-1.56.72-.17.17-.66.75-.08.75v-.01zM42.37 25.92h20.64l-.28-.23v12.18c0 .62 2.21-.32 2.21-1V24.69c0-.17-.12-.23-.28-.23H44.02c-.55 0-1.17.35-1.56.72-.18.17-.65.75-.08.75l-.01-.01zM4.35 26.28c.06 8.92.13 17.83.19 26.75 0 1.26.02 2.52.03 3.79 0 .59.68.35.96.15.46-.32.84-.94.84-1.51-.06-8.92-.13-17.83-.19-26.75 0-1.26-.02-2.52-.03-3.79 0-.59-.68-.35-.96-.15-.46.32-.84.94-.84 1.51z"/><path d="m4.57 23.9 5.55-6.6-2.06.63c1.63 2.09 3.27 4.18 4.9 6.27.46.59 2.58-.66 2.25-1.08-1.63-2.09-3.27-4.18-4.9-6.27-.4-.52-1.76.27-2.06.63l-5.55 6.6c-.29.34-.21.62.28.58.52-.04 1.25-.35 1.59-.76z"/><path d="M12.17 26V56.53c0 1.5 1.92.19 1.92-.83V25.17c0-1.5-1.92-.19-1.92.83z"/></g><defs><clipPath id="a"><path fill="#fff" transform="translate(0 .5)" d="M0 0h75v75H0z"/></clipPath></defs></svg>