<svg width="75" height="76" fill="none" xmlns="http://www.w3.org/2000/svg"><g clip-path="url(#a)" fill="#1D1D1B"><path d="M67.79 62.84V39.67c0-.58-.37-1.18-.85-1.5-.3-.2-.99-.4-.99.2v23.17c0 .58.37 1.18.85 1.5.3.2.99.4.99-.2zM56.1 29.7v33.19c0 .63 1.98-.61 1.98-1.4V28.3c0-.63-1.98.61-1.98 1.4zM48.2 61.98V26.26c0-.71.17-1.83-.15-2.5-.56-1.2-1.59-2.33-2.33-3.42-2.56-3.77-5.13-7.53-7.69-11.3-.22-.32-.59-.28-.8.04-2.23 3.26-4.47 6.52-6.7 9.77-1.06 1.55-2.14 3.1-3.19 4.66-.5.74-.6 1.4-.6 2.24v36.64c0 1.67 1.35.81 1.35-.41V24.56l-.4 1.16L37.79 11l-.8.04c3.34 4.91 6.68 9.81 10.03 14.72l-.14-.79v37.42c0 1.67 1.35.81 1.35-.41h-.03zM9.15 61.53V38.36c0-.46-2.03.62-2.03 1.31v23.17c0 .46 2.03-.62 2.03-1.31zM17.07 29.24v33.19c0 .5.36 1.09.92.99.6-.12.76-.98.76-1.46v-33.2c0-.5-.36-1.09-.92-.99-.6.12-.76.98-.76 1.46v.01z"/><path d="M43.19 28.99c-.03 2.22-1.51 3.62-3.61 4.12-2.36.56-4.96-.24-6.54-2.08-1.29-1.5-1.83-3.98-.66-5.71 1.28-1.88 4.07-2.29 6.12-1.8 2.54.6 4.64 2.79 4.68 5.47 0 .55.58.3.85.1.4-.31.91-.92.9-1.47-.05-2.96-2.11-5.33-4.92-6.11-3.08-.86-6.32.45-8.28 2.89-1.86 2.31-2.41 5.55-.65 8.07 1.76 2.52 4.93 3.38 7.76 2.63 3.29-.87 6.03-4.03 6.08-7.48 0-.56-.6-.3-.85-.1-.41.32-.89.92-.9 1.47h.02zM33.17 61.71c0-1.69.12-3.39.29-5.08.28-2.78.67-5.8 1.99-8.3.22-.41.62-.98.82-1.19.19-.19-.03.02.11-.1.11-.09-.04.02-.01 0-.01 0-.11.02.01 0-.18.01.17-.02.22-.02.95-.02 1.8.68 2.36 1.45 1.62 2.24 2.1 5.34 2.44 8.02.26 2.04.42 4.1.42 6.16 0 .67 2.23-.25 2.23-.95 0-1.91-.14-3.83-.37-5.72-.34-2.89-.79-6.29-2.54-8.72-.67-.93-1.62-1.65-2.8-1.7-1.49-.06-2.96.78-3.95 1.84-2 2.15-2.56 5.55-2.96 8.35-.32 2.28-.51 4.59-.51 6.89 0 .67 2.23-.25 2.23-.95l.02.02zM10.51 31.23l-.23 7.89c0 .33.14 1.14.65.97.51-.17.62-1.03.63-1.47l.23-7.89c0-.33-.14-1.14-.65-.97-.51.17-.62 1.03-.63 1.47zM13.94 31.23l-.23 7.89c0 .33.14 1.14.65.97.51-.17.62-1.03.63-1.47l.23-7.89c0-.33-.14-1.14-.65-.97-.51.17-.62 1.03-.63 1.47zM59.71 31.23l-.23 7.89c0 .33.14 1.14.65.97.51-.17.62-1.03.63-1.47l.23-7.89c0-.33-.14-1.14-.65-.97-.51.17-.62 1.03-.63 1.47zM63.13 31.23l-.23 7.89c0 .33.14 1.14.65.97.51-.17.62-1.03.63-1.47l.23-7.89c0-.33-.14-1.14-.65-.97-.51.17-.62 1.03-.63 1.47zM19.91 20.46l-.23 7.89c0 .33.14 1.14.65.97.51-.17.62-1.03.63-1.47l.23-7.89c0-.33-.14-1.14-.65-.97-.51.17-.62 1.03-.63 1.47zM23.34 20.46l-.23 7.89c0 .33.14 1.14.65.97.51-.17.62-1.03.63-1.47l.23-7.89c0-.33-.14-1.14-.65-.97-.51.17-.62 1.03-.63 1.47zM49.81 20.46l-.23 7.89c0 .33.14 1.14.65.97.51-.17.62-1.03.63-1.47l.23-7.89c0-.33-.14-1.14-.65-.97-.51.17-.62 1.03-.63 1.47zM53.24 20.46l-.23 7.89c0 .33.14 1.14.65.97.51-.17.62-1.03.63-1.47l.23-7.89c0-.33-.14-1.14-.65-.97-.51.17-.62 1.03-.63 1.47z"/></g><defs><clipPath id="a"><path fill="#fff" transform="translate(0 .5)" d="M0 0h75v75H0z"/></clipPath></defs></svg>