<svg width="500" height="500" fill="none" xmlns="http://www.w3.org/2000/svg"><g clip-path="url(#a)" fill="#1E1E1C"><path d="M484.9 468.97V275.52c0-2.62.03-5.24 0-7.86v-.34c0-1.18-.75-2.34-1.71-3-.59-.41-1.99-.8-1.99.4v193.45c0 2.62-.03 5.24 0 7.86v.34c0 1.18.75 2.34 1.71 3 .59.41 1.99.8 1.99-.4zM403.48 180.26v277.08c0 3.72-.22 7.52 0 11.23v.49c0 1.04 1.87.02 2.18-.19.82-.58 1.79-1.53 1.79-2.61V189.19c0-3.72.22-7.52 0-11.23v-.49c0-1.04-1.87-.02-2.18.19-.82.58-1.79 1.53-1.79 2.61v-.01zM330.91 467.26V144.25c0-1.6.26-3.49-.72-4.8-2.65-3.52-5.68-6.81-8.51-10.19-12.73-15.25-25.46-30.49-38.2-45.74-10.34-12.38-20.68-24.77-31.02-37.15-.55-.66-1.1-1.32-1.66-1.98-.4-.48-1.09.07-1.35.38l-22.97 27.32c-13.52 16.08-27.05 32.16-40.57 48.25-4.55 5.41-9.1 10.83-13.66 16.24-1.56 1.86-3.64 3.62-3.73 6.2-.24 6.91 0 13.86 0 20.77v304.53c0 .75.11 2.23 1.21 2.02.99-.19 1.49-2.04 1.49-2.84V154.8c0-4.21.24-8.5 0-12.7-.01-.18 0-.36 0-.54l-.8 2.32c9.05-10.76 18.09-21.52 27.14-32.28 14.36-17.08 28.72-34.16 43.09-51.24 3.3-3.92 6.6-7.84 9.89-11.77l-1.35.38c8.98 10.75 17.95 21.5 26.93 32.24 14.29 17.11 28.58 34.22 42.87 51.34 3.26 3.9 6.52 7.8 9.77 11.7l-.54-1.89v312.46c0 4.23-.01 8.47 0 12.7v.54c0 .75.11 2.23 1.21 2.02.99-.19 1.49-2.04 1.49-2.84l-.01.02zM18.98 466.35V272.91c0-2.61.13-5.26 0-7.86v-.34c0-.9-1.73.12-1.99.29-.66.43-2.08 1.4-2.08 2.34V460.79c0 2.61-.13 5.26 0 7.86v.34c0 .9 1.73-.12 1.99-.29.66-.43 2.08-1.4 2.08-2.34v-.01zM92.86 179.33v277.08c0 3.74-.08 7.49 0 11.23v.49c0 .98.72 2.22 1.84 1.97 1.2-.27 1.52-1.93 1.52-2.92V190.1c0-3.74.08-7.49 0-11.23v-.49c0-.98-.72-2.22-1.84-1.97-1.2.27-1.52 1.93-1.52 2.92z"/><path d="M300.33 174.13c-.03 10.25-3.07 20.5-9.12 28.79-6.05 8.29-14.29 14.19-23.79 17.41-10.08 3.41-21.13 3.59-31.34.57s-18.83-8.97-25.37-16.96c-13.33-16.28-15.53-40.27-4.48-58.34 10.97-17.95 33.14-26.38 53.53-21.9s36.66 21.75 39.96 42.5c.42 2.62.6 5.28.61 7.93 0 1.11 1.18.6 1.71.19.81-.62 1.8-1.84 1.8-2.94-.04-11.19-3.51-22.07-10.05-31.15-6.54-9.08-15.22-15.36-25.37-18.94-10.61-3.75-22.41-3.94-33.16-.64-10.75 3.3-20.11 9.89-27.11 18.55s-11.47 19.53-12.36 30.73c-.89 11.2 1.8 22.56 7.71 32.1 5.66 9.13 14 16.46 23.86 20.74 9.86 4.28 21.82 5.56 32.77 3.15 22.05-4.85 39.57-23.92 43.04-46.15.43-2.78.66-5.58.67-8.39 0-1.11-1.18-.6-1.71-.19-.81.63-1.79 1.84-1.8 2.94zM226.64 466.72c0-7.77.58-15.57 1.46-23.29.76-6.71 1.82-13.4 3.45-19.95 1.49-5.99 3.43-12.04 6.7-17.31.71-1.14 1.3-1.97 2.19-3.03.19-.22.39-.44.59-.66.09-.09.68-.69.35-.37.22-.22.45-.43.68-.64.14-.13 1.01-.82.49-.42l.66-.48.27-.18c.45-.34-.52.27-.02 0 .23-.12.48-.25.7-.39.48-.29-.55.21-.02.01.15-.05.29-.13.44-.19.15-.06.3-.12.44-.17-.06.02-.51.17-.12.05.25-.08.51-.15.77-.23.08-.02.61-.13.11-.03.16-.03.32-.07.48-.09.32-.05.65-.09.97-.12.77-.07 2.19 0 3.26.2 1.07.2 2.2.61 3.21 1.12 2.18 1.09 4 2.71 5.54 4.57 3.79 4.58 6.08 10.33 7.82 15.95 1.99 6.45 3.28 13.11 4.22 19.79 1.27 9.06 1.81 18.16 2.07 27.3v.45c0 1.34 4.46-.5 4.46-1.89 0-8.05-.63-16.14-1.6-24.12-.84-6.89-1.99-13.77-3.78-20.48-1.63-6.08-3.76-12.26-7.36-17.48-2.91-4.22-7.01-7.69-12.25-8.27-5.93-.66-11.6 2.39-15.53 6.65-3.93 4.26-6.54 10.3-8.4 15.99-2.16 6.62-3.5 13.49-4.5 20.37-1.37 9.45-2.31 19.17-2.22 28.73v.49c0 1.34 4.46-.5 4.46-1.89l.01.01zM206.29 344.38c0-4.81.34-9.63.84-14.41.44-4.19 1.05-8.37 1.99-12.47.86-3.78 1.97-7.6 3.9-10.99.39-.68.8-1.33 1.17-1.8.23-.3.48-.58.72-.86.06-.06.11-.12.17-.19.21-.22-.24.23-.02.02l.42-.39c.34-.32.08-.08.08-.08.13-.09.26-.18.38-.27.11-.08-.49.22-.04.03.57-.25.05-.06.08-.05.02 0 .61-.23.21-.09-.36.13.21-.06.3-.08.38-.09-.31.04.08-.01.21-.03.41-.06.62-.08.3-.03-.11 0 .2 0 .19 0 .38 0 .57.02.34.02.69.07 1.02.14.52.12 1.23.41 1.78.71 1.3.71 2.35 1.75 3.24 2.92 2.24 2.94 3.56 6.54 4.57 10.06 1.17 4.05 1.92 8.21 2.47 12.38.75 5.69.97 11.37 1.22 17.09v.3c0 1.34 4.46-.5 4.46-1.89 0-5.15-.38-10.33-.98-15.45-.51-4.39-1.21-8.77-2.31-13.06-.97-3.79-2.24-7.67-4.42-10.96-1.77-2.65-4.29-4.85-7.57-5.16-3.93-.37-7.78 1.85-10.34 4.69-2.56 2.84-4.07 6.6-5.2 10.23-1.31 4.17-2.12 8.5-2.72 12.83-.84 6.04-1.52 12.34-1.37 18.45v.32c0 1.34 4.46-.5 4.46-1.89l.02-.01z"/><path d="M236.73 344.38c0-4.81.34-9.63.84-14.41.44-4.19 1.05-8.37 1.99-12.47.86-3.78 1.97-7.6 3.9-10.99.39-.68.8-1.33 1.17-1.8.23-.3.48-.58.72-.86.06-.06.11-.12.17-.19.21-.22-.24.23-.02.02l.42-.39c.34-.32.08-.08.08-.08.13-.09.26-.18.38-.27.11-.08-.49.22-.04.03.57-.25.05-.06.08-.05.02 0 .61-.23.21-.09-.36.13.21-.06.3-.08.38-.09-.31.04.08-.01.21-.03.41-.06.62-.08.3-.03-.11 0 .2 0 .19 0 .38 0 .57.02.34.02.69.07 1.02.14.52.12 1.23.41 1.78.71 1.3.71 2.35 1.75 3.24 2.92 2.24 2.94 3.56 6.54 4.57 10.06 1.17 4.05 1.92 8.21 2.47 12.38.75 5.69.97 11.37 1.22 17.09v.3c0 1.34 4.46-.5 4.46-1.89 0-5.15-.38-10.33-.98-15.45-.51-4.39-1.21-8.77-2.31-13.06-.97-3.79-2.24-7.67-4.42-10.96-1.77-2.65-4.29-4.85-7.57-5.16-3.93-.37-7.78 1.85-10.34 4.69-2.56 2.84-4.07 6.6-5.2 10.23-1.31 4.17-2.12 8.5-2.72 12.83-.84 6.04-1.52 12.34-1.37 18.45v.32c0 1.34 4.46-.5 4.46-1.89l.02-.01z"/><path d="M267.17 344.38c0-4.81.34-9.63.84-14.41.44-4.19 1.05-8.37 1.99-12.47.86-3.78 1.97-7.6 3.9-10.99.39-.68.8-1.33 1.17-1.8.23-.3.48-.58.72-.86.06-.06.11-.12.17-.19.21-.22-.24.23-.02.02l.42-.39c.34-.32.08-.08.08-.08.13-.09.26-.18.38-.27.11-.08-.49.22-.04.03.57-.25.05-.06.08-.05.02 0 .61-.23.21-.09-.36.13.21-.06.3-.08.38-.09-.31.04.08-.01.21-.03.41-.06.62-.08.3-.03-.11 0 .2 0 .19 0 .38 0 .57.02.34.02.69.07 1.02.14.52.12 1.23.41 1.78.71 1.3.71 2.35 1.75 3.24 2.92 2.24 2.94 3.56 6.54 4.57 10.06 1.17 4.05 1.92 8.21 2.47 12.38.75 5.69.97 11.37 1.22 17.09v.3c0 1.34 4.46-.5 4.46-1.89 0-5.15-.38-10.33-.98-15.45-.51-4.39-1.21-8.77-2.31-13.06-.97-3.79-2.24-7.67-4.42-10.96-1.77-2.65-4.29-4.85-7.57-5.16-3.93-.37-7.78 1.85-10.34 4.69-2.56 2.84-4.07 6.6-5.2 10.23-1.31 4.17-2.12 8.5-2.72 12.83-.84 6.04-1.52 12.34-1.37 18.45v.32c0 1.34 4.46-.5 4.46-1.89l.02-.01zM73.33 264.56c0 4.79-.25 9.59-.62 14.36-.33 4.18-.78 8.37-1.49 12.5-.63 3.67-1.39 7.41-2.84 10.85-.31.74-.65 1.46-1.04 2.15-.42.74-.54.93-.97 1.45-.09.11-.19.21-.28.32-.27.31.06-.06-.01.02-.11.11-.23.2-.35.31.28-.26.29-.21.01-.03-.14.09.56-.33.14-.1-.15.08.59-.29.16-.09-.04.02.46-.26.06-.03.29-.16.3-.02-.01-.01-.34 0 .05.01-.05.01-.15 0-.29 0-.44-.01-.35-.03-.41-.05-.58-.1-.52-.16-1.01-.41-1.45-.73-1.03-.73-1.78-1.84-2.41-2.92-1.76-3.05-2.68-6.59-3.43-10-.89-4.11-1.45-8.29-1.86-12.47-.56-5.7-.67-11.39-.91-17.1v-.29c0-1.34-4.46.5-4.46 1.89 0 5.17.29 10.36.74 15.51.38 4.36.91 8.72 1.74 13.03.72 3.74 1.62 7.58 3.35 11.01 1.19 2.35 3.01 4.77 5.82 5.08 3.53.39 6.92-2.22 8.79-4.98 1.99-2.94 2.99-6.55 3.8-9.97.99-4.23 1.59-8.55 2.04-12.87.63-6.05 1.19-12.29 1.02-18.39v-.31c0-1.34-4.46.5-4.46 1.89l-.01.02z"/><path d="M50.5 264.56c0 4.79-.25 9.59-.62 14.36-.33 4.18-.78 8.37-1.49 12.5-.63 3.67-1.39 7.41-2.84 10.85-.31.74-.65 1.46-1.04 2.15-.42.74-.54.93-.97 1.45-.09.11-.19.21-.28.32-.27.31.06-.06-.01.02-.11.11-.23.2-.35.31.28-.26.29-.21.01-.03-.14.09.56-.33.14-.1-.15.08.59-.29.16-.09-.04.02.46-.26.06-.03.29-.16.3-.02-.01-.01-.34 0 .05.01-.05.01-.15 0-.29 0-.44-.01-.35-.03-.41-.05-.58-.1-.52-.16-1.01-.41-1.45-.73-1.03-.73-1.78-1.84-2.41-2.92-1.76-3.05-2.68-6.59-3.43-10-.89-4.11-1.45-8.29-1.86-12.47-.56-5.7-.67-11.39-.91-17.1v-.29c0-1.34-4.46.5-4.46 1.89 0 5.17.29 10.36.74 15.51.38 4.36.91 8.72 1.74 13.03.72 3.74 1.62 7.58 3.35 11.01 1.19 2.35 3.01 4.77 5.82 5.08 3.53.39 6.92-2.22 8.79-4.98 1.99-2.94 2.99-6.55 3.8-9.97.99-4.23 1.59-8.55 2.04-12.87.63-6.05 1.19-12.29 1.02-18.39v-.31c0-1.34-4.46.5-4.46 1.89l-.01.02zM151.82 179.8c0 4.79-.25 9.59-.62 14.36-.33 4.18-.78 8.37-1.49 12.5-.63 3.67-1.39 7.41-2.84 10.85-.31.74-.65 1.46-1.04 2.15-.42.74-.54.93-.97 1.45-.09.11-.19.21-.28.32-.27.31.06-.06-.01.02-.11.11-.23.2-.35.31.28-.26.29-.21.01-.03-.14.09.56-.33.14-.1-.15.08.59-.29.16-.09-.04.02.46-.26.06-.03.29-.16.3-.02-.01-.01-.34 0 .05.01-.05.01-.15 0-.29 0-.44-.01-.35-.03-.41-.05-.58-.1-.52-.16-1.01-.41-1.45-.73-1.03-.73-1.78-1.84-2.41-2.92-1.76-3.05-2.68-6.59-3.43-10-.89-4.11-1.45-8.29-1.86-12.47-.56-5.7-.67-11.39-.91-17.1v-.29c0-1.34-4.46.5-4.46 1.89 0 5.17.29 10.36.74 15.51.38 4.36.91 8.72 1.74 13.03.72 3.74 1.62 7.58 3.35 11.01 1.19 2.35 3.01 4.77 5.82 5.08 3.53.39 6.92-2.22 8.79-4.98 1.99-2.94 2.99-6.55 3.8-9.97.99-4.23 1.59-8.55 2.04-12.87.63-6.05 1.19-12.29 1.02-18.39v-.31c0-1.34-4.46.5-4.46 1.89l-.01.02z"/><path d="M128.98 179.8c0 4.79-.25 9.59-.62 14.36-.33 4.18-.78 8.37-1.49 12.5-.63 3.67-1.39 7.41-2.84 10.85-.31.74-.65 1.46-1.04 2.15-.42.74-.54.93-.97 1.45-.09.11-.19.21-.28.32-.27.31.06-.06-.01.02-.11.11-.23.2-.35.31.28-.26.29-.21.01-.03-.14.09.56-.33.14-.1-.15.08.59-.29.16-.09-.04.02.46-.26.06-.03.29-.16.3-.02-.01-.01-.34 0 .05.01-.05.01-.15 0-.29 0-.44-.01-.35-.03-.41-.05-.58-.1-.52-.16-1.01-.41-1.45-.73-1.03-.73-1.78-1.84-2.41-2.92-1.76-3.05-2.68-6.59-3.43-10-.89-4.11-1.45-8.29-1.86-12.47-.56-5.7-.67-11.39-.91-17.1v-.29c0-1.34-4.46.5-4.46 1.89 0 5.17.29 10.36.74 15.51.38 4.36.91 8.72 1.74 13.03.72 3.74 1.62 7.58 3.35 11.01 1.19 2.35 3.01 4.77 5.82 5.08 3.53.39 6.92-2.22 8.79-4.98 1.99-2.94 2.99-6.55 3.8-9.97.99-4.23 1.59-8.55 2.04-12.87.63-6.05 1.19-12.29 1.02-18.39v-.31c0-1.34-4.46.5-4.46 1.89l-.01.02zM419.64 264.56c0 5.17.28 10.36.72 15.51.37 4.36.89 8.72 1.69 13.03.7 3.74 1.57 7.57 3.26 11.01 1.14 2.32 2.9 4.77 5.67 5.08 3.54.4 7-2.22 8.91-4.98 2.02-2.94 3.07-6.53 3.9-9.97 1.02-4.23 1.64-8.55 2.1-12.87.65-6.05 1.22-12.29 1.05-18.39v-.31c0-1.34-4.46.5-4.46 1.89 0 4.79-.26 9.59-.64 14.36-.34 4.19-.81 8.37-1.54 12.5-.65 3.67-1.44 7.41-2.92 10.85-.32.74-.67 1.46-1.07 2.15-.43.74-.49.85-1.01 1.45-.09.11-.19.22-.29.32-.08.09.28-.25-.03.02-.12.1-.24.21-.36.31-.02.02.42-.31.21-.17-.16.11-.26.07.01 0 .36-.08.06-.04-.1.05s.58-.3.15-.09c-.01 0 .39-.29.04-.03.24-.18.31-.02-.03-.01-.34.01.04.01-.06.01-.14 0-.29 0-.43-.01-.35-.03-.39-.05-.55-.1-.51-.16-.98-.41-1.41-.73-1-.74-1.73-1.85-2.33-2.92-1.71-3.07-2.61-6.59-3.33-10-.87-4.11-1.41-8.29-1.81-12.47-.55-5.7-.64-11.39-.89-17.1v-.29c0-1.34-4.46.5-4.46 1.89l.01.01z"/><path d="M442.47 264.56c0 5.17.28 10.36.72 15.51.37 4.36.89 8.72 1.69 13.03.7 3.74 1.57 7.57 3.26 11.01 1.14 2.32 2.9 4.77 5.67 5.08 3.54.4 7-2.22 8.91-4.98 2.02-2.94 3.07-6.53 3.9-9.97 1.02-4.23 1.64-8.55 2.1-12.87.65-6.05 1.22-12.29 1.05-18.39v-.31c0-1.34-4.46.5-4.46 1.89 0 4.79-.26 9.59-.64 14.36-.34 4.19-.81 8.37-1.54 12.5-.65 3.67-1.44 7.41-2.92 10.85-.32.74-.67 1.46-1.07 2.15-.43.74-.49.85-1.01 1.45-.09.11-.19.22-.29.32-.08.09.28-.25-.03.02-.12.1-.24.21-.36.31-.02.02.42-.31.21-.17-.16.11-.26.07.01 0 .36-.08.06-.04-.1.05s.58-.3.15-.09c-.01 0 .39-.29.04-.03.24-.18.31-.02-.03-.01-.34.01.04.01-.06.01-.14 0-.29 0-.43-.01-.35-.03-.39-.05-.55-.1-.51-.16-.98-.41-1.41-.73-1-.74-1.73-1.85-2.33-2.92-1.71-3.07-2.61-6.59-3.33-10-.87-4.11-1.41-8.29-1.81-12.47-.55-5.7-.64-11.39-.89-17.1v-.29c0-1.34-4.46.5-4.46 1.89l.01.01zM341.15 179.8c0 5.17.28 10.36.72 15.51.37 4.36.89 8.72 1.69 13.03.7 3.74 1.57 7.57 3.26 11.01 1.14 2.32 2.9 4.77 5.67 5.08 3.54.4 7-2.22 8.91-4.98 2.02-2.94 3.07-6.53 3.9-9.97 1.02-4.23 1.64-8.55 2.1-12.87.65-6.05 1.22-12.29 1.05-18.39v-.31c0-1.34-4.46.5-4.46 1.89 0 4.79-.26 9.59-.64 14.36-.34 4.19-.81 8.37-1.54 12.5-.65 3.67-1.44 7.41-2.92 10.85-.32.74-.67 1.46-1.07 2.15-.43.74-.49.85-1.01 1.45-.09.11-.19.22-.29.32-.08.09.28-.25-.03.02-.12.1-.24.21-.36.31-.02.02.42-.31.21-.17-.16.11-.26.07.01 0 .36-.08.06-.04-.1.05s.58-.3.15-.09c-.01 0 .39-.29.04-.03.24-.18.31-.02-.03-.01-.34.01.04.01-.06.01-.14 0-.29 0-.43-.01-.35-.03-.39-.05-.55-.1-.51-.16-.98-.41-1.41-.73-1-.74-1.73-1.85-2.33-2.92-1.71-3.07-2.61-6.59-3.33-10-.87-4.11-1.41-8.29-1.81-12.47-.55-5.7-.64-11.39-.89-17.1v-.29c0-1.34-4.46.5-4.46 1.89l.01.01z"/><path d="M363.99 179.8c0 5.17.28 10.36.72 15.51.37 4.36.89 8.72 1.69 13.03.7 3.74 1.57 7.57 3.26 11.01 1.14 2.32 2.9 4.77 5.67 5.08 3.54.4 7-2.22 8.91-4.98 2.02-2.94 3.07-6.53 3.9-9.97 1.02-4.23 1.64-8.55 2.1-12.87.65-6.05 1.22-12.29 1.05-18.39v-.31c0-1.34-4.46.5-4.46 1.89 0 4.79-.26 9.59-.64 14.36-.34 4.19-.81 8.37-1.54 12.5-.65 3.67-1.44 7.41-2.92 10.85-.32.74-.67 1.46-1.07 2.15-.43.74-.49.85-1.01 1.45-.09.11-.19.22-.29.32-.08.09.28-.25-.03.02-.12.1-.24.21-.36.31-.02.02.42-.31.21-.17-.16.11-.26.07.01 0 .36-.08.06-.04-.1.05s.58-.3.15-.09c-.01 0 .39-.29.04-.03.24-.18.31-.02-.03-.01-.34.01.04.01-.06.01-.14 0-.29 0-.43-.01-.35-.03-.39-.05-.55-.1-.51-.16-.98-.41-1.41-.73-1-.74-1.73-1.85-2.33-2.92-1.71-3.07-2.61-6.59-3.33-10-.87-4.11-1.41-8.29-1.81-12.47-.55-5.7-.64-11.39-.89-17.1v-.29c0-1.34-4.46.5-4.46 1.89l.01.01z"/></g><defs><clipPath id="a"><path fill="#fff" d="M0 0h500v500H0z"/></clipPath></defs></svg>