<svg width="500" height="500" fill="none" xmlns="http://www.w3.org/2000/svg"><g clip-path="url(#a)" fill="#1E1E1C"><path d="m242.15 358.35-1.53-30.78-1.08-21.6-.38-7.54c-.06-1.14.03-2.4-.18-3.53-.19-1.06-1.3-2.16-1.88-3l-5.52-8.02c-6.52-9.47-13.03-18.94-19.55-28.41-8.48-12.32-16.96-24.64-25.43-36.95l-25.17-36.56-18.74-27.23-4.91-7.14c-.34-.49-.67-.99-1.02-1.48-.77-1.07-1.94-1.45-3.19-1.47-10.98-.18-21.98 0-32.96 0H60.92c-.89 0-2.28.28-2.12 1.46.15 1.09 1.84 1.73 2.76 1.73h73.13l-2.6-1.31c1.63 2.36 3.25 4.73 4.88 7.09 4.25 6.18 8.51 12.36 12.76 18.54l17.74 25.77c6.67 9.7 13.35 19.39 20.02 29.09s12.9 18.74 19.35 28.12c5.33 7.75 10.67 15.5 16 23.25l9.74 14.16 1.12 1.63c.08.12.37.72.52.75.15.03-.02-.45-.13-.29-.08.11.03.63.04.76l.18 3.57 1.53 30.73c.45 8.97.89 17.94 1.34 26.91.02.5.05 1 .07 1.5.1 1.94 5 2.61 4.88.26l.02-.01zM366.24 358.35l-1.5-30.03c-.36-7.19-.72-14.37-1.07-21.56l-.39-7.75c-.06-1.3-.02-2.67-.2-3.96-.08-.57-.34-.88-.67-1.33l-2.38-3.2c-3.1-4.17-6.2-8.33-9.3-12.5-8.78-11.8-17.55-23.6-26.33-35.4-5.6-7.53-11.17-15.09-16.81-22.6-.09-.12-.18-.25-.27-.37-.72-.97-2.02-1.45-3.22-1.29-.82.11-2.07.88-1.34 1.86l14.1 18.96c8.77 11.79 17.54 23.58 26.31 35.38l10.47 14.07 3.24 4.36c.2.27 1.07 1.86 1.42 1.91-.19-.03-.08-.64-.11-.04-.03.48.05 1 .07 1.48l.3 6.06c.33 6.73.67 13.45 1 20.18l1.74 34.88.03.64c.1 1.94 5 2.61 4.88.26l.03-.01z"/><path d="M30.35 297.55c3.84-.02 7.68-.03 11.53-.05 10.36-.05 20.73-.09 31.09-.14l46.27-.21c18.69-.08 37.38-.17 56.07-.25 20.61-.09 41.22-.19 61.83-.28 20.61-.09 41.33-.19 61.99-.28 19.4-.09 38.8-.18 58.2-.26l48.85-.22c11.79-.05 23.58-.11 35.37-.16 5.54-.03 11.11.11 16.65-.08h.73c1.34 0 3.62-3.91 2.85-3.91-3.84.02-7.68.03-11.53.05-10.36.05-20.73.09-31.09.14l-46.27.21c-18.69.08-37.38.17-56.07.25-20.61.09-41.22.19-61.83.28-20.61.09-41.33.19-61.99.28-19.4.09-38.8.18-58.2.26l-48.85.22c-11.79.05-23.58.11-35.37.16-5.54.03-11.11-.11-16.65.08h-.73c-1.34 0-3.62 3.91-2.85 3.91zM46.9 220.86c3.52.01 7.03.03 10.55.04l28.46.11 42.36.16c17.11.07 34.22.13 51.33.2 18.87.07 37.73.15 56.6.22 18.87.07 37.83.15 56.75.22l53.27.21 44.72.17 32.38.12c5.07.02 10.17.22 15.24.06h.67c2.17 0 3.11-4.86.59-4.87-3.52-.01-7.03-.03-10.55-.04-9.49-.04-18.97-.07-28.46-.11l-42.36-.16c-17.11-.07-34.22-.13-51.33-.2-18.87-.07-37.73-.15-56.6-.22-18.87-.07-37.83-.15-56.75-.22l-53.27-.21-44.72-.17-32.38-.12c-5.07-.02-10.17-.22-15.24-.06h-.67c-2.17 0-3.11 4.86-.59 4.87zM304.75 164.68l12.61.15 30.28.36 36.49.44 31.65.38 10.4.12c1.64.02 3.33.16 4.96.06h.21c2.17.03 3.11-4.84.59-4.87l-12.61-.15-30.28-.36-36.49-.44-31.65-.38-10.4-.12c-1.64-.02-3.33-.16-4.96-.06h-.21c-2.17-.03-3.11 4.84-.59 4.87zM48.02 357.27c0-5.75.25-11.51.63-17.24.33-4.98.79-9.96 1.5-14.91.64-4.42 1.41-8.91 2.91-13.14.52-1.46 1.34-3.3 2.08-4.36-.1.15.14-.19.19-.25l.33-.39c.05-.06.41-.42.15-.17-.26.25.18-.15.25-.21-.25.21-.37.27-.07.07.14-.09-.6.35-.15.11-.73.4.07.07-.59.26.49-.14-.38.04.03-.02.2-.03.33-.02.03-.02.14 0 .28 0 .42.01.47.04.23-.02.59.12.54.2 1.03.49 1.47.86.97.84 1.78 2.21 2.38 3.43 1.83 3.73 2.74 7.93 3.48 11.99.9 4.91 1.45 9.89 1.87 14.86.57 6.84.68 13.68.93 20.54v.35c0 1.34 4.46-.5 4.46-1.89 0-6.14-.29-12.28-.73-18.4-.38-5.15-.9-10.3-1.72-15.4-.73-4.49-1.6-9.09-3.38-13.31-1.07-2.54-2.79-5.64-5.81-6.04-3.72-.49-7.17 2.62-8.88 5.62-2.05 3.62-3.01 7.9-3.8 11.95-.98 5.04-1.57 10.16-2.02 15.27-.63 7.22-1.17 14.58-1.01 21.84v.37c0 1.34 4.46-.5 4.46-1.89v-.01zM70.92 208.16c0-5.75.25-11.51.63-17.24.33-4.98.79-9.96 1.5-14.91.64-4.42 1.41-8.91 2.91-13.14.52-1.46 1.34-3.3 2.08-4.36-.1.15.14-.19.19-.25l.33-.39c.05-.06.41-.42.15-.17-.26.25.18-.15.25-.21-.25.21-.37.27-.07.07.14-.09-.6.35-.15.11-.73.4.07.07-.59.26.49-.14-.38.04.03-.02.2-.03.33-.02.03-.02.14 0 .28 0 .42.01.47.04.23-.02.59.12.54.2 1.03.49 1.47.86.97.84 1.78 2.21 2.38 3.43 1.83 3.73 2.74 7.93 3.48 11.99.9 4.91 1.45 9.89 1.87 14.86.57 6.84.68 13.68.93 20.54v.35c0 1.34 4.46-.5 4.46-1.89 0-6.14-.29-12.28-.73-18.4-.38-5.15-.9-10.3-1.72-15.4-.73-4.49-1.6-9.09-3.38-13.31-1.07-2.54-2.79-5.64-5.81-6.04-3.72-.49-7.17 2.62-8.88 5.62-2.05 3.62-3.01 7.9-3.8 11.95-.98 5.04-1.57 10.16-2.02 15.27-.63 7.22-1.17 14.58-1.01 21.84v.37c0 1.34 4.46-.5 4.46-1.89v-.01zM418.85 357.27c0-5.75.25-11.51.63-17.24.33-4.98.79-9.96 1.5-14.91.64-4.42 1.41-8.91 2.91-13.14.52-1.46 1.34-3.3 2.08-4.36-.1.15.14-.19.19-.25l.33-.39c.05-.06.41-.42.15-.17-.26.25.18-.15.25-.21-.25.21-.37.27-.07.07.14-.09-.6.35-.15.11-.73.4.07.07-.59.26.49-.14-.38.04.03-.02.2-.03.33-.02.03-.02.14 0 .28 0 .42.01.47.04.23-.02.59.12.54.2 1.03.49 1.47.86.97.84 1.78 2.21 2.38 3.43 1.83 3.73 2.74 7.93 3.48 11.99.9 4.91 1.45 9.89 1.87 14.86.57 6.84.68 13.68.93 20.54v.35c0 1.34 4.46-.5 4.46-1.89 0-6.14-.29-12.28-.73-18.4-.38-5.15-.9-10.3-1.72-15.4-.73-4.49-1.6-9.09-3.38-13.31-1.07-2.54-2.79-5.64-5.81-6.04-3.72-.49-7.17 2.62-8.88 5.62-2.05 3.62-3.01 7.9-3.8 11.95-.98 5.04-1.57 10.16-2.02 15.27-.63 7.22-1.17 14.58-1.01 21.84v.37c0 1.34 4.46-.5 4.46-1.89v-.01zM370.53 282.4c0-5.75.17-11.5.43-17.25.42-9.34.84-18.97 3-28.1.37-1.57.75-3 1.42-4.41.12-.25.25-.5.39-.75.07-.13.15-.25.23-.38.13-.21-.21.28.05-.06.08-.1.17-.19.24-.28-.12.16-.37.34-.09.1-.37.32-.91.61-1.41.78.08-.03-.56.17-.2.06-.69.23-.15-.09-.07.03.07.1-.22-.08 0 0 .11.04.21.07.31.13.46.26.49.3.84.75.81 1.03 1.3 2.34 1.71 3.57 1.27 3.84 1.84 7.92 2.33 11.93.61 4.93.98 9.88 1.26 14.84.39 6.87.4 13.73.63 20.6v.34c0 1.34 4.46-.5 4.46-1.89 0-6.14-.19-12.29-.5-18.42-.26-5.17-.61-10.33-1.18-15.47-.49-4.41-1.06-8.89-2.28-13.16-.58-2.05-1.56-5.7-4.12-6.09-3.4-.52-6.17 2.83-7.25 5.64-1.45 3.79-2.07 7.9-2.6 11.91-.67 5.09-1.07 10.22-1.37 15.34-.42 7.22-.85 14.54-.68 21.77v.38c0 1.34 4.46-.5 4.46-1.89l-.01-.02zM410.49 281.75c0-5.75.17-11.5.43-17.25.42-9.34.84-18.97 3-28.1.37-1.57.75-3 1.42-4.41.12-.25.25-.5.39-.75.07-.13.15-.25.23-.38.13-.21-.21.28.05-.06.08-.1.17-.19.24-.28-.12.16-.37.34-.09.1-.37.32-.91.61-1.41.78.08-.03-.56.17-.2.06-.69.23-.15-.09-.07.03.07.1-.22-.08 0 0 .11.04.21.07.31.13.46.26.49.3.84.75.81 1.03 1.3 2.34 1.71 3.57 1.27 3.84 1.84 7.92 2.33 11.93.61 4.93.98 9.88 1.26 14.84.39 6.87.4 13.73.63 20.6v.34c0 1.34 4.46-.5 4.46-1.89 0-6.14-.19-12.29-.5-18.42-.26-5.17-.61-10.33-1.18-15.47-.49-4.41-1.06-8.89-2.28-13.16-.58-2.05-1.56-5.7-4.12-6.09-3.4-.52-6.17 2.83-7.25 5.64-1.45 3.79-2.07 7.9-2.6 11.91-.67 5.09-1.07 10.22-1.37 15.34-.42 7.22-.85 14.54-.68 21.77v.38c0 1.34 4.46-.5 4.46-1.89l-.01-.02zM164.45 357.27c0-5.8.58-11.65 1.44-17.38.76-5.1 1.83-10.19 3.44-15.1 1.48-4.5 3.49-9.08 6.5-12.72.82-1 1.26-1.46 2.12-2.21.2-.17.4-.34.6-.5.34-.28.05-.04-.02.01.1-.08.21-.16.31-.23.21-.15.42-.29.63-.44.61-.42-.23.09.42-.25.23-.12.45-.25.68-.36-.57.3.11-.05.27-.12.24-.1.48-.2.72-.29-.49.18.39-.12.54-.16.88-.26 1.86-.44 3.06-.5 4.38-.21 8.7 1.47 11.96 4.44 3.58 3.26 6.01 7.66 7.81 12.1 1.93 4.74 3.22 9.74 4.17 14.77 1.28 6.78 1.79 13.61 2.07 20.49v.35c0 1.34 4.46-.5 4.46-1.89 0-6.1-.65-12.27-1.62-18.28-.85-5.26-2.01-10.49-3.81-15.51-1.69-4.71-3.94-9.39-7.36-13.1-3.42-3.71-7.49-5.88-12.33-6.25-5.47-.42-10.75 1.6-14.97 5.02-8.14 6.61-11.39 17.95-13.3 27.82-.9 4.65-1.5 9.36-1.87 14.08-.2 2.56-.43 5.17-.38 7.75v.36c0 1.34 4.46-.5 4.46-1.89v-.01zM295.22 357.27c0-5.8.58-11.65 1.44-17.38.76-5.1 1.83-10.19 3.44-15.1 1.48-4.5 3.49-9.08 6.5-12.72.82-1 1.26-1.46 2.12-2.21.2-.17.4-.34.6-.5.34-.28.05-.04-.02.01.1-.08.21-.16.31-.23.21-.15.42-.29.63-.44.61-.42-.23.09.42-.25.23-.12.45-.25.68-.36-.57.3.11-.05.27-.12.24-.1.48-.2.72-.29-.49.18.39-.12.54-.16.88-.26 1.86-.44 3.06-.5 4.38-.21 8.7 1.47 11.96 4.44 3.58 3.26 6.01 7.66 7.81 12.1 1.93 4.74 3.22 9.74 4.17 14.77 1.28 6.78 1.79 13.61 2.07 20.49v.35c0 1.34 4.46-.5 4.46-1.89 0-6.1-.65-12.27-1.62-18.28-.85-5.26-2.01-10.49-3.81-15.51-1.69-4.71-3.94-9.39-7.36-13.1-3.42-3.71-7.49-5.88-12.33-6.25-5.47-.42-10.75 1.6-14.97 5.02-8.14 6.61-11.39 17.95-13.3 27.82-.9 4.65-1.5 9.36-1.87 14.08-.2 2.56-.43 5.17-.38 7.75v.36c0 1.34 4.46-.5 4.46-1.89v-.01zM108.17 282.4c0-5.8.4-11.63 1.01-17.39.53-5.01 1.26-10.02 2.38-14.93 1.02-4.47 2.34-8.99 4.61-13.01.49-.86.97-1.61 1.46-2.25.26-.34.54-.67.83-.99.09-.09.53-.54.2-.22.17-.17.36-.33.54-.49l.24-.21c.24-.21-.36.26-.11.08.15-.11.3-.21.44-.32.08-.06.17-.11.26-.17-.91.61-.18.1-.17.12-.02-.03.72-.31.14-.08.07-.03.71-.28.34-.15-.37.13.2-.05.29-.08.53-.16-.11 0 .22-.05.23-.04.45-.07.68-.1.18-.02.52-.03.99 0 .42.03.84.07 1.25.16.63.14 1.47.47 2.12.82 1.56.84 2.82 2.09 3.89 3.49 2.67 3.5 4.23 7.81 5.43 12.01 1.39 4.85 2.28 9.84 2.93 14.83.89 6.81 1.19 13.63 1.44 20.48v.35c0 1.34 4.46-.5 4.46-1.89 0-6.11-.45-12.25-1.14-18.32-.59-5.21-1.41-10.42-2.69-15.51-1.14-4.55-2.63-9.21-5.22-13.17-2.04-3.12-4.98-5.77-8.84-6.15-4.47-.43-8.82 2.1-11.68 5.38-2.86 3.28-4.68 7.8-6 12.07-1.55 5.05-2.51 10.27-3.21 15.5-.96 7.13-1.71 14.51-1.57 21.72v.37c0 1.34 4.46-.5 4.46-1.89l.02-.01zM395.95 208.37c0-2.37.29-4.77.7-7.1.71-3.94 1.9-8.37 4.79-11.31 0 0 .76-.65.59-.52.15-.11.65-.45.23-.18.12-.08.25-.15.37-.21-.21.1-.26.12-.02 0 .37-.17.52-.22.82-.29a7.62 7.62 0 0 1 1.72-.19c2.21-.02 4.31.71 6.05 2.07 3.33 2.62 4.92 7.12 5.84 11.1.63 2.77 1.02 5.66 1.03 8.5 0 1.34 4.46-.5 4.46-1.89 0-2.67-.37-5.38-.89-7.99-.9-4.47-2.53-9.2-6.12-12.22-4.33-3.64-10.61-2.94-15.09.04s-6.48 7.54-7.68 12.36c-.78 3.14-1.26 6.46-1.26 9.7 0 1.34 4.46-.5 4.46-1.89v.02zM328.23 208.37c0-2.37.29-4.77.7-7.1.71-3.94 1.9-8.37 4.79-11.31 0 0 .76-.65.59-.52.15-.11.65-.45.23-.18.12-.08.25-.15.37-.21-.21.1-.26.12-.02 0 .37-.17.52-.22.82-.29a7.62 7.62 0 0 1 1.72-.19c2.21-.02 4.31.71 6.05 2.07 3.33 2.62 4.92 7.12 5.84 11.1.63 2.77 1.02 5.66 1.03 8.5 0 1.34 4.46-.5 4.46-1.89 0-2.67-.37-5.38-.89-7.99-.9-4.47-2.53-9.2-6.12-12.22-4.33-3.64-10.61-2.94-15.09.04s-6.48 7.54-7.68 12.36c-.78 3.14-1.26 6.46-1.26 9.7 0 1.34 4.46-.5 4.46-1.89v.02z"/><path d="M210.91 172.3c1.18 2.54 3.36 4 6.17 3.63 1.69-.22 3.38-.46 5.08-.69l14.41-1.95c1.28-.17 2.86-.61 4.07-.05 1.66.76 1.63 2.96 1.97 4.53.94 4.32 1.23 11.22 6.9 11.66 8.31.64 16.68.82 25 1.23 1.1.05 2.23.05 3.33.16 1.41.14 1.85.67 2.62 1.62 2.33 2.89 4.66 5.78 6.98 8.66 5.44 6.75 10.88 13.49 16.32 20.24l.33.41c1.86 2.3 3.12-2.15 1.92-3.63-4.72-5.85-9.43-11.7-14.15-17.55l-8.31-10.31c-.58-.72-1.15-1.44-1.73-2.15-1.25-1.52-2.76-2.21-4.68-2.31-8.6-.42-17.2-.84-25.8-1.27-.98-.05-2.17.05-3.1-.33-1.83-.73-1.79-3.05-2.15-4.7-.93-4.26-1.43-12.13-7.56-11.5-7.39.76-14.72 2.22-22.11 2.99-1.13.12-2.55-.19-3.08-1.33-.4-.85-1.21-1.61-2.06-.8-.8.75-.8 2.52-.37 3.44zM150.6 148.72h43.81c1.81 0 6.27-.71 7.25 1.37.4.85 1.21 1.61 2.06.8.8-.75.8-2.52.37-3.44-1.06-2.27-2.87-3.7-5.42-3.73h-48.31c-1.99 0-1.82 4.99.23 4.99l.01.01z"/></g><defs><clipPath id="a"><path fill="#fff" d="M0 0h500v500H0z"/></clipPath></defs></svg>