<svg width="75" height="76" fill="none" xmlns="http://www.w3.org/2000/svg"><g clip-path="url(#a)" fill="#1D1D1B"><path d="M37.8 60.48c-.11-3.49-.23-6.98-.34-10.48-.04-1.17.14-2.61-.12-3.76-.13-.57-.54-1.15-.79-1.66L25.84 22.53c-1.15-2.36-2.29-4.72-3.44-7.08-.2-.41-.88-.66-1.3-.66H10.47c-1.65 0-.99 1.59.32 1.59h10.63l-1.3-.66c2.85 5.88 5.71 11.76 8.56 17.63l5.11 10.52c.37.76.84 1.53 1.13 2.33.03.08.04.18 0 0-.05-.25-.03.18-.03.24-.04.65.04 1.33.06 1.97l.39 11.92c.03.97 2.48 1.31 2.44.13l.02.02zM55.84 60.48l-.3-9.21c-.05-1.54-.04-3.11-.15-4.65-.04-.5-.2-.79-.44-1.23-3.4-6.26-6.8-12.51-10.2-18.77l-3.57-6.57c-.46-.84-2.9-.86-2.28.28 2.88 5.3 5.77 10.61 8.65 15.91L52.31 45c.18.33.34.66.53.98.15.26.12.4.09.14.14 1.15.08 2.36.11 3.51.12 3.57.23 7.13.35 10.7.03.97 2.48 1.31 2.44.13l.01.02z"/><path d="M5.63 47.28c7.03-.03 14.05-.06 21.08-.1l33.57-.15 7.67-.03c.67 0 1.81-1.96 1.42-1.96-7.03.03-14.05.06-21.08.1l-33.57.15-7.67.03c-.67 0-1.81 1.96-1.42 1.96zM8.43 32.3c6.44.02 12.88.05 19.32.07l30.65.12c2.36 0 4.72.02 7.08.03 1.08 0 1.55-2.43.3-2.44-6.44-.02-12.88-.05-19.32-.07l-30.65-.12c-2.36 0-4.72-.02-7.08-.03-1.08 0-1.55 2.43-.3 2.44zM45.93 21.13c5.36.06 10.73.13 16.09.19.77 0 1.54.02 2.32.03 1.08.01 1.55-2.42.3-2.44-5.36-.06-10.73-.13-16.09-.19-.77 0-1.54-.02-2.32-.03-1.08-.01-1.55 2.42-.3 2.44zM9.49 59.94c0-.78.03-1.56.08-2.34.08-1.33.19-2.7.57-3.98.02-.08.05-.15.07-.23-.04.12.03-.07.04-.1.05-.11.1-.23.16-.33.02-.04.14-.2.04-.08-.12.15.18-.14-.03.03-.11.09-.34.27-.57.38-.25.12-.46.18-.67.18.58-.02 1.15-.3 1.58-.68.18-.16.66-.8.08-.78-1.01.03-2.03.67-2.54 1.54-.33.56-.48 1.23-.6 1.86-.28 1.45-.37 2.93-.42 4.4-.01.35-.02.71-.02 1.06 0 .67 2.23-.25 2.23-.95v.02zM12.82 26.26c0-.78.03-1.56.08-2.34.08-1.33.19-2.7.57-3.98.02-.08.05-.15.07-.23-.04.12.03-.07.04-.1.05-.11.1-.23.16-.33.02-.04.14-.2.04-.08-.12.15.18-.14-.03.03-.11.09-.34.27-.57.38-.25.12-.46.18-.67.18.58-.02 1.15-.3 1.58-.68.18-.16.66-.8.08-.78-1.01.03-2.03.67-2.54 1.54-.33.56-.48 1.23-.6 1.86-.28 1.45-.37 2.93-.42 4.4-.01.35-.02.71-.02 1.06 0 .67 2.23-.25 2.23-.95v.02zM63.11 53.48s.16.03.05 0c-.12-.03.02 0 .04.03.03.02.07.04.1.06.08.05-.04-.06.05.05.14.18.25.36.34.57.25.58.38 1.21.48 1.82.21 1.3.29 2.63.33 3.95 0 .31.02.62.02.93 0 .67 2.23-.25 2.23-.95 0-.88-.04-1.77-.1-2.65-.1-1.4-.2-2.92-.74-4.23-.2-.5-.54-1.01-1.13-1.03-.59-.02-1.17.31-1.58.68-.2.17-.65.76-.08.78l-.01-.01zM24.42 59.94c0-.82.08-1.64.2-2.45.1-.72.25-1.44.47-2.13.09-.29.21-.61.37-.94.07-.15.15-.3.24-.44.04-.07.08-.13.12-.19.02-.02.1-.14.03-.04s.03-.04.05-.06l.16-.19c.03-.03.06-.06.08-.09 0 .01-.16.12-.08.08.03-.02.29-.19.09-.08-.15.08-.07.05-.02.02.2-.13-.28.18-.08.05.22-.14-.09.04-.06.03.23-.11-.26.07 0 0 .11-.03-.12.02-.11.02.04 0 .08-.02.12-.02.04 0 .08-.01.12-.02.16-.02-.1 0 0 0 .58 0 1.13.2 1.58.65 1.01.99 1.41 2.53 1.66 3.87.17.94.27 1.92.28 2.88 0 .67 2.23-.25 2.23-.95 0-.94-.11-1.89-.26-2.81-.24-1.45-.63-3.11-1.7-4.18-1.47-1.48-3.66-.93-5.14.26-1.32 1.07-1.91 2.75-2.23 4.37-.22 1.08-.34 2.21-.35 3.32 0 .67 2.23-.25 2.23-.95v-.01zM43.44 59.94c0-.82.08-1.64.2-2.45.1-.72.25-1.44.47-2.13.09-.29.21-.61.37-.94.07-.15.15-.3.24-.44.04-.07.08-.13.12-.19.02-.02.1-.14.03-.04s.03-.04.05-.06l.16-.19c.03-.03.06-.06.08-.09 0 .01-.16.12-.08.08.03-.02.29-.19.09-.08-.15.08-.07.05-.02.02.2-.13-.28.18-.08.05.22-.14-.09.04-.06.03.23-.11-.26.07 0 0 .11-.03-.12.02-.11.02.04 0 .08-.02.12-.02.04 0 .08-.01.12-.02.16-.02-.1 0 0 0 .58 0 1.13.2 1.58.65 1.01.99 1.41 2.53 1.66 3.87.17.94.27 1.92.28 2.88 0 .67 2.23-.25 2.23-.95 0-.94-.11-1.89-.26-2.81-.24-1.45-.63-3.11-1.7-4.18-1.47-1.48-3.66-.93-5.14.26-1.32 1.07-1.91 2.75-2.23 4.37-.22 1.08-.34 2.21-.35 3.32 0 .67 2.23-.25 2.23-.95v-.01zM18.24 42.05c0-.82.06-1.64.14-2.45.14-1.34.33-2.8.93-3.92.03-.06.07-.12.1-.18.02-.03.13-.21.06-.1-.08.11.05-.06.07-.08.02-.02.05-.05.07-.08.1-.13-.15.14-.06.06.07-.07.25-.18-.07.05.04-.03.13-.08-.06.04-.32.2.17-.07-.17.09-.01 0-.34.13-.22.09 0 0-.27.06-.12.03.03 0 .07 0 .09-.01-.15.06-.11 0 .03.02h.05c.11.04.22.08.32.14.21.13.32.24.49.48.76 1.07.99 2.53 1.16 3.8.13.98.2 1.98.2 2.97 0 .67 2.23-.25 2.23-.95 0-.92-.07-1.85-.18-2.76-.17-1.41-.37-3.08-1.22-4.27-.35-.5-.85-.86-1.48-.88-1.05-.05-2.12.59-2.81 1.34-1.01 1.1-1.31 2.77-1.51 4.2-.15 1.1-.24 2.22-.24 3.33 0 .67 2.23-.25 2.23-.95l-.03-.01zM60.05 24.26c.12 0 .23.01.35.04l-.16-.04c.24.06.46.17.65.33l-.1-.09c.55.49.77 1.26.88 1.96l-.02-.13c.05.29.08.6.08.89 0 .48.82.18 1.04.08.29-.13.59-.29.82-.51.14-.13.37-.32.37-.52 0-.41-.06-.83-.14-1.23-.12-.63-.35-1.3-.84-1.75-.36-.33-.78-.5-1.27-.5-.26 0-.52.07-.76.17-.28.12-.59.3-.82.51-.13.12-.37.32-.37.52 0 .16.11.25.29.26v.01zM50.2 24.26c.12 0 .23.01.35.04l-.16-.04c.24.06.46.17.65.33l-.1-.09c.55.49.77 1.26.88 1.96l-.02-.13c.05.29.08.6.08.89 0 .48.82.18 1.04.08.29-.13.59-.29.82-.51.14-.13.37-.32.37-.52 0-.41-.06-.83-.14-1.23-.12-.63-.35-1.3-.84-1.75-.36-.33-.78-.5-1.27-.5-.26 0-.52.07-.76.17-.28.12-.59.3-.82.51-.13.12-.37.32-.37.52 0 .16.11.25.29.26v.01z"/></g><defs><clipPath id="a"><path fill="#fff" transform="translate(0 .5)" d="M0 0h75v75H0z"/></clipPath></defs></svg>