<svg width="500" height="500" fill="none" xmlns="http://www.w3.org/2000/svg"><g clip-path="url(#a)" fill="#1E1E1C"><path d="M188.17 366.74c-.71-3.92-1.22-7.89-1.6-11.86-.18-1.82-.25-2.7-.35-4.69-.09-1.69-.14-3.38-.13-5.07.02-3.23.07-5.49.98-8.6-.15.51.11-.3.16-.43.09-.25.2-.5.31-.74.05-.11.45-.8.16-.35.15-.24.3-.46.48-.68.44-.53.83-.84 1.66-.95.13-.02.26-.02.38-.03.41-.03-.26-.03 0 0 .2.02.4.06.6.1.1.02.19.06.29.09.39.12-.34-.19.02 0 .22.12.42.26.63.4.09.06.28.24-.09-.09.1.09.2.18.29.28.16.17.31.35.46.52.25.28-.04-.06-.07-.11.09.12.18.25.26.38.17.27.33.55.49.83.06.12.45.97.19.36.12.28.24.56.35.84.26.67.49 1.34.69 2.03.1.33.19.66.28 1-.15-.58.12.54.16.71.18.8.34 1.61.49 2.42.3 1.67.53 3.34.71 5.02.21 1.9.29 2.92.4 4.55.3 4.63.42 9.29.28 13.92-.03 1.02.49 2.6 1.63 2.84 1.14.24 1.65-1.15 1.68-2.05.13-4.25.03-8.52-.21-12.76-.38-6.77-.83-14.24-3.67-20.51-1.05-2.31-2.63-4.95-5.28-5.59-2.65-.64-4.6.96-5.79 3.06-1.49 2.64-1.87 5.87-2.1 8.84-.28 3.54-.17 7.12.07 10.66.37 5.41.98 10.84 1.96 16.18.17.94.85 2.37 2.02 2.19 1.17-.18 1.35-1.85 1.19-2.74l.02.03zM306.15 367.51c-.72-4.01-1.23-8.07-1.61-12.13-.59-6.27-1.24-13.18.45-19.34.3-1.09.7-2.25 1.39-3.17.51-.67 1.15-1.09 1.78-1.27-.17.05.33-.08.16-.02-.25.09-.04.02.1.01-.6.01-.36-.05-.13 0-.19-.04-.97-.29-.48-.13-.51-.16-.37-.22-.21-.11.47.33-.19-.2.08.05.08.08.56.54.27.23.16.17.31.36.45.55.34.46.64.95.9 1.47 1.28 2.51 1.92 5.57 2.41 8.4.59 3.36.92 6.76 1.14 10.15.22 3.39.31 6.57.33 9.86 0 1.59 0 2.76-.04 4.15-.05 1.68 4.71 2.77 4.74 1.58.13-4.32.04-8.67-.19-12.98-.19-3.63-.51-7.27-1.08-10.86-.49-3.05-1.12-6.19-2.43-9.02-1.31-2.83-3.31-4.94-6.41-5.67-2.6-.61-4.97.07-6.39 2.38s-1.77 5.32-1.98 7.98c-.29 3.65-.18 7.33.06 10.98.35 5.32.97 10.66 1.91 15.92.26 1.46 5.03 2.52 4.75.99h.03zM235.99 366.56a60.72 60.72 0 0 1-.45-3.56 80.142 80.142 0 0 1-.33-4.32c-.03-.61.02.46 0-.17-.02-.38-.03-.76-.04-1.14-.02-.87-.03-1.74-.03-2.61.01-1.71.08-3.42.23-5.13.17-1.99.33-3.11.68-4.81.18-.85.38-1.68.62-2.51.12-.41.25-.81.38-1.21.03-.09.27-.75.05-.16.1-.26.2-.52.3-.77.29-.69.61-1.36.96-2.02.05-.1.4-.68.06-.12.1-.17.21-.34.31-.5.25-.38.51-.75.79-1.11.12-.15.24-.3.37-.45-.38.45.03-.04.1-.1.27-.27.54-.54.82-.8.14-.13.29-.25.44-.37.49-.4-.37.24.15-.11.32-.22.64-.43.98-.62 1.16-.66 2.84-1.17 4.39-1.29 3.3-.26 6.64.63 9.04 2.65 5.31 4.45 7.03 11.92 7.95 18.54.26 1.85.44 3.7.56 5.57.03.44.05.88.07 1.32.03.61-.02-.45 0 .15 0 .18.01.35.02.53.03.75.04 1.51.05 2.26.01 1.49 0 2.98-.09 4.47-.07 1.04.58 2.08 1.73 1.81s1.94-1.72 2.01-2.83c.29-4.52.07-9.13-.44-13.63-.82-7.27-2.57-15.6-7.82-21.06-5.25-5.46-14.65-6.11-20.56-.98-5.91 5.13-7.41 13.81-7.81 21.15-.28 5.21-.16 10.69.76 15.84.02.09.03.19.04.28.18 1.1 1.22 1.58 2.18 1.03 1.03-.59 1.7-2.02 1.51-3.2l.02-.02zM162.11 482.51v-32.28l-2.04 1.07h173.35c2.35 0 4.72.11 7.07 0h.31l-2.9-1.88v29.61c0 2.03 4.93 2.67 4.93.81v-29.61c0-1.35-1.82-1.88-2.9-1.88H166.58c-2.35 0-4.71-.04-7.07 0h-.31c-.56 0-2.04.22-2.04 1.07v32.28c0 2.03 4.93 2.67 4.93.81h.02zM180.19 390.25H303.9c5.67 0 11.37.15 17.04 0h.23c1.64 0 .09-4.66-1.37-4.66H196.09c-5.67 0-11.37-.15-17.04 0h-.23c-1.64 0-.09 4.66 1.37 4.66z"/><path d="M179.89 484.51H303.6c5.68 0 11.36.02 17.04 0h.23c1.9 0 .75-4.8-.78-4.8H196.38c-5.68 0-11.36-.02-17.04 0h-.23c-1.9 0-.75 4.8.78 4.8zM178.55 320.9h135.23c1.83 0 3.7.1 5.53 0h.23c1.61 0 3.6-4.47 1.9-4.47H186.22c-1.83 0-3.7-.1-5.53 0h-.23c-1.61 0-3.6 4.47-1.9 4.47h-.01zM172.15 407.11l.03 25.37c0 1.11 1.2 2.25 2.1 2.74.74.4 1.85.55 1.85-.57 0-8.46-.02-16.91-.03-25.37 0-1.11-1.2-2.25-2.1-2.74-.74-.4-1.85-.55-1.85.57zM188.42 406.34v25.37c0 1.14.43 2.31 1.04 3.27.2.31 1.29 1.57 1.29.44v-25.37c0-1.14-.43-2.31-1.04-3.27-.2-.31-1.29-1.57-1.29-.44zM209 407.42c-.6 2.16-.75 4.47-.9 6.69-.2 2.86-.28 5.73-.33 8.6-.07 3.8-.07 7.6 0 11.4.02.95.77 2.19 1.85 1.89 1.18-.33 1.37-2.01 1.35-2.98v-.55.26c0-.79-.02-1.58-.02-2.37-.01-2.47 0-4.93.04-7.4.05-2.78.13-5.57.31-8.35.08-1.18.17-2.37.32-3.55.03-.2.05-.41.08-.61.09-.73-.04.13.04-.27s.16-.81.27-1.21c.27-.97.15-2.64-.9-3.15-1.05-.51-1.87.73-2.11 1.59v.01zM224.54 409.73v25.37c0 1.07 1.08.31 1.48-.07.71-.68 1.68-1.94 1.68-3v-25.37c0-1.07-1.08-.31-1.48.07-.71.68-1.68 1.94-1.68 3zM243.56 409.14v25.37c0 1.18 4.46-.58 4.46-1.88v-25.37c0-1.18-4.46.58-4.46 1.88zM260.14 434.06v-25.37c0-1.06-.27-2.61-1.49-2.94-1.11-.3-1.92.97-1.92 1.94v25.37c0 1.06.27 2.61 1.49 2.94 1.11.3 1.92-.97 1.92-1.94zM276.85 409.62c1.29 8.43 2.28 16.9 3.3 25.37.12 1.03.98 1.19 1.67.52.83-.81 1.19-2.25 1.06-3.37-1.02-8.46-2.01-16.94-3.3-25.37-.16-1.01-.96-1.21-1.67-.52-.81.79-1.23 2.27-1.06 3.37zM292.04 407.67c-.2 8.66.76 17.43 1.71 26.03.1.87.57 2.43 1.7 2.35 1.13-.08 1.32-1.83 1.23-2.63-.35-3.17-.64-6.35-.91-9.52-.43-5.08-.88-10.42-.77-15.18.02-.97-.2-2.62-1.32-2.96-1.12-.34-1.62 1.09-1.64 1.91zM306.47 407.63c.83 8.43 1.23 16.91 1.73 25.37.1 1.7 4.85 3.07 4.74 1.13-.5-8.45-.9-16.94-1.73-25.37-.17-1.71-4.92-3.03-4.74-1.13zM324.29 409.75v25.37c0 1.15 1.32.4 1.73 0 .82-.79 1.45-1.97 1.45-3.12v-25.37c0-1.15-1.32-.4-1.73 0-.82.79-1.45 1.97-1.45 3.12zM199.37 308.07c-.11 1.04-.06.58 0 .12.06-.48.12-.96.19-1.44.25-1.79.54-3.57.86-5.34.47-2.61 1.01-5.22 1.61-7.8.36-1.55.75-3.1 1.16-4.64.21-.8.43-1.6.66-2.4.11-.39.23-.79.34-1.18.04-.13.08-.26.12-.4 0 .03-.13.43-.04.14l.21-.7c1.08-3.54 2.29-7.03 3.67-10.46.73-1.81 1.5-3.61 2.32-5.38.41-.88.83-1.75 1.26-2.62.46-.91.61-1.21 1.17-2.24 3.8-6.98 8.21-13.08 14.29-18.13 6.08-5.05 13.45-8.11 21.34-8.78 7.89-.67 16.03 1.08 22.78 5.42 6.36 4.09 11.24 9.99 15.1 16.51 3.86 6.52 6.64 13.72 8.8 20.93.07.24 0 .02 0-.03l.09.31c.06.21.12.42.18.62.13.45.25.9.38 1.34.23.85.46 1.7.68 2.55a155.917 155.917 0 0 1 3.76 20.6c.09.77.17 1.54.24 2.31.04.39.07 1.16.03.27 0 .2.03.4.05.6l.03.49c.06.98.48 2.29 1.72 2.12 1.13-.16 1.83-1.79 1.77-2.78-.16-2.71-.48-5.41-.84-8.09-.82-6.07-1.98-12.09-3.52-18.02-1.98-7.61-4.53-15.11-8.07-22.14-3.54-7.03-8.21-13.84-14.35-19.04-6.14-5.2-13.94-8.45-22.06-8.96-8.6-.54-17.19 1.46-24.52 6.02-7 4.36-12.63 10.61-17.09 17.49-4.39 6.77-7.76 14.21-10.43 21.82-2.28 6.5-4.08 13.17-5.47 19.91-.72 3.49-1.34 7-1.76 10.54l-.12 1.13c-.1 1 .59 2.28 1.72 2.12 1.25-.17 1.67-1.77 1.77-2.78l-.03-.01zM249.8 58.6a86.706 86.706 0 0 0 23.13 24.8c.69.5 1.26-.75 1.37-1.19.26-.96.18-2.13-.28-3.02l-16.53-31.68-.43 4.19c6.58-3.3 13.4-6.1 20.4-8.37 1.47-.48 1.1-4.7-.47-4.9-4.72-.59-9.44-1.19-14.16-1.78-2.22-.28-4.49-.43-6.68-.85-.07-.01-1.26-.36-1.18-.45.1-.09.03.93.15.08.08-.57.06-1.18.08-1.76.13-3.1.2-6.22-.06-9.31-.26-3.09-.66-6.17-2.46-8.64-.48-.66-1.27-.16-1.5.43-2.46 6.46-4.64 13.02-7.1 19.48l1.19-.68-18.9-11.49c-.84-.51-1.33.97-1.43 1.49-.19 1.07-.05 2.21.6 3.11 4.14 5.75 8.29 11.49 12.43 17.24l.5-4.67c-7.62-.44-15.25 1.41-21.85 5.23-1.39.81-1.16 4.51.47 4.9 4.23 1.01 8.53 1.79 12.82 2.5 4.29.71 8.63 1.59 12.92 1.43l-.47-4.9c-2.12.82-3.84 2.72-5.3 4.39-2.09 2.4-3.91 5.03-5.63 7.7-3.06 4.77-6.02 9.77-8.2 15.01-.35.85-.41 1.85-.18 2.74.12.48.48 1.6 1.18 1.5 4.07-.53 7.65-3.87 10.58-6.48 3.94-3.52 7.58-7.36 11.34-11.07 1.55-1.53 3.11-3.09 4.88-4.37.9-.64.95-2.11.78-3.1-.09-.53-.68-2.35-1.58-1.7-2.05 1.48-3.87 3.31-5.66 5.09-2.35 2.33-4.66 4.71-7.03 7.02-2.37 2.31-4.67 4.48-7.25 6.42-1.8 1.35-3.9 2.89-6.2 3.19l1 4.24c2.07-4.96 4.83-9.71 7.72-14.21 1.67-2.6 3.44-5.15 5.45-7.5 1.36-1.58 2.9-3.3 4.9-4.07 1.34-.52 1.18-4.96-.47-4.9-4.29.17-8.71-.72-12.92-1.43-4.21-.71-8.59-1.5-12.82-2.5l.47 4.9c6.44-3.73 13.77-5.46 21.2-5.04.79.05 1.09-1.34 1.15-1.87.11-.98-.07-2-.65-2.81-4.14-5.75-8.29-11.49-12.43-17.24l-.83 4.59 18.9 11.49c.5.31 1.03-.25 1.19-.68 2.46-6.46 4.64-13.02 7.1-19.48l-1.5.43c.48.66.73 1.8.9 2.83.25 1.5.33 2.95.37 4.5.04 1.55.01 3.15-.04 4.72 0 .23-.03.84-.06 1.41-.04.86-.12 1.73-.07 2.59.1 2.03.84 4.04 2.98 4.55 2.14.51 4.61.63 6.87.92 4.88.62 9.76 1.23 14.64 1.85l-.47-4.9c-7 2.27-13.82 5.07-20.4 8.37-1.27.63-.94 3.22-.43 4.19l16.53 31.68 1.09-4.21A82.586 82.586 0 0 1 251.47 55c-.53-.85-1.29-.87-1.76.05s-.47 2.61.1 3.53l-.01.02z"/><path d="M212.31 222.01c1.19-4.72 2.38-9.44 3.56-14.17 2.85-11.34 5.7-22.67 8.56-34.01l10.32-41 8.92-35.44c1.45-5.76 2.97-11.5 4.35-17.27l.06-.24c.25-.99.34-2.61-.44-3.42s-1.43.12-1.63.9c-1.19 4.72-2.38 9.44-3.56 14.17-2.85 11.34-5.7 22.67-8.56 34.01l-10.32 41c-2.97 11.81-5.94 23.63-8.92 35.44-1.45 5.76-2.97 11.5-4.35 17.27l-.06.24c-.25.99-.34 2.61.44 3.42s1.43-.12 1.63-.9z"/><path d="m289.8 219.97-4.17-14.2-9.93-33.85c-4.02-13.72-8.05-27.45-12.07-41.17l-10.38-35.38c-1.69-5.76-3.35-11.53-5.07-17.28-.02-.08-.05-.16-.07-.23-.19-.66-.7-2.1-1.64-1.58-.86.47-.72 2.42-.51 3.15l4.17 14.2 9.93 33.85c4.02 13.72 8.05 27.45 12.07 41.17l10.38 35.38c1.69 5.76 3.35 11.53 5.07 17.28.02.08.05.16.07.23.19.66.7 2.1 1.64 1.58.86-.47.72-2.42.51-3.15z"/></g><defs><clipPath id="a"><path fill="#fff" d="M0 0h500v500H0z"/></clipPath></defs></svg>