<svg width="75" height="76" fill="none" xmlns="http://www.w3.org/2000/svg"><g clip-path="url(#a)" fill="#1D1D1B"><path d="M47.88 66.77H23.75l.87 1.66v-4.48l-.48.74h27.11l-.87-1.66v4.48l.48-.74h-2.98c-.95 0-.38 2.4.39 2.4h2.98c.41 0 .48-.4.48-.74v-4.48c0-.37-.29-1.66-.87-1.66H23.75c-.41 0-.48.4-.48.74v4.48c0 .37.29 1.66.87 1.66h24.13c.95 0 .38-2.4-.39-2.4zM26.45 50.89H47.6c.81 0 1.8-2.24.95-2.24H27.4c-.81 0-1.8 2.24-.95 2.24z"/><path d="M26.92 62.13v-8.01L25.62 56h22.76l-.29-.32v8.01c0 .58.66.19.86 0 .41-.38.73-.99.73-1.56v-8.01c0-.16-.12-.32-.29-.32H26.62c-.74 0-1.3 1.27-1.3 1.88v8.01c0 .58.66.19.86 0 .41-.38.73-.99.73-1.56h.01zM30.48 48.51c.04-.33.1-.66.16-.99.06-.31.13-.61.2-.92.13-.54.2-.78.32-1.15.61-1.87 1.47-3.75 3.07-5 1.72-1.35 4.28-1.59 6.17-.46 1.77 1.06 2.74 3.02 3.35 4.92.25.79.47 1.75.61 2.65.05.29.08.58.12.87l.03.26c-.06-.45-.02-.28-.02-.18.03.49.24 1.15.86 1.06.56-.08.92-.89.89-1.39-.23-3.57-1.41-7.85-4.38-10.1-2.07-1.57-5.02-1.65-7.27-.42s-3.64 3.52-4.54 5.81c-.58 1.49-1.05 3.1-1.23 4.7-.06.49-.02 1.26.59 1.39.56.12 1.03-.59 1.08-1.06l-.01.01zM37.18 14.32c.99 1.46 2.2 2.69 3.67 3.67.35.24.63-.36.69-.59.13-.47.1-1.08-.14-1.51-.83-1.47-1.65-2.93-2.48-4.4l-.22 2.1c.99-.46 2.01-.85 3.06-1.16.43-.13.44-1.07.41-1.38-.04-.39-.17-1.01-.64-1.07l-1.71-.2-.77-.09c-.23-.03-.55 0-.75-.14l.28.31-.06-.11.18.55c.08.61.01.25.02.06s.02-.36.02-.54c0-.28 0-.56-.02-.85-.05-.73-.18-1.43-.61-2.03-.24-.34-.63-.07-.75.22-.37.9-.7 1.81-1.06 2.7l.6-.34c-.94-.53-1.89-1.06-2.83-1.59-.43-.24-.66.47-.71.74-.09.52-.04 1.12.3 1.55.62.8 1.24 1.59 1.86 2.39l.25-2.34c-1.18-.05-2.35.21-3.39.76-.42.22-.45.99-.41 1.38.04.42.17.96.64 1.07 1.24.27 2.59.58 3.86.55l-.23-2.45c-.74.28-1.31 1.15-1.74 1.77-.49.7-.96 1.45-1.31 2.23-.19.41-.2.94-.09 1.37.06.24.24.8.59.75.85-.12 1.56-.8 2.18-1.35.62-.55 1.24-1.24 1.96-1.73.45-.31.47-1.07.39-1.55-.05-.28-.33-1.16-.79-.85-.7.48-1.3 1.13-1.93 1.7-.51.46-1.26 1.19-1.88 1.28l.5 2.12c.31-.68.66-1.23 1.07-1.83.39-.57.84-1.28 1.45-1.51.67-.26.59-2.47-.23-2.45-1.27.03-2.62-.28-3.86-.55l.23 2.45c.96-.5 1.99-.71 3.06-.66.4.02.54-.66.57-.93.05-.48-.02-1.02-.33-1.4-.62-.8-1.24-1.59-1.86-2.39l-.42 2.3c.94.53 1.89 1.06 2.83 1.59.26.15.51-.12.6-.34.37-.9.7-1.81 1.06-2.7l-.75.22s-.07-.09-.09-.15l.03.09c-.03-.13-.04-.13 0 0 .02.13.02.14 0 .06-.02-.15 0 .19 0 .23v.34c0 .07-.02.47 0 .13 0 .08 0 .16-.01.24-.02.5-.03 1.02.21 1.48.34.66 1.04.6 1.69.68.74.09 1.48.17 2.22.26l-.23-2.45c-1.05.32-2.07.7-3.06 1.16-.63.29-.48 1.63-.22 2.1.83 1.47 1.65 2.93 2.48 4.4l.55-2.11c-1.2-.81-2.29-1.84-3.1-3.04-.27-.4-.65-.46-.88.02-.23.48-.26 1.32.05 1.77v-.01z"/><path d="M32.21 36.81c1.56-5.75 3.13-11.5 4.69-17.26.22-.82.45-1.65.67-2.47.12-.46.18-1.35-.22-1.71-.4-.36-.7.03-.81.45-1.56 5.75-3.13 11.5-4.69 17.26-.22.82-.45 1.65-.67 2.47-.12.46-.18 1.35.22 1.71.4.36.7-.03.81-.45z"/><path d="M43.76 35.5c-1.82-5.75-3.65-11.5-5.47-17.25-.26-.82-.52-1.65-.78-2.47-.13-.42-.51-.74-.86-.36-.37.41-.18 1.28-.04 1.72 1.82 5.75 3.65 11.5 5.47 17.25.26.82.52 1.65.78 2.47.13.42.51.74.86.36.37-.41.18-1.28.04-1.72z"/></g><defs><clipPath id="a"><path fill="#fff" transform="translate(0 .5)" d="M0 0h75v75H0z"/></clipPath></defs></svg>