<svg width="75" height="76" fill="none" xmlns="http://www.w3.org/2000/svg"><g clip-path="url(#a)" fill="#1D1D1B"><path d="M5.46 55.24c7.18 0 14.36-.01 21.53-.02 11.35 0 22.7-.02 34.05-.03h7.9c.88 0 1.63-2.36.59-2.36-7.18 0-14.36.01-21.53.02-11.35 0-22.7.02-34.05.03h-7.9c-.88 0-1.63 2.36-.59 2.36zM5.08 39.84l21.53-.18c11.35-.09 22.7-.19 34.05-.28 2.63-.02 5.26-.04 7.9-.07.54 0 1.29-.17 1.65-.63.27-.34.27-.76-.29-.76l-21.53.18c-11.35.09-22.7.19-34.05.28-2.63.02-5.26.04-7.9.07-.54 0-1.29.17-1.65.63-.27.34-.27.76.29.76zM6.1 23.45h63.49c.48 0 .09-2.41-.68-2.41H5.42c-.48 0-.09 2.41.68 2.41zM18.65 49.73c0-.73.04-1.47.11-2.19.06-.64.14-1.28.26-1.92.06-.32.13-.63.22-.94.02-.07.04-.14.06-.2.01-.04.02-.08.04-.11 0 .01-.03.09 0 .02.05-.13.1-.26.16-.39.05-.12.12-.22.18-.34.09-.16-.09.09 0 0 .02-.02.12-.12.11-.14 0 .06-.2.19-.05.06.1-.08-.25.19-.14.11.11-.08-.25.15-.2.12.03-.02-.35.16-.2.1.04-.02-.3.1-.19.07.11-.03-.26.05-.15.03.14-.02-.08.02-.08 0l.14.01s-.12-.05 0 0c.09.04.18.08.26.14.03.02.12.1.04.03.04.03.07.07.11.11.08.09.15.18.21.28.63.99.8 2.3.93 3.44.1.87.16 1.76.16 2.64 0 .67 2.23-.25 2.23-.95 0-.83-.06-1.66-.14-2.48-.13-1.26-.29-2.74-.98-3.84-.28-.46-.69-.79-1.24-.84-.95-.08-2.03.58-2.62 1.28-.86 1.02-1.09 2.51-1.26 3.8-.13 1-.2 2.02-.2 3.03 0 .67 2.23-.25 2.23-.95v.02zM57.44 43.77c.05 0 .1 0 .16.01-.11 0-.09-.03 0 0s.18.08.26.14c.11.07 0 0 .06.05.04.04.07.07.1.11.08.09.14.19.21.29.31.5.48 1.08.61 1.65.28 1.17.38 2.37.43 3.57.01.27.02.55.02.82 0 .67 2.23-.25 2.23-.95 0-.81-.05-1.62-.14-2.42-.13-1.26-.28-2.7-.93-3.82-.29-.51-.74-.91-1.36-.93-.57-.01-1.17.31-1.58.68-.19.17-.65.77-.08.78l.01.02zM22.84 33.2c0-.7.03-1.41.08-2.11.08-1.2.18-2.44.53-3.59.01-.04.08-.23.03-.09.02-.06.05-.12.07-.19.04-.1.1-.2.15-.3.09-.17 0 0-.01.01.03-.05.17-.17.01-.03-.28.26-.85.58-1.26.59.58-.02 1.15-.3 1.58-.68.18-.16.66-.8.08-.78-.99.03-1.99.65-2.5 1.49-.3.5-.45 1.12-.57 1.69-.27 1.3-.35 2.64-.4 3.97-.01.32-.02.64-.02.96 0 .67 2.23-.25 2.23-.95v.01zM63.93 43.85s.15.02.04 0c-.12-.03 0 0 .03.02l.09.06c.08.05-.05-.07.04.04.13.16.23.33.32.51.23.52.35 1.09.45 1.64.2 1.17.27 2.36.31 3.55 0 .28.02.56.02.84 0 .67 2.23-.25 2.23-.95 0-.8-.04-1.6-.1-2.39-.1-1.26-.19-2.65-.69-3.83-.2-.47-.53-.93-1.08-.94-.55-.01-1.17.31-1.58.68-.2.17-.65.76-.08.78v-.01zM11.83 64.01c0-.7.03-1.41.08-2.11.08-1.2.18-2.44.53-3.59.01-.04.08-.23.03-.09.02-.06.05-.12.07-.19.04-.1.1-.2.15-.3.09-.17 0 0-.01.01.03-.05.17-.17.01-.03-.28.26-.85.58-1.26.59.58-.02 1.15-.3 1.58-.68.18-.16.66-.8.08-.78-.99.03-1.99.65-2.5 1.49-.3.5-.45 1.12-.57 1.69-.27 1.3-.35 2.64-.4 3.97-.01.32-.02.64-.02.96 0 .67 2.23-.25 2.23-.95v.01zM18.4 64.01c0-.7.03-1.41.08-2.11.08-1.2.18-2.44.53-3.59.01-.04.08-.23.03-.09.02-.06.05-.12.07-.19.04-.1.1-.2.15-.3.09-.17 0 0-.01.01.03-.05.17-.17.01-.03-.28.26-.85.58-1.26.59.58-.02 1.15-.3 1.58-.68.18-.16.66-.8.08-.78-.99.03-1.99.65-2.5 1.49-.3.5-.45 1.12-.57 1.69-.27 1.3-.35 2.64-.4 3.97-.01.32-.02.64-.02.96 0 .67 2.23-.25 2.23-.95v.01zM24.97 64.01c0-.7.03-1.41.08-2.11.08-1.2.18-2.44.53-3.59.01-.04.08-.23.03-.09.02-.06.05-.12.07-.19.04-.1.1-.2.15-.3.09-.17 0 0-.01.01.03-.05.17-.17.01-.03-.28.26-.85.58-1.26.59.58-.02 1.15-.3 1.58-.68.18-.16.66-.8.08-.78-.99.03-1.99.65-2.5 1.49-.3.5-.45 1.12-.57 1.69-.27 1.3-.35 2.64-.4 3.97-.01.32-.02.64-.02.96 0 .67 2.23-.25 2.23-.95v.01zM10.13 33.2c0-.74.07-1.49.18-2.23.09-.64.22-1.28.41-1.91.09-.31.15-.47.31-.81.06-.14.13-.27.21-.4.04-.07.08-.13.12-.2.11-.18-.03.03.04-.06.05-.06.09-.12.14-.17.02-.03.05-.05.07-.08.1-.12-.06.1-.07.07 0 0 .13-.12.14-.12.1-.1-.22.17-.11.09.08-.06.23-.13-.13.08.22-.13-.13.06-.09.04.23-.1-.28.09-.04.01.2-.06-.19.01-.02 0 .03 0 .08 0 .11-.01.15-.03-.12 0-.02 0 .14 0 .28.01.43.04.12.02.02 0 0 0 .03 0 .07.02.1.03.07.03.13.05.2.08.26.12.48.28.64.44.88.91 1.23 2.28 1.45 3.49.14.81.24 1.72.24 2.58 0 .67 2.23-.25 2.23-.95 0-.83-.09-1.66-.22-2.47-.21-1.33-.54-2.86-1.51-3.86-1.35-1.39-3.38-.79-4.72.31-1.18.97-1.7 2.5-1.98 3.96-.19.99-.31 2.01-.31 3.02 0 .67 2.23-.25 2.23-.95l-.03-.02zM47.98 49.48c0-.74.07-1.49.18-2.23.09-.64.22-1.28.41-1.91.09-.31.15-.47.31-.81.06-.14.13-.27.21-.4.04-.07.08-.13.12-.2.11-.18-.03.03.04-.06.05-.06.09-.12.14-.17.02-.03.05-.05.07-.08.1-.12-.06.1-.07.07 0 0 .13-.12.14-.12.1-.1-.22.17-.11.09.08-.06.23-.13-.13.08.22-.13-.13.06-.09.04.23-.1-.28.09-.04.01.2-.06-.19.01-.02 0 .03 0 .08 0 .11-.01.15-.03-.12 0-.02 0 .14 0 .28.01.43.04.12.02.02 0 0 0 .03 0 .07.02.1.03.07.03.13.05.2.08.26.12.48.28.64.44.88.91 1.23 2.28 1.45 3.49.14.81.24 1.72.24 2.58 0 .67 2.23-.25 2.23-.95 0-.83-.09-1.66-.22-2.47-.21-1.33-.54-2.86-1.51-3.86-1.35-1.39-3.38-.79-4.72.31-1.18.97-1.7 2.5-1.98 3.96-.19.99-.31 2.01-.31 3.02 0 .67 2.23-.25 2.23-.95l-.03-.02zM54.78 63.54c0-.74.07-1.49.18-2.23.09-.64.22-1.28.41-1.91.09-.31.15-.47.31-.81.06-.14.13-.27.21-.4.04-.07.08-.13.12-.2.11-.18-.03.03.04-.06.05-.06.09-.12.14-.17.02-.03.05-.05.07-.08.1-.12-.06.1-.07.07 0 0 .13-.12.14-.12.1-.1-.22.17-.11.09.08-.06.23-.13-.13.08.22-.13-.13.06-.09.04.23-.1-.28.09-.04.01.2-.06-.19.01-.02 0 .03 0 .08 0 .11-.01.15-.03-.12 0-.02 0 .14 0 .28.01.43.04.12.02.02 0 0 0 .03 0 .07.02.1.03.07.03.13.05.2.08.26.12.48.28.64.44.88.91 1.23 2.28 1.45 3.49.14.81.24 1.72.24 2.58 0 .67 2.23-.25 2.23-.95 0-.83-.09-1.66-.22-2.47-.21-1.33-.54-2.86-1.51-3.86-1.35-1.39-3.38-.79-4.72.31-1.18.97-1.7 2.5-1.98 3.96-.19.99-.31 2.01-.31 3.02 0 .67 2.23-.25 2.23-.95l-.03-.02zM31.53 64.01c0-.74.07-1.49.18-2.23.09-.64.22-1.28.41-1.91.09-.31.15-.47.31-.81.06-.14.13-.27.21-.4.04-.07.08-.13.12-.2.11-.18-.03.03.04-.06.05-.06.09-.12.14-.17.02-.03.05-.05.07-.08.1-.12-.06.1-.07.07 0 0 .13-.12.14-.12.1-.1-.22.17-.11.09.08-.06.23-.13-.13.08.22-.13-.13.06-.09.04.23-.1-.28.09-.04.01.2-.06-.19.01-.02 0 .03 0 .08 0 .11-.01.15-.03-.12 0-.02 0 .14 0 .28.01.43.04.12.02.02 0 0 0 .03 0 .07.02.1.03.07.03.13.05.2.08.26.12.48.28.64.44.88.91 1.23 2.28 1.45 3.49.14.81.24 1.72.24 2.58 0 .67 2.23-.25 2.23-.95 0-.83-.09-1.66-.22-2.47-.21-1.33-.54-2.86-1.51-3.86-1.35-1.39-3.38-.79-4.72.31-1.18.97-1.7 2.5-1.98 3.96-.19.99-.31 2.01-.31 3.02 0 .67 2.23-.25 2.23-.95l-.03-.02zM32.15 33.2c0-.74.07-1.49.18-2.23.09-.64.22-1.28.41-1.91.09-.31.15-.47.31-.81.06-.14.13-.27.21-.4.04-.07.08-.13.12-.2.11-.18-.03.03.04-.06.05-.06.09-.12.14-.17.02-.03.05-.05.07-.08.1-.12-.06.1-.07.07 0 0 .13-.12.14-.12.1-.1-.22.17-.11.09.08-.06.23-.13-.13.08.22-.13-.13.06-.09.04.23-.1-.28.09-.04.01.2-.06-.19.01-.02 0 .03 0 .08 0 .11-.01.15-.03-.12 0-.02 0 .14 0 .28.01.43.04.12.02.02 0 0 0 .03 0 .07.02.1.03.07.03.13.05.2.08.26.12.48.28.64.44.88.91 1.23 2.28 1.45 3.49.14.81.24 1.72.24 2.58 0 .67 2.23-.25 2.23-.95 0-.83-.09-1.66-.22-2.47-.21-1.33-.54-2.86-1.51-3.86-1.35-1.39-3.38-.79-4.72.31-1.18.97-1.7 2.5-1.98 3.96-.19.99-.31 2.01-.31 3.02 0 .67 2.23-.25 2.23-.95l-.03-.02zM5.95 12.4l15.55 1.32-.93-.73c.18.98.13 2.6 1.27 2.92.9.25 2.03 0 2.93-.09 2.34-.21 4.67-.44 7-.69.47-.05 1.04-.42.86-.95-.18-.56-1.1-.56-1.54-.52-1.83.2-3.67.38-5.5.56-.94.09-1.92.08-2.86.23-.08.01-.28-.03-.35 0 .88.7 1.23.82 1.05.35-.04-.13-.07-.27-.09-.4-.11-.47-.19-.95-.28-1.43-.08-.43-.51-.69-.93-.73L6.58 10.92c-.46-.04-1.36-.01-1.53.55-.16.53.42.89.88.93h.02zM35.51 16.61c2.37-.4 4.74-.8 7.11-1.19.23-.04.25-.5.26-.65l.06-1.44-.26.65 6.33-1.22-.4-.58 1.17 3.88c.04.15.17.6.4.58 3.08-.24 6.16-.48 9.24-.7 1.97-.14 3.95-.28 5.93-.39.55-.03 1.23.05 1.77-.07-.07.02.99-.02.4-.31.21.1.22 1.48.25 1.71.02.2.16 1.28.52 1.2.36-.08.26-1.07.24-1.29-.12-.92-.06-2.74-.73-3.49-.34-.39-.91-.3-1.37-.29-1.96.06-3.92.22-5.88.35-3.55.25-7.09.52-10.63.8l.4.58-1.17-3.88c-.04-.12-.18-.62-.4-.58l-6.33 1.22c-.23.04-.25.49-.26.65l-.06 1.44.26-.65c-2.37.4-4.74.8-7.11 1.19-.57.09-.23 2.57.28 2.48h-.02z"/></g><defs><clipPath id="a"><path fill="#fff" transform="translate(0 .5)" d="M0 0h75v75H0z"/></clipPath></defs></svg>