<svg width="500" height="500" fill="none" xmlns="http://www.w3.org/2000/svg"><g clip-path="url(#a)" fill="#1E1E1C"><path d="M26.25 310.04h12l32.38-.02 48.19-.03c19.46-.01 38.93-.03 58.39-.04 21.46-.01 42.93-.03 64.39-.04 21.52-.01 43.04-.03 64.56-.04l60.6-.04 50.87-.03c12.28 0 24.56-.02 36.83-.02 5.76 0 11.57.2 17.34-.01h.76c1.76 0 3.25-4.73 1.19-4.73h-12c-10.79 0-21.58.01-32.38.02l-48.19.03c-19.46.01-38.93.03-58.39.04-21.46.01-42.93.03-64.39.04-21.52.01-43.04.03-64.56.04-20.2.01-40.4.03-60.6.04l-50.87.03c-12.28 0-24.56.02-36.83.02-5.76 0-11.57-.2-17.34.01h-.76c-1.76 0-3.25 4.73-1.19 4.73zM25.48 241c4-.03 8-.05 12-.08 10.79-.07 21.58-.14 32.38-.2l48.19-.3c19.46-.12 38.93-.24 58.39-.37 21.46-.13 42.93-.27 64.39-.4 21.52-.13 43.04-.27 64.56-.4 20.2-.13 40.4-.25 60.6-.38 16.96-.11 33.91-.21 50.87-.32 12.28-.08 24.56-.15 36.83-.23 5.78-.04 11.56-.06 17.34-.11h.76c1.09 0 2.59-.35 3.3-1.26.54-.69.55-1.52-.58-1.51-4 .03-8 .05-12 .08-10.79.07-21.58.14-32.38.2l-48.19.3c-19.46.12-38.93.24-58.39.37-21.46.13-42.93.27-64.39.4-21.52.13-43.04.27-64.56.4-20.2.13-40.4.25-60.6.38-16.96.11-33.91.21-50.87.32-12.28.08-24.56.15-36.83.23-5.78.04-11.56.06-17.34.11h-.76c-1.09 0-2.59.35-3.3 1.26-.54.69-.55 1.52.58 1.51zM27.53 168.69h428.19c5.74 0 11.63.4 17.36 0 .25-.02.51 0 .76 0 .96 0 .18-4.81-1.36-4.81H44.28c-5.74 0-11.63-.4-17.36 0-.25.02-.51 0-.76 0-.96 0-.18 4.81 1.36 4.81h.01zM111.85 291.68c0-3.95.33-7.93.81-11.85.8-6.49 1.98-13.69 5.66-19.24.31-.46.71-.96 1.15-1.47.36-.42-.01-.04.4-.41.13-.12.27-.24.4-.36.3-.26-.31.22.22-.16.09-.07.19-.13.29-.19-.63.42-.09.02.03 0 .51-.09-.43.27.02 0 .09-.06.22-.09.32-.13-.77.31.82-.18.24-.06.35-.07.7-.12 1.06-.14 2.38-.11 4.93 1.28 6.62 3.2 4.33 4.91 5.82 12.24 6.78 18.51.72 4.68 1.16 9.47 1.16 14.21 0 1.34 4.46-.5 4.46-1.89 0-4.29-.38-8.62-.97-12.87-.93-6.73-2.29-14.52-6.69-19.94-1.86-2.29-4.37-3.92-7.37-4.11-3.57-.22-7.14 1.45-9.7 3.87-5.18 4.89-6.93 12.74-8.03 19.5-.83 5.08-1.32 10.29-1.32 15.44 0 1.34 4.46-.5 4.46-1.89v-.02zM383.65 290.37c0-3.95.33-7.93.81-11.85.8-6.49 1.98-13.69 5.66-19.24.31-.46.71-.96 1.15-1.47.36-.42-.01-.04.4-.41.13-.12.27-.24.4-.36.3-.26-.31.22.22-.16.09-.07.19-.13.29-.19-.63.42-.09.02.03 0 .51-.09-.43.27.02 0 .09-.06.22-.09.32-.13-.77.31.82-.18.24-.06.35-.07.7-.12 1.06-.14 2.38-.11 4.93 1.28 6.62 3.2 4.33 4.91 5.82 12.24 6.78 18.51.72 4.68 1.16 9.47 1.16 14.21 0 1.34 4.46-.5 4.46-1.89 0-4.29-.38-8.62-.97-12.87-.93-6.73-2.29-14.52-6.69-19.94-1.86-2.29-4.37-3.92-7.37-4.11-3.57-.22-7.14 1.45-9.7 3.87-5.18 4.89-6.93 12.74-8.03 19.5-.83 5.08-1.32 10.29-1.32 15.44 0 1.34 4.46-.5 4.46-1.89v-.02zM141.32 225.64c0-3.96.24-7.93.6-11.86.59-6.4 1.31-13.41 4.18-19.25.27-.55.56-1.08.89-1.59.21-.34.11-.2.38-.54.12-.14.62-.72.49-.59-.25.25.71-.83.11-.13.05-.06.17-.12.23-.17.45-.29-.54.32-.09.06.28-.16-.6.21-.28.12.11-.03.57-.14.02-.01.12-.03.29-.06.41-.06-.38 0 .37.02.49.03.27.02.44.07.56.1.5.14.96.38 1.39.66.95.62 1.67 1.54 2.27 2.48 1.6 2.49 2.5 5.41 3.22 8.26.83 3.31 1.35 6.69 1.74 10.08.54 4.74.87 9.53.87 14.3 0 1.34 4.46-.5 4.46-1.89 0-4.31-.28-8.63-.72-12.91-.37-3.64-.89-7.29-1.7-10.86-.7-3.07-1.59-6.21-3.2-8.94-1.24-2.1-3.09-3.98-5.64-4.2-3.17-.28-6.41 1.75-8.32 4.15-1.91 2.4-2.98 5.39-3.8 8.32-.98 3.51-1.58 7.13-2.02 10.75-.63 5.16-1 10.39-1 15.58 0 1.34 4.46-.5 4.46-1.89zM433.08 290.77c0-3.96.24-7.93.6-11.86.59-6.4 1.31-13.41 4.18-19.25.27-.55.56-1.08.89-1.59.21-.34.11-.2.38-.54.12-.14.62-.72.49-.59-.25.25.71-.83.11-.13.05-.06.17-.12.23-.17.45-.29-.54.32-.09.06.28-.16-.6.21-.28.12.11-.03.57-.14.02-.01.12-.03.29-.06.41-.06-.38 0 .37.02.49.03.27.02.44.07.56.1.5.14.96.38 1.39.66.95.62 1.67 1.54 2.27 2.48 1.6 2.49 2.5 5.41 3.22 8.26.83 3.31 1.35 6.69 1.74 10.08.54 4.74.87 9.53.87 14.3 0 1.34 4.46-.5 4.46-1.89 0-4.31-.28-8.63-.72-12.91-.37-3.64-.89-7.29-1.7-10.86-.7-3.07-1.59-6.21-3.2-8.94-1.24-2.1-3.09-3.98-5.64-4.2-3.17-.28-6.41 1.75-8.32 4.15-1.91 2.4-2.98 5.39-3.8 8.32-.98 3.51-1.58 7.13-2.02 10.75-.63 5.16-1 10.39-1 15.58 0 1.34 4.46-.5 4.46-1.89zM63.93 361.72c0-3.96.24-7.93.6-11.86.59-6.4 1.31-13.41 4.18-19.25.27-.55.56-1.08.89-1.59.21-.34.11-.2.38-.54.12-.14.62-.72.49-.59-.25.25.71-.83.11-.13.05-.06.17-.12.23-.17.45-.29-.54.32-.09.06.28-.16-.6.21-.28.12.11-.03.57-.14.02-.01.12-.03.29-.06.41-.06-.38 0 .37.02.49.03.27.02.44.07.56.1.5.14.96.38 1.39.66.95.62 1.67 1.54 2.27 2.48 1.6 2.49 2.5 5.41 3.22 8.26.83 3.31 1.35 6.69 1.74 10.08.54 4.74.87 9.53.87 14.3 0 1.34 4.46-.5 4.46-1.89 0-4.31-.28-8.63-.72-12.91-.37-3.64-.89-7.29-1.7-10.86-.7-3.07-1.59-6.21-3.2-8.94-1.24-2.1-3.09-3.98-5.64-4.2-3.17-.28-6.41 1.75-8.32 4.15-1.91 2.4-2.98 5.39-3.8 8.32-.98 3.51-1.58 7.13-2.02 10.75-.63 5.16-1 10.39-1 15.58 0 1.34 4.46-.5 4.46-1.89zM110.1 361.72c0-3.96.24-7.93.6-11.86.59-6.4 1.31-13.41 4.18-19.25.27-.55.56-1.08.89-1.59.21-.34.11-.2.38-.54.12-.14.62-.72.49-.59-.25.25.71-.83.11-.13.05-.06.17-.12.23-.17.45-.29-.54.32-.09.06.28-.16-.6.21-.28.12.11-.03.57-.14.02-.01.12-.03.29-.06.41-.06-.38 0 .37.02.49.03.27.02.44.07.56.1.5.14.96.38 1.39.66.95.62 1.67 1.54 2.27 2.48 1.6 2.49 2.5 5.41 3.22 8.26.83 3.31 1.35 6.69 1.74 10.08.54 4.74.87 9.53.87 14.3 0 1.34 4.46-.5 4.46-1.89 0-4.31-.28-8.63-.72-12.91-.37-3.64-.89-7.29-1.7-10.86-.7-3.07-1.59-6.21-3.2-8.94-1.24-2.1-3.09-3.98-5.64-4.2-3.17-.28-6.41 1.75-8.32 4.15-1.91 2.4-2.98 5.39-3.8 8.32-.98 3.51-1.58 7.13-2.02 10.75-.63 5.16-1 10.39-1 15.58 0 1.34 4.46-.5 4.46-1.89zM156.27 361.72c0-3.96.24-7.93.6-11.86.59-6.4 1.31-13.41 4.18-19.25.27-.55.56-1.08.89-1.59.21-.34.11-.2.38-.54.12-.14.62-.72.49-.59-.25.25.71-.83.11-.13.05-.06.17-.12.23-.17.45-.29-.54.32-.09.06.28-.16-.6.21-.28.12.11-.03.57-.14.02-.01.12-.03.29-.06.41-.06-.38 0 .37.02.49.03.27.02.44.07.56.1.5.14.96.38 1.39.66.95.62 1.67 1.54 2.27 2.48 1.6 2.49 2.5 5.41 3.22 8.26.83 3.31 1.35 6.69 1.74 10.08.54 4.74.87 9.53.87 14.3 0 1.34 4.46-.5 4.46-1.89 0-4.31-.28-8.63-.72-12.91-.37-3.64-.89-7.29-1.7-10.86-.7-3.07-1.59-6.21-3.2-8.94-1.24-2.1-3.09-3.98-5.64-4.2-3.17-.28-6.41 1.75-8.32 4.15-1.91 2.4-2.98 5.39-3.8 8.32-.98 3.51-1.58 7.13-2.02 10.75-.63 5.16-1 10.39-1 15.58 0 1.34 4.46-.5 4.46-1.89zM52.01 225.64c0-4 .52-8.05 1.28-11.97.67-3.45 1.59-6.88 2.96-10.12 1.35-3.19 3.35-6.58 5.7-8.73.82-.75.87-.77 1.73-1.36.6-.41-.45.25.17-.11.19-.11.38-.22.57-.32.13-.07.26-.14.39-.2-.53.27.31-.13.4-.17 1.26-.53 3.1-.96 4.96-1.01 3.87-.12 7.66.93 10.82 3.18 5.94 4.22 8.88 11.7 10.53 18.53 1.11 4.6 1.81 9.44 1.81 14.19 0 1.34 4.46-.5 4.46-1.89 0-4.27-.6-8.61-1.47-12.78-1.51-7.29-4.3-14.95-10.16-19.88-6.87-5.77-16.96-5.35-24.26-.65-6.8 4.38-10.35 12.04-12.29 19.63-1.24 4.88-2.2 10.24-2.08 15.31v.27c0 1.34 4.46-.5 4.46-1.89l.02-.03zM318.05 290.37c0-4 .52-8.05 1.28-11.97.67-3.45 1.59-6.88 2.96-10.12 1.37-3.24 3.35-6.58 5.7-8.73.82-.75.87-.77 1.73-1.36.6-.41-.45.25.17-.11.19-.11.38-.22.57-.32.13-.07.26-.14.39-.2-.53.27.31-.13.4-.17 1.26-.53 3.1-.96 4.96-1.01 3.87-.12 7.66.93 10.82 3.18 5.94 4.22 8.88 11.7 10.53 18.53 1.11 4.6 1.81 9.44 1.81 14.19 0 1.34 4.46-.5 4.46-1.89 0-4.27-.6-8.61-1.47-12.78-1.51-7.29-4.3-14.95-10.16-19.88-6.87-5.77-16.96-5.35-24.26-.65-6.8 4.38-10.35 12.04-12.29 19.63-1.24 4.88-2.2 10.24-2.08 15.31v.27c0 1.34 4.46-.5 4.46-1.89l.02-.03zM365.89 359.24c0-4 .52-8.05 1.28-11.97.67-3.45 1.59-6.88 2.96-10.12 1.35-3.19 3.35-6.58 5.7-8.73.82-.75.87-.77 1.73-1.36.6-.41-.45.25.17-.11a16.336 16.336 0 0 1 .96-.52c-.53.27.31-.13.4-.17 1.26-.53 3.1-.96 4.96-1.01 3.87-.12 7.66.93 10.82 3.18 5.94 4.22 8.88 11.7 10.53 18.53 1.11 4.6 1.81 9.44 1.81 14.19 0 1.34 4.46-.5 4.46-1.89 0-4.27-.6-8.61-1.47-12.78-1.51-7.29-4.3-14.95-10.16-19.88-6.87-5.77-16.96-5.35-24.26-.65-6.8 4.38-10.35 12.04-12.29 19.63-1.24 4.88-2.2 10.24-2.08 15.31v.27c0 1.34 4.46-.5 4.46-1.89l.02-.03zM202.45 361.72c0-4 .52-8.05 1.28-11.97.67-3.45 1.59-6.88 2.96-10.12 1.37-3.24 3.35-6.58 5.7-8.73.82-.75.87-.77 1.73-1.36.6-.41-.45.25.17-.11.19-.11.38-.22.57-.32.13-.07.26-.14.39-.2-.53.27.31-.13.4-.17 1.26-.53 3.1-.96 4.96-1.01 3.87-.12 7.66.93 10.82 3.18 5.94 4.22 8.88 11.7 10.53 18.53 1.11 4.6 1.81 9.44 1.81 14.19 0 1.34 4.46-.5 4.46-1.89 0-4.27-.6-8.61-1.47-12.78-1.51-7.29-4.3-14.95-10.16-19.88-6.87-5.77-16.96-5.35-24.26-.65-6.8 4.38-10.35 12.04-12.29 19.63-1.24 4.88-2.2 10.24-2.08 15.31v.27c0 1.34 4.46-.5 4.46-1.89l.02-.03zM206.81 225.64c0-4 .52-8.05 1.28-11.97.67-3.45 1.59-6.88 2.96-10.12 1.35-3.19 3.35-6.58 5.7-8.73.82-.75.87-.77 1.73-1.36.6-.41-.45.25.17-.11.19-.11.38-.22.57-.32.13-.07.26-.14.39-.2-.53.27.31-.13.4-.17 1.26-.53 3.1-.96 4.96-1.01 3.87-.12 7.66.93 10.82 3.18 5.94 4.22 8.88 11.7 10.53 18.53 1.11 4.6 1.81 9.44 1.81 14.19 0 1.34 4.46-.5 4.46-1.89 0-4.27-.6-8.61-1.47-12.78-1.51-7.29-4.3-14.95-10.16-19.88-6.87-5.77-16.96-5.35-24.26-.65-6.8 4.38-10.35 12.04-12.29 19.63-1.24 4.88-2.2 10.24-2.08 15.31v.27c0 1.34 4.46-.5 4.46-1.89l.02-.03zM30.47 127.85l10.88.69 26.13 1.66c10.49.67 20.99 1.33 31.48 2l27.42 1.74c4.38.28 8.83.81 13.23.84.06 0 .13 0 .19.01l-2.42-1.09c.67 2.78 1.37 5.55 2.16 8.29.33 1.16.59 2.76 1.42 3.7.67.75 1.73.85 2.67.9 3.92.19 7.94-.25 11.85-.49 13.73-.84 27.46-1.9 41.17-2.97 3.59-.28 7.17-.56 10.76-.85l-2.52-1.5c.12 2.49.19 5 0 7.48-.16 2.02 4.83 2.06 5-.05.2-2.48.12-5 0-7.48-.05-1.1-1.63-1.57-2.52-1.5-9.17.74-18.35 1.44-27.52 2.12-7.01.52-14.02 1.03-21.04 1.48-4.63.3-9.28.67-13.93.72h-.94c-.85 0 .56.1.05 0 .49.09.65.25 1.33.63.16.09.14.29-.03-.16-.25-.67-.48-1.33-.69-2.02-.92-3.03-1.68-6.1-2.42-9.18-.21-.89-1.74-1.05-2.42-1.09l-10.88-.69c-8.71-.55-17.42-1.11-26.13-1.66-10.49-.67-20.99-1.33-31.48-2l-27.42-1.74c-4.39-.28-8.82-.75-13.23-.84-.06 0-.13 0-.19-.01-.9-.06-2.47.45-2.48 1.55-.01 1.19 1.68 1.45 2.52 1.5v.01zM232.09 132.89c.75 4.58 1.5 9.15 2.24 13.73.06.34.35 1.81.94 1.74 5.62-.71 11.23-1.41 16.85-2.12l27-3.39 6.17-.78c.45-.06.49-1.01.51-1.3l.42-7.6-.51 1.3c5.02-.73 10.04-1.46 15.07-2.18 7.96-1.15 15.92-2.31 23.88-3.46 1.84-.27 3.69-.53 5.53-.8l-.62-.67c2.39 5.95 4.78 11.91 7.17 17.86.34.86.69 1.71 1.03 2.57.08.2.32.68.62.67 4.4-.26 8.8-.52 13.2-.77 10.38-.6 20.76-1.2 31.15-1.78 12.29-.69 24.58-1.36 36.87-1.98 9.98-.51 19.97-1.01 29.96-1.37 2.86-.1 5.71-.21 8.57-.21 1.02 0 2.1-.02 3.1.2.38.08.57.19.9.32.7.28.25.14.24.14.05.05-.04-.07-.04-.07s.14.33.14.34c-.12-.4.08.29.12.42.06.19.25.93.22.82.43 1.73.76 3.49 1.08 5.25.28 1.51.54 3.02.79 4.53.07.45.42 2.06 1.13 1.63.71-.43.27-2.58.18-3.12-.55-3.36-1.12-6.72-1.93-10.03-.33-1.34-.6-2.95-1.39-4.11-.72-1.05-2.27-1.18-3.43-1.25-2.18-.13-4.39 0-6.58.05-9.32.27-18.63.74-27.94 1.2-12.37.62-24.75 1.28-37.12 1.97-11.05.61-22.09 1.24-33.14 1.88-3.7.21-7.4.43-11.1.65-1.16.07-2.32.14-3.48.2-.53.03-1.32-.07-1.83.11-.07.02-.16 0-.23.01l.62.67c-2.39-5.95-4.78-11.91-7.17-17.86-.34-.86-.69-1.71-1.03-2.57-.07-.17-.33-.71-.62-.67-5.02.73-10.04 1.46-15.07 2.18-7.96 1.15-15.92 2.31-23.88 3.46-1.84.27-3.69.53-5.53.8-.45.07-.49 1-.51 1.3l-.42 7.6.51-1.3c-5.62.71-11.23 1.41-16.85 2.12l-27 3.39-6.17.78.94 1.74c-.75-4.58-1.5-9.15-2.24-13.73-.07-.45-.42-2.06-1.13-1.63-.71.43-.26 2.58-.18 3.12h-.01z"/></g><defs><clipPath id="a"><path fill="#fff" d="M0 0h500v500H0z"/></clipPath></defs></svg>