<svg width="549" height="216" viewBox="0 0 549 216" fill="none" xmlns="http://www.w3.org/2000/svg">
<g clip-path="url(#clip0_16522_14108)">
<path d="M9 69C9 66.7909 10.7909 65 13 65H461C463.209 65 465 66.7909 465 69V147C465 149.209 463.209 151 461 151H13C10.7909 151 9 149.209 9 147V69Z" fill="#E6ECEB"/>
<path fill-rule="evenodd" clip-rule="evenodd" d="M27.0001 78.6667C31.6025 78.6667 35.3334 82.3977 35.3334 87.0001C35.3334 91.6025 31.6025 95.3334 27.0001 95.3334C22.3977 95.3334 18.6667 91.6025 18.6667 87.0001C18.6667 82.3977 22.3977 78.6667 27.0001 78.6667ZM28.0417 85.9584H25.9584V92.2084H28.0417V85.9584ZM27.0001 81.7917C26.1371 81.7917 25.4376 82.4913 25.4376 83.3542C25.4376 84.2172 26.1371 84.9167 27.0001 84.9167C27.863 84.9167 28.5626 84.2172 28.5626 83.3542C28.5626 82.4913 27.863 81.7917 27.0001 81.7917Z" fill="#063D39"/>
<path d="M47.642 91H45.392L49.4886 79.3636H52.0909L56.1932 91H53.9432L50.8352 81.75H50.7443L47.642 91ZM47.7159 86.4375H53.8523V88.1307H47.7159V86.4375ZM59.6918 79.3636V91H57.6349V79.3636H59.6918ZM65.6705 91.1705C64.7955 91.1705 64.0398 90.9886 63.4034 90.625C62.7708 90.2576 62.2841 89.7386 61.9432 89.0682C61.6023 88.3939 61.4318 87.6004 61.4318 86.6875C61.4318 85.7898 61.6023 85.0019 61.9432 84.3239C62.2879 83.642 62.7689 83.1117 63.3864 82.733C64.0038 82.3504 64.7292 82.1591 65.5625 82.1591C66.1004 82.1591 66.608 82.2462 67.0852 82.4205C67.5663 82.5909 67.9905 82.8561 68.358 83.2159C68.7292 83.5758 69.0208 84.0341 69.233 84.5909C69.4451 85.1439 69.5511 85.803 69.5511 86.5682V87.1989H62.3977V85.8125H67.5795C67.5758 85.4186 67.4905 85.0682 67.3239 84.7614C67.1572 84.4508 66.9242 84.2064 66.625 84.0284C66.3295 83.8504 65.9848 83.7614 65.5909 83.7614C65.1705 83.7614 64.8011 83.8636 64.483 84.0682C64.1648 84.2689 63.9167 84.5341 63.7386 84.8636C63.5644 85.1894 63.4754 85.5473 63.4716 85.9375V87.1477C63.4716 87.6553 63.5644 88.0909 63.75 88.4545C63.9356 88.8144 64.1951 89.0909 64.5284 89.2841C64.8617 89.4735 65.2519 89.5682 65.6989 89.5682C65.9981 89.5682 66.2689 89.5265 66.5114 89.4432C66.7538 89.3561 66.964 89.2292 67.142 89.0625C67.3201 88.8958 67.4545 88.6894 67.5455 88.4432L69.4659 88.6591C69.3447 89.1667 69.1136 89.6098 68.7727 89.9886C68.4356 90.3636 68.0038 90.6553 67.4773 90.8636C66.9508 91.0682 66.3485 91.1705 65.6705 91.1705ZM71.2912 91V82.2727H73.2855V83.7273H73.3764C73.5355 83.2235 73.8082 82.8352 74.1946 82.5625C74.5848 82.286 75.0298 82.1477 75.5298 82.1477C75.6435 82.1477 75.7704 82.1534 75.9105 82.1648C76.0545 82.1723 76.1738 82.1856 76.2685 82.2045V84.0966C76.1813 84.0663 76.0431 84.0398 75.8537 84.017C75.6681 83.9905 75.4882 83.9773 75.3139 83.9773C74.9389 83.9773 74.6018 84.0587 74.3026 84.2216C74.0071 84.3807 73.7741 84.6023 73.6037 84.8864C73.4332 85.1705 73.348 85.4981 73.348 85.8693V91H71.2912ZM82.4616 82.2727V83.8636H77.4446V82.2727H82.4616ZM78.6832 80.1818H80.7401V88.375C80.7401 88.6515 80.7817 88.8636 80.8651 89.0114C80.9522 89.1553 81.0658 89.2538 81.206 89.3068C81.3461 89.3598 81.5014 89.3864 81.6719 89.3864C81.8007 89.3864 81.9181 89.3769 82.0241 89.358C82.134 89.339 82.2173 89.322 82.2741 89.3068L82.6207 90.9148C82.5109 90.9527 82.3537 90.9943 82.1491 91.0398C81.9484 91.0852 81.7022 91.1117 81.4105 91.1193C80.8954 91.1345 80.4313 91.0568 80.0185 90.8864C79.6056 90.7121 79.2779 90.4432 79.0355 90.0795C78.7969 89.7159 78.6795 89.2614 78.6832 88.7159V80.1818ZM87.7301 81.1307V79.3636H97.0142V81.1307H93.4176V91H91.3267V81.1307H87.7301ZM98.7131 91V82.2727H100.77V91H98.7131ZM99.7472 81.0341C99.4214 81.0341 99.1411 80.9261 98.9062 80.7102C98.6714 80.4905 98.554 80.2273 98.554 79.9205C98.554 79.6098 98.6714 79.3466 98.9062 79.1307C99.1411 78.911 99.4214 78.8011 99.7472 78.8011C100.077 78.8011 100.357 78.911 100.588 79.1307C100.823 79.3466 100.94 79.6098 100.94 79.9205C100.94 80.2273 100.823 80.4905 100.588 80.7102C100.357 80.9261 100.077 81.0341 99.7472 81.0341ZM107.243 82.2727V83.8636H102.226V82.2727H107.243ZM103.464 80.1818H105.521V88.375C105.521 88.6515 105.563 88.8636 105.646 89.0114C105.733 89.1553 105.847 89.2538 105.987 89.3068C106.127 89.3598 106.283 89.3864 106.453 89.3864C106.582 89.3864 106.699 89.3769 106.805 89.358C106.915 89.339 106.999 89.322 107.055 89.3068L107.402 90.9148C107.292 90.9527 107.135 90.9943 106.93 91.0398C106.73 91.0852 106.483 91.1117 106.192 91.1193C105.677 91.1345 105.213 91.0568 104.8 90.8864C104.387 90.7121 104.059 90.4432 103.817 90.0795C103.578 89.7159 103.461 89.2614 103.464 88.7159V80.1818ZM111.207 79.3636V91H109.151V79.3636H111.207ZM117.186 91.1705C116.311 91.1705 115.555 90.9886 114.919 90.625C114.286 90.2576 113.8 89.7386 113.459 89.0682C113.118 88.3939 112.947 87.6004 112.947 86.6875C112.947 85.7898 113.118 85.0019 113.459 84.3239C113.804 83.642 114.285 83.1117 114.902 82.733C115.519 82.3504 116.245 82.1591 117.078 82.1591C117.616 82.1591 118.124 82.2462 118.601 82.4205C119.082 82.5909 119.506 82.8561 119.874 83.2159C120.245 83.5758 120.536 84.0341 120.749 84.5909C120.961 85.1439 121.067 85.803 121.067 86.5682V87.1989H113.913V85.8125H119.095C119.091 85.4186 119.006 85.0682 118.839 84.7614C118.673 84.4508 118.44 84.2064 118.141 84.0284C117.845 83.8504 117.5 83.7614 117.107 83.7614C116.686 83.7614 116.317 83.8636 115.999 84.0682C115.68 84.2689 115.432 84.5341 115.254 84.8636C115.08 85.1894 114.991 85.5473 114.987 85.9375V87.1477C114.987 87.6553 115.08 88.0909 115.266 88.4545C115.451 88.8144 115.711 89.0909 116.044 89.2841C116.377 89.4735 116.768 89.5682 117.214 89.5682C117.514 89.5682 117.785 89.5265 118.027 89.4432C118.269 89.3561 118.48 89.2292 118.658 89.0625C118.836 88.8958 118.97 88.6894 119.061 88.4432L120.982 88.6591C120.86 89.1667 120.629 89.6098 120.288 89.9886C119.951 90.3636 119.519 90.6553 118.993 90.8636C118.466 91.0682 117.864 91.1705 117.186 91.1705Z" fill="#1D1D1B"/>
<path d="M46.233 117V106.818H47.4659V115.906H52.1989V117H46.233ZM57.0511 117.159C56.3617 117.159 55.7569 116.995 55.2365 116.667C54.7195 116.339 54.3151 115.88 54.0234 115.29C53.7351 114.7 53.5909 114.01 53.5909 113.222C53.5909 112.426 53.7351 111.732 54.0234 111.138C54.3151 110.545 54.7195 110.085 55.2365 109.756C55.7569 109.428 56.3617 109.264 57.0511 109.264C57.7405 109.264 58.3438 109.428 58.8608 109.756C59.3812 110.085 59.7855 110.545 60.0739 111.138C60.3655 111.732 60.5114 112.426 60.5114 113.222C60.5114 114.01 60.3655 114.7 60.0739 115.29C59.7855 115.88 59.3812 116.339 58.8608 116.667C58.3438 116.995 57.7405 117.159 57.0511 117.159ZM57.0511 116.105C57.5748 116.105 58.0057 115.971 58.3438 115.702C58.6818 115.434 58.9321 115.081 59.0945 114.643C59.2569 114.206 59.3381 113.732 59.3381 113.222C59.3381 112.711 59.2569 112.236 59.0945 111.795C58.9321 111.354 58.6818 110.998 58.3438 110.726C58.0057 110.454 57.5748 110.318 57.0511 110.318C56.5275 110.318 56.0966 110.454 55.7585 110.726C55.4205 110.998 55.1702 111.354 55.0078 111.795C54.8454 112.236 54.7642 112.711 54.7642 113.222C54.7642 113.732 54.8454 114.206 55.0078 114.643C55.1702 115.081 55.4205 115.434 55.7585 115.702C56.0966 115.971 56.5275 116.105 57.0511 116.105ZM62.3024 117V109.364H63.4359V110.517H63.5154C63.6547 110.139 63.9065 109.833 64.2711 109.597C64.6357 109.362 65.0467 109.244 65.5041 109.244C65.5903 109.244 65.698 109.246 65.8272 109.249C65.9565 109.253 66.0543 109.258 66.1206 109.264V110.457C66.0808 110.447 65.9896 110.433 65.8471 110.413C65.7079 110.389 65.5604 110.378 65.4047 110.378C65.0334 110.378 64.702 110.456 64.4103 110.612C64.122 110.764 63.8933 110.976 63.7243 111.248C63.5585 111.516 63.4757 111.823 63.4757 112.168V117H62.3024ZM70.4806 117.159C69.7449 117.159 69.1101 116.997 68.5765 116.672C68.0462 116.344 67.6369 115.886 67.3485 115.3C67.0635 114.71 66.921 114.024 66.921 113.241C66.921 112.459 67.0635 111.77 67.3485 111.173C67.6369 110.573 68.0379 110.106 68.5517 109.771C69.0687 109.433 69.6719 109.264 70.3613 109.264C70.7591 109.264 71.1518 109.33 71.5396 109.463C71.9274 109.596 72.2804 109.811 72.5985 110.109C72.9167 110.404 73.1703 110.795 73.3592 111.283C73.5481 111.77 73.6426 112.37 73.6426 113.082V113.58H67.7562V112.565H72.4494C72.4494 112.134 72.3632 111.75 72.1909 111.412C72.0218 111.074 71.7799 110.807 71.465 110.612C71.1535 110.416 70.7856 110.318 70.3613 110.318C69.894 110.318 69.4896 110.434 69.1483 110.666C68.8102 110.895 68.55 111.193 68.3677 111.561C68.1854 111.929 68.0943 112.323 68.0943 112.744V113.42C68.0943 113.997 68.1937 114.486 68.3926 114.887C68.5948 115.285 68.8748 115.588 69.2328 115.797C69.5907 116.002 70.0067 116.105 70.4806 116.105C70.7889 116.105 71.0673 116.062 71.3159 115.976C71.5678 115.886 71.7849 115.754 71.9672 115.578C72.1494 115.399 72.2903 115.177 72.3897 114.912L73.5233 115.23C73.4039 115.615 73.2034 115.953 72.9217 116.244C72.64 116.533 72.292 116.758 71.8777 116.92C71.4634 117.08 70.9977 117.159 70.4806 117.159ZM75.4274 117V109.364H76.5609V110.557H76.6603C76.8194 110.149 77.0763 109.833 77.4309 109.607C77.7856 109.379 78.2115 109.264 78.7086 109.264C79.2124 109.264 79.6317 109.379 79.9664 109.607C80.3045 109.833 80.568 110.149 80.7569 110.557H80.8365C81.032 110.162 81.3253 109.849 81.7164 109.617C82.1075 109.382 82.5765 109.264 83.1234 109.264C83.8062 109.264 84.3646 109.478 84.7988 109.906C85.233 110.33 85.4501 110.991 85.4501 111.889V117H84.2768V111.889C84.2768 111.326 84.1227 110.923 83.8145 110.681C83.5062 110.439 83.1433 110.318 82.7257 110.318C82.1887 110.318 81.7728 110.481 81.4778 110.805C81.1828 111.127 81.0353 111.535 81.0353 112.028V117H79.8422V111.77C79.8422 111.336 79.7013 110.986 79.4196 110.721C79.1378 110.452 78.7749 110.318 78.3308 110.318C78.0259 110.318 77.7408 110.399 77.4757 110.562C77.2138 110.724 77.0017 110.95 76.8393 111.238C76.6802 111.523 76.6007 111.853 76.6007 112.227V117H75.4274ZM91.5328 117V109.364H92.7061V117H91.5328ZM92.1294 108.091C91.9007 108.091 91.7035 108.013 91.5378 107.857C91.3754 107.701 91.2942 107.514 91.2942 107.295C91.2942 107.077 91.3754 106.889 91.5378 106.734C91.7035 106.578 91.9007 106.5 92.1294 106.5C92.3581 106.5 92.5537 106.578 92.7161 106.734C92.8818 106.889 92.9647 107.077 92.9647 107.295C92.9647 107.514 92.8818 107.701 92.7161 107.857C92.5537 108.013 92.3581 108.091 92.1294 108.091ZM94.8551 119.864V109.364H95.9886V110.577H96.1278C96.214 110.444 96.3333 110.275 96.4858 110.07C96.6416 109.861 96.8636 109.675 97.152 109.513C97.4437 109.347 97.8381 109.264 98.3352 109.264C98.9782 109.264 99.545 109.425 100.036 109.746C100.526 110.068 100.909 110.524 101.184 111.114C101.459 111.704 101.597 112.4 101.597 113.202C101.597 114.01 101.459 114.711 101.184 115.305C100.909 115.895 100.528 116.352 100.04 116.677C99.5533 116.998 98.9915 117.159 98.3551 117.159C97.8646 117.159 97.4718 117.078 97.1768 116.915C96.8819 116.75 96.6548 116.562 96.4957 116.354C96.3366 116.142 96.214 115.966 96.1278 115.827H96.0284V119.864H94.8551ZM96.0085 113.182C96.0085 113.759 96.093 114.267 96.2621 114.708C96.4311 115.146 96.678 115.489 97.0028 115.737C97.3277 115.982 97.7254 116.105 98.196 116.105C98.6866 116.105 99.0959 115.976 99.424 115.717C99.7554 115.455 100.004 115.104 100.17 114.663C100.339 114.219 100.423 113.725 100.423 113.182C100.423 112.645 100.34 112.161 100.175 111.73C100.012 111.296 99.7654 110.953 99.4339 110.701C99.1058 110.446 98.6932 110.318 98.196 110.318C97.7188 110.318 97.3177 110.439 96.9929 110.681C96.6681 110.92 96.4228 111.254 96.2571 111.685C96.0914 112.113 96.0085 112.612 96.0085 113.182ZM108.795 111.074L107.741 111.372C107.675 111.196 107.577 111.026 107.448 110.86C107.322 110.691 107.15 110.552 106.931 110.442C106.712 110.333 106.432 110.278 106.091 110.278C105.624 110.278 105.234 110.386 104.923 110.602C104.614 110.814 104.46 111.084 104.46 111.412C104.46 111.704 104.566 111.934 104.778 112.103C104.991 112.272 105.322 112.413 105.773 112.526L106.906 112.804C107.589 112.97 108.098 113.223 108.433 113.565C108.767 113.903 108.935 114.339 108.935 114.872C108.935 115.31 108.809 115.701 108.557 116.045C108.308 116.39 107.96 116.662 107.513 116.861C107.065 117.06 106.545 117.159 105.952 117.159C105.173 117.159 104.528 116.99 104.018 116.652C103.507 116.314 103.184 115.82 103.048 115.17L104.162 114.892C104.268 115.303 104.469 115.611 104.763 115.817C105.062 116.022 105.451 116.125 105.932 116.125C106.479 116.125 106.913 116.009 107.234 115.777C107.559 115.542 107.722 115.26 107.722 114.932C107.722 114.667 107.629 114.445 107.443 114.266C107.258 114.083 106.973 113.947 106.588 113.858L105.315 113.56C104.616 113.394 104.102 113.137 103.774 112.789C103.449 112.438 103.287 111.999 103.287 111.472C103.287 111.041 103.408 110.66 103.65 110.328C103.895 109.997 104.228 109.737 104.649 109.548C105.073 109.359 105.554 109.264 106.091 109.264C106.847 109.264 107.44 109.43 107.871 109.761C108.305 110.093 108.613 110.53 108.795 111.074ZM115.513 113.878V109.364H116.687V117H115.513V115.707H115.434C115.255 116.095 114.976 116.425 114.599 116.697C114.221 116.965 113.743 117.099 113.167 117.099C112.689 117.099 112.265 116.995 111.894 116.786C111.523 116.574 111.231 116.256 111.019 115.832C110.807 115.404 110.701 114.866 110.701 114.216V109.364H111.874V114.136C111.874 114.693 112.03 115.137 112.341 115.469C112.656 115.8 113.057 115.966 113.545 115.966C113.836 115.966 114.133 115.891 114.434 115.742C114.739 115.593 114.995 115.364 115.2 115.056C115.409 114.748 115.513 114.355 115.513 113.878ZM118.836 117V109.364H119.969V110.557H120.069C120.228 110.149 120.484 109.833 120.839 109.607C121.194 109.379 121.62 109.264 122.117 109.264C122.621 109.264 123.04 109.379 123.375 109.607C123.713 109.833 123.976 110.149 124.165 110.557H124.245C124.44 110.162 124.734 109.849 125.125 109.617C125.516 109.382 125.985 109.264 126.532 109.264C127.214 109.264 127.773 109.478 128.207 109.906C128.641 110.33 128.858 110.991 128.858 111.889V117H127.685V111.889C127.685 111.326 127.531 110.923 127.223 110.681C126.914 110.439 126.551 110.318 126.134 110.318C125.597 110.318 125.181 110.481 124.886 110.805C124.591 111.127 124.444 111.535 124.444 112.028V117H123.25V111.77C123.25 111.336 123.109 110.986 122.828 110.721C122.546 110.452 122.183 110.318 121.739 110.318C121.434 110.318 121.149 110.399 120.884 110.562C120.622 110.724 120.41 110.95 120.248 111.238C120.088 111.523 120.009 111.853 120.009 112.227V117H118.836ZM137.825 117.159C137.188 117.159 136.626 116.998 136.139 116.677C135.652 116.352 135.271 115.895 134.996 115.305C134.721 114.711 134.583 114.01 134.583 113.202C134.583 112.4 134.721 111.704 134.996 111.114C135.271 110.524 135.654 110.068 136.144 109.746C136.635 109.425 137.201 109.264 137.844 109.264C138.342 109.264 138.734 109.347 139.023 109.513C139.314 109.675 139.536 109.861 139.689 110.07C139.845 110.275 139.966 110.444 140.052 110.577H140.151V106.818H141.325V117H140.191V115.827H140.052C139.966 115.966 139.843 116.142 139.684 116.354C139.525 116.562 139.298 116.75 139.003 116.915C138.708 117.078 138.315 117.159 137.825 117.159ZM137.984 116.105C138.454 116.105 138.852 115.982 139.177 115.737C139.502 115.489 139.749 115.146 139.918 114.708C140.087 114.267 140.171 113.759 140.171 113.182C140.171 112.612 140.088 112.113 139.923 111.685C139.757 111.254 139.512 110.92 139.187 110.681C138.862 110.439 138.461 110.318 137.984 110.318C137.487 110.318 137.072 110.446 136.741 110.701C136.413 110.953 136.166 111.296 136 111.73C135.838 112.161 135.756 112.645 135.756 113.182C135.756 113.725 135.839 114.219 136.005 114.663C136.174 115.104 136.423 115.455 136.751 115.717C137.082 115.976 137.493 116.105 137.984 116.105ZM146.739 117.159C146.049 117.159 145.444 116.995 144.924 116.667C144.407 116.339 144.003 115.88 143.711 115.29C143.423 114.7 143.278 114.01 143.278 113.222C143.278 112.426 143.423 111.732 143.711 111.138C144.003 110.545 144.407 110.085 144.924 109.756C145.444 109.428 146.049 109.264 146.739 109.264C147.428 109.264 148.031 109.428 148.548 109.756C149.069 110.085 149.473 110.545 149.761 111.138C150.053 111.732 150.199 112.426 150.199 113.222C150.199 114.01 150.053 114.7 149.761 115.29C149.473 115.88 149.069 116.339 148.548 116.667C148.031 116.995 147.428 117.159 146.739 117.159ZM146.739 116.105C147.262 116.105 147.693 115.971 148.031 115.702C148.369 115.434 148.62 115.081 148.782 114.643C148.944 114.206 149.026 113.732 149.026 113.222C149.026 112.711 148.944 112.236 148.782 111.795C148.62 111.354 148.369 110.998 148.031 110.726C147.693 110.454 147.262 110.318 146.739 110.318C146.215 110.318 145.784 110.454 145.446 110.726C145.108 110.998 144.858 111.354 144.695 111.795C144.533 112.236 144.452 112.711 144.452 113.222C144.452 113.732 144.533 114.206 144.695 114.643C144.858 115.081 145.108 115.434 145.446 115.702C145.784 115.971 146.215 116.105 146.739 116.105ZM153.163 106.818V117H151.99V106.818H153.163ZM158.414 117.159C157.725 117.159 157.12 116.995 156.6 116.667C156.083 116.339 155.678 115.88 155.387 115.29C155.098 114.7 154.954 114.01 154.954 113.222C154.954 112.426 155.098 111.732 155.387 111.138C155.678 110.545 156.083 110.085 156.6 109.756C157.12 109.428 157.725 109.264 158.414 109.264C159.104 109.264 159.707 109.428 160.224 109.756C160.744 110.085 161.149 110.545 161.437 111.138C161.729 111.732 161.875 112.426 161.875 113.222C161.875 114.01 161.729 114.7 161.437 115.29C161.149 115.88 160.744 116.339 160.224 116.667C159.707 116.995 159.104 117.159 158.414 117.159ZM158.414 116.105C158.938 116.105 159.369 115.971 159.707 115.702C160.045 115.434 160.295 115.081 160.458 114.643C160.62 114.206 160.701 113.732 160.701 113.222C160.701 112.711 160.62 112.236 160.458 111.795C160.295 111.354 160.045 110.998 159.707 110.726C159.369 110.454 158.938 110.318 158.414 110.318C157.891 110.318 157.46 110.454 157.122 110.726C156.784 110.998 156.533 111.354 156.371 111.795C156.209 112.236 156.127 112.711 156.127 113.222C156.127 113.732 156.209 114.206 156.371 114.643C156.533 115.081 156.784 115.434 157.122 115.702C157.46 115.971 157.891 116.105 158.414 116.105ZM163.666 117V109.364H164.799V110.517H164.879C165.018 110.139 165.27 109.833 165.634 109.597C165.999 109.362 166.41 109.244 166.867 109.244C166.954 109.244 167.061 109.246 167.191 109.249C167.32 109.253 167.418 109.258 167.484 109.264V110.457C167.444 110.447 167.353 110.433 167.21 110.413C167.071 110.389 166.924 110.378 166.768 110.378C166.397 110.378 166.065 110.456 165.774 110.612C165.485 110.764 165.257 110.976 165.088 111.248C164.922 111.516 164.839 111.823 164.839 112.168V117H163.666ZM178.221 111.074L177.167 111.372C177.101 111.196 177.003 111.026 176.874 110.86C176.748 110.691 176.576 110.552 176.357 110.442C176.138 110.333 175.858 110.278 175.517 110.278C175.049 110.278 174.66 110.386 174.348 110.602C174.04 110.814 173.886 111.084 173.886 111.412C173.886 111.704 173.992 111.934 174.204 112.103C174.416 112.272 174.748 112.413 175.199 112.526L176.332 112.804C177.015 112.97 177.524 113.223 177.858 113.565C178.193 113.903 178.36 114.339 178.36 114.872C178.36 115.31 178.234 115.701 177.983 116.045C177.734 116.39 177.386 116.662 176.939 116.861C176.491 117.06 175.971 117.159 175.377 117.159C174.599 117.159 173.954 116.99 173.444 116.652C172.933 116.314 172.61 115.82 172.474 115.17L173.588 114.892C173.694 115.303 173.894 115.611 174.189 115.817C174.488 116.022 174.877 116.125 175.358 116.125C175.904 116.125 176.339 116.009 176.66 115.777C176.985 115.542 177.147 115.26 177.147 114.932C177.147 114.667 177.055 114.445 176.869 114.266C176.683 114.083 176.398 113.947 176.014 113.858L174.741 113.56C174.042 113.394 173.528 113.137 173.2 112.789C172.875 112.438 172.713 111.999 172.713 111.472C172.713 111.041 172.834 110.66 173.076 110.328C173.321 109.997 173.654 109.737 174.075 109.548C174.499 109.359 174.98 109.264 175.517 109.264C176.272 109.264 176.866 109.43 177.297 109.761C177.731 110.093 178.039 110.53 178.221 111.074ZM180.127 117V109.364H181.3V117H180.127ZM180.723 108.091C180.494 108.091 180.297 108.013 180.132 107.857C179.969 107.701 179.888 107.514 179.888 107.295C179.888 107.077 179.969 106.889 180.132 106.734C180.297 106.578 180.494 106.5 180.723 106.5C180.952 106.5 181.147 106.578 181.31 106.734C181.476 106.889 181.558 107.077 181.558 107.295C181.558 107.514 181.476 107.701 181.31 107.857C181.147 108.013 180.952 108.091 180.723 108.091ZM186.77 109.364V110.358H182.812V109.364H186.77ZM183.966 107.534H185.139V114.812C185.139 115.144 185.187 115.393 185.283 115.558C185.383 115.721 185.509 115.83 185.661 115.886C185.817 115.939 185.981 115.966 186.153 115.966C186.283 115.966 186.389 115.959 186.472 115.946C186.554 115.929 186.621 115.916 186.67 115.906L186.909 116.96C186.83 116.99 186.719 117.02 186.576 117.05C186.433 117.083 186.253 117.099 186.034 117.099C185.703 117.099 185.378 117.028 185.06 116.886C184.745 116.743 184.483 116.526 184.274 116.234C184.069 115.943 183.966 115.575 183.966 115.131V107.534ZM194.719 117.179C194.236 117.179 193.796 117.088 193.402 116.906C193.008 116.72 192.694 116.453 192.462 116.105C192.23 115.754 192.114 115.33 192.114 114.832C192.114 114.395 192.201 114.04 192.373 113.768C192.545 113.493 192.776 113.278 193.064 113.122C193.352 112.966 193.67 112.85 194.018 112.774C194.37 112.695 194.723 112.632 195.077 112.585C195.541 112.526 195.918 112.481 196.206 112.451C196.498 112.418 196.71 112.363 196.842 112.287C196.978 112.211 197.046 112.078 197.046 111.889V111.849C197.046 111.359 196.912 110.978 196.643 110.706C196.378 110.434 195.976 110.298 195.435 110.298C194.875 110.298 194.436 110.421 194.118 110.666C193.8 110.911 193.576 111.173 193.447 111.452L192.333 111.054C192.532 110.59 192.797 110.229 193.129 109.97C193.463 109.708 193.828 109.526 194.222 109.423C194.62 109.317 195.011 109.264 195.396 109.264C195.641 109.264 195.923 109.294 196.241 109.354C196.562 109.41 196.872 109.528 197.17 109.707C197.472 109.886 197.722 110.156 197.921 110.517C198.12 110.878 198.219 111.362 198.219 111.969V117H197.046V115.966H196.987C196.907 116.132 196.774 116.309 196.589 116.498C196.403 116.687 196.156 116.848 195.848 116.98C195.54 117.113 195.164 117.179 194.719 117.179ZM194.898 116.125C195.362 116.125 195.754 116.034 196.072 115.852C196.393 115.669 196.635 115.434 196.798 115.146C196.963 114.857 197.046 114.554 197.046 114.236V113.162C196.996 113.222 196.887 113.276 196.718 113.326C196.552 113.372 196.36 113.414 196.141 113.45C195.926 113.483 195.715 113.513 195.51 113.54C195.308 113.563 195.144 113.583 195.018 113.599C194.713 113.639 194.428 113.704 194.163 113.793C193.901 113.879 193.689 114.01 193.526 114.186C193.367 114.358 193.288 114.594 193.288 114.892C193.288 115.3 193.438 115.608 193.74 115.817C194.045 116.022 194.431 116.125 194.898 116.125ZM200.361 117V109.364H201.494V110.557H201.594C201.753 110.149 202.01 109.833 202.365 109.607C202.719 109.379 203.145 109.264 203.642 109.264C204.146 109.264 204.565 109.379 204.9 109.607C205.238 109.833 205.502 110.149 205.691 110.557H205.77C205.966 110.162 206.259 109.849 206.65 109.617C207.041 109.382 207.51 109.264 208.057 109.264C208.74 109.264 209.298 109.478 209.732 109.906C210.167 110.33 210.384 110.991 210.384 111.889V117H209.21V111.889C209.21 111.326 209.056 110.923 208.748 110.681C208.44 110.439 208.077 110.318 207.659 110.318C207.122 110.318 206.706 110.481 206.411 110.805C206.116 111.127 205.969 111.535 205.969 112.028V117H204.776V111.77C204.776 111.336 204.635 110.986 204.353 110.721C204.071 110.452 203.709 110.318 203.264 110.318C202.959 110.318 202.674 110.399 202.409 110.562C202.147 110.724 201.935 110.95 201.773 111.238C201.614 111.523 201.534 111.853 201.534 112.227V117H200.361ZM215.731 117.159C214.995 117.159 214.36 116.997 213.827 116.672C213.296 116.344 212.887 115.886 212.599 115.3C212.314 114.71 212.171 114.024 212.171 113.241C212.171 112.459 212.314 111.77 212.599 111.173C212.887 110.573 213.288 110.106 213.802 109.771C214.319 109.433 214.922 109.264 215.611 109.264C216.009 109.264 216.402 109.33 216.79 109.463C217.177 109.596 217.53 109.811 217.849 110.109C218.167 110.404 218.42 110.795 218.609 111.283C218.798 111.77 218.893 112.37 218.893 113.082V113.58H213.006V112.565H217.699C217.699 112.134 217.613 111.75 217.441 111.412C217.272 111.074 217.03 110.807 216.715 110.612C216.403 110.416 216.036 110.318 215.611 110.318C215.144 110.318 214.74 110.434 214.398 110.666C214.06 110.895 213.8 111.193 213.618 111.561C213.435 111.929 213.344 112.323 213.344 112.744V113.42C213.344 113.997 213.444 114.486 213.643 114.887C213.845 115.285 214.125 115.588 214.483 115.797C214.841 116.002 215.257 116.105 215.731 116.105C216.039 116.105 216.317 116.062 216.566 115.976C216.818 115.886 217.035 115.754 217.217 115.578C217.399 115.399 217.54 115.177 217.64 114.912L218.773 115.23C218.654 115.615 218.453 115.953 218.172 116.244C217.89 116.533 217.542 116.758 217.128 116.92C216.713 117.08 216.248 117.159 215.731 117.159ZM223.998 109.364V110.358H220.041V109.364H223.998ZM221.194 107.534H222.368V114.812C222.368 115.144 222.416 115.393 222.512 115.558C222.611 115.721 222.737 115.83 222.89 115.886C223.046 115.939 223.21 115.966 223.382 115.966C223.511 115.966 223.617 115.959 223.7 115.946C223.783 115.929 223.849 115.916 223.899 115.906L224.138 116.96C224.058 116.99 223.947 117.02 223.805 117.05C223.662 117.083 223.481 117.099 223.263 117.099C222.931 117.099 222.606 117.028 222.288 116.886C221.973 116.743 221.711 116.526 221.503 116.234C221.297 115.943 221.194 115.575 221.194 115.131V107.534Z" fill="#1D1D1B"/>
<g clip-path="url(#clip1_16522_14108)">
<path d="M46.233 138V127.818H49.6733C50.4721 127.818 51.125 127.962 51.6321 128.251C52.1425 128.536 52.5204 128.922 52.7656 129.409C53.0109 129.896 53.1335 130.44 53.1335 131.04C53.1335 131.64 53.0109 132.185 52.7656 132.675C52.5237 133.166 52.1491 133.557 51.642 133.849C51.1349 134.137 50.4853 134.281 49.6932 134.281H47.2273V133.188H49.6534C50.2003 133.188 50.6394 133.093 50.9709 132.904C51.3023 132.715 51.5426 132.46 51.6918 132.138C51.8442 131.814 51.9205 131.447 51.9205 131.04C51.9205 130.632 51.8442 130.268 51.6918 129.946C51.5426 129.625 51.3007 129.373 50.9659 129.19C50.6312 129.005 50.187 128.912 49.6335 128.912H47.4659V138H46.233ZM54.9606 138V130.364H56.0941V131.517H56.1737C56.3129 131.139 56.5647 130.833 56.9293 130.597C57.2939 130.362 57.7049 130.244 58.1623 130.244C58.2485 130.244 58.3562 130.246 58.4854 130.249C58.6147 130.253 58.7125 130.258 58.7788 130.264V131.457C58.739 131.447 58.6478 131.433 58.5053 131.413C58.3661 131.389 58.2186 131.378 58.0629 131.378C57.6916 131.378 57.3602 131.456 57.0685 131.612C56.7802 131.764 56.5515 131.976 56.3825 132.248C56.2167 132.516 56.1339 132.823 56.1339 133.168V138H54.9606ZM60.1696 138V130.364H61.3429V138H60.1696ZM60.7662 129.091C60.5375 129.091 60.3403 129.013 60.1745 128.857C60.0121 128.701 59.9309 128.514 59.9309 128.295C59.9309 128.077 60.0121 127.889 60.1745 127.734C60.3403 127.578 60.5375 127.5 60.7662 127.5C60.9949 127.5 61.1904 127.578 61.3528 127.734C61.5185 127.889 61.6014 128.077 61.6014 128.295C61.6014 128.514 61.5185 128.701 61.3528 128.857C61.1904 129.013 60.9949 129.091 60.7662 129.091ZM63.4918 138V130.364H64.6254V131.557H64.7248C64.8839 131.149 65.1407 130.833 65.4954 130.607C65.85 130.379 66.2759 130.264 66.7731 130.264C67.2769 130.264 67.6961 130.379 68.0309 130.607C68.369 130.833 68.6325 131.149 68.8214 131.557H68.9009C69.0965 131.162 69.3898 130.849 69.7809 130.617C70.172 130.382 70.641 130.264 71.1879 130.264C71.8706 130.264 72.4291 130.478 72.8633 130.906C73.2975 131.33 73.5146 131.991 73.5146 132.889V138H72.3413V132.889C72.3413 132.326 72.1871 131.923 71.8789 131.681C71.5707 131.439 71.2077 131.318 70.7901 131.318C70.2532 131.318 69.8372 131.481 69.5423 131.805C69.2473 132.127 69.0998 132.535 69.0998 133.028V138H67.9066V132.77C67.9066 132.336 67.7657 131.986 67.484 131.721C67.2023 131.452 66.8394 131.318 66.3952 131.318C66.0903 131.318 65.8053 131.399 65.5401 131.562C65.2783 131.724 65.0662 131.95 64.9038 132.238C64.7447 132.523 64.6651 132.853 64.6651 133.227V138H63.4918ZM77.907 138.179C77.4231 138.179 76.9839 138.088 76.5895 137.906C76.1951 137.72 75.8819 137.453 75.6499 137.105C75.4179 136.754 75.3018 136.33 75.3018 135.832C75.3018 135.395 75.388 135.04 75.5604 134.768C75.7327 134.493 75.9631 134.278 76.2514 134.122C76.5398 133.966 76.858 133.85 77.206 133.774C77.5573 133.695 77.9103 133.632 78.2649 133.585C78.7289 133.526 79.1051 133.481 79.3935 133.451C79.6851 133.418 79.8973 133.363 80.0298 133.287C80.1657 133.211 80.2337 133.078 80.2337 132.889V132.849C80.2337 132.359 80.0994 131.978 79.831 131.706C79.5658 131.434 79.1631 131.298 78.6229 131.298C78.0627 131.298 77.6236 131.421 77.3054 131.666C76.9872 131.911 76.7635 132.173 76.6342 132.452L75.5206 132.054C75.7195 131.59 75.9846 131.229 76.3161 130.97C76.6508 130.708 77.0154 130.526 77.4098 130.423C77.8075 130.317 78.1986 130.264 78.5831 130.264C78.8284 130.264 79.1101 130.294 79.4283 130.354C79.7498 130.41 80.0597 130.528 80.358 130.707C80.6596 130.886 80.9098 131.156 81.1087 131.517C81.3075 131.878 81.407 132.362 81.407 132.969V138H80.2337V136.966H80.174C80.0945 137.132 79.9619 137.309 79.7763 137.498C79.5907 137.687 79.3438 137.848 79.0355 137.98C78.7273 138.113 78.3511 138.179 77.907 138.179ZM78.0859 137.125C78.55 137.125 78.9411 137.034 79.2592 136.852C79.5807 136.669 79.8227 136.434 79.9851 136.146C80.1508 135.857 80.2337 135.554 80.2337 135.236V134.162C80.1839 134.222 80.0746 134.276 79.9055 134.326C79.7398 134.372 79.5476 134.414 79.3288 134.45C79.1134 134.483 78.9029 134.513 78.6974 134.54C78.4953 134.563 78.3312 134.583 78.2053 134.599C77.9003 134.639 77.6153 134.704 77.3501 134.793C77.0883 134.879 76.8762 135.01 76.7138 135.186C76.5547 135.358 76.4751 135.594 76.4751 135.892C76.4751 136.3 76.6259 136.608 76.9276 136.817C77.2325 137.022 77.6186 137.125 78.0859 137.125ZM83.5485 138V130.364H84.682V131.517H84.7615C84.9007 131.139 85.1526 130.833 85.5172 130.597C85.8818 130.362 86.2928 130.244 86.7502 130.244C86.8364 130.244 86.9441 130.246 87.0733 130.249C87.2026 130.253 87.3004 130.258 87.3667 130.264V131.457C87.3269 131.447 87.2357 131.433 87.0932 131.413C86.954 131.389 86.8065 131.378 86.6507 131.378C86.2795 131.378 85.9481 131.456 85.6564 131.612C85.3681 131.764 85.1394 131.976 84.9703 132.248C84.8046 132.516 84.7218 132.823 84.7218 133.168V138H83.5485ZM89.7456 140.864C89.5467 140.864 89.3694 140.847 89.2136 140.814C89.0578 140.784 88.9501 140.754 88.8904 140.724L89.1887 139.69C89.4738 139.763 89.7257 139.79 89.9444 139.77C90.1632 139.75 90.3571 139.652 90.5261 139.477C90.6984 139.304 90.8559 139.024 90.9984 138.636L91.2172 138.04L88.3933 130.364H89.666L91.774 136.449H91.8535L93.9615 130.364H95.2342L91.9927 139.114C91.8469 139.508 91.6663 139.835 91.4508 140.093C91.2354 140.355 90.9851 140.549 90.7001 140.675C90.4184 140.801 90.1002 140.864 89.7456 140.864ZM101.894 127.818V138H100.72V127.818H101.894ZM104.043 138V130.364H105.216V138H104.043ZM104.639 129.091C104.411 129.091 104.213 129.013 104.048 128.857C103.885 128.701 103.804 128.514 103.804 128.295C103.804 128.077 103.885 127.889 104.048 127.734C104.213 127.578 104.411 127.5 104.639 127.5C104.868 127.5 105.063 127.578 105.226 127.734C105.392 127.889 105.474 128.077 105.474 128.295C105.474 128.514 105.392 128.701 105.226 128.857C105.063 129.013 104.868 129.091 104.639 129.091ZM108.538 133.406V138H107.365V130.364H108.498V131.557H108.598C108.777 131.169 109.049 130.857 109.413 130.622C109.778 130.384 110.248 130.264 110.825 130.264C111.342 130.264 111.795 130.37 112.182 130.582C112.57 130.791 112.872 131.109 113.087 131.537C113.303 131.961 113.41 132.498 113.41 133.148V138H112.237V133.227C112.237 132.627 112.081 132.16 111.77 131.825C111.458 131.487 111.031 131.318 110.487 131.318C110.113 131.318 109.778 131.399 109.483 131.562C109.191 131.724 108.961 131.961 108.792 132.273C108.623 132.584 108.538 132.962 108.538 133.406ZM116.648 135.216L116.628 133.764H116.867L120.208 130.364H121.659L118.1 133.963H118L116.648 135.216ZM115.554 138V127.818H116.728V138H115.554ZM120.407 138L117.424 134.222L118.259 133.406L121.898 138H120.407ZM128.837 138L126.51 130.364H127.743L129.394 136.21H129.474L131.104 130.364H132.357L133.968 136.19H134.047L135.698 130.364H136.931L134.604 138H133.451L131.78 132.134H131.661L129.991 138H128.837ZM138.482 138V130.364H139.655V138H138.482ZM139.079 129.091C138.85 129.091 138.653 129.013 138.487 128.857C138.325 128.701 138.243 128.514 138.243 128.295C138.243 128.077 138.325 127.889 138.487 127.734C138.653 127.578 138.85 127.5 139.079 127.5C139.307 127.5 139.503 127.578 139.665 127.734C139.831 127.889 139.914 128.077 139.914 128.295C139.914 128.514 139.831 128.701 139.665 128.857C139.503 129.013 139.307 129.091 139.079 129.091ZM145.125 130.364V131.358H141.168V130.364H145.125ZM142.321 128.534H143.495V135.812C143.495 136.144 143.543 136.393 143.639 136.558C143.738 136.721 143.864 136.83 144.017 136.886C144.172 136.939 144.337 136.966 144.509 136.966C144.638 136.966 144.744 136.959 144.827 136.946C144.91 136.929 144.976 136.916 145.026 136.906L145.265 137.96C145.185 137.99 145.074 138.02 144.931 138.05C144.789 138.083 144.608 138.099 144.39 138.099C144.058 138.099 143.733 138.028 143.415 137.886C143.1 137.743 142.838 137.526 142.63 137.234C142.424 136.943 142.321 136.575 142.321 136.131V128.534ZM148.228 133.406V138H147.054V127.818H148.228V131.557H148.327C148.506 131.162 148.775 130.849 149.132 130.617C149.494 130.382 149.974 130.264 150.574 130.264C151.095 130.264 151.55 130.369 151.941 130.577C152.333 130.783 152.636 131.099 152.851 131.527C153.07 131.951 153.179 132.491 153.179 133.148V138H152.006V133.227C152.006 132.621 151.849 132.152 151.534 131.82C151.222 131.486 150.79 131.318 150.236 131.318C149.852 131.318 149.507 131.399 149.202 131.562C148.9 131.724 148.662 131.961 148.486 132.273C148.314 132.584 148.228 132.962 148.228 133.406ZM159.263 138V130.364H160.437V138H159.263ZM159.86 129.091C159.631 129.091 159.434 129.013 159.268 128.857C159.106 128.701 159.025 128.514 159.025 128.295C159.025 128.077 159.106 127.889 159.268 127.734C159.434 127.578 159.631 127.5 159.86 127.5C160.089 127.5 160.284 127.578 160.447 127.734C160.612 127.889 160.695 128.077 160.695 128.295C160.695 128.514 160.612 128.701 160.447 128.857C160.284 129.013 160.089 129.091 159.86 129.091ZM165.688 138.159C164.972 138.159 164.355 137.99 163.838 137.652C163.321 137.314 162.924 136.848 162.645 136.255C162.367 135.662 162.228 134.984 162.228 134.222C162.228 133.446 162.37 132.762 162.655 132.168C162.944 131.572 163.345 131.106 163.858 130.771C164.375 130.433 164.979 130.264 165.668 130.264C166.205 130.264 166.689 130.364 167.12 130.562C167.551 130.761 167.904 131.04 168.179 131.398C168.454 131.756 168.624 132.173 168.691 132.651H167.517C167.428 132.303 167.229 131.994 166.921 131.726C166.616 131.454 166.205 131.318 165.688 131.318C165.23 131.318 164.829 131.437 164.485 131.676C164.143 131.911 163.877 132.245 163.684 132.675C163.495 133.103 163.401 133.605 163.401 134.182C163.401 134.772 163.494 135.286 163.679 135.723C163.868 136.161 164.133 136.5 164.475 136.742C164.819 136.984 165.224 137.105 165.688 137.105C165.993 137.105 166.27 137.052 166.518 136.946C166.767 136.84 166.977 136.688 167.15 136.489C167.322 136.29 167.444 136.051 167.517 135.773H168.691C168.624 136.223 168.46 136.629 168.199 136.991C167.94 137.349 167.597 137.634 167.169 137.846C166.745 138.055 166.251 138.159 165.688 138.159ZM173.508 138.159C172.819 138.159 172.214 137.995 171.694 137.667C171.176 137.339 170.772 136.88 170.48 136.29C170.192 135.7 170.048 135.01 170.048 134.222C170.048 133.426 170.192 132.732 170.48 132.138C170.772 131.545 171.176 131.085 171.694 130.756C172.214 130.428 172.819 130.264 173.508 130.264C174.198 130.264 174.801 130.428 175.318 130.756C175.838 131.085 176.243 131.545 176.531 132.138C176.823 132.732 176.968 133.426 176.968 134.222C176.968 135.01 176.823 135.7 176.531 136.29C176.243 136.88 175.838 137.339 175.318 137.667C174.801 137.995 174.198 138.159 173.508 138.159ZM173.508 137.105C174.032 137.105 174.463 136.971 174.801 136.702C175.139 136.434 175.389 136.081 175.551 135.643C175.714 135.206 175.795 134.732 175.795 134.222C175.795 133.711 175.714 133.236 175.551 132.795C175.389 132.354 175.139 131.998 174.801 131.726C174.463 131.454 174.032 131.318 173.508 131.318C172.984 131.318 172.554 131.454 172.216 131.726C171.877 131.998 171.627 132.354 171.465 132.795C171.302 133.236 171.221 133.711 171.221 134.222C171.221 134.732 171.302 135.206 171.465 135.643C171.627 136.081 171.877 136.434 172.216 136.702C172.554 136.971 172.984 137.105 173.508 137.105ZM179.933 133.406V138H178.759V130.364H179.893V131.557H179.992C180.171 131.169 180.443 130.857 180.808 130.622C181.172 130.384 181.643 130.264 182.22 130.264C182.737 130.264 183.189 130.37 183.577 130.582C183.965 130.791 184.266 131.109 184.482 131.537C184.697 131.961 184.805 132.498 184.805 133.148V138H183.632V133.227C183.632 132.627 183.476 132.16 183.164 131.825C182.853 131.487 182.425 131.318 181.882 131.318C181.507 131.318 181.172 131.399 180.877 131.562C180.586 131.724 180.355 131.961 180.186 132.273C180.017 132.584 179.933 132.962 179.933 133.406Z" fill="#1D1D1B"/>
<path d="M45 140.784H185.879V141.739H45V140.784Z" fill="#1D1D1B"/>
<path fill-rule="evenodd" clip-rule="evenodd" d="M192.62 129.167L196 132.5L192.62 135.833L192 135.222L194.759 132.5L192 129.778L192.62 129.167Z" fill="#1D1D1B"/>
</g>
<rect x="245" y="88" width="84" height="40" rx="4" fill="#1D1D1B"/>
<path d="M262.249 114V102.364H266.704C267.545 102.364 268.244 102.496 268.8 102.761C269.361 103.023 269.78 103.381 270.056 103.835C270.336 104.29 270.477 104.805 270.477 105.381C270.477 105.854 270.386 106.259 270.204 106.597C270.022 106.93 269.778 107.201 269.471 107.409C269.164 107.617 268.821 107.767 268.442 107.858V107.972C268.855 107.994 269.251 108.121 269.63 108.352C270.013 108.58 270.325 108.902 270.567 109.318C270.81 109.735 270.931 110.239 270.931 110.83C270.931 111.432 270.785 111.973 270.494 112.455C270.202 112.932 269.763 113.309 269.175 113.585C268.588 113.862 267.85 114 266.96 114H262.249ZM264.357 112.239H266.624C267.389 112.239 267.941 112.093 268.278 111.801C268.619 111.506 268.789 111.127 268.789 110.665C268.789 110.32 268.704 110.009 268.533 109.733C268.363 109.453 268.121 109.233 267.806 109.074C267.492 108.911 267.117 108.83 266.681 108.83H264.357V112.239ZM264.357 107.312H266.442C266.806 107.312 267.134 107.246 267.425 107.114C267.717 106.977 267.946 106.786 268.113 106.54C268.283 106.29 268.369 105.994 268.369 105.653C268.369 105.203 268.21 104.831 267.891 104.54C267.577 104.248 267.109 104.102 266.488 104.102H264.357V107.312ZM278.237 110.33V105.273H280.293V114H278.299V112.449H278.208C278.011 112.937 277.687 113.337 277.237 113.648C276.79 113.958 276.238 114.114 275.583 114.114C275.011 114.114 274.505 113.987 274.066 113.733C273.63 113.475 273.29 113.102 273.043 112.614C272.797 112.121 272.674 111.527 272.674 110.83V105.273H274.731V110.511C274.731 111.064 274.882 111.504 275.185 111.83C275.488 112.155 275.886 112.318 276.379 112.318C276.682 112.318 276.975 112.244 277.259 112.097C277.543 111.949 277.776 111.729 277.958 111.438C278.144 111.142 278.237 110.773 278.237 110.33ZM286.766 105.273V106.864H281.749V105.273H286.766ZM282.988 103.182H285.045V111.375C285.045 111.652 285.086 111.864 285.17 112.011C285.257 112.155 285.371 112.254 285.511 112.307C285.651 112.36 285.806 112.386 285.977 112.386C286.105 112.386 286.223 112.377 286.329 112.358C286.439 112.339 286.522 112.322 286.579 112.307L286.925 113.915C286.816 113.953 286.658 113.994 286.454 114.04C286.253 114.085 286.007 114.112 285.715 114.119C285.2 114.134 284.736 114.057 284.323 113.886C283.91 113.712 283.583 113.443 283.34 113.08C283.102 112.716 282.984 112.261 282.988 111.716V103.182ZM292.844 105.273V106.864H287.827V105.273H292.844ZM289.066 103.182H291.123V111.375C291.123 111.652 291.165 111.864 291.248 112.011C291.335 112.155 291.449 112.254 291.589 112.307C291.729 112.36 291.884 112.386 292.055 112.386C292.183 112.386 292.301 112.377 292.407 112.358C292.517 112.339 292.6 112.322 292.657 112.307L293.004 113.915C292.894 113.953 292.737 113.994 292.532 114.04C292.331 114.085 292.085 114.112 291.793 114.119C291.278 114.134 290.814 114.057 290.401 113.886C289.988 113.712 289.661 113.443 289.418 113.08C289.18 112.716 289.062 112.261 289.066 111.716V103.182ZM298.278 114.17C297.425 114.17 296.687 113.983 296.062 113.608C295.437 113.233 294.952 112.708 294.607 112.034C294.266 111.36 294.096 110.572 294.096 109.67C294.096 108.769 294.266 107.979 294.607 107.301C294.952 106.623 295.437 106.097 296.062 105.722C296.687 105.347 297.425 105.159 298.278 105.159C299.13 105.159 299.869 105.347 300.494 105.722C301.119 106.097 301.602 106.623 301.942 107.301C302.287 107.979 302.46 108.769 302.46 109.67C302.46 110.572 302.287 111.36 301.942 112.034C301.602 112.708 301.119 113.233 300.494 113.608C299.869 113.983 299.13 114.17 298.278 114.17ZM298.289 112.523C298.751 112.523 299.138 112.396 299.448 112.142C299.759 111.884 299.99 111.54 300.141 111.108C300.297 110.676 300.374 110.195 300.374 109.665C300.374 109.131 300.297 108.648 300.141 108.216C299.99 107.78 299.759 107.434 299.448 107.176C299.138 106.919 298.751 106.79 298.289 106.79C297.816 106.79 297.422 106.919 297.107 107.176C296.797 107.434 296.564 107.78 296.408 108.216C296.257 108.648 296.181 109.131 296.181 109.665C296.181 110.195 296.257 110.676 296.408 111.108C296.564 111.54 296.797 111.884 297.107 112.142C297.422 112.396 297.816 112.523 298.289 112.523ZM306.262 108.886V114H304.205V105.273H306.171V106.756H306.273C306.474 106.267 306.794 105.879 307.234 105.591C307.677 105.303 308.224 105.159 308.876 105.159C309.478 105.159 310.003 105.288 310.45 105.545C310.9 105.803 311.249 106.176 311.495 106.665C311.745 107.153 311.868 107.746 311.864 108.443V114H309.808V108.761C309.808 108.178 309.656 107.722 309.353 107.392C309.054 107.062 308.639 106.898 308.109 106.898C307.749 106.898 307.429 106.977 307.148 107.136C306.872 107.292 306.654 107.517 306.495 107.812C306.34 108.108 306.262 108.466 306.262 108.886Z" fill="white"/>
<rect x="341.5" y="88.5" width="83" height="39" rx="3.5" stroke="#1D1D1B"/>
<path d="M358.249 114V102.364H362.704C363.545 102.364 364.244 102.496 364.8 102.761C365.361 103.023 365.78 103.381 366.056 103.835C366.336 104.29 366.477 104.805 366.477 105.381C366.477 105.854 366.386 106.259 366.204 106.597C366.022 106.93 365.778 107.201 365.471 107.409C365.164 107.617 364.821 107.767 364.442 107.858V107.972C364.855 107.994 365.251 108.121 365.63 108.352C366.013 108.58 366.325 108.902 366.567 109.318C366.81 109.735 366.931 110.239 366.931 110.83C366.931 111.432 366.785 111.973 366.494 112.455C366.202 112.932 365.763 113.309 365.175 113.585C364.588 113.862 363.85 114 362.96 114H358.249ZM360.357 112.239H362.624C363.389 112.239 363.941 112.093 364.278 111.801C364.619 111.506 364.789 111.127 364.789 110.665C364.789 110.32 364.704 110.009 364.533 109.733C364.363 109.453 364.121 109.233 363.806 109.074C363.492 108.911 363.117 108.83 362.681 108.83H360.357V112.239ZM360.357 107.312H362.442C362.806 107.312 363.134 107.246 363.425 107.114C363.717 106.977 363.946 106.786 364.113 106.54C364.283 106.29 364.369 105.994 364.369 105.653C364.369 105.203 364.21 104.831 363.891 104.54C363.577 104.248 363.109 104.102 362.488 104.102H360.357V107.312ZM374.237 110.33V105.273H376.293V114H374.299V112.449H374.208C374.011 112.937 373.687 113.337 373.237 113.648C372.79 113.958 372.238 114.114 371.583 114.114C371.011 114.114 370.505 113.987 370.066 113.733C369.63 113.475 369.29 113.102 369.043 112.614C368.797 112.121 368.674 111.527 368.674 110.83V105.273H370.731V110.511C370.731 111.064 370.882 111.504 371.185 111.83C371.488 112.155 371.886 112.318 372.379 112.318C372.682 112.318 372.975 112.244 373.259 112.097C373.543 111.949 373.776 111.729 373.958 111.438C374.144 111.142 374.237 110.773 374.237 110.33ZM382.766 105.273V106.864H377.749V105.273H382.766ZM378.988 103.182H381.045V111.375C381.045 111.652 381.086 111.864 381.17 112.011C381.257 112.155 381.371 112.254 381.511 112.307C381.651 112.36 381.806 112.386 381.977 112.386C382.105 112.386 382.223 112.377 382.329 112.358C382.439 112.339 382.522 112.322 382.579 112.307L382.925 113.915C382.816 113.953 382.658 113.994 382.454 114.04C382.253 114.085 382.007 114.112 381.715 114.119C381.2 114.134 380.736 114.057 380.323 113.886C379.91 113.712 379.583 113.443 379.34 113.08C379.102 112.716 378.984 112.261 378.988 111.716V103.182ZM388.844 105.273V106.864H383.827V105.273H388.844ZM385.066 103.182H387.123V111.375C387.123 111.652 387.165 111.864 387.248 112.011C387.335 112.155 387.449 112.254 387.589 112.307C387.729 112.36 387.884 112.386 388.055 112.386C388.183 112.386 388.301 112.377 388.407 112.358C388.517 112.339 388.6 112.322 388.657 112.307L389.004 113.915C388.894 113.953 388.737 113.994 388.532 114.04C388.331 114.085 388.085 114.112 387.793 114.119C387.278 114.134 386.814 114.057 386.401 113.886C385.988 113.712 385.661 113.443 385.418 113.08C385.18 112.716 385.062 112.261 385.066 111.716V103.182ZM394.278 114.17C393.425 114.17 392.687 113.983 392.062 113.608C391.437 113.233 390.952 112.708 390.607 112.034C390.266 111.36 390.096 110.572 390.096 109.67C390.096 108.769 390.266 107.979 390.607 107.301C390.952 106.623 391.437 106.097 392.062 105.722C392.687 105.347 393.425 105.159 394.278 105.159C395.13 105.159 395.869 105.347 396.494 105.722C397.119 106.097 397.602 106.623 397.942 107.301C398.287 107.979 398.46 108.769 398.46 109.67C398.46 110.572 398.287 111.36 397.942 112.034C397.602 112.708 397.119 113.233 396.494 113.608C395.869 113.983 395.13 114.17 394.278 114.17ZM394.289 112.523C394.751 112.523 395.138 112.396 395.448 112.142C395.759 111.884 395.99 111.54 396.141 111.108C396.297 110.676 396.374 110.195 396.374 109.665C396.374 109.131 396.297 108.648 396.141 108.216C395.99 107.78 395.759 107.434 395.448 107.176C395.138 106.919 394.751 106.79 394.289 106.79C393.816 106.79 393.422 106.919 393.107 107.176C392.797 107.434 392.564 107.78 392.408 108.216C392.257 108.648 392.181 109.131 392.181 109.665C392.181 110.195 392.257 110.676 392.408 111.108C392.564 111.54 392.797 111.884 393.107 112.142C393.422 112.396 393.816 112.523 394.289 112.523ZM402.262 108.886V114H400.205V105.273H402.171V106.756H402.273C402.474 106.267 402.794 105.879 403.234 105.591C403.677 105.303 404.224 105.159 404.876 105.159C405.478 105.159 406.003 105.288 406.45 105.545C406.9 105.803 407.249 106.176 407.495 106.665C407.745 107.153 407.868 107.746 407.864 108.443V114H405.808V108.761C405.808 108.178 405.656 107.722 405.353 107.392C405.054 107.062 404.639 106.898 404.109 106.898C403.749 106.898 403.429 106.977 403.148 107.136C402.872 107.292 402.654 107.517 402.495 107.812C402.34 108.108 402.262 108.466 402.262 108.886Z" fill="#1D1D1B"/>
<path fill-rule="evenodd" clip-rule="evenodd" d="M449.8 79L451 80.2L446.2 84.9999L451 89.8L449.8 91L445 86.1998L440.2 91L439 89.8L443.799 84.9999L439 80.2L440.2 79L445 83.7993L449.8 79Z" fill="#1D1D1B"/>
</g>
<rect x="9" y="65" width="456" height="8" fill="#FF991F" fill-opacity="0.5"/>
<rect x="17" y="73" width="20" height="4" fill="#FF991F"/>
<rect x="9" y="143" width="456" height="8" fill="#FF991F" fill-opacity="0.5"/>
<rect x="457" y="65" width="8" height="86" fill="#FF991F" fill-opacity="0.5"/>
<rect x="425" y="65" width="8" height="86" fill="#FF991F" fill-opacity="0.5"/>
<rect x="9" y="65" width="8" height="86" fill="#FF991F" fill-opacity="0.5"/>
<rect x="37" y="65" width="8" height="86" fill="#FF991F" fill-opacity="0.5"/>
<rect x="329" y="65" width="12" height="86" fill="#FF991F" fill-opacity="0.5"/>
<rect x="233" y="65" width="12" height="86" fill="#FF991F" fill-opacity="0.5"/>
<rect x="305.5" y="0.5" width="58" height="31" rx="15.5" fill="#F5F5F5"/>
<rect x="305.5" y="0.5" width="58" height="31" rx="15.5" stroke="#B3B3B2"/>
<path d="M325.288 11.2727V20H324.231V12.3807H324.18L322.049 13.7955V12.7216L324.231 11.2727H325.288ZM327.798 20V19.233L330.679 16.0795C331.017 15.7102 331.295 15.3892 331.514 15.1165C331.733 14.8409 331.895 14.5824 332 14.3409C332.108 14.0966 332.162 13.8409 332.162 13.5739C332.162 13.267 332.088 13.0014 331.94 12.777C331.795 12.5526 331.596 12.3793 331.343 12.2571C331.091 12.1349 330.806 12.0739 330.491 12.0739C330.156 12.0739 329.863 12.1435 329.613 12.2827C329.366 12.419 329.174 12.6108 329.038 12.858C328.904 13.1051 328.838 13.3949 328.838 13.7273H327.832C327.832 13.2159 327.95 12.767 328.186 12.3807C328.422 11.9943 328.743 11.6932 329.149 11.4773C329.558 11.2614 330.017 11.1534 330.525 11.1534C331.037 11.1534 331.49 11.2614 331.885 11.4773C332.279 11.6932 332.589 11.9844 332.814 12.3509C333.038 12.7173 333.15 13.125 333.15 13.5739C333.15 13.8949 333.092 14.2088 332.975 14.5156C332.862 14.8196 332.663 15.1591 332.379 15.5341C332.098 15.9062 331.707 16.3608 331.207 16.8977L329.247 18.9943V19.0625H333.304V20H327.798ZM335.081 22.4545V13.4545H336.052V14.4943H336.172C336.245 14.3807 336.348 14.2358 336.478 14.0597C336.612 13.8807 336.802 13.7216 337.049 13.5824C337.299 13.4403 337.637 13.3693 338.064 13.3693C338.615 13.3693 339.1 13.5071 339.521 13.7827C339.941 14.0582 340.27 14.4489 340.505 14.9545C340.741 15.4602 340.859 16.0568 340.859 16.7443C340.859 17.4375 340.741 18.0384 340.505 18.5469C340.27 19.0526 339.943 19.4446 339.525 19.723C339.108 19.9986 338.626 20.1364 338.081 20.1364C337.66 20.1364 337.324 20.0668 337.071 19.9276C336.818 19.7855 336.623 19.625 336.487 19.446C336.35 19.2642 336.245 19.1136 336.172 18.9943H336.086V22.4545H335.081ZM336.069 16.7273C336.069 17.2216 336.142 17.6577 336.287 18.0355C336.431 18.4105 336.643 18.7045 336.922 18.9176C337.2 19.1278 337.541 19.233 337.944 19.233C338.365 19.233 338.716 19.1222 338.997 18.9006C339.281 18.6761 339.494 18.375 339.636 17.9972C339.781 17.6165 339.853 17.1932 339.853 16.7273C339.853 16.267 339.782 15.8523 339.64 15.483C339.501 15.1108 339.289 14.8168 339.005 14.6009C338.724 14.3821 338.37 14.2727 337.944 14.2727C337.535 14.2727 337.191 14.3764 336.913 14.5838C336.635 14.7884 336.424 15.0753 336.282 15.4446C336.14 15.8111 336.069 16.2386 336.069 16.7273ZM342.874 13.4545L344.442 16.1307L346.01 13.4545H347.169L345.055 16.7273L347.169 20H346.01L344.442 17.4602L342.874 20H341.714L343.794 16.7273L341.714 13.4545H342.874Z" fill="#1D1D1B"/>
<path d="M335 68.1667C334.264 68.1667 333.667 68.7636 333.667 69.5C333.667 70.2364 334.264 70.8333 335 70.8333C335.736 70.8333 336.333 70.2364 336.333 69.5C336.333 68.7636 335.736 68.1667 335 68.1667ZM334.75 34.3438C334.75 34.4818 334.862 34.5938 335 34.5938C335.138 34.5937 335.25 34.4818 335.25 34.3437L334.75 34.3438ZM335.25 39.0312C335.25 38.8932 335.138 38.7812 335 38.7813C334.862 38.7813 334.75 38.8932 334.75 39.0313L335.25 39.0312ZM334.75 43.7188C334.75 43.8568 334.862 43.9688 335 43.9688C335.138 43.9687 335.25 43.8568 335.25 43.7187L334.75 43.7188ZM335.25 48.4062C335.25 48.2682 335.138 48.1562 335 48.1563C334.862 48.1563 334.75 48.2682 334.75 48.4063L335.25 48.4062ZM334.75 53.0938C334.75 53.2318 334.862 53.3438 335 53.3438C335.138 53.3437 335.25 53.2318 335.25 53.0937L334.75 53.0938ZM335.25 57.7812C335.25 57.6432 335.138 57.5312 335 57.5313C334.862 57.5313 334.75 57.6432 334.75 57.7813L335.25 57.7812ZM334.75 62.4688C334.75 62.6068 334.862 62.7188 335 62.7188C335.138 62.7187 335.25 62.6068 335.25 62.4687L334.75 62.4688ZM335.25 67.1562C335.25 67.0182 335.138 66.9062 335 66.9063C334.862 66.9063 334.75 67.0182 334.75 67.1563L335.25 67.1562ZM334.75 32L334.75 34.3438L335.25 34.3437L335.25 32H334.75ZM334.75 39.0313L334.75 43.7188L335.25 43.7187L335.25 39.0312L334.75 39.0313ZM334.75 48.4063L334.75 53.0938L335.25 53.0937L335.25 48.4062L334.75 48.4063ZM334.75 57.7813L334.75 62.4688L335.25 62.4687L335.25 57.7812L334.75 57.7813ZM334.75 67.1563L334.75 69.5L335.25 69.5L335.25 67.1562L334.75 67.1563ZM335 66.8333C333.527 66.8333 332.333 68.0272 332.333 69.5C332.333 70.9728 333.527 72.1667 335 72.1667C336.473 72.1667 337.667 70.9728 337.667 69.5C337.667 68.0272 336.473 66.8333 335 66.8333ZM334.5 34.3438C334.5 34.6199 334.724 34.8438 335 34.8438C335.276 34.8437 335.5 34.6199 335.5 34.3437L334.5 34.3438ZM335.5 39.0312C335.5 38.7551 335.276 38.5312 335 38.5313C334.724 38.5313 334.5 38.7551 334.5 39.0313L335.5 39.0312ZM334.5 43.7188C334.5 43.9949 334.724 44.2188 335 44.2188C335.276 44.2187 335.5 43.9949 335.5 43.7187L334.5 43.7188ZM335.5 48.4062C335.5 48.1301 335.276 47.9062 335 47.9063C334.724 47.9063 334.5 48.1301 334.5 48.4063L335.5 48.4062ZM334.5 53.0938C334.5 53.3699 334.724 53.5938 335 53.5938C335.276 53.5937 335.5 53.3699 335.5 53.0937L334.5 53.0938ZM335.5 57.7812C335.5 57.5051 335.276 57.2812 335 57.2813C334.724 57.2813 334.5 57.5051 334.5 57.7813L335.5 57.7812ZM334.5 62.4688C334.5 62.7449 334.724 62.9688 335 62.9688C335.276 62.9687 335.5 62.7449 335.5 62.4687L334.5 62.4688ZM335.5 67.1562C335.5 66.8801 335.276 66.6562 335 66.6563C334.724 66.6563 334.5 66.8801 334.5 67.1563L335.5 67.1562ZM334.5 32L334.5 34.3438L335.5 34.3437L335.5 32L334.5 32ZM334.5 39.0313L334.5 43.7188L335.5 43.7187L335.5 39.0312L334.5 39.0313ZM334.5 48.4063L334.5 53.0938L335.5 53.0937L335.5 48.4062L334.5 48.4063ZM334.5 57.7813L334.5 62.4688L335.5 62.4687L335.5 57.7812L334.5 57.7813ZM334.5 67.1563L334.5 69.5L335.5 69.5L335.5 67.1562L334.5 67.1563Z" fill="#1D1D1B"/>
<rect x="401.5" y="0.5" width="52" height="31" rx="15.5" fill="#F5F5F5"/>
<rect x="401.5" y="0.5" width="52" height="31" rx="15.5" stroke="#B3B3B2"/>
<path d="M420.74 20.1193C420.155 20.1193 419.638 20.0156 419.189 19.8082C418.743 19.598 418.395 19.3097 418.145 18.9432C417.895 18.5739 417.771 18.1534 417.774 17.6818C417.771 17.3125 417.844 16.9716 417.991 16.6591C418.139 16.3437 418.341 16.081 418.596 15.8707C418.855 15.6577 419.143 15.5227 419.461 15.4659V15.4148C419.044 15.3068 418.711 15.0724 418.464 14.7116C418.217 14.348 418.095 13.9347 418.098 13.4716C418.095 13.0284 418.207 12.6321 418.434 12.2827C418.662 11.9332 418.974 11.6577 419.372 11.456C419.773 11.2543 420.229 11.1534 420.74 11.1534C421.246 11.1534 421.697 11.2543 422.095 11.456C422.493 11.6577 422.805 11.9332 423.032 12.2827C423.263 12.6321 423.379 13.0284 423.382 13.4716C423.379 13.9347 423.253 14.348 423.003 14.7116C422.756 15.0724 422.427 15.3068 422.018 15.4148V15.4659C422.334 15.5227 422.618 15.6577 422.871 15.8707C423.123 16.081 423.325 16.3437 423.476 16.6591C423.626 16.9716 423.703 17.3125 423.706 17.6818C423.703 18.1534 423.575 18.5739 423.322 18.9432C423.072 19.3097 422.724 19.598 422.278 19.8082C421.835 20.0156 421.322 20.1193 420.74 20.1193ZM420.74 19.1818C421.135 19.1818 421.476 19.1179 421.763 18.9901C422.05 18.8622 422.271 18.6818 422.427 18.4489C422.584 18.2159 422.663 17.9432 422.666 17.6307C422.663 17.3011 422.578 17.0099 422.41 16.7571C422.243 16.5043 422.014 16.3054 421.724 16.1605C421.437 16.0156 421.109 15.9432 420.74 15.9432C420.368 15.9432 420.035 16.0156 419.743 16.1605C419.453 16.3054 419.224 16.5043 419.057 16.7571C418.892 17.0099 418.811 17.3011 418.814 17.6307C418.811 17.9432 418.886 18.2159 419.04 18.4489C419.196 18.6818 419.419 18.8622 419.709 18.9901C419.998 19.1179 420.342 19.1818 420.74 19.1818ZM420.74 15.0398C421.052 15.0398 421.329 14.9773 421.571 14.8523C421.815 14.7273 422.007 14.5526 422.146 14.3281C422.285 14.1037 422.356 13.8409 422.359 13.5398C422.356 13.2443 422.287 12.9872 422.15 12.7685C422.014 12.5469 421.825 12.3764 421.584 12.2571C421.342 12.1349 421.061 12.0739 420.74 12.0739C420.413 12.0739 420.128 12.1349 419.883 12.2571C419.639 12.3764 419.45 12.5469 419.317 12.7685C419.183 12.9872 419.118 13.2443 419.121 13.5398C419.118 13.8409 419.184 14.1037 419.321 14.3281C419.46 14.5526 419.652 14.7273 419.896 14.8523C420.14 14.9773 420.422 15.0398 420.74 15.0398ZM425.356 22.4545V13.4545H426.328V14.4943H426.447C426.521 14.3807 426.623 14.2358 426.754 14.0597C426.887 13.8807 427.078 13.7216 427.325 13.5824C427.575 13.4403 427.913 13.3693 428.339 13.3693C428.89 13.3693 429.376 13.5071 429.796 13.7827C430.217 14.0582 430.545 14.4489 430.781 14.9545C431.017 15.4602 431.134 16.0568 431.134 16.7443C431.134 17.4375 431.017 18.0384 430.781 18.5469C430.545 19.0526 430.218 19.4446 429.801 19.723C429.383 19.9986 428.901 20.1364 428.356 20.1364C427.936 20.1364 427.599 20.0668 427.346 19.9276C427.093 19.7855 426.899 19.625 426.762 19.446C426.626 19.2642 426.521 19.1136 426.447 18.9943H426.362V22.4545H425.356ZM426.345 16.7273C426.345 17.2216 426.417 17.6577 426.562 18.0355C426.707 18.4105 426.919 18.7045 427.197 18.9176C427.475 19.1278 427.816 19.233 428.22 19.233C428.64 19.233 428.991 19.1222 429.272 18.9006C429.556 18.6761 429.769 18.375 429.911 17.9972C430.056 17.6165 430.129 17.1932 430.129 16.7273C430.129 16.267 430.058 15.8523 429.916 15.483C429.776 15.1108 429.565 14.8168 429.281 14.6009C428.999 14.3821 428.646 14.2727 428.22 14.2727C427.811 14.2727 427.467 14.3764 427.188 14.5838C426.91 14.7884 426.7 15.0753 426.558 15.4446C426.416 15.8111 426.345 16.2386 426.345 16.7273ZM433.149 13.4545L434.717 16.1307L436.285 13.4545H437.444L435.331 16.7273L437.444 20H436.285L434.717 17.4602L433.149 20H431.99L434.069 16.7273L431.99 13.4545H433.149Z" fill="#1D1D1B"/>
<path d="M429 67.6667C428.264 67.6667 427.667 68.2636 427.667 69C427.667 69.7364 428.264 70.3333 429 70.3333C429.736 70.3333 430.333 69.7364 430.333 69C430.333 68.2636 429.736 67.6667 429 67.6667ZM428.75 34.3125C428.75 34.4506 428.862 34.5625 429 34.5625C429.138 34.5625 429.25 34.4506 429.25 34.3125L428.75 34.3125ZM429.25 38.9375C429.25 38.7994 429.138 38.6875 429 38.6875C428.862 38.6875 428.75 38.7994 428.75 38.9375L429.25 38.9375ZM428.75 43.5625C428.75 43.7006 428.862 43.8125 429 43.8125C429.138 43.8125 429.25 43.7006 429.25 43.5625L428.75 43.5625ZM429.25 48.1875C429.25 48.0494 429.138 47.9375 429 47.9375C428.862 47.9375 428.75 48.0494 428.75 48.1875L429.25 48.1875ZM428.75 52.8125C428.75 52.9506 428.862 53.0625 429 53.0625C429.138 53.0625 429.25 52.9506 429.25 52.8125L428.75 52.8125ZM429.25 57.4375C429.25 57.2994 429.138 57.1875 429 57.1875C428.862 57.1875 428.75 57.2994 428.75 57.4375L429.25 57.4375ZM428.75 62.0625C428.75 62.2006 428.862 62.3125 429 62.3125C429.138 62.3125 429.25 62.2006 429.25 62.0625L428.75 62.0625ZM429.25 66.6875C429.25 66.5494 429.138 66.4375 429 66.4375C428.862 66.4375 428.75 66.5494 428.75 66.6875L429.25 66.6875ZM428.75 32L428.75 34.3125L429.25 34.3125L429.25 32L428.75 32ZM428.75 38.9375L428.75 43.5625L429.25 43.5625L429.25 38.9375L428.75 38.9375ZM428.75 48.1875L428.75 52.8125L429.25 52.8125L429.25 48.1875L428.75 48.1875ZM428.75 57.4375L428.75 62.0625L429.25 62.0625L429.25 57.4375L428.75 57.4375ZM428.75 66.6875L428.75 69L429.25 69L429.25 66.6875L428.75 66.6875ZM429 66.3333C427.527 66.3333 426.333 67.5272 426.333 69C426.333 70.4728 427.527 71.6667 429 71.6667C430.473 71.6667 431.667 70.4728 431.667 69C431.667 67.5272 430.473 66.3333 429 66.3333ZM428.5 34.3125C428.5 34.5886 428.724 34.8125 429 34.8125C429.276 34.8125 429.5 34.5886 429.5 34.3125L428.5 34.3125ZM429.5 38.9375C429.5 38.6614 429.276 38.4375 429 38.4375C428.724 38.4375 428.5 38.6614 428.5 38.9375L429.5 38.9375ZM428.5 43.5625C428.5 43.8386 428.724 44.0625 429 44.0625C429.276 44.0625 429.5 43.8386 429.5 43.5625L428.5 43.5625ZM429.5 48.1875C429.5 47.9114 429.276 47.6875 429 47.6875C428.724 47.6875 428.5 47.9114 428.5 48.1875L429.5 48.1875ZM428.5 52.8125C428.5 53.0886 428.724 53.3125 429 53.3125C429.276 53.3125 429.5 53.0886 429.5 52.8125L428.5 52.8125ZM429.5 57.4375C429.5 57.1614 429.276 56.9375 429 56.9375C428.724 56.9375 428.5 57.1614 428.5 57.4375L429.5 57.4375ZM428.5 62.0625C428.5 62.3386 428.724 62.5625 429 62.5625C429.276 62.5625 429.5 62.3386 429.5 62.0625L428.5 62.0625ZM429.5 66.6875C429.5 66.4114 429.276 66.1875 429 66.1875C428.724 66.1875 428.5 66.4114 428.5 66.6875L429.5 66.6875ZM428.5 32L428.5 34.3125L429.5 34.3125L429.5 32L428.5 32ZM428.5 38.9375L428.5 43.5625L429.5 43.5625L429.5 38.9375L428.5 38.9375ZM428.5 48.1875L428.5 52.8125L429.5 52.8125L429.5 48.1875L428.5 48.1875ZM428.5 57.4375L428.5 62.0625L429.5 62.0625L429.5 57.4375L428.5 57.4375ZM428.5 66.6875L428.5 69L429.5 69L429.5 66.6875L428.5 66.6875Z" fill="#1D1D1B"/>
<rect x="14.5" y="183.5" width="52" height="31" rx="15.5" fill="#F5F5F5"/>
<rect x="14.5" y="183.5" width="52" height="31" rx="15.5" stroke="#B3B3B2"/>
<path d="M33.7399 203.119C33.1547 203.119 32.6376 203.016 32.1887 202.808C31.7427 202.598 31.3947 202.31 31.1447 201.943C30.8947 201.574 30.7711 201.153 30.774 200.682C30.7711 200.312 30.8436 199.972 30.9913 199.659C31.139 199.344 31.3407 199.081 31.5964 198.871C31.8549 198.658 32.1433 198.523 32.4615 198.466V198.415C32.0439 198.307 31.7115 198.072 31.4643 197.712C31.2172 197.348 31.095 196.935 31.0978 196.472C31.095 196.028 31.2072 195.632 31.4345 195.283C31.6618 194.933 31.9743 194.658 32.372 194.456C32.7725 194.254 33.2285 194.153 33.7399 194.153C34.2456 194.153 34.6973 194.254 35.095 194.456C35.4927 194.658 35.8052 194.933 36.0325 195.283C36.2626 195.632 36.3791 196.028 36.3819 196.472C36.3791 196.935 36.2527 197.348 36.0027 197.712C35.7555 198.072 35.4274 198.307 35.0183 198.415V198.466C35.3336 198.523 35.6177 198.658 35.8706 198.871C36.1234 199.081 36.3251 199.344 36.4757 199.659C36.6262 199.972 36.7029 200.312 36.7058 200.682C36.7029 201.153 36.5751 201.574 36.3223 201.943C36.0723 202.31 35.7243 202.598 35.2782 202.808C34.835 203.016 34.3223 203.119 33.7399 203.119ZM33.7399 202.182C34.1348 202.182 34.4757 202.118 34.7626 201.99C35.0495 201.862 35.2711 201.682 35.4274 201.449C35.5836 201.216 35.6632 200.943 35.666 200.631C35.6632 200.301 35.5779 200.01 35.4103 199.757C35.2427 199.504 35.014 199.305 34.7243 199.161C34.4373 199.016 34.1092 198.943 33.7399 198.943C33.3677 198.943 33.0353 199.016 32.7427 199.161C32.4529 199.305 32.2243 199.504 32.0566 199.757C31.8919 200.01 31.8109 200.301 31.8137 200.631C31.8109 200.943 31.8862 201.216 32.0396 201.449C32.1958 201.682 32.4189 201.862 32.7086 201.99C32.9984 202.118 33.3422 202.182 33.7399 202.182ZM33.7399 198.04C34.0524 198.04 34.3294 197.977 34.5708 197.852C34.8152 197.727 35.0069 197.553 35.1461 197.328C35.2853 197.104 35.3564 196.841 35.3592 196.54C35.3564 196.244 35.2868 195.987 35.1504 195.768C35.014 195.547 34.8251 195.376 34.5836 195.257C34.3422 195.135 34.0609 195.074 33.7399 195.074C33.4132 195.074 33.1277 195.135 32.8833 195.257C32.639 195.376 32.4501 195.547 32.3166 195.768C32.1831 195.987 32.1177 196.244 32.1206 196.54C32.1177 196.841 32.1845 197.104 32.3208 197.328C32.46 197.553 32.6518 197.727 32.8961 197.852C33.1404 197.977 33.4217 198.04 33.7399 198.04ZM38.356 205.455V196.455H39.3276V197.494H39.4469C39.5208 197.381 39.623 197.236 39.7537 197.06C39.8873 196.881 40.0776 196.722 40.3248 196.582C40.5748 196.44 40.9128 196.369 41.339 196.369C41.8901 196.369 42.3759 196.507 42.7963 196.783C43.2168 197.058 43.5449 197.449 43.7807 197.955C44.0165 198.46 44.1344 199.057 44.1344 199.744C44.1344 200.438 44.0165 201.038 43.7807 201.547C43.5449 202.053 43.2182 202.445 42.8006 202.723C42.383 202.999 41.9015 203.136 41.356 203.136C40.9355 203.136 40.5989 203.067 40.3461 202.928C40.0932 202.786 39.8986 202.625 39.7623 202.446C39.6259 202.264 39.5208 202.114 39.4469 201.994H39.3617V205.455H38.356ZM39.3446 199.727C39.3446 200.222 39.4171 200.658 39.562 201.036C39.7069 201.411 39.9185 201.705 40.1969 201.918C40.4753 202.128 40.8162 202.233 41.2196 202.233C41.6401 202.233 41.9909 202.122 42.2722 201.901C42.5563 201.676 42.7694 201.375 42.9114 200.997C43.0563 200.616 43.1287 200.193 43.1287 199.727C43.1287 199.267 43.0577 198.852 42.9157 198.483C42.7765 198.111 42.5648 197.817 42.2807 197.601C41.9995 197.382 41.6458 197.273 41.2196 197.273C40.8105 197.273 40.4668 197.376 40.1884 197.584C39.91 197.788 39.6998 198.075 39.5577 198.445C39.4157 198.811 39.3446 199.239 39.3446 199.727ZM46.149 196.455L47.7172 199.131L49.2853 196.455H50.4444L48.3308 199.727L50.4444 203H49.2853L47.7172 200.46L46.149 203H44.9899L47.0694 199.727L44.9899 196.455H46.149Z" fill="#1D1D1B"/>
<path d="M41 148.333C41.7364 148.333 42.3333 147.736 42.3333 147C42.3333 146.264 41.7364 145.667 41 145.667C40.2636 145.667 39.6667 146.264 39.6667 147C39.6667 147.736 40.2636 148.333 41 148.333ZM41.25 181.688C41.25 181.549 41.1381 181.438 41 181.438C40.8619 181.438 40.75 181.549 40.75 181.688H41.25ZM40.75 177.063C40.75 177.201 40.8619 177.313 41 177.313C41.1381 177.313 41.25 177.201 41.25 177.063H40.75ZM41.25 172.438C41.25 172.299 41.1381 172.188 41 172.188C40.8619 172.188 40.75 172.299 40.75 172.438H41.25ZM40.75 167.813C40.75 167.951 40.8619 168.063 41 168.063C41.1381 168.063 41.25 167.951 41.25 167.813H40.75ZM41.25 163.188C41.25 163.049 41.1381 162.938 41 162.938C40.8619 162.938 40.75 163.049 40.75 163.188H41.25ZM40.75 158.563C40.75 158.701 40.8619 158.813 41 158.813C41.1381 158.813 41.25 158.701 41.25 158.563H40.75ZM41.25 153.938C41.25 153.799 41.1381 153.688 41 153.688C40.8619 153.688 40.75 153.799 40.75 153.938H41.25ZM40.75 149.313C40.75 149.451 40.8619 149.563 41 149.563C41.1381 149.563 41.25 149.451 41.25 149.313H40.75ZM41.25 184V181.688H40.75V184H41.25ZM41.25 177.063V172.438H40.75V177.063H41.25ZM41.25 167.813V163.188H40.75V167.813H41.25ZM41.25 158.563V153.938H40.75V158.563H41.25ZM41.25 149.313V147H40.75V149.313H41.25ZM41 149.667C42.4728 149.667 43.6667 148.473 43.6667 147C43.6667 145.527 42.4728 144.333 41 144.333C39.5272 144.333 38.3333 145.527 38.3333 147C38.3333 148.473 39.5272 149.667 41 149.667ZM41.5 181.688C41.5 181.411 41.2761 181.188 41 181.188C40.7239 181.188 40.5 181.411 40.5 181.688H41.5ZM40.5 177.063C40.5 177.339 40.7239 177.563 41 177.563C41.2761 177.563 41.5 177.339 41.5 177.063H40.5ZM41.5 172.438C41.5 172.161 41.2761 171.938 41 171.938C40.7239 171.938 40.5 172.161 40.5 172.438H41.5ZM40.5 167.813C40.5 168.089 40.7239 168.313 41 168.313C41.2761 168.313 41.5 168.089 41.5 167.813H40.5ZM41.5 163.188C41.5 162.911 41.2761 162.688 41 162.688C40.7239 162.688 40.5 162.911 40.5 163.188H41.5ZM40.5 158.563C40.5 158.839 40.7239 159.063 41 159.063C41.2761 159.063 41.5 158.839 41.5 158.563H40.5ZM41.5 153.938C41.5 153.661 41.2761 153.438 41 153.438C40.7239 153.438 40.5 153.661 40.5 153.938H41.5ZM40.5 149.313C40.5 149.589 40.7239 149.813 41 149.813C41.2761 149.813 41.5 149.589 41.5 149.313H40.5ZM41.5 184V181.688H40.5V184H41.5ZM41.5 177.063V172.438H40.5V177.063H41.5ZM41.5 167.813V163.188H40.5V167.813H41.5ZM41.5 158.563V153.938H40.5V158.563H41.5ZM41.5 149.313V147H40.5V149.313H41.5Z" fill="#1D1D1B"/>
<rect x="356.5" y="184.5" width="52" height="31" rx="15.5" fill="#F5F5F5"/>
<rect x="356.5" y="184.5" width="52" height="31" rx="15.5" stroke="#B3B3B2"/>
<path d="M375.74 204.119C375.155 204.119 374.638 204.016 374.189 203.808C373.743 203.598 373.395 203.31 373.145 202.943C372.895 202.574 372.771 202.153 372.774 201.682C372.771 201.312 372.844 200.972 372.991 200.659C373.139 200.344 373.341 200.081 373.596 199.871C373.855 199.658 374.143 199.523 374.461 199.466V199.415C374.044 199.307 373.711 199.072 373.464 198.712C373.217 198.348 373.095 197.935 373.098 197.472C373.095 197.028 373.207 196.632 373.434 196.283C373.662 195.933 373.974 195.658 374.372 195.456C374.773 195.254 375.229 195.153 375.74 195.153C376.246 195.153 376.697 195.254 377.095 195.456C377.493 195.658 377.805 195.933 378.032 196.283C378.263 196.632 378.379 197.028 378.382 197.472C378.379 197.935 378.253 198.348 378.003 198.712C377.756 199.072 377.427 199.307 377.018 199.415V199.466C377.334 199.523 377.618 199.658 377.871 199.871C378.123 200.081 378.325 200.344 378.476 200.659C378.626 200.972 378.703 201.312 378.706 201.682C378.703 202.153 378.575 202.574 378.322 202.943C378.072 203.31 377.724 203.598 377.278 203.808C376.835 204.016 376.322 204.119 375.74 204.119ZM375.74 203.182C376.135 203.182 376.476 203.118 376.763 202.99C377.05 202.862 377.271 202.682 377.427 202.449C377.584 202.216 377.663 201.943 377.666 201.631C377.663 201.301 377.578 201.01 377.41 200.757C377.243 200.504 377.014 200.305 376.724 200.161C376.437 200.016 376.109 199.943 375.74 199.943C375.368 199.943 375.035 200.016 374.743 200.161C374.453 200.305 374.224 200.504 374.057 200.757C373.892 201.01 373.811 201.301 373.814 201.631C373.811 201.943 373.886 202.216 374.04 202.449C374.196 202.682 374.419 202.862 374.709 202.99C374.998 203.118 375.342 203.182 375.74 203.182ZM375.74 199.04C376.052 199.04 376.329 198.977 376.571 198.852C376.815 198.727 377.007 198.553 377.146 198.328C377.285 198.104 377.356 197.841 377.359 197.54C377.356 197.244 377.287 196.987 377.15 196.768C377.014 196.547 376.825 196.376 376.584 196.257C376.342 196.135 376.061 196.074 375.74 196.074C375.413 196.074 375.128 196.135 374.883 196.257C374.639 196.376 374.45 196.547 374.317 196.768C374.183 196.987 374.118 197.244 374.121 197.54C374.118 197.841 374.184 198.104 374.321 198.328C374.46 198.553 374.652 198.727 374.896 198.852C375.14 198.977 375.422 199.04 375.74 199.04ZM380.356 206.455V197.455H381.328V198.494H381.447C381.521 198.381 381.623 198.236 381.754 198.06C381.887 197.881 382.078 197.722 382.325 197.582C382.575 197.44 382.913 197.369 383.339 197.369C383.89 197.369 384.376 197.507 384.796 197.783C385.217 198.058 385.545 198.449 385.781 198.955C386.017 199.46 386.134 200.057 386.134 200.744C386.134 201.438 386.017 202.038 385.781 202.547C385.545 203.053 385.218 203.445 384.801 203.723C384.383 203.999 383.901 204.136 383.356 204.136C382.936 204.136 382.599 204.067 382.346 203.928C382.093 203.786 381.899 203.625 381.762 203.446C381.626 203.264 381.521 203.114 381.447 202.994H381.362V206.455H380.356ZM381.345 200.727C381.345 201.222 381.417 201.658 381.562 202.036C381.707 202.411 381.919 202.705 382.197 202.918C382.475 203.128 382.816 203.233 383.22 203.233C383.64 203.233 383.991 203.122 384.272 202.901C384.556 202.676 384.769 202.375 384.911 201.997C385.056 201.616 385.129 201.193 385.129 200.727C385.129 200.267 385.058 199.852 384.916 199.483C384.776 199.111 384.565 198.817 384.281 198.601C383.999 198.382 383.646 198.273 383.22 198.273C382.811 198.273 382.467 198.376 382.188 198.584C381.91 198.788 381.7 199.075 381.558 199.445C381.416 199.811 381.345 200.239 381.345 200.727ZM388.149 197.455L389.717 200.131L391.285 197.455H392.444L390.331 200.727L392.444 204H391.285L389.717 201.46L388.149 204H386.99L389.069 200.727L386.99 197.455H388.149Z" fill="#1D1D1B"/>
<path d="M383 148.333C383.736 148.333 384.333 147.736 384.333 147C384.333 146.264 383.736 145.667 383 145.667C382.264 145.667 381.667 146.264 381.667 147C381.667 147.736 382.264 148.333 383 148.333ZM383.25 181.688C383.25 181.549 383.138 181.438 383 181.438C382.862 181.438 382.75 181.549 382.75 181.688H383.25ZM382.75 177.062C382.75 177.201 382.862 177.312 383 177.312C383.138 177.312 383.25 177.201 383.25 177.062H382.75ZM383.25 172.438C383.25 172.299 383.138 172.188 383 172.188C382.862 172.188 382.75 172.299 382.75 172.438H383.25ZM382.75 167.812C382.75 167.951 382.862 168.062 383 168.062C383.138 168.062 383.25 167.951 383.25 167.812H382.75ZM383.25 163.188C383.25 163.049 383.138 162.938 383 162.938C382.862 162.938 382.75 163.049 382.75 163.188H383.25ZM382.75 158.562C382.75 158.701 382.862 158.812 383 158.812C383.138 158.812 383.25 158.701 383.25 158.562H382.75ZM383.25 153.938C383.25 153.799 383.138 153.688 383 153.688C382.862 153.688 382.75 153.799 382.75 153.938H383.25ZM382.75 149.312C382.75 149.451 382.862 149.562 383 149.562C383.138 149.562 383.25 149.451 383.25 149.312H382.75ZM383.25 184V181.688H382.75V184H383.25ZM383.25 177.062V172.438H382.75V177.062H383.25ZM383.25 167.812V163.188H382.75V167.812H383.25ZM383.25 158.562V153.938H382.75V158.562H383.25ZM383.25 149.312V147H382.75V149.312H383.25ZM383 149.667C384.473 149.667 385.667 148.473 385.667 147C385.667 145.527 384.473 144.333 383 144.333C381.527 144.333 380.333 145.527 380.333 147C380.333 148.473 381.527 149.667 383 149.667ZM383.5 181.688C383.5 181.411 383.276 181.188 383 181.188C382.724 181.188 382.5 181.411 382.5 181.688H383.5ZM382.5 177.062C382.5 177.339 382.724 177.562 383 177.562C383.276 177.562 383.5 177.339 383.5 177.062H382.5ZM383.5 172.438C383.5 172.161 383.276 171.938 383 171.938C382.724 171.938 382.5 172.161 382.5 172.438H383.5ZM382.5 167.812C382.5 168.089 382.724 168.312 383 168.312C383.276 168.312 383.5 168.089 383.5 167.812H382.5ZM383.5 163.188C383.5 162.911 383.276 162.688 383 162.688C382.724 162.688 382.5 162.911 382.5 163.188H383.5ZM382.5 158.562C382.5 158.839 382.724 159.062 383 159.062C383.276 159.062 383.5 158.839 383.5 158.562H382.5ZM383.5 153.938C383.5 153.661 383.276 153.438 383 153.438C382.724 153.438 382.5 153.661 382.5 153.938H383.5ZM382.5 149.312C382.5 149.589 382.724 149.812 383 149.812C383.276 149.812 383.5 149.589 383.5 149.312H382.5ZM383.5 184V181.688H382.5V184H383.5ZM383.5 177.062V172.438H382.5V177.062H383.5ZM383.5 167.812V163.188H382.5V167.812H383.5ZM383.5 158.562V153.938H382.5V158.562H383.5ZM383.5 149.312V147H382.5V149.312H383.5Z" fill="#1D1D1B"/>
<rect x="496.5" y="92.5" width="52" height="31" rx="15.5" fill="#F5F5F5"/>
<rect x="496.5" y="92.5" width="52" height="31" rx="15.5" stroke="#B3B3B2"/>
<path d="M515.74 112.119C515.155 112.119 514.638 112.016 514.189 111.808C513.743 111.598 513.395 111.31 513.145 110.943C512.895 110.574 512.771 110.153 512.774 109.682C512.771 109.312 512.844 108.972 512.991 108.659C513.139 108.344 513.341 108.081 513.596 107.871C513.855 107.658 514.143 107.523 514.461 107.466V107.415C514.044 107.307 513.711 107.072 513.464 106.712C513.217 106.348 513.095 105.935 513.098 105.472C513.095 105.028 513.207 104.632 513.434 104.283C513.662 103.933 513.974 103.658 514.372 103.456C514.773 103.254 515.229 103.153 515.74 103.153C516.246 103.153 516.697 103.254 517.095 103.456C517.493 103.658 517.805 103.933 518.032 104.283C518.263 104.632 518.379 105.028 518.382 105.472C518.379 105.935 518.253 106.348 518.003 106.712C517.756 107.072 517.427 107.307 517.018 107.415V107.466C517.334 107.523 517.618 107.658 517.871 107.871C518.123 108.081 518.325 108.344 518.476 108.659C518.626 108.972 518.703 109.312 518.706 109.682C518.703 110.153 518.575 110.574 518.322 110.943C518.072 111.31 517.724 111.598 517.278 111.808C516.835 112.016 516.322 112.119 515.74 112.119ZM515.74 111.182C516.135 111.182 516.476 111.118 516.763 110.99C517.05 110.862 517.271 110.682 517.427 110.449C517.584 110.216 517.663 109.943 517.666 109.631C517.663 109.301 517.578 109.01 517.41 108.757C517.243 108.504 517.014 108.305 516.724 108.161C516.437 108.016 516.109 107.943 515.74 107.943C515.368 107.943 515.035 108.016 514.743 108.161C514.453 108.305 514.224 108.504 514.057 108.757C513.892 109.01 513.811 109.301 513.814 109.631C513.811 109.943 513.886 110.216 514.04 110.449C514.196 110.682 514.419 110.862 514.709 110.99C514.998 111.118 515.342 111.182 515.74 111.182ZM515.74 107.04C516.052 107.04 516.329 106.977 516.571 106.852C516.815 106.727 517.007 106.553 517.146 106.328C517.285 106.104 517.356 105.841 517.359 105.54C517.356 105.244 517.287 104.987 517.15 104.768C517.014 104.547 516.825 104.376 516.584 104.257C516.342 104.135 516.061 104.074 515.74 104.074C515.413 104.074 515.128 104.135 514.883 104.257C514.639 104.376 514.45 104.547 514.317 104.768C514.183 104.987 514.118 105.244 514.121 105.54C514.118 105.841 514.184 106.104 514.321 106.328C514.46 106.553 514.652 106.727 514.896 106.852C515.14 106.977 515.422 107.04 515.74 107.04ZM520.356 114.455V105.455H521.328V106.494H521.447C521.521 106.381 521.623 106.236 521.754 106.06C521.887 105.881 522.078 105.722 522.325 105.582C522.575 105.44 522.913 105.369 523.339 105.369C523.89 105.369 524.376 105.507 524.796 105.783C525.217 106.058 525.545 106.449 525.781 106.955C526.017 107.46 526.134 108.057 526.134 108.744C526.134 109.438 526.017 110.038 525.781 110.547C525.545 111.053 525.218 111.445 524.801 111.723C524.383 111.999 523.901 112.136 523.356 112.136C522.936 112.136 522.599 112.067 522.346 111.928C522.093 111.786 521.899 111.625 521.762 111.446C521.626 111.264 521.521 111.114 521.447 110.994H521.362V114.455H520.356ZM521.345 108.727C521.345 109.222 521.417 109.658 521.562 110.036C521.707 110.411 521.919 110.705 522.197 110.918C522.475 111.128 522.816 111.233 523.22 111.233C523.64 111.233 523.991 111.122 524.272 110.901C524.556 110.676 524.769 110.375 524.911 109.997C525.056 109.616 525.129 109.193 525.129 108.727C525.129 108.267 525.058 107.852 524.916 107.483C524.776 107.111 524.565 106.817 524.281 106.601C523.999 106.382 523.646 106.273 523.22 106.273C522.811 106.273 522.467 106.376 522.188 106.584C521.91 106.788 521.7 107.075 521.558 107.445C521.416 107.811 521.345 108.239 521.345 108.727ZM528.149 105.455L529.717 108.131L531.285 105.455H532.444L530.331 108.727L532.444 112H531.285L529.717 109.46L528.149 112H526.99L529.069 108.727L526.99 105.455H528.149Z" fill="#1D1D1B"/>
<path d="M464.333 109C464.333 108.264 463.736 107.667 463 107.667C462.264 107.667 461.667 108.264 461.667 109C461.667 109.736 462.264 110.333 463 110.333C463.736 110.333 464.333 109.736 464.333 109ZM493.25 108.75C493.112 108.75 493 108.862 493 109C493 109.138 493.112 109.25 493.25 109.25V108.75ZM487.75 109.25C487.888 109.25 488 109.138 488 109C488 108.862 487.888 108.75 487.75 108.75V109.25ZM482.25 108.75C482.112 108.75 482 108.862 482 109C482 109.138 482.112 109.25 482.25 109.25V108.75ZM476.75 109.25C476.888 109.25 477 109.138 477 109C477 108.862 476.888 108.75 476.75 108.75V109.25ZM471.25 108.75C471.112 108.75 471 108.862 471 109C471 109.138 471.112 109.25 471.25 109.25V108.75ZM465.75 109.25C465.888 109.25 466 109.138 466 109C466 108.862 465.888 108.75 465.75 108.75V109.25ZM496 108.75H493.25V109.25H496V108.75ZM487.75 108.75H482.25V109.25H487.75V108.75ZM476.75 108.75H471.25V109.25H476.75V108.75ZM465.75 108.75H463V109.25H465.75V108.75ZM465.667 109C465.667 107.527 464.473 106.333 463 106.333C461.527 106.333 460.333 107.527 460.333 109C460.333 110.473 461.527 111.667 463 111.667C464.473 111.667 465.667 110.473 465.667 109ZM493.25 108.5C492.974 108.5 492.75 108.724 492.75 109C492.75 109.276 492.974 109.5 493.25 109.5V108.5ZM487.75 109.5C488.026 109.5 488.25 109.276 488.25 109C488.25 108.724 488.026 108.5 487.75 108.5V109.5ZM482.25 108.5C481.974 108.5 481.75 108.724 481.75 109C481.75 109.276 481.974 109.5 482.25 109.5V108.5ZM476.75 109.5C477.026 109.5 477.25 109.276 477.25 109C477.25 108.724 477.026 108.5 476.75 108.5V109.5ZM471.25 108.5C470.974 108.5 470.75 108.724 470.75 109C470.75 109.276 470.974 109.5 471.25 109.5V108.5ZM465.75 109.5C466.026 109.5 466.25 109.276 466.25 109C466.25 108.724 466.026 108.5 465.75 108.5V109.5ZM496 108.5H493.25V109.5H496V108.5ZM487.75 108.5H482.25V109.5H487.75V108.5ZM476.75 108.5H471.25V109.5H476.75V108.5ZM465.75 108.5H463V109.5H465.75V108.5Z" fill="#1D1D1B"/>
<rect x="0.5" y="9.5" width="53" height="31" rx="15.5" fill="#F5F5F5"/>
<rect x="0.5" y="9.5" width="53" height="31" rx="15.5" stroke="#B3B3B2"/>
<path d="M17.0875 27.2102V26.3409L20.9228 20.2727H21.5534V21.6193H21.1273L18.2296 26.2045V26.2727H23.3944V27.2102H17.0875ZM21.1955 29V26.946V26.5412V20.2727H22.2012V29H21.1955ZM25.0083 31.4545V22.4545H25.9799V23.4943H26.0993C26.1731 23.3807 26.2754 23.2358 26.4061 23.0597C26.5396 22.8807 26.7299 22.7216 26.9771 22.5824C27.2271 22.4403 27.5652 22.3693 27.9913 22.3693C28.5424 22.3693 29.0282 22.5071 29.4487 22.7827C29.8691 23.0582 30.1973 23.4489 30.4331 23.9545C30.6689 24.4602 30.7868 25.0568 30.7868 25.7443C30.7868 26.4375 30.6689 27.0384 30.4331 27.5469C30.1973 28.0526 29.8706 28.4446 29.4529 28.723C29.0353 28.9986 28.5538 29.1364 28.0083 29.1364C27.5879 29.1364 27.2512 29.0668 26.9984 28.9276C26.7456 28.7855 26.551 28.625 26.4146 28.446C26.2782 28.2642 26.1731 28.1136 26.0993 27.9943H26.014V31.4545H25.0083ZM25.997 25.7273C25.997 26.2216 26.0694 26.6577 26.2143 27.0355C26.3592 27.4105 26.5708 27.7045 26.8493 27.9176C27.1277 28.1278 27.4686 28.233 27.872 28.233C28.2924 28.233 28.6433 28.1222 28.9245 27.9006C29.2086 27.6761 29.4217 27.375 29.5637 26.9972C29.7086 26.6165 29.7811 26.1932 29.7811 25.7273C29.7811 25.267 29.71 24.8523 29.568 24.483C29.4288 24.1108 29.2172 23.8168 28.9331 23.6009C28.6518 23.3821 28.2981 23.2727 27.872 23.2727C27.4629 23.2727 27.1191 23.3764 26.8407 23.5838C26.5623 23.7884 26.3521 24.0753 26.21 24.4446C26.068 24.8111 25.997 25.2386 25.997 25.7273ZM32.8013 22.4545L34.3695 25.1307L35.9377 22.4545H37.0968L34.9831 25.7273L37.0968 29H35.9377L34.3695 26.4602L32.8013 29H31.6422L33.7218 25.7273L31.6422 22.4545H32.8013Z" fill="#1D1D1B"/>
<path d="M27 72.6667C26.2636 72.6667 25.6667 73.2636 25.6667 74C25.6667 74.7364 26.2636 75.3333 27 75.3333C27.7364 75.3333 28.3333 74.7364 28.3333 74C28.3333 73.2636 27.7364 72.6667 27 72.6667ZM26.75 43.75C26.75 43.8881 26.8619 44 27 44C27.1381 44 27.25 43.8881 27.25 43.75L26.75 43.75ZM27.25 49.25C27.25 49.1119 27.1381 49 27 49C26.8619 49 26.75 49.1119 26.75 49.25L27.25 49.25ZM26.75 54.75C26.75 54.8881 26.8619 55 27 55C27.1381 55 27.25 54.8881 27.25 54.75L26.75 54.75ZM27.25 60.25C27.25 60.1119 27.1381 60 27 60C26.8619 60 26.75 60.1119 26.75 60.25L27.25 60.25ZM26.75 65.75C26.75 65.8881 26.8619 66 27 66C27.1381 66 27.25 65.8881 27.25 65.75L26.75 65.75ZM27.25 71.25C27.25 71.1119 27.1381 71 27 71C26.8619 71 26.75 71.1119 26.75 71.25L27.25 71.25ZM26.75 41L26.75 43.75L27.25 43.75L27.25 41L26.75 41ZM26.75 49.25L26.75 54.75L27.25 54.75L27.25 49.25L26.75 49.25ZM26.75 60.25L26.75 65.75L27.25 65.75L27.25 60.25L26.75 60.25ZM26.75 71.25L26.75 74L27.25 74L27.25 71.25L26.75 71.25ZM27 71.3333C25.5272 71.3333 24.3333 72.5272 24.3333 74C24.3333 75.4728 25.5272 76.6667 27 76.6667C28.4728 76.6667 29.6667 75.4728 29.6667 74C29.6667 72.5272 28.4728 71.3333 27 71.3333ZM26.5 43.75C26.5 44.0261 26.7239 44.25 27 44.25C27.2761 44.25 27.5 44.0261 27.5 43.75L26.5 43.75ZM27.5 49.25C27.5 48.9739 27.2761 48.75 27 48.75C26.7239 48.75 26.5 48.9739 26.5 49.25L27.5 49.25ZM26.5 54.75C26.5 55.0261 26.7239 55.25 27 55.25C27.2761 55.25 27.5 55.0261 27.5 54.75L26.5 54.75ZM27.5 60.25C27.5 59.9739 27.2761 59.75 27 59.75C26.7239 59.75 26.5 59.9739 26.5 60.25L27.5 60.25ZM26.5 65.75C26.5 66.0261 26.7239 66.25 27 66.25C27.2761 66.25 27.5 66.0261 27.5 65.75L26.5 65.75ZM27.5 71.25C27.5 70.9739 27.2761 70.75 27 70.75C26.7239 70.75 26.5 70.9739 26.5 71.25L27.5 71.25ZM26.5 41L26.5 43.75L27.5 43.75L27.5 41L26.5 41ZM26.5 49.25L26.5 54.75L27.5 54.75L27.5 49.25L26.5 49.25ZM26.5 60.25L26.5 65.75L27.5 65.75L27.5 60.25L26.5 60.25ZM26.5 71.25L26.5 74L27.5 74L27.5 71.25L26.5 71.25Z" fill="#1D1D1B"/>
<rect x="209.5" y="0.5" width="58" height="31" rx="15.5" fill="#F5F5F5"/>
<rect x="209.5" y="0.5" width="58" height="31" rx="15.5" stroke="#B3B3B2"/>
<path d="M229.288 11.2727V20H228.231V12.3807H228.18L226.049 13.7955V12.7216L228.231 11.2727H229.288ZM231.798 20V19.233L234.679 16.0795C235.017 15.7102 235.295 15.3892 235.514 15.1165C235.733 14.8409 235.895 14.5824 236 14.3409C236.108 14.0966 236.162 13.8409 236.162 13.5739C236.162 13.267 236.088 13.0014 235.94 12.777C235.795 12.5526 235.596 12.3793 235.343 12.2571C235.091 12.1349 234.806 12.0739 234.491 12.0739C234.156 12.0739 233.863 12.1435 233.613 12.2827C233.366 12.419 233.174 12.6108 233.038 12.858C232.904 13.1051 232.838 13.3949 232.838 13.7273H231.832C231.832 13.2159 231.95 12.767 232.186 12.3807C232.422 11.9943 232.743 11.6932 233.149 11.4773C233.558 11.2614 234.017 11.1534 234.525 11.1534C235.037 11.1534 235.49 11.2614 235.885 11.4773C236.279 11.6932 236.589 11.9844 236.814 12.3509C237.038 12.7173 237.15 13.125 237.15 13.5739C237.15 13.8949 237.092 14.2088 236.975 14.5156C236.862 14.8196 236.663 15.1591 236.379 15.5341C236.098 15.9062 235.707 16.3608 235.207 16.8977L233.247 18.9943V19.0625H237.304V20H231.798ZM239.081 22.4545V13.4545H240.052V14.4943H240.172C240.245 14.3807 240.348 14.2358 240.478 14.0597C240.612 13.8807 240.802 13.7216 241.049 13.5824C241.299 13.4403 241.637 13.3693 242.064 13.3693C242.615 13.3693 243.1 13.5071 243.521 13.7827C243.941 14.0582 244.27 14.4489 244.505 14.9545C244.741 15.4602 244.859 16.0568 244.859 16.7443C244.859 17.4375 244.741 18.0384 244.505 18.5469C244.27 19.0526 243.943 19.4446 243.525 19.723C243.108 19.9986 242.626 20.1364 242.081 20.1364C241.66 20.1364 241.324 20.0668 241.071 19.9276C240.818 19.7855 240.623 19.625 240.487 19.446C240.35 19.2642 240.245 19.1136 240.172 18.9943H240.086V22.4545H239.081ZM240.069 16.7273C240.069 17.2216 240.142 17.6577 240.287 18.0355C240.431 18.4105 240.643 18.7045 240.922 18.9176C241.2 19.1278 241.541 19.233 241.944 19.233C242.365 19.233 242.716 19.1222 242.997 18.9006C243.281 18.6761 243.494 18.375 243.636 17.9972C243.781 17.6165 243.853 17.1932 243.853 16.7273C243.853 16.267 243.782 15.8523 243.64 15.483C243.501 15.1108 243.289 14.8168 243.005 14.6009C242.724 14.3821 242.37 14.2727 241.944 14.2727C241.535 14.2727 241.191 14.3764 240.913 14.5838C240.635 14.7884 240.424 15.0753 240.282 15.4446C240.14 15.8111 240.069 16.2386 240.069 16.7273ZM246.874 13.4545L248.442 16.1307L250.01 13.4545H251.169L249.055 16.7273L251.169 20H250.01L248.442 17.4602L246.874 20H245.714L247.794 16.7273L245.714 13.4545H246.874Z" fill="#1D1D1B"/>
<path d="M239 68.1667C238.264 68.1667 237.667 68.7636 237.667 69.5C237.667 70.2364 238.264 70.8333 239 70.8333C239.736 70.8333 240.333 70.2364 240.333 69.5C240.333 68.7636 239.736 68.1667 239 68.1667ZM238.75 34.3438C238.75 34.4818 238.862 34.5938 239 34.5938C239.138 34.5937 239.25 34.4818 239.25 34.3437L238.75 34.3438ZM239.25 39.0312C239.25 38.8932 239.138 38.7812 239 38.7813C238.862 38.7813 238.75 38.8932 238.75 39.0313L239.25 39.0312ZM238.75 43.7188C238.75 43.8568 238.862 43.9688 239 43.9688C239.138 43.9687 239.25 43.8568 239.25 43.7187L238.75 43.7188ZM239.25 48.4062C239.25 48.2682 239.138 48.1562 239 48.1563C238.862 48.1563 238.75 48.2682 238.75 48.4063L239.25 48.4062ZM238.75 53.0938C238.75 53.2318 238.862 53.3438 239 53.3438C239.138 53.3437 239.25 53.2318 239.25 53.0937L238.75 53.0938ZM239.25 57.7812C239.25 57.6432 239.138 57.5312 239 57.5313C238.862 57.5313 238.75 57.6432 238.75 57.7813L239.25 57.7812ZM238.75 62.4688C238.75 62.6068 238.862 62.7188 239 62.7188C239.138 62.7187 239.25 62.6068 239.25 62.4687L238.75 62.4688ZM239.25 67.1562C239.25 67.0182 239.138 66.9062 239 66.9063C238.862 66.9063 238.75 67.0182 238.75 67.1563L239.25 67.1562ZM238.75 32L238.75 34.3438L239.25 34.3437L239.25 32H238.75ZM238.75 39.0313L238.75 43.7188L239.25 43.7187L239.25 39.0312L238.75 39.0313ZM238.75 48.4063L238.75 53.0938L239.25 53.0937L239.25 48.4062L238.75 48.4063ZM238.75 57.7813L238.75 62.4688L239.25 62.4687L239.25 57.7812L238.75 57.7813ZM238.75 67.1563L238.75 69.5L239.25 69.5L239.25 67.1562L238.75 67.1563ZM239 66.8333C237.527 66.8333 236.333 68.0272 236.333 69.5C236.333 70.9728 237.527 72.1667 239 72.1667C240.473 72.1667 241.667 70.9728 241.667 69.5C241.667 68.0272 240.473 66.8333 239 66.8333ZM238.5 34.3438C238.5 34.6199 238.724 34.8438 239 34.8438C239.276 34.8437 239.5 34.6199 239.5 34.3437L238.5 34.3438ZM239.5 39.0312C239.5 38.7551 239.276 38.5312 239 38.5313C238.724 38.5313 238.5 38.7551 238.5 39.0313L239.5 39.0312ZM238.5 43.7188C238.5 43.9949 238.724 44.2188 239 44.2188C239.276 44.2187 239.5 43.9949 239.5 43.7187L238.5 43.7188ZM239.5 48.4062C239.5 48.1301 239.276 47.9062 239 47.9063C238.724 47.9063 238.5 48.1301 238.5 48.4063L239.5 48.4062ZM238.5 53.0938C238.5 53.3699 238.724 53.5938 239 53.5938C239.276 53.5937 239.5 53.3699 239.5 53.0937L238.5 53.0938ZM239.5 57.7812C239.5 57.5051 239.276 57.2812 239 57.2813C238.724 57.2813 238.5 57.5051 238.5 57.7813L239.5 57.7812ZM238.5 62.4688C238.5 62.7449 238.724 62.9688 239 62.9688C239.276 62.9687 239.5 62.7449 239.5 62.4687L238.5 62.4688ZM239.5 67.1562C239.5 66.8801 239.276 66.6562 239 66.6563C238.724 66.6563 238.5 66.8801 238.5 67.1563L239.5 67.1562ZM238.5 32L238.5 34.3438L239.5 34.3437L239.5 32L238.5 32ZM238.5 39.0313L238.5 43.7188L239.5 43.7187L239.5 39.0312L238.5 39.0313ZM238.5 48.4063L238.5 53.0938L239.5 53.0937L239.5 48.4062L238.5 48.4063ZM238.5 57.7813L238.5 62.4688L239.5 62.4687L239.5 57.7812L238.5 57.7813ZM238.5 67.1563L238.5 69.5L239.5 69.5L239.5 67.1562L238.5 67.1563Z" fill="#1D1D1B"/>
<defs>
<clipPath id="clip0_16522_14108">
<path d="M9 69C9 66.7909 10.7909 65 13 65H461C463.209 65 465 66.7909 465 69V147C465 149.209 463.209 151 461 151H13C10.7909 151 9 149.209 9 147V69Z" fill="white"/>
</clipPath>
<clipPath id="clip1_16522_14108">
<rect width="153" height="21" fill="white" transform="translate(45 122)"/>
</clipPath>
</defs>
</svg>
