<svg width="32" height="32" viewBox="0 0 32 32" fill="none" xmlns="http://www.w3.org/2000/svg">
<g clip-path="url(#clip0_2103_70385)">
<rect width="32" height="32" rx="4" fill="#FF991F"/>
<path d="M6.51847 19.4054C7.88595 24.2959 12.3307 27.8859 17.1639 27.993C18.615 28.0446 20.1557 27.8051 21.5946 27.2565C21.7452 27.1992 21.7294 26.971 21.5729 26.9353C17.5189 26.0167 14.0342 22.8625 13.1637 18.5572C12.3637 14.6004 13.5187 10.554 15.531 7.17999C15.8611 6.62675 16.1975 6.09182 16.5824 5.56769C16.7266 5.37137 16.8243 5.19103 17.0802 5.25068C17.3208 5.30656 17.3452 5.53199 17.4244 5.89175C18.2343 9.56816 21.6399 12.3302 25.4113 12.4401C25.5397 12.4438 25.6451 12.3344 25.6451 12.2005V4.29541C25.6451 4.13244 25.518 4 25.3606 4H17.5148V4.00141C12.7816 4.04978 8.72841 7.04614 6.97475 11.3073C6.97475 11.3073 5.12793 14.9386 6.51847 19.4054Z" fill="#1D1D1B"/>
</g>
<defs>
<clipPath id="clip0_2103_70385">
<rect width="32" height="32" fill="white"/>
</clipPath>
</defs>
</svg>
