<svg width="110" height="47" viewBox="0 0 110 47" fill="none" xmlns="http://www.w3.org/2000/svg">
<path d="M48.351 13.21L45.6821 12.3535C43.3432 11.5957 42.3872 10.7393 42.3872 9.15722C42.3872 7.97069 43.2104 6.95021 44.562 6.95021C46.4399 6.95021 47.7583 8.6963 49.5698 12.1563C49.6352 12.2881 49.7016 12.3213 49.8335 12.2217L53.1938 9.19043C53.2924 9.12502 53.2924 9.0586 53.227 8.95997C51.4809 6.88379 49.0756 5.5 45.7153 5.5C41.0366 5.5 38.8618 8.49804 38.8618 11.3642C38.8618 14.2304 40.9048 16.0762 43.6723 16.998L46.6704 17.9863C49.4047 18.8759 50.1958 19.9306 50.1958 21.3798C50.1958 22.829 49.2407 23.8183 47.6919 23.8183C45.7153 23.8183 44.1997 22.2695 42.0581 18.0527C41.9917 17.9541 41.9262 17.9209 41.8276 17.9873L38.3324 20.8324C38.2338 20.8978 38.2006 21.0296 38.267 21.1292C40.3432 23.5677 42.8984 25.5 46.7368 25.5C51.1186 25.5 53.6557 22.8311 53.7544 19.4043C53.8198 15.9121 51.6128 14.2647 48.351 13.21Z" fill="#1D1D1B"/>
<path d="M31.2998 6.09176C31.2343 5.92772 31.1679 5.89451 31.0039 5.89451H27.0619C26.8978 5.89451 26.8324 5.92772 26.766 6.09176L19.6377 24.7502C19.5723 24.9143 19.6377 25.0461 19.835 25.0461H25.3208C25.4848 25.0461 25.518 24.9143 25.4516 24.8167C25.0571 24.1273 24.4332 22.6489 24.8277 20.9733C25.8129 21.2359 26.8968 21.3678 27.9817 21.3678C29.1642 21.3678 30.3699 21.2067 31.4537 20.8776C32.0123 22.5855 31.2333 24.1263 30.8398 24.8167C30.7744 24.9153 30.8066 25.0461 30.9707 25.0461H38.2308C38.428 25.0461 38.4934 24.9143 38.428 24.7502L31.2998 6.09176ZM27.9817 18.2781C27.1273 18.2781 26.3061 18.1463 25.518 17.9168L27.9102 10.23C27.9757 10.0006 28.0511 9.90195 28.2152 9.90195C28.3792 9.90195 28.4617 9.96737 28.5342 10.23L30.6215 17.8736C29.8335 18.103 28.8351 18.2781 27.9817 18.2781Z" fill="#1D1D1B"/>
<path d="M65.1779 6.09176C65.1125 5.92772 65.0461 5.89451 64.882 5.89451H60.94C60.7759 5.89451 60.7105 5.92772 60.6441 6.09176L53.5158 24.7502C53.4504 24.9143 53.5158 25.0461 53.7131 25.0461H59.1989C59.363 25.0461 59.3962 24.9143 59.3298 24.8167C58.9352 24.1273 58.3113 22.6489 58.7058 20.9733C59.6911 21.2359 60.7749 21.3678 61.8598 21.3678C63.0423 21.3678 64.248 21.2067 65.3319 20.8776C65.8904 22.5855 65.1115 24.1263 64.718 24.8167C64.6526 24.9153 64.6848 25.0461 64.8488 25.0461H72.1089C72.3062 25.0461 72.3716 24.9143 72.3062 24.7502L65.1779 6.09176ZM61.8598 18.2781C61.0054 18.2781 60.1842 18.1463 59.3962 17.9168L61.7884 10.23C61.8538 10.0006 61.9293 9.90195 62.0933 9.90195C62.2573 9.90195 62.3399 9.96737 62.4123 10.23L64.4996 17.8736C63.7116 18.103 62.7132 18.2781 61.8598 18.2781Z" fill="#1D1D1B"/>
<path d="M86.3252 5.89752C86.3051 5.8935 86.2819 5.89149 86.2578 5.89149H80.6743C80.5102 5.89149 80.4891 6.01527 80.5435 6.12094C81.729 8.45979 81.0537 11.1348 80.6411 12.4612L78.418 19.6247C78.3646 19.8109 78.2771 19.9528 78.113 19.9528C77.949 19.9528 77.8614 19.8562 77.794 19.6247L73.6477 6.12195C73.5823 5.9247 73.5158 5.89149 73.2864 5.89149H68.1699C67.9726 5.89149 67.9404 6.02332 68.0058 6.18736L75.1331 24.8458C75.1985 25.0099 75.2317 25.0431 75.3958 25.0431H79.4576C79.6216 25.0431 79.6548 25.0099 79.7202 24.8458L86.455 6.18736C86.4711 6.1461 86.4792 6.10685 86.4792 6.07163C86.4792 5.98307 86.4278 5.91665 86.3252 5.89752Z" fill="#1D1D1B"/>
<path d="M95.3847 5.5C89.7429 5.5 85.6207 9.82245 85.6207 15.4975C85.6207 21.1725 89.3494 25.495 94.9922 25.495C100.635 25.495 104.888 21.1725 104.888 15.4975C104.888 9.82245 100.993 5.5 95.3847 5.5ZM95.4743 23.8928C93.1334 23.8928 90.9133 20.4942 90.7956 15.8457C90.6768 11.1982 92.5598 7.10117 95.0586 7.10117C97.5575 7.10117 99.5834 10.9587 99.7021 15.6062C99.8209 20.2537 97.7538 23.8918 95.4753 23.8918" fill="#1D1D1B"/>
<path d="M5.43452 18.3244C6.5808 22.2705 10.3054 25.1679 14.3552 25.2534C15.5719 25.2947 16.8621 25.1015 18.0677 24.6597C18.1935 24.6134 18.1805 24.4292 18.0496 24.4C14.6521 23.6593 11.7325 21.1142 11.0029 17.6401C10.3326 14.4478 11.2998 11.1821 12.9865 8.45979C13.2632 8.01296 13.545 7.58222 13.8671 7.15853C13.9878 7.00053 14.0694 6.8546 14.2847 6.90291C14.486 6.9482 14.5061 7.12935 14.5736 7.42019C15.2519 10.387 18.106 12.6152 21.2671 12.7037C21.3747 12.7068 21.4633 12.6182 21.4633 12.5105V6.13201C21.4633 6.00018 21.3566 5.8935 21.2248 5.8935H14.649C10.6828 5.93476 7.28628 8.35211 5.81695 11.7899C5.81695 11.7899 4.26912 14.7195 5.43452 18.3244Z" fill="#1D1D1B"/>
<path d="M12.5298 33.4574H11.2003C11.1491 33.1733 11.054 32.9233 10.9148 32.7074C10.7756 32.4915 10.6051 32.3082 10.4034 32.1577C10.2017 32.0071 9.97585 31.8935 9.72585 31.8168C9.47869 31.7401 9.21591 31.7017 8.9375 31.7017C8.43466 31.7017 7.98438 31.8281 7.58665 32.081C7.19176 32.3338 6.87926 32.7045 6.64915 33.1932C6.42187 33.6818 6.30824 34.2784 6.30824 34.983C6.30824 35.6932 6.42187 36.2926 6.64915 36.7812C6.87926 37.2699 7.19318 37.6392 7.59091 37.8892C7.98864 38.1392 8.43608 38.2642 8.93324 38.2642C9.20881 38.2642 9.47017 38.2273 9.71733 38.1534C9.96733 38.0767 10.1932 37.9645 10.3949 37.8168C10.5966 37.669 10.767 37.4886 10.9062 37.2756C11.0483 37.0597 11.1463 36.8125 11.2003 36.5341L12.5298 36.5384C12.4588 36.9673 12.321 37.3622 12.1165 37.723C11.9148 38.081 11.6548 38.3906 11.3366 38.652C11.0213 38.9105 10.6605 39.1108 10.2543 39.2528C9.84801 39.3949 9.40483 39.4659 8.92472 39.4659C8.16903 39.4659 7.49574 39.2869 6.90483 38.929C6.31392 38.5682 5.84801 38.0526 5.5071 37.3821C5.16903 36.7116 5 35.9119 5 34.983C5 34.0511 5.17045 33.2514 5.51136 32.5838C5.85227 31.9134 6.31818 31.3991 6.90909 31.0412C7.5 30.6804 8.17188 30.5 8.92472 30.5C9.38778 30.5 9.8196 30.5668 10.2202 30.7003C10.6236 30.831 10.9858 31.0241 11.3068 31.2798C11.6278 31.5327 11.8935 31.8423 12.1037 32.2088C12.3139 32.5724 12.456 32.9886 12.5298 33.4574Z" fill="#1D1D1B"/>
<path d="M15.308 39.4915C14.8933 39.4915 14.5183 39.4148 14.183 39.2614C13.8478 39.1051 13.5822 38.8793 13.3862 38.5838C13.193 38.2884 13.0964 37.9261 13.0964 37.4972C13.0964 37.1278 13.1674 36.8239 13.3094 36.5852C13.4515 36.3466 13.6433 36.1577 13.8847 36.0185C14.1262 35.8793 14.3961 35.7741 14.6944 35.7031C14.9927 35.6321 15.2967 35.5781 15.6063 35.5412C15.9984 35.4957 16.3165 35.4588 16.5609 35.4304C16.8052 35.3991 16.9827 35.3494 17.0935 35.2812C17.2043 35.2131 17.2597 35.1023 17.2597 34.9489V34.919C17.2597 34.5469 17.1546 34.2585 16.9444 34.054C16.737 33.8494 16.4273 33.7472 16.0154 33.7472C15.5864 33.7472 15.2484 33.8423 15.0012 34.0327C14.7569 34.2202 14.5879 34.429 14.4941 34.6591L13.2967 34.3864C13.4387 33.9886 13.6461 33.6676 13.9188 33.4233C14.1944 33.1761 14.5112 32.9972 14.8691 32.8864C15.2271 32.7727 15.6035 32.7159 15.9984 32.7159C16.2597 32.7159 16.5367 32.7472 16.8293 32.8097C17.1248 32.8693 17.4004 32.9801 17.656 33.142C17.9146 33.304 18.1262 33.5355 18.291 33.8366C18.4558 34.1349 18.5381 34.5227 18.5381 35V39.3466H17.2938V38.4517H17.2427C17.1603 38.6165 17.0367 38.7784 16.8719 38.9375C16.7072 39.0966 16.4955 39.2287 16.237 39.3338C15.9785 39.4389 15.6688 39.4915 15.308 39.4915ZM15.585 38.4688C15.9373 38.4688 16.2384 38.3991 16.4884 38.2599C16.7413 38.1207 16.933 37.9389 17.0637 37.7145C17.1972 37.4872 17.264 37.2443 17.264 36.9858V36.142C17.2185 36.1875 17.1305 36.2301 16.9998 36.2699C16.8719 36.3068 16.7256 36.3395 16.5609 36.3679C16.3961 36.3935 16.2356 36.4176 16.0793 36.4403C15.9231 36.4602 15.7924 36.4773 15.6873 36.4915C15.4401 36.5227 15.2143 36.5753 15.0097 36.6491C14.808 36.723 14.6461 36.8295 14.5239 36.9688C14.4046 37.1051 14.345 37.2869 14.345 37.5142C14.345 37.8295 14.4614 38.0682 14.6944 38.2301C14.9273 38.3892 15.2242 38.4688 15.585 38.4688Z" fill="#1D1D1B"/>
<path d="M19.6352 39.3466V32.8011H20.8668V33.8409H20.9349C21.0543 33.4886 21.2645 33.2116 21.5656 33.0099C21.8696 32.8054 22.2134 32.7031 22.5969 32.7031C22.6764 32.7031 22.7702 32.706 22.8781 32.7116C22.9889 32.7173 23.0756 32.7244 23.1381 32.733V33.9517C23.0869 33.9375 22.996 33.9219 22.8653 33.9048C22.7347 33.8849 22.604 33.875 22.4733 33.875C22.1722 33.875 21.9037 33.9389 21.6679 34.0668C21.4349 34.1918 21.2503 34.3665 21.1139 34.5909C20.9776 34.8125 20.9094 35.0653 20.9094 35.3494V39.3466H19.6352Z" fill="#1D1D1B"/>
<path d="M26.2273 39.4787C25.5825 39.4787 25.0271 39.3409 24.5612 39.0653C24.0981 38.7869 23.7401 38.3963 23.4873 37.8935C23.2373 37.3878 23.1123 36.7955 23.1123 36.1165C23.1123 35.446 23.2373 34.8551 23.4873 34.3438C23.7401 33.8324 24.0924 33.4332 24.5441 33.1463C24.9987 32.8594 25.5299 32.7159 26.1379 32.7159C26.5072 32.7159 26.8651 32.777 27.2117 32.8991C27.5583 33.0213 27.8694 33.2131 28.145 33.4744C28.4205 33.7358 28.6379 34.0753 28.7969 34.4929C28.956 34.9077 29.0356 35.4119 29.0356 36.0057V36.4574H23.8325V35.5028H27.787C27.787 35.1676 27.7188 34.8707 27.5825 34.6122C27.4461 34.3509 27.2543 34.1449 27.0072 33.9943C26.7629 33.8438 26.4759 33.7685 26.1464 33.7685C25.7884 33.7685 25.4759 33.8565 25.2089 34.0327C24.9447 34.206 24.7401 34.4332 24.5952 34.7145C24.4532 34.9929 24.3822 35.2955 24.3822 35.6222V36.3679C24.3822 36.8054 24.4589 37.1776 24.6123 37.4844C24.7685 37.7912 24.9859 38.0256 25.2643 38.1875C25.5427 38.3466 25.868 38.4261 26.2401 38.4261C26.4816 38.4261 26.7018 38.392 26.9006 38.3239C27.0995 38.2528 27.2714 38.1477 27.4163 38.0085C27.5612 37.8693 27.6719 37.6974 27.7487 37.4929L28.9546 37.7102C28.858 38.0653 28.6847 38.3764 28.4347 38.6435C28.1876 38.9077 27.8765 39.1136 27.5015 39.2614C27.1293 39.4062 26.7046 39.4787 26.2273 39.4787Z" fill="#1D1D1B"/>
<path d="M32.6703 39.4787C32.0254 39.4787 31.47 39.3409 31.0041 39.0653C30.5411 38.7869 30.1831 38.3963 29.9303 37.8935C29.6803 37.3878 29.5553 36.7955 29.5553 36.1165C29.5553 35.446 29.6803 34.8551 29.9303 34.3438C30.1831 33.8324 30.5354 33.4332 30.9871 33.1463C31.4416 32.8594 31.9729 32.7159 32.5808 32.7159C32.9501 32.7159 33.3081 32.777 33.6547 32.8991C34.0013 33.0213 34.3124 33.2131 34.5879 33.4744C34.8635 33.7358 35.0808 34.0753 35.2399 34.4929C35.399 34.9077 35.4786 35.4119 35.4786 36.0057V36.4574H30.2754V35.5028H34.23C34.23 35.1676 34.1618 34.8707 34.0254 34.6122C33.8891 34.3509 33.6973 34.1449 33.4501 33.9943C33.2058 33.8438 32.9189 33.7685 32.5893 33.7685C32.2314 33.7685 31.9189 33.8565 31.6518 34.0327C31.3876 34.206 31.1831 34.4332 31.0382 34.7145C30.8962 34.9929 30.8251 35.2955 30.8251 35.6222V36.3679C30.8251 36.8054 30.9018 37.1776 31.0553 37.4844C31.2115 37.7912 31.4288 38.0256 31.7072 38.1875C31.9857 38.3466 32.3109 38.4261 32.6831 38.4261C32.9246 38.4261 33.1447 38.392 33.3436 38.3239C33.5425 38.2528 33.7143 38.1477 33.8592 38.0085C34.0041 37.8693 34.1149 37.6974 34.1916 37.4929L35.3976 37.7102C35.301 38.0653 35.1277 38.3764 34.8777 38.6435C34.6305 38.9077 34.3195 39.1136 33.9445 39.2614C33.5723 39.4062 33.1476 39.4787 32.6703 39.4787Z" fill="#1D1D1B"/>
<path d="M36.2923 39.3466V32.8011H37.5238V33.8409H37.592C37.7113 33.4886 37.9215 33.2116 38.2227 33.0099C38.5266 32.8054 38.8704 32.7031 39.2539 32.7031C39.3335 32.7031 39.4272 32.706 39.5352 32.7116C39.646 32.7173 39.7326 32.7244 39.7951 32.733V33.9517C39.744 33.9375 39.6531 33.9219 39.5224 33.9048C39.3917 33.8849 39.261 33.875 39.1303 33.875C38.8292 33.875 38.5607 33.9389 38.3249 34.0668C38.092 34.1918 37.9073 34.3665 37.771 34.5909C37.6346 34.8125 37.5664 35.0653 37.5664 35.3494V39.3466H36.2923Z" fill="#1D1D1B"/>
<path d="M45.2026 34.3991L44.0477 34.6037C43.9994 34.456 43.9227 34.3153 43.8176 34.1818C43.7153 34.0483 43.5761 33.9389 43.4 33.8537C43.2239 33.7685 43.0037 33.7259 42.7395 33.7259C42.3787 33.7259 42.0776 33.8068 41.8361 33.9688C41.5946 34.1278 41.4739 34.3338 41.4739 34.5866C41.4739 34.8054 41.5548 34.9815 41.7168 35.1151C41.8787 35.2486 42.1401 35.358 42.5009 35.4432L43.5406 35.6818C44.1429 35.821 44.5918 36.0355 44.8872 36.3253C45.1827 36.6151 45.3304 36.9915 45.3304 37.4545C45.3304 37.8466 45.2168 38.196 44.9895 38.5028C44.7651 38.8068 44.4511 39.0455 44.0477 39.2188C43.6472 39.392 43.1827 39.4787 42.6543 39.4787C41.9213 39.4787 41.3233 39.3224 40.8602 39.0099C40.3972 38.6946 40.1131 38.2472 40.008 37.6676L41.2395 37.4801C41.3162 37.8011 41.4739 38.044 41.7125 38.2088C41.9511 38.3707 42.2622 38.4517 42.6457 38.4517C43.0634 38.4517 43.3972 38.3651 43.6472 38.1918C43.8972 38.0156 44.0222 37.8011 44.0222 37.5483C44.0222 37.3438 43.9455 37.1719 43.792 37.0327C43.6415 36.8935 43.4099 36.7884 43.0974 36.7173L41.9895 36.4744C41.3787 36.3352 40.927 36.1136 40.6344 35.8097C40.3446 35.5057 40.1997 35.1207 40.1997 34.6548C40.1997 34.2685 40.3077 33.9304 40.5236 33.6406C40.7395 33.3509 41.0378 33.125 41.4185 32.9631C41.7991 32.7983 42.2352 32.7159 42.7267 32.7159C43.4341 32.7159 43.9909 32.8693 44.3972 33.1761C44.8034 33.4801 45.0719 33.8878 45.2026 34.3991Z" fill="#1D1D1B"/>
</svg>
