<svg width="152" height="64" viewBox="0 0 152 64" fill="none" xmlns="http://www.w3.org/2000/svg">
<path d="M66.9094 19.2939L63.2826 18.0949C60.1043 17.034 58.8051 15.835 58.8051 13.6201C58.8051 11.959 59.9238 10.5303 61.7605 10.5303C64.3124 10.5303 66.1039 12.9748 68.5655 17.8188C68.6544 18.0033 68.7447 18.0498 68.9238 17.9104L73.4902 13.6666C73.6242 13.575 73.6242 13.482 73.5353 13.344C71.1626 10.4373 67.894 8.5 63.3277 8.5C56.9698 8.5 54.0145 12.6973 54.0145 16.7099C54.0145 20.7226 56.7907 23.3066 60.5515 24.5972L64.6255 25.9808C68.3412 27.2263 69.4162 28.7029 69.4162 30.7318C69.4162 32.7607 68.1183 34.1457 66.0136 34.1457C63.3277 34.1457 61.2681 31.9773 58.3579 26.0738C58.2677 25.9357 58.1788 25.8892 58.0448 25.9822L53.2952 29.9653C53.1611 30.0569 53.116 30.2415 53.2063 30.3809C56.0276 33.7948 59.4999 36.5 64.7158 36.5C70.6702 36.5 74.1179 32.7635 74.2519 27.966C74.3408 23.077 71.3417 20.7705 66.9094 19.2939Z" fill="#F6F6F1"/>
<path d="M43.7385 9.32846C43.6497 9.0988 43.5594 9.05231 43.3365 9.05231H37.9797C37.7568 9.05231 37.6679 9.0988 37.5776 9.32846L27.8911 35.4503C27.8022 35.68 27.8911 35.8646 28.1591 35.8646H35.6138C35.8367 35.8646 35.8818 35.68 35.7916 35.5433C35.2555 34.5782 34.4076 32.5085 34.9437 30.1626C36.2825 30.5303 37.7554 30.7149 39.2296 30.7149C40.8365 30.7149 42.4749 30.4894 43.9478 30.0287C44.7068 32.4197 43.6483 34.5768 43.1136 35.5433C43.0247 35.6814 43.0684 35.8646 43.2913 35.8646H53.157C53.4251 35.8646 53.514 35.68 53.4251 35.4503L43.7385 9.32846ZM39.2296 26.3894C38.0686 26.3894 36.9526 26.2048 35.8818 25.8836L39.1325 15.122C39.2214 14.8008 39.324 14.6627 39.5469 14.6627C39.7698 14.6627 39.882 14.7543 39.9804 15.122L42.8168 25.823C41.746 26.1442 40.3894 26.3894 39.2296 26.3894Z" fill="#F6F6F1"/>
<path d="M89.7753 9.32846C89.6864 9.0988 89.5961 9.05231 89.3732 9.05231H84.0164C83.7935 9.05231 83.7046 9.0988 83.6143 9.32846L73.9278 35.4503C73.8389 35.68 73.9278 35.8646 74.1958 35.8646H81.6505C81.8734 35.8646 81.9185 35.68 81.8283 35.5433C81.2922 34.5782 80.4443 32.5085 80.9804 30.1626C82.3193 30.5303 83.7921 30.7149 85.2664 30.7149C86.8733 30.7149 88.5116 30.4894 89.9845 30.0287C90.7435 32.4197 89.685 34.5768 89.1503 35.5433C89.0614 35.6814 89.1052 35.8646 89.3281 35.8646H99.1938C99.4618 35.8646 99.5507 35.68 99.4618 35.4503L89.7753 9.32846ZM85.2664 26.3894C84.1053 26.3894 82.9894 26.2048 81.9185 25.8836L85.1693 15.122C85.2582 14.8008 85.3607 14.6627 85.5836 14.6627C85.8066 14.6627 85.9187 14.7543 86.0172 15.122L88.8535 25.823C87.7827 26.1442 86.4261 26.3894 85.2664 26.3894Z" fill="#F6F6F1"/>
<path d="M118.512 9.05653C118.485 9.0509 118.453 9.04808 118.421 9.04808H110.833C110.61 9.04808 110.582 9.22138 110.655 9.36932C112.266 12.6437 111.349 16.3887 110.788 18.2457L107.767 28.2746C107.695 28.5352 107.576 28.7339 107.353 28.7339C107.13 28.7339 107.011 28.5986 106.919 28.2746L101.285 9.37073C101.196 9.09458 101.106 9.04808 100.794 9.04808H93.8411C93.573 9.04808 93.5293 9.23265 93.6182 9.46231L103.303 35.5842C103.392 35.8138 103.437 35.8603 103.66 35.8603H109.18C109.403 35.8603 109.448 35.8138 109.537 35.5842L118.689 9.46231C118.71 9.40454 118.721 9.34959 118.721 9.30028C118.721 9.17629 118.652 9.0833 118.512 9.05653Z" fill="#F6F6F1"/>
<path d="M130.823 8.5C123.156 8.5 117.555 14.5514 117.555 22.4965C117.555 30.4415 122.622 36.493 130.29 36.493C137.958 36.493 143.737 30.4415 143.737 22.4965C143.737 14.5514 138.445 8.5 130.823 8.5ZM130.945 34.2499C127.764 34.2499 124.747 29.4919 124.587 22.984C124.426 16.4775 126.984 10.7416 130.38 10.7416C133.776 10.7416 136.529 16.1421 136.69 22.6486C136.851 29.1552 134.042 34.2485 130.946 34.2485" fill="#F6F6F1"/>
<path d="M8.59046 26.4542C10.1481 31.9787 15.2095 36.035 20.7127 36.1548C22.3661 36.2126 24.1193 35.9421 25.7577 35.3235C25.9286 35.2587 25.9108 35.0009 25.733 34.96C21.1161 33.923 17.1488 30.3598 16.1573 25.4961C15.2465 21.0269 16.5607 16.4549 18.8528 12.6437C19.2288 12.0181 19.6118 11.4151 20.0494 10.8219C20.2135 10.6007 20.3243 10.3964 20.6169 10.4641C20.8904 10.5275 20.9178 10.7811 21.0094 11.1883C21.9312 15.3418 25.8096 18.4613 30.1052 18.5852C30.2515 18.5895 30.3719 18.4655 30.3719 18.3147V9.38482C30.3719 9.20025 30.2269 9.0509 30.0477 9.0509H21.112C15.7224 9.10866 11.1068 12.493 9.11014 17.3059C9.11014 17.3059 7.00681 21.4074 8.59046 26.4542Z" fill="#F6F6F1"/>
<path d="M17.4123 48.1967H15.7504C15.6864 47.8416 15.5675 47.5291 15.3935 47.2592C15.2195 46.9893 15.0064 46.7603 14.7543 46.5721C14.5021 46.3839 14.2198 46.2418 13.9073 46.146C13.5984 46.0501 13.2699 46.0021 12.9219 46.0021C12.2933 46.0021 11.7305 46.1602 11.2333 46.4762C10.7397 46.7923 10.3491 47.2557 10.0614 47.8665C9.77734 48.4773 9.6353 49.223 9.6353 50.1037C9.6353 50.9915 9.77734 51.7408 10.0614 52.3516C10.3491 52.9624 10.7415 53.424 11.2386 53.7365C11.7358 54.049 12.2951 54.2053 12.9165 54.2053C13.261 54.2053 13.5877 54.1591 13.8967 54.0668C14.2092 53.9709 14.4915 53.8306 14.7436 53.646C14.9957 53.4613 15.2088 53.2358 15.3828 52.9695C15.5604 52.6996 15.6829 52.3906 15.7504 52.0426L17.4123 52.0479C17.3235 52.5842 17.1513 53.0778 16.8956 53.5288C16.6435 53.9762 16.3185 54.3633 15.9208 54.69C15.5266 55.0131 15.0756 55.2635 14.5678 55.4411C14.06 55.6186 13.506 55.7074 12.9059 55.7074C11.9613 55.7074 11.1197 55.4837 10.381 55.0362C9.6424 54.5852 9.06001 53.9407 8.63388 53.1026C8.21129 52.2646 8 51.2649 8 50.1037C8 48.9389 8.21307 47.9393 8.6392 47.1048C9.06534 46.2667 9.64773 45.6239 10.3864 45.1765C11.125 44.7255 11.9648 44.5 12.9059 44.5C13.4847 44.5 14.0245 44.5835 14.5252 44.7504C15.0295 44.9137 15.4822 45.1552 15.8835 45.4748C16.2848 45.7908 16.6168 46.1779 16.8796 46.636C17.1424 47.0906 17.32 47.6108 17.4123 48.1967Z" fill="#F6F6F1"/>
<path d="M20.885 55.7393C20.3666 55.7393 19.8978 55.6435 19.4788 55.4517C19.0597 55.2564 18.7277 54.9741 18.4827 54.6048C18.2412 54.2354 18.1205 53.7827 18.1205 53.2464C18.1205 52.7848 18.2093 52.4048 18.3868 52.1065C18.5644 51.8082 18.8041 51.5721 19.1059 51.3981C19.4078 51.2241 19.7451 51.0927 20.118 51.0039C20.4909 50.9151 20.8708 50.8477 21.2579 50.8015C21.748 50.7447 22.1457 50.6985 22.4511 50.663C22.7565 50.6239 22.9784 50.5618 23.1169 50.4766C23.2554 50.3913 23.3247 50.2528 23.3247 50.0611V50.0238C23.3247 49.5586 23.1933 49.1982 22.9305 48.9425C22.6713 48.6868 22.2842 48.5589 21.7693 48.5589C21.233 48.5589 20.8105 48.6779 20.5015 48.9158C20.1961 49.1502 19.9848 49.4112 19.8676 49.6989L18.3708 49.358C18.5484 48.8608 18.8076 48.4595 19.1485 48.1541C19.493 47.8452 19.8889 47.6214 20.3364 47.483C20.7838 47.3409 21.2543 47.2699 21.748 47.2699C22.0747 47.2699 22.4209 47.3089 22.7867 47.3871C23.156 47.4616 23.5004 47.6001 23.82 47.8026C24.1432 48.005 24.4078 48.2944 24.6137 48.6708C24.8197 49.0437 24.9227 49.5284 24.9227 50.125V55.5582H23.3673V54.4396H23.3034C23.2004 54.6456 23.0459 54.848 22.8399 55.0469C22.634 55.2457 22.3694 55.4109 22.0463 55.5423C21.7231 55.6737 21.336 55.7393 20.885 55.7393ZM21.2313 54.4609C21.6716 54.4609 22.048 54.3739 22.3605 54.1999C22.6766 54.0259 22.9163 53.7987 23.0796 53.5181C23.2465 53.234 23.33 52.9304 23.33 52.6072V51.5526C23.2732 51.6094 23.1631 51.6626 22.9997 51.7124C22.8399 51.7585 22.657 51.7994 22.4511 51.8349C22.2451 51.8668 22.0445 51.897 21.8492 51.9254C21.6539 51.9503 21.4905 51.9716 21.3591 51.9893C21.0502 52.0284 20.7678 52.0941 20.5122 52.1864C20.26 52.2788 20.0576 52.4119 19.9049 52.5859C19.7558 52.7564 19.6812 52.9837 19.6812 53.2678C19.6812 53.6619 19.8268 53.9602 20.118 54.1626C20.4092 54.3615 20.7803 54.4609 21.2313 54.4609Z" fill="#F6F6F1"/>
<path d="M26.294 55.5582V47.3764H27.8335V48.6761H27.9187C28.0678 48.2358 28.3306 47.8896 28.707 47.6374C29.087 47.3817 29.5167 47.2539 29.9961 47.2539C30.0955 47.2539 30.2127 47.2575 30.3477 47.2646C30.4862 47.2717 30.5945 47.2805 30.6726 47.2912V48.8146C30.6087 48.7969 30.495 48.7773 30.3317 48.756C30.1683 48.7312 30.005 48.7188 29.8416 48.7188C29.4652 48.7188 29.1296 48.7987 28.8349 48.9585C28.5437 49.1147 28.3129 49.3331 28.1424 49.6136C27.9719 49.8906 27.8867 50.2067 27.8867 50.5618V55.5582H26.294Z" fill="#F6F6F1"/>
<path d="M34.5342 55.7234C33.7281 55.7234 33.0338 55.5511 32.4514 55.2067C31.8726 54.8587 31.4252 54.3704 31.1091 53.7418C30.7966 53.1097 30.6404 52.3693 30.6404 51.5206C30.6404 50.6825 30.7966 49.9439 31.1091 49.3047C31.4252 48.6655 31.8655 48.1665 32.4301 47.8079C32.9983 47.4492 33.6624 47.2699 34.4223 47.2699C34.884 47.2699 35.3314 47.3462 35.7646 47.4989C36.1979 47.6516 36.5867 47.8913 36.9312 48.218C37.2757 48.5447 37.5473 48.9691 37.7462 49.4911C37.945 50.0096 38.0445 50.6399 38.0445 51.3821V51.9467H31.5406V50.7536H36.4838C36.4838 50.3345 36.3985 49.9634 36.2281 49.6403C36.0576 49.3136 35.8179 49.0561 35.509 48.8679C35.2036 48.6797 34.8449 48.5856 34.433 48.5856C33.9855 48.5856 33.5949 48.6957 33.2611 48.9158C32.9308 49.1325 32.6752 49.4165 32.4941 49.7681C32.3165 50.1161 32.2277 50.4943 32.2277 50.9027V51.8349C32.2277 52.3817 32.3236 52.8469 32.5154 53.2305C32.7107 53.614 32.9823 53.907 33.3303 54.1094C33.6784 54.3082 34.085 54.4077 34.5502 54.4077C34.852 54.4077 35.1272 54.3651 35.3758 54.2798C35.6244 54.1911 35.8392 54.0597 36.0203 53.8857C36.2014 53.7116 36.3399 53.4968 36.4358 53.2411L37.9433 53.5128C37.8225 53.9567 37.6059 54.3455 37.2934 54.6793C36.9845 55.0096 36.5956 55.267 36.1269 55.4517C35.6617 55.6328 35.1308 55.7234 34.5342 55.7234Z" fill="#F6F6F1"/>
<path d="M42.5879 55.7234C41.7818 55.7234 41.0875 55.5511 40.5051 55.2067C39.9263 54.8587 39.4789 54.3704 39.1628 53.7418C38.8503 53.1097 38.6941 52.3693 38.6941 51.5206C38.6941 50.6825 38.8503 49.9439 39.1628 49.3047C39.4789 48.6655 39.9192 48.1665 40.4838 47.8079C41.052 47.4492 41.7161 47.2699 42.476 47.2699C42.9377 47.2699 43.3851 47.3462 43.8184 47.4989C44.2516 47.6516 44.6404 47.8913 44.9849 48.218C45.3294 48.5447 45.601 48.9691 45.7999 49.4911C45.9988 50.0096 46.0982 50.6399 46.0982 51.3821V51.9467H39.5943V50.7536H44.5375C44.5375 50.3345 44.4522 49.9634 44.2818 49.6403C44.1113 49.3136 43.8716 49.0561 43.5627 48.8679C43.2573 48.6797 42.8986 48.5856 42.4867 48.5856C42.0392 48.5856 41.6486 48.6957 41.3148 48.9158C40.9846 49.1325 40.7289 49.4165 40.5478 49.7681C40.3702 50.1161 40.2814 50.4943 40.2814 50.9027V51.8349C40.2814 52.3817 40.3773 52.8469 40.5691 53.2305C40.7644 53.614 41.036 53.907 41.3841 54.1094C41.7321 54.3082 42.1387 54.4077 42.6039 54.4077C42.9057 54.4077 43.1809 54.3651 43.4295 54.2798C43.6781 54.1911 43.8929 54.0597 44.074 53.8857C44.2551 53.7116 44.3936 53.4968 44.4895 53.2411L45.997 53.5128C45.8762 53.9567 45.6596 54.3455 45.3471 54.6793C45.0382 55.0096 44.6493 55.267 44.1806 55.4517C43.7154 55.6328 43.1845 55.7234 42.5879 55.7234Z" fill="#F6F6F1"/>
<path d="M47.1153 55.5582V47.3764H48.6547V48.6761H48.74C48.8891 48.2358 49.1519 47.8896 49.5283 47.6374C49.9083 47.3817 50.338 47.2539 50.8174 47.2539C50.9168 47.2539 51.034 47.2575 51.1689 47.2646C51.3074 47.2717 51.4157 47.2805 51.4939 47.2912V48.8146C51.43 48.7969 51.3163 48.7773 51.153 48.756C50.9896 48.7312 50.8263 48.7188 50.6629 48.7188C50.2865 48.7188 49.9509 48.7987 49.6562 48.9585C49.365 49.1147 49.1341 49.3331 48.9637 49.6136C48.7932 49.8906 48.708 50.2067 48.708 50.5618V55.5582H47.1153Z" fill="#F6F6F1"/>
<path d="M58.2532 49.3739L56.8097 49.6296C56.7493 49.445 56.6534 49.2692 56.522 49.1023C56.3942 48.9354 56.2202 48.7987 56 48.6921C55.7798 48.5856 55.5046 48.5323 55.1744 48.5323C54.7234 48.5323 54.3469 48.6335 54.0451 48.8359C53.7433 49.0348 53.5923 49.2923 53.5923 49.6083C53.5923 49.8817 53.6935 50.1019 53.896 50.2688C54.0984 50.4357 54.4251 50.5724 54.8761 50.679L56.1758 50.9773C56.9286 51.1513 57.4897 51.4194 57.859 51.7816C58.2283 52.1438 58.413 52.6143 58.413 53.1932C58.413 53.6832 58.271 54.12 57.9869 54.5036C57.7063 54.8835 57.3139 55.1818 56.8097 55.3984C56.3089 55.6151 55.7283 55.7234 55.0678 55.7234C54.1516 55.7234 53.4041 55.5281 52.8253 55.1374C52.2464 54.7433 51.8913 54.1839 51.7599 53.4595L53.2994 53.2251C53.3952 53.6264 53.5923 53.93 53.8906 54.136C54.1889 54.3384 54.5778 54.4396 55.0572 54.4396C55.5792 54.4396 55.9964 54.3313 56.3089 54.1147C56.6214 53.8945 56.7777 53.6264 56.7777 53.3104C56.7777 53.0547 56.6818 52.8398 56.4901 52.6658C56.3018 52.4918 56.0124 52.3604 55.6218 52.2717L54.2369 51.968C53.4734 51.794 52.9087 51.517 52.543 51.1371C52.1808 50.7571 51.9996 50.2759 51.9996 49.6935C51.9996 49.2106 52.1346 48.788 52.4045 48.4258C52.6744 48.0636 53.0472 47.7813 53.5231 47.5788C53.9989 47.3729 54.544 47.2699 55.1584 47.2699C56.0426 47.2699 56.7386 47.4616 57.2464 47.8452C57.7543 48.2251 58.0898 48.7347 58.2532 49.3739Z" fill="#F6F6F1"/>
</svg>
