<?xml version="1.0" encoding="UTF-8"?><svg id="A" xmlns="http://www.w3.org/2000/svg" viewBox="0 0 992.54 198.72"><defs><style>.cls-1{fill:#1d1d1b;}</style></defs><path class="cls-1" d="M430.76,76.61l-26.52-8.51c-23.24-7.53-32.74-16.04-32.74-31.76,0-11.79,8.18-21.93,21.61-21.93,18.66,0,31.76,17.35,49.76,51.73,.65,1.31,1.31,1.64,2.62,.65l33.39-30.12c.98-.65,.98-1.31,.33-2.29C461.86,13.75,437.96,0,404.57,0c-46.49,0-68.1,29.79-68.1,58.27s20.3,46.82,47.8,55.98l29.79,9.82c27.17,8.84,35.03,19.32,35.03,33.72s-9.49,24.23-24.88,24.23c-19.64,0-34.7-15.39-55.98-57.29-.66-.98-1.31-1.31-2.29-.65l-34.73,28.27c-.98,.65-1.31,1.96-.65,2.95,20.63,24.23,46.02,43.43,84.16,43.43,43.54,0,68.75-26.52,69.73-60.57,.65-34.7-21.28-51.07-53.69-61.55"/><path class="cls-1" d="M261.33,5.88c-.65-1.63-1.31-1.96-2.94-1.96h-39.17c-1.63,0-2.28,.33-2.94,1.96l-70.83,185.4c-.65,1.63,0,2.94,1.96,2.94h54.51c1.63,0,1.96-1.31,1.3-2.28-3.92-6.85-10.12-21.54-6.2-38.19,9.79,2.61,20.56,3.92,31.34,3.92,11.75,0,23.73-1.6,34.5-4.87,5.55,16.97-2.19,32.28-6.1,39.14-.65,.98-.33,2.28,1.3,2.28h72.14c1.96,0,2.61-1.31,1.96-2.94L261.33,5.88Zm-32.97,121.09c-8.49,0-16.65-1.31-24.48-3.59l23.77-76.38c.65-2.28,1.4-3.26,3.03-3.26s2.45,.65,3.17,3.26l20.74,75.95c-7.83,2.28-17.75,4.02-26.23,4.02"/><path class="cls-1" d="M597.96,5.88c-.65-1.63-1.31-1.96-2.94-1.96h-39.17c-1.63,0-2.28,.33-2.94,1.96l-70.83,185.4c-.65,1.63,0,2.94,1.96,2.94h54.51c1.63,0,1.96-1.31,1.3-2.28-3.92-6.85-10.12-21.54-6.2-38.19,9.79,2.61,20.56,3.92,31.34,3.92,11.75,0,23.73-1.6,34.5-4.87,5.55,16.97-2.19,32.28-6.1,39.14-.65,.98-.33,2.28,1.3,2.28h72.14c1.96,0,2.61-1.31,1.96-2.94L597.96,5.88Zm-32.97,121.09c-8.49,0-16.65-1.31-24.48-3.59l23.77-76.38c.65-2.28,1.4-3.26,3.03-3.26s2.45,.65,3.17,3.26l20.74,75.95c-7.83,2.28-17.75,4.02-26.23,4.02"/><path class="cls-1" d="M808.09,3.95c-.2-.04-.43-.06-.67-.06h-55.48c-1.63,0-1.84,1.23-1.3,2.28,11.78,23.24,5.07,49.82,.97,63l-22.09,71.18c-.53,1.85-1.4,3.26-3.03,3.26s-2.5-.96-3.17-3.26L682.12,6.18c-.65-1.96-1.31-2.29-3.59-2.29h-50.84c-1.96,0-2.28,1.31-1.63,2.94l70.82,185.4c.65,1.63,.98,1.96,2.61,1.96h40.36c1.63,0,1.96-.33,2.61-1.96L809.38,6.83c.16-.41,.24-.8,.24-1.15,0-.88-.51-1.54-1.53-1.73"/><path class="cls-1" d="M898.11,0C842.05,0,801.09,42.95,801.09,99.34s37.05,99.34,93.12,99.34,98.33-42.95,98.33-99.34S953.84,0,898.11,0Zm.89,182.76c-23.26,0-45.32-33.77-46.49-79.96-1.18-46.18,17.53-86.89,42.36-86.89s44.96,38.33,46.14,84.51c1.18,46.18-19.36,82.33-42,82.33"/><path class="cls-1" d="M4.32,127.43c11.39,39.21,48.4,68,88.64,68.85,12.09,.41,24.91-1.51,36.89-5.9,1.25-.46,1.12-2.29-.18-2.58-33.76-7.36-62.77-32.65-70.02-67.17-6.66-31.72,2.95-64.17,19.71-91.22,2.75-4.44,5.55-8.72,8.75-12.93,1.2-1.57,2.01-3.02,4.15-2.54,2,.45,2.2,2.25,2.87,5.14,6.74,29.48,35.1,51.62,66.51,52.5,1.07,.03,1.95-.85,1.95-1.92V6.28c0-1.31-1.06-2.37-2.37-2.37H95.88C56.47,4.32,22.72,28.34,8.12,62.5c0,0-15.38,29.11-3.8,64.93Z"/></svg>