<svg viewBox="0 0 152 63" fill="none" xmlns="http://www.w3.org/2000/svg">
<path d="M66.9094 18.7939L63.2826 17.5949C60.1043 16.534 58.8051 15.335 58.8051 13.1201C58.8051 11.459 59.9238 10.0303 61.7605 10.0303C64.3124 10.0303 66.1039 12.4748 68.5655 17.3188C68.6544 17.5033 68.7447 17.5498 68.9238 17.4104L73.4902 13.1666C73.6242 13.075 73.6242 12.982 73.5353 12.844C71.1626 9.9373 67.894 8 63.3277 8C56.9698 8 54.0145 12.1973 54.0145 16.2099C54.0145 20.2226 56.7907 22.8066 60.5515 24.0972L64.6255 25.4808C68.3412 26.7263 69.4162 28.2029 69.4162 30.2318C69.4162 32.2607 68.1183 33.6457 66.0136 33.6457C63.3277 33.6457 61.2681 31.4773 58.3579 25.5738C58.2677 25.4357 58.1788 25.3892 58.0448 25.4822L53.2952 29.4653C53.1611 29.5569 53.116 29.7415 53.2063 29.8809C56.0276 33.2948 59.4999 36 64.7158 36C70.6702 36 74.1179 32.2635 74.2519 27.466C74.3408 22.577 71.3417 20.2705 66.9094 18.7939Z" fill="#1D1D1B"/>
<path d="M43.7385 8.82846C43.6497 8.5988 43.5594 8.55231 43.3365 8.55231H37.9797C37.7568 8.55231 37.6679 8.5988 37.5776 8.82846L27.8911 34.9503C27.8022 35.18 27.8911 35.3646 28.1591 35.3646H35.6138C35.8367 35.3646 35.8818 35.18 35.7916 35.0433C35.2555 34.0782 34.4076 32.0085 34.9437 29.6626C36.2825 30.0303 37.7554 30.2149 39.2296 30.2149C40.8365 30.2149 42.4749 29.9894 43.9478 29.5287C44.7068 31.9197 43.6483 34.0768 43.1136 35.0433C43.0247 35.1814 43.0684 35.3646 43.2913 35.3646H53.157C53.4251 35.3646 53.514 35.18 53.4251 34.9503L43.7385 8.82846ZM39.2296 25.8894C38.0686 25.8894 36.9526 25.7048 35.8818 25.3836L39.1325 14.622C39.2214 14.3008 39.324 14.1627 39.5469 14.1627C39.7698 14.1627 39.882 14.2543 39.9804 14.622L42.8168 25.323C41.746 25.6442 40.3894 25.8894 39.2296 25.8894Z" fill="#1D1D1B"/>
<path d="M89.7753 8.82846C89.6864 8.5988 89.5961 8.55231 89.3732 8.55231H84.0164C83.7935 8.55231 83.7046 8.5988 83.6143 8.82846L73.9278 34.9503C73.8389 35.18 73.9278 35.3646 74.1958 35.3646H81.6505C81.8734 35.3646 81.9185 35.18 81.8283 35.0433C81.2922 34.0782 80.4443 32.0085 80.9804 29.6626C82.3193 30.0303 83.7921 30.2149 85.2664 30.2149C86.8733 30.2149 88.5116 29.9894 89.9845 29.5287C90.7435 31.9197 89.685 34.0768 89.1503 35.0433C89.0614 35.1814 89.1052 35.3646 89.3281 35.3646H99.1938C99.4618 35.3646 99.5507 35.18 99.4618 34.9503L89.7753 8.82846ZM85.2664 25.8894C84.1053 25.8894 82.9894 25.7048 81.9185 25.3836L85.1693 14.622C85.2582 14.3008 85.3607 14.1627 85.5836 14.1627C85.8066 14.1627 85.9187 14.2543 86.0172 14.622L88.8535 25.323C87.7827 25.6442 86.4261 25.8894 85.2664 25.8894Z" fill="#1D1D1B"/>
<path d="M118.512 8.55653C118.485 8.5509 118.453 8.54808 118.421 8.54808H110.833C110.61 8.54808 110.582 8.72138 110.655 8.86932C112.266 12.1437 111.349 15.8887 110.788 17.7457L107.767 27.7746C107.695 28.0352 107.576 28.2339 107.353 28.2339C107.13 28.2339 107.011 28.0986 106.919 27.7746L101.285 8.87073C101.196 8.59458 101.106 8.54808 100.794 8.54808H93.8411C93.573 8.54808 93.5293 8.73265 93.6182 8.96231L103.303 35.0842C103.392 35.3138 103.437 35.3603 103.66 35.3603H109.18C109.403 35.3603 109.448 35.3138 109.537 35.0842L118.689 8.96231C118.71 8.90454 118.721 8.84959 118.721 8.80028C118.721 8.67629 118.652 8.5833 118.512 8.55653Z" fill="#1D1D1B"/>
<path d="M130.823 8C123.156 8 117.555 14.0514 117.555 21.9965C117.555 29.9415 122.622 35.993 130.29 35.993C137.958 35.993 143.737 29.9415 143.737 21.9965C143.737 14.0514 138.445 8 130.823 8ZM130.945 33.7499C127.764 33.7499 124.747 28.9919 124.587 22.484C124.426 15.9775 126.984 10.2416 130.38 10.2416C133.776 10.2416 136.529 15.6421 136.69 22.1486C136.851 28.6552 134.042 33.7485 130.946 33.7485" fill="#1D1D1B"/>
<path d="M8.59046 25.9542C10.1481 31.4787 15.2095 35.535 20.7127 35.6548C22.3661 35.7126 24.1193 35.4421 25.7577 34.8235C25.9286 34.7587 25.9108 34.5009 25.733 34.46C21.1161 33.423 17.1488 29.8598 16.1573 24.9961C15.2465 20.5269 16.5607 15.9549 18.8528 12.1437C19.2288 11.5181 19.6118 10.9151 20.0494 10.3219C20.2135 10.1007 20.3243 9.89644 20.6169 9.96407C20.8904 10.0275 20.9178 10.2811 21.0094 10.6883C21.9312 14.8418 25.8096 17.9613 30.1052 18.0852C30.2515 18.0895 30.3719 17.9655 30.3719 17.8147V8.88482C30.3719 8.70025 30.2269 8.5509 30.0477 8.5509H21.112C15.7224 8.60866 11.1068 11.993 9.11014 16.8059C9.11014 16.8059 7.00681 20.9074 8.59046 25.9542Z" fill="#1D1D1B"/>
<path d="M15.1342 46.9531L12.3651 54.5895H10.7741L8 46.9531H9.59588L11.5298 52.8295H11.6094L13.5384 46.9531H15.1342Z" fill="#1D1D1B"/>
<path d="M15.8312 54.5895V46.9531H17.3178V54.5895H15.8312ZM16.582 45.7749C16.3234 45.7749 16.1014 45.6887 15.9158 45.5163C15.7335 45.3407 15.6423 45.1319 15.6423 44.8899C15.6423 44.6446 15.7335 44.4358 15.9158 44.2635C16.1014 44.0878 16.3234 44 16.582 44C16.8405 44 17.0609 44.0878 17.2432 44.2635C17.4288 44.4358 17.5216 44.6446 17.5216 44.8899C17.5216 45.1319 17.4288 45.3407 17.2432 45.5163C17.0609 45.6887 16.8405 45.7749 16.582 45.7749Z" fill="#1D1D1B"/>
<path d="M18.6176 54.5895V46.9531H20.0544V48.1662H20.1339C20.2731 47.7552 20.5184 47.4321 20.8697 47.1967C21.2243 46.9581 21.6254 46.8388 22.0728 46.8388C22.1656 46.8388 22.275 46.8421 22.401 46.8487C22.5302 46.8554 22.6313 46.8636 22.7042 46.8736V48.2955C22.6446 48.2789 22.5385 48.2607 22.386 48.2408C22.2336 48.2176 22.0811 48.206 21.9287 48.206C21.5773 48.206 21.2641 48.2805 20.989 48.4297C20.7172 48.5755 20.5018 48.7794 20.3427 49.0412C20.1836 49.2997 20.1041 49.5947 20.1041 49.9261V54.5895H18.6176Z" fill="#1D1D1B"/>
<path d="M27.3064 46.9531V48.1463H23.1353V46.9531H27.3064ZM24.2539 45.1236H25.7404V52.3473C25.7404 52.6357 25.7835 52.8527 25.8696 52.9986C25.9558 53.1411 26.0668 53.2389 26.2027 53.2919C26.3419 53.3416 26.4927 53.3665 26.6551 53.3665C26.7745 53.3665 26.8789 53.3582 26.9684 53.3416C27.0578 53.325 27.1274 53.3118 27.1772 53.3018L27.4456 54.5298C27.3595 54.563 27.2368 54.5961 27.0777 54.6293C26.9186 54.6657 26.7198 54.6856 26.4811 54.6889C26.09 54.6955 25.7255 54.6259 25.3874 54.4801C25.0493 54.3343 24.7759 54.1089 24.5671 53.804C24.3583 53.4991 24.2539 53.1162 24.2539 52.6555V45.1236Z" fill="#1D1D1B"/>
<path d="M33.0881 51.4226V46.9531H34.5796V54.5895H33.118V53.267H33.0384C32.8628 53.6747 32.581 54.0144 32.1933 54.2862C31.8088 54.5547 31.3299 54.6889 30.7565 54.6889C30.2659 54.6889 29.8317 54.5812 29.4539 54.3658C29.0794 54.147 28.7844 53.8239 28.569 53.3963C28.3568 52.9688 28.2508 52.4401 28.2508 51.8104V46.9531H29.7373V51.6314C29.7373 52.1518 29.8815 52.5661 30.1698 52.8743C30.4582 53.1825 30.8327 53.3366 31.2934 53.3366C31.5718 53.3366 31.8486 53.267 32.1237 53.1278C32.4021 52.9886 32.6324 52.7782 32.8147 52.4964C33.0003 52.2147 33.0915 51.8568 33.0881 51.4226Z" fill="#1D1D1B"/>
<path d="M38.0993 54.7585C37.6154 54.7585 37.1779 54.669 36.7868 54.4901C36.3957 54.3078 36.0858 54.0443 35.8571 53.6996C35.6317 53.3549 35.519 52.9323 35.519 52.4318C35.519 52.0009 35.6019 51.6463 35.7676 51.3679C35.9333 51.0895 36.157 50.8691 36.4387 50.7067C36.7205 50.5443 37.0353 50.4216 37.3833 50.3388C37.7314 50.2559 38.086 50.1929 38.4473 50.1499C38.9047 50.0968 39.2759 50.0537 39.5609 50.0206C39.8459 49.9841 40.0531 49.9261 40.1824 49.8466C40.3116 49.767 40.3762 49.6378 40.3762 49.4588V49.424C40.3762 48.9898 40.2536 48.6534 40.0083 48.4148C39.7664 48.1761 39.4051 48.0568 38.9245 48.0568C38.4241 48.0568 38.0297 48.1679 37.7413 48.3899C37.4563 48.6087 37.2591 48.8523 37.1497 49.1207L35.7527 48.8026C35.9184 48.3385 36.1603 47.964 36.4785 47.679C36.8 47.3906 37.1696 47.1818 37.5872 47.0526C38.0048 46.92 38.444 46.8537 38.9047 46.8537C39.2096 46.8537 39.5327 46.8902 39.8741 46.9631C40.2188 47.0327 40.5403 47.1619 40.8386 47.3509C41.1402 47.5398 41.3871 47.8099 41.5794 48.1612C41.7716 48.5092 41.8677 48.9616 41.8677 49.5185V54.5895H40.416V53.5455H40.3564C40.2602 53.7377 40.1161 53.9266 39.9238 54.1122C39.7316 54.2978 39.4847 54.4519 39.1831 54.5746C38.8815 54.6972 38.5202 54.7585 38.0993 54.7585ZM38.4224 53.5653C38.8334 53.5653 39.1847 53.4841 39.4764 53.3217C39.7714 53.1593 39.9951 52.9472 40.1475 52.6854C40.3033 52.4202 40.3812 52.1368 40.3812 51.8352V50.8509C40.3282 50.9039 40.2254 50.9536 40.073 51C39.9238 51.0431 39.7531 51.0812 39.5609 51.1143C39.3687 51.1442 39.1814 51.1723 38.9991 51.1989C38.8168 51.2221 38.6644 51.242 38.5417 51.2585C38.2534 51.295 37.9899 51.3563 37.7512 51.4425C37.5159 51.5286 37.327 51.6529 37.1845 51.8153C37.0453 51.9744 36.9757 52.1866 36.9757 52.4517C36.9757 52.8196 37.1116 53.098 37.3833 53.2869C37.6551 53.4725 38.0015 53.5653 38.4224 53.5653Z" fill="#1D1D1B"/>
<path d="M44.6342 44.4077V54.5895H43.1477V44.4077H44.6342Z" fill="#1D1D1B"/>
<path d="M52.5037 46.9531V48.1463H48.3325V46.9531H52.5037ZM49.4511 45.1236H50.9376V52.3473C50.9376 52.6357 50.9807 52.8527 51.0669 52.9986C51.1531 53.1411 51.2641 53.2389 51.4 53.2919C51.5392 53.3416 51.69 53.3665 51.8524 53.3665C51.9717 53.3665 52.0761 53.3582 52.1656 53.3416C52.2551 53.325 52.3247 53.3118 52.3744 53.3018L52.6429 54.5298C52.5567 54.563 52.4341 54.5961 52.275 54.6293C52.1159 54.6657 51.917 54.6856 51.6784 54.6889C51.2873 54.6955 50.9227 54.6259 50.5847 54.4801C50.2466 54.3343 49.9732 54.1089 49.7643 53.804C49.5555 53.4991 49.4511 53.1162 49.4511 52.6555V45.1236Z" fill="#1D1D1B"/>
<path d="M56.5826 54.7436C55.8667 54.7436 55.242 54.5795 54.7083 54.2514C54.1747 53.9233 53.7604 53.4643 53.4654 52.8743C53.1705 52.2843 53.023 51.5949 53.023 50.8061C53.023 50.014 53.1705 49.3213 53.4654 48.728C53.7604 48.1347 54.1747 47.674 54.7083 47.3459C55.242 47.0178 55.8667 46.8537 56.5826 46.8537C57.2985 46.8537 57.9233 47.0178 58.4569 47.3459C58.9905 47.674 59.4048 48.1347 59.6998 48.728C59.9948 49.3213 60.1423 50.014 60.1423 50.8061C60.1423 51.5949 59.9948 52.2843 59.6998 52.8743C59.4048 53.4643 58.9905 53.9233 58.4569 54.2514C57.9233 54.5795 57.2985 54.7436 56.5826 54.7436ZM56.5876 53.4957C57.0516 53.4957 57.4361 53.3731 57.741 53.1278C58.0459 52.8826 58.2713 52.5561 58.4172 52.1484C58.5663 51.7408 58.6409 51.2917 58.6409 50.8011C58.6409 50.3139 58.5663 49.8665 58.4172 49.4588C58.2713 49.0478 58.0459 48.718 57.741 48.4695C57.4361 48.2209 57.0516 48.0966 56.5876 48.0966C56.1203 48.0966 55.7325 48.2209 55.4243 48.4695C55.1193 48.718 54.8923 49.0478 54.7431 49.4588C54.5973 49.8665 54.5244 50.3139 54.5244 50.8011C54.5244 51.2917 54.5973 51.7408 54.7431 52.1484C54.8923 52.5561 55.1193 52.8826 55.4243 53.1278C55.7325 53.3731 56.1203 53.4957 56.5876 53.4957Z" fill="#1D1D1B"/>
<path d="M64.3182 54.7436C63.6023 54.7436 62.9775 54.5795 62.4439 54.2514C61.9103 53.9233 61.496 53.4643 61.201 52.8743C60.906 52.2843 60.7585 51.5949 60.7585 50.8061C60.7585 50.014 60.906 49.3213 61.201 48.728C61.496 48.1347 61.9103 47.674 62.4439 47.3459C62.9775 47.0178 63.6023 46.8537 64.3182 46.8537C65.0341 46.8537 65.6589 47.0178 66.1925 47.3459C66.7261 47.674 67.1404 48.1347 67.4354 48.728C67.7304 49.3213 67.8778 50.014 67.8778 50.8061C67.8778 51.5949 67.7304 52.2843 67.4354 52.8743C67.1404 53.4643 66.7261 53.9233 66.1925 54.2514C65.6589 54.5795 65.0341 54.7436 64.3182 54.7436ZM64.3232 53.4957C64.7872 53.4957 65.1716 53.3731 65.4766 53.1278C65.7815 52.8826 66.0069 52.5561 66.1527 52.1484C66.3018 51.7408 66.3764 51.2917 66.3764 50.8011C66.3764 50.3139 66.3018 49.8665 66.1527 49.4588C66.0069 49.0478 65.7815 48.718 65.4766 48.4695C65.1716 48.2209 64.7872 48.0966 64.3232 48.0966C63.8558 48.0966 63.468 48.2209 63.1598 48.4695C62.8549 48.718 62.6278 49.0478 62.4787 49.4588C62.3329 49.8665 62.2599 50.3139 62.2599 50.8011C62.2599 51.2917 62.3329 51.7408 62.4787 52.1484C62.6278 52.5561 62.8549 52.8826 63.1598 53.1278C63.468 53.3731 63.8558 53.4957 64.3232 53.4957Z" fill="#1D1D1B"/>
<path d="M70.3236 44.4077V54.5895H68.8371V44.4077H70.3236Z" fill="#1D1D1B"/>
<path d="M77.3457 48.8175L75.9984 49.0561C75.9421 48.8838 75.8526 48.7197 75.73 48.5639C75.6107 48.4081 75.4482 48.2805 75.2428 48.1811C75.0373 48.0817 74.7804 48.032 74.4722 48.032C74.0512 48.032 73.6999 48.1264 73.4182 48.3153C73.1365 48.5009 72.9956 48.7412 72.9956 49.0362C72.9956 49.2914 73.0901 49.4969 73.279 49.6527C73.4679 49.8085 73.7728 49.9361 74.1937 50.0355L75.4068 50.3139C76.1095 50.4763 76.6331 50.7266 76.9778 51.0646C77.3225 51.4027 77.4949 51.8419 77.4949 52.3821C77.4949 52.8395 77.3623 53.2472 77.0972 53.6051C76.8353 53.9598 76.4691 54.2382 75.9984 54.4403C75.5311 54.6425 74.9892 54.7436 74.3727 54.7436C73.5176 54.7436 72.8199 54.5613 72.2797 54.1967C71.7394 53.8288 71.408 53.3068 71.2854 52.6307L72.7222 52.4119C72.8116 52.7865 72.9956 53.0698 73.274 53.2621C73.5524 53.451 73.9153 53.5455 74.3628 53.5455C74.85 53.5455 75.2394 53.4444 75.5311 53.2422C75.8228 53.0367 75.9686 52.7865 75.9686 52.4915C75.9686 52.2528 75.8791 52.0523 75.7001 51.8899C75.5245 51.7275 75.2544 51.6049 74.8898 51.522L73.5972 51.2386C72.8846 51.0762 72.3576 50.8177 72.0162 50.4631C71.6781 50.1084 71.5091 49.6593 71.5091 49.1158C71.5091 48.665 71.635 48.2706 71.8869 47.9325C72.1388 47.5945 72.4868 47.331 72.931 47.142C73.3751 46.9498 73.8839 46.8537 74.4572 46.8537C75.2825 46.8537 75.9321 47.0327 76.4061 47.3906C76.8801 47.7453 77.1933 48.2209 77.3457 48.8175Z" fill="#1D1D1B"/>
</svg>
