<svg viewBox="0 0 111 46" fill="none" xmlns="http://www.w3.org/2000/svg">
<path d="M49.0882 12.71L46.4192 11.8535C44.0804 11.0957 43.1243 10.2393 43.1243 8.65722C43.1243 7.47069 43.9475 6.45021 45.2991 6.45021C47.177 6.45021 48.4954 8.1963 50.3069 11.6563C50.3723 11.7881 50.4387 11.8213 50.5706 11.7217L53.9309 8.69043C54.0295 8.62502 54.0295 8.5586 53.9641 8.45997C52.218 6.38379 49.8128 5 46.4524 5C41.7737 5 39.5989 7.99804 39.5989 10.8642C39.5989 13.7304 41.6419 15.5762 44.4095 16.498L47.4075 17.4863C50.1418 18.3759 50.9329 19.4306 50.9329 20.8798C50.9329 22.329 49.9778 23.3183 48.429 23.3183C46.4524 23.3183 44.9368 21.7695 42.7952 17.5527C42.7288 17.4541 42.6634 17.4209 42.5647 17.4873L39.0695 20.3324C38.9709 20.3978 38.9377 20.5296 39.0041 20.6292C41.0803 23.0677 43.6355 25 47.4739 25C51.8557 25 54.3928 22.3311 54.4915 18.9043C54.5569 15.4121 52.3499 13.7647 49.0882 12.71Z" fill="#1D1D1B"/>
<path d="M32.0369 5.59176C31.9715 5.42772 31.905 5.39451 31.741 5.39451H27.799C27.6349 5.39451 27.5695 5.42772 27.5031 5.59176L20.3748 24.2502C20.3094 24.4143 20.3748 24.5461 20.5721 24.5461H26.0579C26.222 24.5461 26.2552 24.4143 26.1887 24.3167C25.7942 23.6273 25.1703 22.1489 25.5648 20.4733C26.55 20.7359 27.6339 20.8678 28.7188 20.8678C29.9013 20.8678 31.107 20.7067 32.1909 20.3776C32.7494 22.0855 31.9705 23.6263 31.577 24.3167C31.5115 24.4153 31.5438 24.5461 31.7078 24.5461H38.9679C39.1651 24.5461 39.2306 24.4143 39.1651 24.2502L32.0369 5.59176ZM28.7188 17.7781C27.8644 17.7781 27.0432 17.6463 26.2552 17.4168L28.6474 9.73004C28.7128 9.50058 28.7883 9.40195 28.9523 9.40195C29.1163 9.40195 29.1989 9.46737 29.2713 9.73004L31.3586 17.3736C30.5706 17.603 29.5722 17.7781 28.7188 17.7781Z" fill="#1D1D1B"/>
<path d="M65.915 5.59176C65.8496 5.42772 65.7832 5.39451 65.6191 5.39451H61.6771C61.5131 5.39451 61.4476 5.42772 61.3812 5.59176L54.253 24.2502C54.1875 24.4143 54.253 24.5461 54.4502 24.5461H59.936C60.1001 24.5461 60.1333 24.4143 60.0669 24.3167C59.6724 23.6273 59.0484 22.1489 59.4429 20.4733C60.4282 20.7359 61.5121 20.8678 62.5969 20.8678C63.7795 20.8678 64.9851 20.7067 66.069 20.3776C66.6275 22.0855 65.8486 23.6263 65.4551 24.3167C65.3897 24.4153 65.4219 24.5461 65.5859 24.5461H72.846C73.0433 24.5461 73.1087 24.4143 73.0433 24.2502L65.915 5.59176ZM62.5969 17.7781C61.7425 17.7781 60.9213 17.6463 60.1333 17.4168L62.5255 9.73004C62.5909 9.50058 62.6664 9.40195 62.8304 9.40195C62.9945 9.40195 63.077 9.46737 63.1495 9.73004L65.2367 17.3736C64.4487 17.603 63.4504 17.7781 62.5969 17.7781Z" fill="#1D1D1B"/>
<path d="M87.0623 5.39752C87.0422 5.3935 87.019 5.39149 86.9949 5.39149H81.4114C81.2474 5.39149 81.2262 5.51527 81.2806 5.62094C82.4661 7.95979 81.7908 10.6348 81.3782 11.9612L79.1551 19.1247C79.1017 19.3109 79.0142 19.4528 78.8501 19.4528C78.6861 19.4528 78.5985 19.3562 78.5311 19.1247L74.3848 5.62195C74.3194 5.4247 74.253 5.39149 74.0235 5.39149H68.907C68.7098 5.39149 68.6776 5.52332 68.743 5.68736L75.8702 24.3458C75.9356 24.5099 75.9688 24.5431 76.1329 24.5431H80.1947C80.3587 24.5431 80.3919 24.5099 80.4574 24.3458L87.1921 5.68736C87.2082 5.6461 87.2163 5.60685 87.2163 5.57163C87.2163 5.48307 87.165 5.41665 87.0623 5.39752Z" fill="#1D1D1B"/>
<path d="M96.1218 5C90.48 5 86.3578 9.32245 86.3578 14.9975C86.3578 20.6725 90.0865 24.995 95.7293 24.995C101.372 24.995 105.625 20.6725 105.625 14.9975C105.625 9.32245 101.73 5 96.1218 5ZM96.2114 23.3928C93.8705 23.3928 91.6504 19.9942 91.5327 15.3457C91.4139 10.6982 93.2969 6.60117 95.7958 6.60117C98.2946 6.60117 100.32 10.4587 100.439 15.1062C100.558 19.7537 98.4909 23.3918 96.2124 23.3918" fill="#1D1D1B"/>
<path d="M6.17164 17.8244C7.31792 21.7705 11.0426 24.6679 15.0923 24.7534C16.309 24.7947 17.5992 24.6015 18.8049 24.1597C18.9307 24.1134 18.9176 23.9292 18.7867 23.9C15.3892 23.1593 12.4696 20.6142 11.74 17.1401C11.0697 13.9478 12.0369 10.6821 13.7236 7.95979C14.0004 7.51296 14.2821 7.08222 14.6042 6.65853C14.725 6.50053 14.8065 6.3546 15.0218 6.40291C15.2231 6.4482 15.2432 6.62935 15.3107 6.92019C15.989 9.88703 18.8431 12.1152 22.0042 12.2037C22.1119 12.2068 22.2004 12.1182 22.2004 12.0105V5.63201C22.2004 5.50018 22.0937 5.3935 21.9619 5.3935H15.3862C11.42 5.43476 8.0234 7.85211 6.55407 11.2899C6.55407 11.2899 5.00624 14.2195 6.17164 17.8244Z" fill="#1D1D1B"/>
<path d="M11.8522 32.5312L9.4786 39.0767H8.11496L5.73712 32.5312H7.10502L8.76269 37.5682H8.83087L10.4843 32.5312H11.8522Z" fill="#1D1D1B"/>
<path d="M12.4496 39.0767V32.5312H13.7238V39.0767H12.4496ZM13.0931 31.5213C12.8715 31.5213 12.6812 31.4474 12.5221 31.2997C12.3658 31.1491 12.2877 30.9702 12.2877 30.7628C12.2877 30.5526 12.3658 30.3736 12.5221 30.2259C12.6812 30.0753 12.8715 30 13.0931 30C13.3147 30 13.5036 30.0753 13.6598 30.2259C13.8189 30.3736 13.8985 30.5526 13.8985 30.7628C13.8985 30.9702 13.8189 31.1491 13.6598 31.2997C13.5036 31.4474 13.3147 31.5213 13.0931 31.5213Z" fill="#1D1D1B"/>
<path d="M14.8379 39.0767V32.5312H16.0694V33.571H16.1376C16.2569 33.2188 16.4672 32.9418 16.7683 32.7401C17.0723 32.5355 17.416 32.4332 17.7996 32.4332C17.8791 32.4332 17.9728 32.4361 18.0808 32.4418C18.1916 32.4474 18.2782 32.4545 18.3407 32.4631V33.6818C18.2896 33.6676 18.1987 33.652 18.068 33.6349C17.9373 33.6151 17.8067 33.6051 17.676 33.6051C17.3748 33.6051 17.1064 33.669 16.8706 33.7969C16.6376 33.9219 16.453 34.0966 16.3166 34.321C16.1802 34.5426 16.1121 34.7955 16.1121 35.0795V39.0767H14.8379Z" fill="#1D1D1B"/>
<path d="M22.2855 32.5312V33.554H18.7102V32.5312H22.2855ZM19.669 30.9631H20.9432V37.1548C20.9432 37.402 20.9801 37.5881 21.054 37.7131C21.1278 37.8352 21.223 37.919 21.3395 37.9645C21.4588 38.0071 21.588 38.0284 21.7273 38.0284C21.8295 38.0284 21.919 38.0213 21.9957 38.0071C22.0724 37.9929 22.1321 37.9815 22.1747 37.973L22.4048 39.0256C22.3309 39.054 22.2258 39.0824 22.0895 39.1108C21.9531 39.142 21.7826 39.1591 21.5781 39.1619C21.2429 39.1676 20.9304 39.108 20.6406 38.983C20.3508 38.858 20.1165 38.6648 19.9375 38.4034C19.7585 38.142 19.669 37.8139 19.669 37.419V30.9631Z" fill="#1D1D1B"/>
<path d="M27.2412 36.3622V32.5312H28.5196V39.0767H27.2668V37.9432H27.1986C27.0481 38.2926 26.8066 38.5838 26.4742 38.8168C26.1446 39.0469 25.7341 39.1619 25.2427 39.1619C24.8222 39.1619 24.45 39.0696 24.1262 38.8849C23.8052 38.6974 23.5523 38.4205 23.3677 38.054C23.1858 37.6875 23.0949 37.2344 23.0949 36.6946V32.5312H24.3691V36.5412C24.3691 36.9872 24.4927 37.3423 24.7398 37.6065C24.987 37.8707 25.308 38.0028 25.7029 38.0028C25.9415 38.0028 26.1787 37.9432 26.4145 37.8239C26.6532 37.7045 26.8506 37.5241 27.0069 37.2827C27.166 37.0412 27.2441 36.7344 27.2412 36.3622Z" fill="#1D1D1B"/>
<path d="M31.5365 39.2216C31.1217 39.2216 30.7467 39.1449 30.4115 38.9915C30.0763 38.8352 29.8106 38.6094 29.6146 38.3139C29.4214 38.0185 29.3248 37.6563 29.3248 37.2273C29.3248 36.858 29.3959 36.554 29.5379 36.3153C29.6799 36.0767 29.8717 35.8878 30.1132 35.7486C30.3547 35.6094 30.6245 35.5043 30.9228 35.4332C31.2211 35.3622 31.5251 35.3082 31.8348 35.2713C32.2268 35.2259 32.545 35.1889 32.7893 35.1605C33.0336 35.1293 33.2112 35.0795 33.322 35.0114C33.4328 34.9432 33.4882 34.8324 33.4882 34.679V34.6491C33.4882 34.277 33.3831 33.9886 33.1728 33.7841C32.9655 33.5795 32.6558 33.4773 32.2439 33.4773C31.8149 33.4773 31.4768 33.5724 31.2297 33.7628C30.9853 33.9503 30.8163 34.1591 30.7226 34.3892L29.5251 34.1165C29.6672 33.7187 29.8745 33.3977 30.1473 33.1534C30.4228 32.9062 30.7396 32.7273 31.0976 32.6165C31.4555 32.5028 31.8319 32.446 32.2268 32.446C32.4882 32.446 32.7652 32.4773 33.0578 32.5398C33.3532 32.5994 33.6288 32.7102 33.8845 32.8722C34.143 33.0341 34.3547 33.2656 34.5194 33.5668C34.6842 33.8651 34.7666 34.2528 34.7666 34.7301V39.0767H33.5223V38.1818H33.4711C33.3888 38.3466 33.2652 38.5085 33.1004 38.6676C32.9356 38.8267 32.724 38.9588 32.4655 39.0639C32.2069 39.169 31.8973 39.2216 31.5365 39.2216ZM31.8135 38.1989C32.1657 38.1989 32.4669 38.1293 32.7169 37.9901C32.9697 37.8509 33.1615 37.669 33.2922 37.4446C33.4257 37.2173 33.4924 36.9744 33.4924 36.7159V35.8722C33.447 35.9176 33.3589 35.9602 33.2282 36C33.1004 36.0369 32.9541 36.0696 32.7893 36.098C32.6245 36.1236 32.464 36.1477 32.3078 36.1705C32.1515 36.1903 32.0209 36.2074 31.9157 36.2216C31.6686 36.2528 31.4427 36.3054 31.2382 36.3793C31.0365 36.4531 30.8745 36.5597 30.7524 36.6989C30.6331 36.8352 30.5734 37.017 30.5734 37.2443C30.5734 37.5597 30.6899 37.7983 30.9228 37.9602C31.1558 38.1193 31.4527 38.1989 31.8135 38.1989Z" fill="#1D1D1B"/>
<path d="M37.1378 30.3494V39.0767H35.8637V30.3494H37.1378Z" fill="#1D1D1B"/>
<path d="M43.8831 32.5312V33.554H40.3079V32.5312H43.8831ZM41.2667 30.9631H42.5408V37.1548C42.5408 37.402 42.5777 37.5881 42.6516 37.7131C42.7255 37.8352 42.8206 37.919 42.9371 37.9645C43.0564 38.0071 43.1857 38.0284 43.3249 38.0284C43.4272 38.0284 43.5167 38.0213 43.5934 38.0071C43.6701 37.9929 43.7297 37.9815 43.7724 37.973L44.0025 39.0256C43.9286 39.054 43.8235 39.0824 43.6871 39.1108C43.5508 39.142 43.3803 39.1591 43.1758 39.1619C42.8405 39.1676 42.528 39.108 42.2383 38.983C41.9485 38.858 41.7141 38.6648 41.5351 38.4034C41.3562 38.142 41.2667 37.8139 41.2667 37.419V30.9631Z" fill="#1D1D1B"/>
<path d="M47.3794 39.2088C46.7657 39.2088 46.2302 39.0682 45.7728 38.7869C45.3155 38.5057 44.9603 38.1122 44.7075 37.6065C44.4547 37.1009 44.3282 36.5099 44.3282 35.8338C44.3282 35.1548 44.4547 34.5611 44.7075 34.0526C44.9603 33.544 45.3155 33.1491 45.7728 32.8679C46.2302 32.5866 46.7657 32.446 47.3794 32.446C47.993 32.446 48.5285 32.5866 48.9859 32.8679C49.4433 33.1491 49.7984 33.544 50.0513 34.0526C50.3041 34.5611 50.4305 35.1548 50.4305 35.8338C50.4305 36.5099 50.3041 37.1009 50.0513 37.6065C49.7984 38.1122 49.4433 38.5057 48.9859 38.7869C48.5285 39.0682 47.993 39.2088 47.3794 39.2088ZM47.3836 38.1392C47.7814 38.1392 48.1109 38.0341 48.3723 37.8239C48.6336 37.6136 48.8268 37.3338 48.9518 36.9844C49.0797 36.6349 49.1436 36.25 49.1436 35.8295C49.1436 35.4119 49.0797 35.0284 48.9518 34.679C48.8268 34.3267 48.6336 34.044 48.3723 33.831C48.1109 33.6179 47.7814 33.5114 47.3836 33.5114C46.9831 33.5114 46.6507 33.6179 46.3865 33.831C46.1251 34.044 45.9305 34.3267 45.8027 34.679C45.6777 35.0284 45.6152 35.4119 45.6152 35.8295C45.6152 36.25 45.6777 36.6349 45.8027 36.9844C45.9305 37.3338 46.1251 37.6136 46.3865 37.8239C46.6507 38.0341 46.9831 38.1392 47.3836 38.1392Z" fill="#1D1D1B"/>
<path d="M54.0098 39.2088C53.3962 39.2088 52.8607 39.0682 52.4033 38.7869C51.9459 38.5057 51.5908 38.1122 51.338 37.6065C51.0851 37.1009 50.9587 36.5099 50.9587 35.8338C50.9587 35.1548 51.0851 34.5611 51.338 34.0526C51.5908 33.544 51.9459 33.1491 52.4033 32.8679C52.8607 32.5866 53.3962 32.446 54.0098 32.446C54.6235 32.446 55.159 32.5866 55.6164 32.8679C56.0738 33.1491 56.4289 33.544 56.6817 34.0526C56.9346 34.5611 57.061 35.1548 57.061 35.8338C57.061 36.5099 56.9346 37.1009 56.6817 37.6065C56.4289 38.1122 56.0738 38.5057 55.6164 38.7869C55.159 39.0682 54.6235 39.2088 54.0098 39.2088ZM54.0141 38.1392C54.4118 38.1392 54.7414 38.0341 55.0027 37.8239C55.2641 37.6136 55.4573 37.3338 55.5823 36.9844C55.7101 36.6349 55.7741 36.25 55.7741 35.8295C55.7741 35.4119 55.7101 35.0284 55.5823 34.679C55.4573 34.3267 55.2641 34.044 55.0027 33.831C54.7414 33.6179 54.4118 33.5114 54.0141 33.5114C53.6135 33.5114 53.2812 33.6179 53.017 33.831C52.7556 34.044 52.561 34.3267 52.4331 34.679C52.3081 35.0284 52.2456 35.4119 52.2456 35.8295C52.2456 36.25 52.3081 36.6349 52.4331 36.9844C52.561 37.3338 52.7556 37.6136 53.017 37.8239C53.2812 38.0341 53.6135 38.1392 54.0141 38.1392Z" fill="#1D1D1B"/>
<path d="M59.1574 30.3494V39.0767H57.8832V30.3494H59.1574Z" fill="#1D1D1B"/>
<path d="M65.1763 34.1293L64.0215 34.3338C63.9732 34.1861 63.8965 34.0455 63.7914 33.9119C63.6891 33.7784 63.5499 33.669 63.3738 33.5838C63.1976 33.4986 62.9775 33.456 62.7133 33.456C62.3525 33.456 62.0513 33.5369 61.8098 33.6989C61.5684 33.858 61.4476 34.0639 61.4476 34.3168C61.4476 34.5355 61.5286 34.7116 61.6905 34.8452C61.8525 34.9787 62.1138 35.0881 62.4746 35.1733L63.5144 35.4119C64.1167 35.5511 64.5655 35.7656 64.861 36.0554C65.1564 36.3452 65.3042 36.7216 65.3042 37.1847C65.3042 37.5767 65.1905 37.9261 64.9633 38.233C64.7388 38.5369 64.4249 38.7756 64.0215 38.9489C63.6209 39.1222 63.1564 39.2088 62.628 39.2088C61.8951 39.2088 61.2971 39.0526 60.834 38.7401C60.3709 38.4247 60.0868 37.9773 59.9817 37.3977L61.2133 37.2102C61.29 37.5313 61.4476 37.7741 61.6863 37.9389C61.9249 38.1009 62.236 38.1818 62.6195 38.1818C63.0371 38.1818 63.3709 38.0952 63.6209 37.9219C63.8709 37.7457 63.9959 37.5313 63.9959 37.2784C63.9959 37.0739 63.9192 36.902 63.7658 36.7628C63.6152 36.6236 63.3837 36.5185 63.0712 36.4474L61.9633 36.2045C61.3525 36.0653 60.9008 35.8438 60.6081 35.5398C60.3184 35.2358 60.1735 34.8509 60.1735 34.3849C60.1735 33.9986 60.2814 33.6605 60.4973 33.3707C60.7133 33.081 61.0116 32.8551 61.3922 32.6932C61.7729 32.5284 62.209 32.446 62.7005 32.446C63.4079 32.446 63.9647 32.5994 64.3709 32.9062C64.7772 33.2102 65.0456 33.6179 65.1763 34.1293Z" fill="#1D1D1B"/>
</svg>
