<?xml version="1.0" encoding="UTF-8"?><svg id="A" xmlns="http://www.w3.org/2000/svg" viewBox="0 0 434.41 511.02"><defs><style>.cls-1{fill:#f6f6f1;}</style></defs><path class="cls-1" d="M11.46,328.02c30.24,104.13,128.53,180.57,235.41,182.85,32.09,1.1,66.16-4,97.98-15.68,3.33-1.22,2.98-6.08-.48-6.84-89.65-19.56-166.71-86.72-185.96-178.39-17.69-84.25,7.85-170.41,52.35-242.25,7.3-11.78,14.74-23.17,23.25-34.33,3.19-4.18,5.35-8.02,11.01-6.75,5.32,1.19,5.86,5.99,7.61,13.65,17.91,78.28,93.22,137.09,176.62,139.43,2.84,.08,5.17-2.25,5.17-5.1V6.29c0-3.47-2.81-6.29-6.29-6.29H254.63V.03C149.96,1.06,60.33,64.86,21.55,155.59c0,0-40.84,77.32-10.09,172.43Z"/></svg>