<svg viewBox="0 0 152 64" fill="none" xmlns="http://www.w3.org/2000/svg">
<path d="M66.9094 19.2939L63.2826 18.0949C60.1043 17.034 58.8051 15.835 58.8051 13.6201C58.8051 11.959 59.9238 10.5303 61.7605 10.5303C64.3124 10.5303 66.1039 12.9748 68.5655 17.8188C68.6544 18.0033 68.7447 18.0498 68.9238 17.9104L73.4902 13.6666C73.6242 13.575 73.6242 13.482 73.5353 13.344C71.1626 10.4373 67.894 8.5 63.3277 8.5C56.9698 8.5 54.0145 12.6973 54.0145 16.7099C54.0145 20.7226 56.7907 23.3066 60.5515 24.5972L64.6255 25.9808C68.3412 27.2263 69.4162 28.7029 69.4162 30.7318C69.4162 32.7607 68.1183 34.1457 66.0136 34.1457C63.3277 34.1457 61.2681 31.9773 58.3579 26.0738C58.2677 25.9357 58.1788 25.8892 58.0448 25.9822L53.2952 29.9653C53.1611 30.0569 53.116 30.2415 53.2063 30.3809C56.0276 33.7948 59.4999 36.5 64.7158 36.5C70.6702 36.5 74.1179 32.7635 74.2519 27.966C74.3408 23.077 71.3417 20.7705 66.9094 19.2939Z" fill="#F6F6F1"/>
<path d="M43.7385 9.32846C43.6497 9.0988 43.5594 9.05231 43.3365 9.05231H37.9797C37.7568 9.05231 37.6679 9.0988 37.5776 9.32846L27.8911 35.4503C27.8022 35.68 27.8911 35.8646 28.1591 35.8646H35.6138C35.8367 35.8646 35.8818 35.68 35.7916 35.5433C35.2555 34.5782 34.4076 32.5085 34.9437 30.1626C36.2825 30.5303 37.7554 30.7149 39.2296 30.7149C40.8365 30.7149 42.4749 30.4894 43.9478 30.0287C44.7068 32.4197 43.6483 34.5768 43.1136 35.5433C43.0247 35.6814 43.0684 35.8646 43.2913 35.8646H53.157C53.4251 35.8646 53.514 35.68 53.4251 35.4503L43.7385 9.32846ZM39.2296 26.3894C38.0686 26.3894 36.9526 26.2048 35.8818 25.8836L39.1325 15.122C39.2214 14.8008 39.324 14.6627 39.5469 14.6627C39.7698 14.6627 39.882 14.7543 39.9804 15.122L42.8168 25.823C41.746 26.1442 40.3894 26.3894 39.2296 26.3894Z" fill="#F6F6F1"/>
<path d="M89.7753 9.32846C89.6864 9.0988 89.5961 9.05231 89.3732 9.05231H84.0164C83.7935 9.05231 83.7046 9.0988 83.6143 9.32846L73.9278 35.4503C73.8389 35.68 73.9278 35.8646 74.1958 35.8646H81.6505C81.8734 35.8646 81.9185 35.68 81.8283 35.5433C81.2922 34.5782 80.4443 32.5085 80.9804 30.1626C82.3193 30.5303 83.7921 30.7149 85.2664 30.7149C86.8733 30.7149 88.5116 30.4894 89.9845 30.0287C90.7435 32.4197 89.685 34.5768 89.1503 35.5433C89.0614 35.6814 89.1052 35.8646 89.3281 35.8646H99.1938C99.4618 35.8646 99.5507 35.68 99.4618 35.4503L89.7753 9.32846ZM85.2664 26.3894C84.1053 26.3894 82.9894 26.2048 81.9185 25.8836L85.1693 15.122C85.2582 14.8008 85.3607 14.6627 85.5836 14.6627C85.8066 14.6627 85.9187 14.7543 86.0172 15.122L88.8535 25.823C87.7827 26.1442 86.4261 26.3894 85.2664 26.3894Z" fill="#F6F6F1"/>
<path d="M118.512 9.05653C118.485 9.0509 118.453 9.04808 118.421 9.04808H110.833C110.61 9.04808 110.582 9.22138 110.655 9.36932C112.266 12.6437 111.349 16.3887 110.788 18.2457L107.767 28.2746C107.695 28.5352 107.576 28.7339 107.353 28.7339C107.13 28.7339 107.011 28.5986 106.919 28.2746L101.285 9.37073C101.196 9.09458 101.106 9.04808 100.794 9.04808H93.8411C93.573 9.04808 93.5293 9.23265 93.6182 9.46231L103.303 35.5842C103.392 35.8138 103.437 35.8603 103.66 35.8603H109.18C109.403 35.8603 109.448 35.8138 109.537 35.5842L118.689 9.46231C118.71 9.40454 118.721 9.34959 118.721 9.30028C118.721 9.17629 118.652 9.0833 118.512 9.05653Z" fill="#F6F6F1"/>
<path d="M130.823 8.5C123.156 8.5 117.555 14.5514 117.555 22.4965C117.555 30.4415 122.622 36.493 130.29 36.493C137.958 36.493 143.737 30.4415 143.737 22.4965C143.737 14.5514 138.445 8.5 130.823 8.5ZM130.945 34.2499C127.764 34.2499 124.747 29.4919 124.587 22.984C124.426 16.4775 126.984 10.7416 130.38 10.7416C133.776 10.7416 136.529 16.1421 136.69 22.6486C136.851 29.1552 134.042 34.2485 130.946 34.2485" fill="#F6F6F1"/>
<path d="M8.59046 26.4542C10.1481 31.9787 15.2095 36.035 20.7127 36.1548C22.3661 36.2126 24.1193 35.9421 25.7577 35.3235C25.9286 35.2587 25.9108 35.0009 25.733 34.96C21.1161 33.923 17.1488 30.3598 16.1573 25.4961C15.2465 21.0269 16.5607 16.4549 18.8528 12.6437C19.2288 12.0181 19.6118 11.4151 20.0494 10.8219C20.2135 10.6007 20.3243 10.3964 20.6169 10.4641C20.8904 10.5275 20.9178 10.7811 21.0094 11.1883C21.9312 15.3418 25.8096 18.4613 30.1052 18.5852C30.2515 18.5895 30.3719 18.4655 30.3719 18.3147V9.38482C30.3719 9.20025 30.2269 9.0509 30.0477 9.0509H21.112C15.7224 9.10866 11.1068 12.493 9.11014 17.3059C9.11014 17.3059 7.00681 21.4074 8.59046 26.4542Z" fill="#F6F6F1"/>
<path d="M15.1342 47.4531L12.3651 55.0895H10.7741L8 47.4531H9.59588L11.5298 53.3295H11.6094L13.5384 47.4531H15.1342Z" fill="#F6F6F1"/>
<path d="M15.8312 55.0895V47.4531H17.3178V55.0895H15.8312ZM16.582 46.2749C16.3234 46.2749 16.1014 46.1887 15.9158 46.0163C15.7335 45.8407 15.6423 45.6319 15.6423 45.3899C15.6423 45.1446 15.7335 44.9358 15.9158 44.7635C16.1014 44.5878 16.3234 44.5 16.582 44.5C16.8405 44.5 17.0609 44.5878 17.2432 44.7635C17.4288 44.9358 17.5216 45.1446 17.5216 45.3899C17.5216 45.6319 17.4288 45.8407 17.2432 46.0163C17.0609 46.1887 16.8405 46.2749 16.582 46.2749Z" fill="#F6F6F1"/>
<path d="M18.6176 55.0895V47.4531H20.0544V48.6662H20.1339C20.2731 48.2552 20.5184 47.9321 20.8697 47.6967C21.2243 47.4581 21.6254 47.3388 22.0728 47.3388C22.1656 47.3388 22.275 47.3421 22.401 47.3487C22.5302 47.3554 22.6313 47.3636 22.7042 47.3736V48.7955C22.6446 48.7789 22.5385 48.7607 22.386 48.7408C22.2336 48.7176 22.0811 48.706 21.9287 48.706C21.5773 48.706 21.2641 48.7805 20.989 48.9297C20.7172 49.0755 20.5018 49.2794 20.3427 49.5412C20.1836 49.7997 20.1041 50.0947 20.1041 50.4261V55.0895H18.6176Z" fill="#F6F6F1"/>
<path d="M27.3064 47.4531V48.6463H23.1353V47.4531H27.3064ZM24.2539 45.6236H25.7404V52.8473C25.7404 53.1357 25.7835 53.3527 25.8696 53.4986C25.9558 53.6411 26.0668 53.7389 26.2027 53.7919C26.3419 53.8416 26.4927 53.8665 26.6551 53.8665C26.7745 53.8665 26.8789 53.8582 26.9684 53.8416C27.0578 53.825 27.1274 53.8118 27.1772 53.8018L27.4456 55.0298C27.3595 55.063 27.2368 55.0961 27.0777 55.1293C26.9186 55.1657 26.7198 55.1856 26.4811 55.1889C26.09 55.1955 25.7255 55.1259 25.3874 54.9801C25.0493 54.8343 24.7759 54.6089 24.5671 54.304C24.3583 53.9991 24.2539 53.6162 24.2539 53.1555V45.6236Z" fill="#F6F6F1"/>
<path d="M33.0881 51.9226V47.4531H34.5796V55.0895H33.118V53.767H33.0384C32.8628 54.1747 32.581 54.5144 32.1933 54.7862C31.8088 55.0547 31.3299 55.1889 30.7565 55.1889C30.2659 55.1889 29.8317 55.0812 29.4539 54.8658C29.0794 54.647 28.7844 54.3239 28.569 53.8963C28.3568 53.4688 28.2508 52.9401 28.2508 52.3104V47.4531H29.7373V52.1314C29.7373 52.6518 29.8815 53.0661 30.1698 53.3743C30.4582 53.6825 30.8327 53.8366 31.2934 53.8366C31.5718 53.8366 31.8486 53.767 32.1237 53.6278C32.4021 53.4886 32.6324 53.2782 32.8147 52.9964C33.0003 52.7147 33.0915 52.3568 33.0881 51.9226Z" fill="#F6F6F1"/>
<path d="M38.0993 55.2585C37.6154 55.2585 37.1779 55.169 36.7868 54.9901C36.3957 54.8078 36.0858 54.5443 35.8571 54.1996C35.6317 53.8549 35.519 53.4323 35.519 52.9318C35.519 52.5009 35.6019 52.1463 35.7676 51.8679C35.9333 51.5895 36.157 51.3691 36.4387 51.2067C36.7205 51.0443 37.0353 50.9216 37.3833 50.8388C37.7314 50.7559 38.086 50.6929 38.4473 50.6499C38.9047 50.5968 39.2759 50.5537 39.5609 50.5206C39.8459 50.4841 40.0531 50.4261 40.1824 50.3466C40.3116 50.267 40.3762 50.1378 40.3762 49.9588V49.924C40.3762 49.4898 40.2536 49.1534 40.0083 48.9148C39.7664 48.6761 39.4051 48.5568 38.9245 48.5568C38.4241 48.5568 38.0297 48.6679 37.7413 48.8899C37.4563 49.1087 37.2591 49.3523 37.1497 49.6207L35.7527 49.3026C35.9184 48.8385 36.1603 48.464 36.4785 48.179C36.8 47.8906 37.1696 47.6818 37.5872 47.5526C38.0048 47.42 38.444 47.3537 38.9047 47.3537C39.2096 47.3537 39.5327 47.3902 39.8741 47.4631C40.2188 47.5327 40.5403 47.6619 40.8386 47.8509C41.1402 48.0398 41.3871 48.3099 41.5794 48.6612C41.7716 49.0092 41.8677 49.4616 41.8677 50.0185V55.0895H40.416V54.0455H40.3564C40.2602 54.2377 40.1161 54.4266 39.9238 54.6122C39.7316 54.7978 39.4847 54.9519 39.1831 55.0746C38.8815 55.1972 38.5202 55.2585 38.0993 55.2585ZM38.4224 54.0653C38.8334 54.0653 39.1847 53.9841 39.4764 53.8217C39.7714 53.6593 39.9951 53.4472 40.1475 53.1854C40.3033 52.9202 40.3812 52.6368 40.3812 52.3352V51.3509C40.3282 51.4039 40.2254 51.4536 40.073 51.5C39.9238 51.5431 39.7531 51.5812 39.5609 51.6143C39.3687 51.6442 39.1814 51.6723 38.9991 51.6989C38.8168 51.7221 38.6644 51.742 38.5417 51.7585C38.2534 51.795 37.9899 51.8563 37.7512 51.9425C37.5159 52.0286 37.327 52.1529 37.1845 52.3153C37.0453 52.4744 36.9757 52.6866 36.9757 52.9517C36.9757 53.3196 37.1116 53.598 37.3833 53.7869C37.6551 53.9725 38.0015 54.0653 38.4224 54.0653Z" fill="#F6F6F1"/>
<path d="M44.6342 44.9077V55.0895H43.1477V44.9077H44.6342Z" fill="#F6F6F1"/>
<path d="M52.5037 47.4531V48.6463H48.3325V47.4531H52.5037ZM49.4511 45.6236H50.9376V52.8473C50.9376 53.1357 50.9807 53.3527 51.0669 53.4986C51.1531 53.6411 51.2641 53.7389 51.4 53.7919C51.5392 53.8416 51.69 53.8665 51.8524 53.8665C51.9717 53.8665 52.0761 53.8582 52.1656 53.8416C52.2551 53.825 52.3247 53.8118 52.3744 53.8018L52.6429 55.0298C52.5567 55.063 52.4341 55.0961 52.275 55.1293C52.1159 55.1657 51.917 55.1856 51.6784 55.1889C51.2873 55.1955 50.9227 55.1259 50.5847 54.9801C50.2466 54.8343 49.9732 54.6089 49.7643 54.304C49.5555 53.9991 49.4511 53.6162 49.4511 53.1555V45.6236Z" fill="#F6F6F1"/>
<path d="M56.5826 55.2436C55.8667 55.2436 55.242 55.0795 54.7083 54.7514C54.1747 54.4233 53.7604 53.9643 53.4654 53.3743C53.1705 52.7843 53.023 52.0949 53.023 51.3061C53.023 50.514 53.1705 49.8213 53.4654 49.228C53.7604 48.6347 54.1747 48.174 54.7083 47.8459C55.242 47.5178 55.8667 47.3537 56.5826 47.3537C57.2985 47.3537 57.9233 47.5178 58.4569 47.8459C58.9905 48.174 59.4048 48.6347 59.6998 49.228C59.9948 49.8213 60.1423 50.514 60.1423 51.3061C60.1423 52.0949 59.9948 52.7843 59.6998 53.3743C59.4048 53.9643 58.9905 54.4233 58.4569 54.7514C57.9233 55.0795 57.2985 55.2436 56.5826 55.2436ZM56.5876 53.9957C57.0516 53.9957 57.4361 53.8731 57.741 53.6278C58.0459 53.3826 58.2713 53.0561 58.4172 52.6484C58.5663 52.2408 58.6409 51.7917 58.6409 51.3011C58.6409 50.8139 58.5663 50.3665 58.4172 49.9588C58.2713 49.5478 58.0459 49.218 57.741 48.9695C57.4361 48.7209 57.0516 48.5966 56.5876 48.5966C56.1203 48.5966 55.7325 48.7209 55.4243 48.9695C55.1193 49.218 54.8923 49.5478 54.7431 49.9588C54.5973 50.3665 54.5244 50.8139 54.5244 51.3011C54.5244 51.7917 54.5973 52.2408 54.7431 52.6484C54.8923 53.0561 55.1193 53.3826 55.4243 53.6278C55.7325 53.8731 56.1203 53.9957 56.5876 53.9957Z" fill="#F6F6F1"/>
<path d="M64.3182 55.2436C63.6023 55.2436 62.9775 55.0795 62.4439 54.7514C61.9103 54.4233 61.496 53.9643 61.201 53.3743C60.906 52.7843 60.7585 52.0949 60.7585 51.3061C60.7585 50.514 60.906 49.8213 61.201 49.228C61.496 48.6347 61.9103 48.174 62.4439 47.8459C62.9775 47.5178 63.6023 47.3537 64.3182 47.3537C65.0341 47.3537 65.6589 47.5178 66.1925 47.8459C66.7261 48.174 67.1404 48.6347 67.4354 49.228C67.7304 49.8213 67.8778 50.514 67.8778 51.3061C67.8778 52.0949 67.7304 52.7843 67.4354 53.3743C67.1404 53.9643 66.7261 54.4233 66.1925 54.7514C65.6589 55.0795 65.0341 55.2436 64.3182 55.2436ZM64.3232 53.9957C64.7872 53.9957 65.1716 53.8731 65.4766 53.6278C65.7815 53.3826 66.0069 53.0561 66.1527 52.6484C66.3018 52.2408 66.3764 51.7917 66.3764 51.3011C66.3764 50.8139 66.3018 50.3665 66.1527 49.9588C66.0069 49.5478 65.7815 49.218 65.4766 48.9695C65.1716 48.7209 64.7872 48.5966 64.3232 48.5966C63.8558 48.5966 63.468 48.7209 63.1598 48.9695C62.8549 49.218 62.6278 49.5478 62.4787 49.9588C62.3329 50.3665 62.2599 50.8139 62.2599 51.3011C62.2599 51.7917 62.3329 52.2408 62.4787 52.6484C62.6278 53.0561 62.8549 53.3826 63.1598 53.6278C63.468 53.8731 63.8558 53.9957 64.3232 53.9957Z" fill="#F6F6F1"/>
<path d="M70.3236 44.9077V55.0895H68.8371V44.9077H70.3236Z" fill="#F6F6F1"/>
<path d="M77.3457 49.3175L75.9984 49.5561C75.9421 49.3838 75.8526 49.2197 75.73 49.0639C75.6107 48.9081 75.4482 48.7805 75.2428 48.6811C75.0373 48.5817 74.7804 48.532 74.4722 48.532C74.0512 48.532 73.6999 48.6264 73.4182 48.8153C73.1365 49.0009 72.9956 49.2412 72.9956 49.5362C72.9956 49.7914 73.0901 49.9969 73.279 50.1527C73.4679 50.3085 73.7728 50.4361 74.1937 50.5355L75.4068 50.8139C76.1095 50.9763 76.6331 51.2266 76.9778 51.5646C77.3225 51.9027 77.4949 52.3419 77.4949 52.8821C77.4949 53.3395 77.3623 53.7472 77.0972 54.1051C76.8353 54.4598 76.4691 54.7382 75.9984 54.9403C75.5311 55.1425 74.9892 55.2436 74.3727 55.2436C73.5176 55.2436 72.8199 55.0613 72.2797 54.6967C71.7394 54.3288 71.408 53.8068 71.2854 53.1307L72.7222 52.9119C72.8116 53.2865 72.9956 53.5698 73.274 53.7621C73.5524 53.951 73.9153 54.0455 74.3628 54.0455C74.85 54.0455 75.2394 53.9444 75.5311 53.7422C75.8228 53.5367 75.9686 53.2865 75.9686 52.9915C75.9686 52.7528 75.8791 52.5523 75.7001 52.3899C75.5245 52.2275 75.2544 52.1049 74.8898 52.022L73.5972 51.7386C72.8846 51.5762 72.3576 51.3177 72.0162 50.9631C71.6781 50.6084 71.5091 50.1593 71.5091 49.6158C71.5091 49.165 71.635 48.7706 71.8869 48.4325C72.1388 48.0945 72.4868 47.831 72.931 47.642C73.3751 47.4498 73.8839 47.3537 74.4572 47.3537C75.2825 47.3537 75.9321 47.5327 76.4061 47.8906C76.8801 48.2453 77.1933 48.7209 77.3457 49.3175Z" fill="#F6F6F1"/>
</svg>
