<svg viewBox="0 0 110 47" fill="none" xmlns="http://www.w3.org/2000/svg">
<path d="M48.351 13.21L45.6821 12.3535C43.3432 11.5957 42.3872 10.7393 42.3872 9.15722C42.3872 7.97069 43.2104 6.95021 44.562 6.95021C46.4399 6.95021 47.7583 8.6963 49.5698 12.1563C49.6352 12.2881 49.7016 12.3213 49.8335 12.2217L53.1938 9.19043C53.2924 9.12502 53.2924 9.0586 53.227 8.95997C51.4809 6.88379 49.0756 5.5 45.7153 5.5C41.0366 5.5 38.8618 8.49804 38.8618 11.3642C38.8618 14.2304 40.9048 16.0762 43.6723 16.998L46.6704 17.9863C49.4047 18.8759 50.1958 19.9306 50.1958 21.3798C50.1958 22.829 49.2407 23.8183 47.6919 23.8183C45.7153 23.8183 44.1997 22.2695 42.0581 18.0527C41.9917 17.9541 41.9262 17.9209 41.8276 17.9873L38.3324 20.8324C38.2338 20.8978 38.2006 21.0296 38.267 21.1292C40.3432 23.5677 42.8984 25.5 46.7368 25.5C51.1186 25.5 53.6557 22.8311 53.7544 19.4043C53.8198 15.9121 51.6128 14.2647 48.351 13.21Z" fill="#F6F6F1"/>
<path d="M31.2998 6.09176C31.2343 5.92772 31.1679 5.89451 31.0039 5.89451H27.0619C26.8978 5.89451 26.8324 5.92772 26.766 6.09176L19.6377 24.7502C19.5723 24.9143 19.6377 25.0461 19.835 25.0461H25.3208C25.4848 25.0461 25.518 24.9143 25.4516 24.8167C25.0571 24.1273 24.4332 22.6489 24.8277 20.9733C25.8129 21.2359 26.8968 21.3678 27.9817 21.3678C29.1642 21.3678 30.3699 21.2067 31.4537 20.8776C32.0123 22.5855 31.2333 24.1263 30.8398 24.8167C30.7744 24.9153 30.8066 25.0461 30.9707 25.0461H38.2308C38.428 25.0461 38.4934 24.9143 38.428 24.7502L31.2998 6.09176ZM27.9817 18.2781C27.1273 18.2781 26.3061 18.1463 25.518 17.9168L27.9102 10.23C27.9757 10.0006 28.0511 9.90195 28.2152 9.90195C28.3792 9.90195 28.4617 9.96737 28.5342 10.23L30.6215 17.8736C29.8335 18.103 28.8351 18.2781 27.9817 18.2781Z" fill="#F6F6F1"/>
<path d="M65.1779 6.09176C65.1125 5.92772 65.0461 5.89451 64.882 5.89451H60.94C60.7759 5.89451 60.7105 5.92772 60.6441 6.09176L53.5158 24.7502C53.4504 24.9143 53.5158 25.0461 53.7131 25.0461H59.1989C59.363 25.0461 59.3962 24.9143 59.3298 24.8167C58.9352 24.1273 58.3113 22.6489 58.7058 20.9733C59.6911 21.2359 60.7749 21.3678 61.8598 21.3678C63.0423 21.3678 64.248 21.2067 65.3319 20.8776C65.8904 22.5855 65.1115 24.1263 64.718 24.8167C64.6526 24.9153 64.6848 25.0461 64.8488 25.0461H72.1089C72.3062 25.0461 72.3716 24.9143 72.3062 24.7502L65.1779 6.09176ZM61.8598 18.2781C61.0054 18.2781 60.1842 18.1463 59.3962 17.9168L61.7884 10.23C61.8538 10.0006 61.9293 9.90195 62.0933 9.90195C62.2573 9.90195 62.3399 9.96737 62.4123 10.23L64.4996 17.8736C63.7116 18.103 62.7132 18.2781 61.8598 18.2781Z" fill="#F6F6F1"/>
<path d="M86.3252 5.89752C86.3051 5.8935 86.2819 5.89149 86.2578 5.89149H80.6743C80.5102 5.89149 80.4891 6.01527 80.5435 6.12094C81.729 8.45979 81.0537 11.1348 80.6411 12.4612L78.418 19.6247C78.3646 19.8109 78.2771 19.9528 78.113 19.9528C77.949 19.9528 77.8614 19.8562 77.794 19.6247L73.6477 6.12195C73.5823 5.9247 73.5158 5.89149 73.2864 5.89149H68.1699C67.9726 5.89149 67.9404 6.02332 68.0058 6.18736L75.1331 24.8458C75.1985 25.0099 75.2317 25.0431 75.3958 25.0431H79.4576C79.6216 25.0431 79.6548 25.0099 79.7202 24.8458L86.455 6.18736C86.4711 6.1461 86.4792 6.10685 86.4792 6.07163C86.4792 5.98307 86.4278 5.91665 86.3252 5.89752Z" fill="#F6F6F1"/>
<path d="M95.3847 5.5C89.7429 5.5 85.6207 9.82245 85.6207 15.4975C85.6207 21.1725 89.3494 25.495 94.9922 25.495C100.635 25.495 104.888 21.1725 104.888 15.4975C104.888 9.82245 100.993 5.5 95.3847 5.5ZM95.4743 23.8928C93.1334 23.8928 90.9133 20.4942 90.7956 15.8457C90.6768 11.1982 92.5598 7.10117 95.0586 7.10117C97.5575 7.10117 99.5834 10.9587 99.7021 15.6062C99.8209 20.2537 97.7538 23.8918 95.4753 23.8918" fill="#F6F6F1"/>
<path d="M5.43452 18.3244C6.5808 22.2705 10.3054 25.1679 14.3552 25.2534C15.5719 25.2947 16.8621 25.1015 18.0677 24.6597C18.1935 24.6134 18.1805 24.4292 18.0496 24.4C14.6521 23.6593 11.7325 21.1142 11.0029 17.6401C10.3326 14.4478 11.2998 11.1821 12.9865 8.45979C13.2632 8.01296 13.545 7.58222 13.8671 7.15853C13.9878 7.00053 14.0694 6.8546 14.2847 6.90291C14.486 6.9482 14.5061 7.12935 14.5736 7.42019C15.2519 10.387 18.106 12.6152 21.2671 12.7037C21.3747 12.7068 21.4633 12.6182 21.4633 12.5105V6.13201C21.4633 6.00018 21.3566 5.8935 21.2248 5.8935H14.649C10.6828 5.93476 7.28628 8.35211 5.81695 11.7899C5.81695 11.7899 4.26912 14.7195 5.43452 18.3244Z" fill="#F6F6F1"/>
<path d="M11.1151 33.0312L8.74148 39.5767H7.37784L5 33.0312H6.3679L8.02557 38.0682H8.09375L9.74716 33.0312H11.1151Z" fill="#F6F6F1"/>
<path d="M11.7125 39.5767V33.0312H12.9866V39.5767H11.7125ZM12.356 32.0213C12.1344 32.0213 11.944 31.9474 11.7849 31.7997C11.6287 31.6491 11.5506 31.4702 11.5506 31.2628C11.5506 31.0526 11.6287 30.8736 11.7849 30.7259C11.944 30.5753 12.1344 30.5 12.356 30.5C12.5776 30.5 12.7665 30.5753 12.9227 30.7259C13.0818 30.8736 13.1614 31.0526 13.1614 31.2628C13.1614 31.4702 13.0818 31.6491 12.9227 31.7997C12.7665 31.9474 12.5776 32.0213 12.356 32.0213Z" fill="#F6F6F1"/>
<path d="M14.1008 39.5767V33.0312H15.3323V34.071H15.4005C15.5198 33.7188 15.73 33.4418 16.0312 33.2401C16.3352 33.0355 16.6789 32.9332 17.0624 32.9332C17.142 32.9332 17.2357 32.9361 17.3437 32.9418C17.4545 32.9474 17.5411 32.9545 17.6036 32.9631V34.1818C17.5525 34.1676 17.4616 34.152 17.3309 34.1349C17.2002 34.1151 17.0695 34.1051 16.9388 34.1051C16.6377 34.1051 16.3692 34.169 16.1335 34.2969C15.9005 34.4219 15.7158 34.5966 15.5795 34.821C15.4431 35.0426 15.3749 35.2955 15.3749 35.5795V39.5767H14.1008Z" fill="#F6F6F1"/>
<path d="M21.5484 33.0312V34.054H17.9731V33.0312H21.5484ZM18.9319 31.4631H20.206V37.6548C20.206 37.902 20.243 38.0881 20.3168 38.2131C20.3907 38.3352 20.4859 38.419 20.6023 38.4645C20.7217 38.5071 20.8509 38.5284 20.9901 38.5284C21.0924 38.5284 21.1819 38.5213 21.2586 38.5071C21.3353 38.4929 21.395 38.4815 21.4376 38.473L21.6677 39.5256C21.5938 39.554 21.4887 39.5824 21.3523 39.6108C21.216 39.642 21.0455 39.6591 20.841 39.6619C20.5058 39.6676 20.1933 39.608 19.9035 39.483C19.6137 39.358 19.3793 39.1648 19.2004 38.9034C19.0214 38.642 18.9319 38.3139 18.9319 37.919V31.4631Z" fill="#F6F6F1"/>
<path d="M26.5041 36.8622V33.0312H27.7825V39.5767H26.5297V38.4432H26.4615C26.3109 38.7926 26.0695 39.0838 25.7371 39.3168C25.4075 39.5469 24.997 39.6619 24.5055 39.6619C24.0851 39.6619 23.7129 39.5696 23.3891 39.3849C23.068 39.1974 22.8152 38.9205 22.6305 38.554C22.4487 38.1875 22.3578 37.7344 22.3578 37.1946V33.0312H23.632V37.0412C23.632 37.4872 23.7555 37.8423 24.0027 38.1065C24.2499 38.3707 24.5709 38.5028 24.9658 38.5028C25.2044 38.5028 25.4416 38.4432 25.6774 38.3239C25.916 38.2045 26.1135 38.0241 26.2697 37.7827C26.4288 37.5412 26.507 37.2344 26.5041 36.8622Z" fill="#F6F6F1"/>
<path d="M30.7994 39.7216C30.3846 39.7216 30.0096 39.6449 29.6744 39.4915C29.3391 39.3352 29.0735 39.1094 28.8775 38.8139C28.6843 38.5185 28.5877 38.1563 28.5877 37.7273C28.5877 37.358 28.6587 37.054 28.8008 36.8153C28.9428 36.5767 29.1346 36.3878 29.3761 36.2486C29.6175 36.1094 29.8874 36.0043 30.1857 35.9332C30.484 35.8622 30.788 35.8082 31.0977 35.7713C31.4897 35.7259 31.8079 35.6889 32.0522 35.6605C32.2965 35.6293 32.4741 35.5795 32.5849 35.5114C32.6957 35.4432 32.7511 35.3324 32.7511 35.179V35.1491C32.7511 34.777 32.646 34.4886 32.4357 34.2841C32.2283 34.0795 31.9187 33.9773 31.5067 33.9773C31.0778 33.9773 30.7397 34.0724 30.4925 34.2628C30.2482 34.4503 30.0792 34.6591 29.9854 34.8892L28.788 34.6165C28.93 34.2187 29.1374 33.8977 29.4102 33.6534C29.6857 33.4062 30.0025 33.2273 30.3604 33.1165C30.7184 33.0028 31.0948 32.946 31.4897 32.946C31.7511 32.946 32.0281 32.9773 32.3207 33.0398C32.6161 33.0994 32.8917 33.2102 33.1474 33.3722C33.4059 33.5341 33.6175 33.7656 33.7823 34.0668C33.9471 34.3651 34.0295 34.7528 34.0295 35.2301V39.5767H32.7852V38.6818H32.734C32.6516 38.8466 32.5281 39.0085 32.3633 39.1676C32.1985 39.3267 31.9869 39.4588 31.7283 39.5639C31.4698 39.669 31.1602 39.7216 30.7994 39.7216ZM31.0763 38.6989C31.4286 38.6989 31.7298 38.6293 31.9798 38.4901C32.2326 38.3509 32.4244 38.169 32.555 37.9446C32.6886 37.7173 32.7553 37.4744 32.7553 37.2159V36.3722C32.7099 36.4176 32.6218 36.4602 32.4911 36.5C32.3633 36.5369 32.217 36.5696 32.0522 36.598C31.8874 36.6236 31.7269 36.6477 31.5707 36.6705C31.4144 36.6903 31.2837 36.7074 31.1786 36.7216C30.9315 36.7528 30.7056 36.8054 30.5011 36.8793C30.2994 36.9531 30.1374 37.0597 30.0153 37.1989C29.896 37.3352 29.8363 37.517 29.8363 37.7443C29.8363 38.0597 29.9528 38.2983 30.1857 38.4602C30.4187 38.6193 30.7156 38.6989 31.0763 38.6989Z" fill="#F6F6F1"/>
<path d="M36.4007 30.8494V39.5767H35.1266V30.8494H36.4007Z" fill="#F6F6F1"/>
<path d="M43.146 33.0312V34.054H39.5707V33.0312H43.146ZM40.5295 31.4631H41.8037V37.6548C41.8037 37.902 41.8406 38.0881 41.9145 38.2131C41.9884 38.3352 42.0835 38.419 42.2 38.4645C42.3193 38.5071 42.4486 38.5284 42.5878 38.5284C42.6901 38.5284 42.7795 38.5213 42.8563 38.5071C42.933 38.4929 42.9926 38.4815 43.0352 38.473L43.2653 39.5256C43.1915 39.554 43.0864 39.5824 42.95 39.6108C42.8136 39.642 42.6432 39.6591 42.4386 39.6619C42.1034 39.6676 41.7909 39.608 41.5011 39.483C41.2114 39.358 40.977 39.1648 40.798 38.9034C40.619 38.642 40.5295 38.3139 40.5295 37.919V31.4631Z" fill="#F6F6F1"/>
<path d="M46.6423 39.7088C46.0286 39.7088 45.4931 39.5682 45.0357 39.2869C44.5783 39.0057 44.2232 38.6122 43.9704 38.1065C43.7175 37.6009 43.5911 37.0099 43.5911 36.3338C43.5911 35.6548 43.7175 35.0611 43.9704 34.5526C44.2232 34.044 44.5783 33.6491 45.0357 33.3679C45.4931 33.0866 46.0286 32.946 46.6423 32.946C47.2559 32.946 47.7914 33.0866 48.2488 33.3679C48.7062 33.6491 49.0613 34.044 49.3141 34.5526C49.567 35.0611 49.6934 35.6548 49.6934 36.3338C49.6934 37.0099 49.567 37.6009 49.3141 38.1065C49.0613 38.6122 48.7062 39.0057 48.2488 39.2869C47.7914 39.5682 47.2559 39.7088 46.6423 39.7088ZM46.6465 38.6392C47.0442 38.6392 47.3738 38.5341 47.6352 38.3239C47.8965 38.1136 48.0897 37.8338 48.2147 37.4844C48.3425 37.1349 48.4065 36.75 48.4065 36.3295C48.4065 35.9119 48.3425 35.5284 48.2147 35.179C48.0897 34.8267 47.8965 34.544 47.6352 34.331C47.3738 34.1179 47.0442 34.0114 46.6465 34.0114C46.2459 34.0114 45.9136 34.1179 45.6494 34.331C45.388 34.544 45.1934 34.8267 45.0656 35.179C44.9406 35.5284 44.8781 35.9119 44.8781 36.3295C44.8781 36.75 44.9406 37.1349 45.0656 37.4844C45.1934 37.8338 45.388 38.1136 45.6494 38.3239C45.9136 38.5341 46.2459 38.6392 46.6465 38.6392Z" fill="#F6F6F1"/>
<path d="M53.2727 39.7088C52.6591 39.7088 52.1236 39.5682 51.6662 39.2869C51.2088 39.0057 50.8537 38.6122 50.6009 38.1065C50.348 37.6009 50.2216 37.0099 50.2216 36.3338C50.2216 35.6548 50.348 35.0611 50.6009 34.5526C50.8537 34.044 51.2088 33.6491 51.6662 33.3679C52.1236 33.0866 52.6591 32.946 53.2727 32.946C53.8864 32.946 54.4219 33.0866 54.8793 33.3679C55.3366 33.6491 55.6918 34.044 55.9446 34.5526C56.1974 35.0611 56.3239 35.6548 56.3239 36.3338C56.3239 37.0099 56.1974 37.6009 55.9446 38.1065C55.6918 38.6122 55.3366 39.0057 54.8793 39.2869C54.4219 39.5682 53.8864 39.7088 53.2727 39.7088ZM53.277 38.6392C53.6747 38.6392 54.0043 38.5341 54.2656 38.3239C54.527 38.1136 54.7202 37.8338 54.8452 37.4844C54.973 37.1349 55.0369 36.75 55.0369 36.3295C55.0369 35.9119 54.973 35.5284 54.8452 35.179C54.7202 34.8267 54.527 34.544 54.2656 34.331C54.0043 34.1179 53.6747 34.0114 53.277 34.0114C52.8764 34.0114 52.544 34.1179 52.2798 34.331C52.0185 34.544 51.8239 34.8267 51.696 35.179C51.571 35.5284 51.5085 35.9119 51.5085 36.3295C51.5085 36.75 51.571 37.1349 51.696 37.4844C51.8239 37.8338 52.0185 38.1136 52.2798 38.3239C52.544 38.5341 52.8764 38.6392 53.277 38.6392Z" fill="#F6F6F1"/>
<path d="M58.4202 30.8494V39.5767H57.1461V30.8494H58.4202Z" fill="#F6F6F1"/>
<path d="M64.4392 34.6293L63.2844 34.8338C63.2361 34.6861 63.1594 34.5455 63.0543 34.4119C62.952 34.2784 62.8128 34.169 62.6367 34.0838C62.4605 33.9986 62.2403 33.956 61.9761 33.956C61.6153 33.956 61.3142 34.0369 61.0727 34.1989C60.8312 34.358 60.7105 34.5639 60.7105 34.8168C60.7105 35.0355 60.7915 35.2116 60.9534 35.3452C61.1153 35.4787 61.3767 35.5881 61.7375 35.6733L62.7773 35.9119C63.3795 36.0511 63.8284 36.2656 64.1239 36.5554C64.4193 36.8452 64.567 37.2216 64.567 37.6847C64.567 38.0767 64.4534 38.4261 64.2261 38.733C64.0017 39.0369 63.6878 39.2756 63.2844 39.4489C62.8838 39.6222 62.4193 39.7088 61.8909 39.7088C61.158 39.7088 60.5599 39.5526 60.0969 39.2401C59.6338 38.9247 59.3497 38.4773 59.2446 37.8977L60.4761 37.7102C60.5528 38.0313 60.7105 38.2741 60.9491 38.4389C61.1878 38.6009 61.4989 38.6818 61.8824 38.6818C62.3 38.6818 62.6338 38.5952 62.8838 38.4219C63.1338 38.2457 63.2588 38.0313 63.2588 37.7784C63.2588 37.5739 63.1821 37.402 63.0287 37.2628C62.8781 37.1236 62.6466 37.0185 62.3341 36.9474L61.2261 36.7045C60.6153 36.5653 60.1636 36.3438 59.871 36.0398C59.5812 35.7358 59.4364 35.3509 59.4364 34.8849C59.4364 34.4986 59.5443 34.1605 59.7602 33.8707C59.9761 33.581 60.2744 33.3551 60.6551 33.1932C61.0358 33.0284 61.4719 32.946 61.9634 32.946C62.6707 32.946 63.2276 33.0994 63.6338 33.4062C64.0401 33.7102 64.3085 34.1179 64.4392 34.6293Z" fill="#F6F6F1"/>
</svg>
