<svg width="110" height="30" viewBox="0 0 110 30" fill="none" xmlns="http://www.w3.org/2000/svg">
<path d="M48.351 12.71L45.6821 11.8535C43.3432 11.0957 42.3872 10.2393 42.3872 8.65722C42.3872 7.47069 43.2104 6.45021 44.562 6.45021C46.4399 6.45021 47.7583 8.1963 49.5698 11.6563C49.6352 11.7881 49.7016 11.8213 49.8334 11.7217L53.1938 8.69043C53.2924 8.62502 53.2924 8.5586 53.227 8.45997C51.4809 6.38379 49.0756 5 45.7153 5C41.0366 5 38.8618 7.99804 38.8618 10.8642C38.8618 13.7304 40.9048 15.5762 43.6723 16.498L46.6704 17.4863C49.4047 18.3759 50.1957 19.4306 50.1957 20.8798C50.1957 22.329 49.2407 23.3183 47.6918 23.3183C45.7153 23.3183 44.1997 21.7695 42.0581 17.5527C41.9917 17.4541 41.9262 17.4209 41.8276 17.4873L38.3324 20.3324C38.2338 20.3978 38.2006 20.5296 38.267 20.6292C40.3432 23.0677 42.8984 25 46.7368 25C51.1186 25 53.6557 22.3311 53.7544 18.9043C53.8198 15.4121 51.6127 13.7647 48.351 12.71Z" fill="#F6F6F1"/>
<path d="M31.2998 5.59176C31.2343 5.42772 31.1679 5.39451 31.0039 5.39451H27.0619C26.8978 5.39451 26.8324 5.42772 26.766 5.59176L19.6377 24.2502C19.5723 24.4143 19.6377 24.5461 19.835 24.5461H25.3208C25.4848 24.5461 25.518 24.4143 25.4516 24.3167C25.0571 23.6273 24.4332 22.1489 24.8277 20.4733C25.8129 20.7359 26.8968 20.8678 27.9817 20.8678C29.1642 20.8678 30.3699 20.7067 31.4537 20.3776C32.0123 22.0855 31.2333 23.6263 30.8398 24.3167C30.7744 24.4153 30.8066 24.5461 30.9707 24.5461H38.2308C38.428 24.5461 38.4934 24.4143 38.428 24.2502L31.2998 5.59176ZM27.9817 17.7781C27.1273 17.7781 26.3061 17.6463 25.518 17.4168L27.9102 9.73004C27.9757 9.50058 28.0511 9.40195 28.2152 9.40195C28.3792 9.40195 28.4617 9.46737 28.5342 9.73004L30.6215 17.3736C29.8335 17.603 28.8351 17.7781 27.9817 17.7781Z" fill="#F6F6F1"/>
<path d="M65.1779 5.59176C65.1125 5.42772 65.0461 5.39451 64.882 5.39451H60.94C60.7759 5.39451 60.7105 5.42772 60.6441 5.59176L53.5158 24.2502C53.4504 24.4143 53.5158 24.5461 53.7131 24.5461H59.1989C59.363 24.5461 59.3962 24.4143 59.3298 24.3167C58.9352 23.6273 58.3113 22.1489 58.7058 20.4733C59.6911 20.7359 60.7749 20.8678 61.8598 20.8678C63.0423 20.8678 64.248 20.7067 65.3319 20.3776C65.8904 22.0855 65.1115 23.6263 64.718 24.3167C64.6526 24.4153 64.6848 24.5461 64.8488 24.5461H72.1089C72.3062 24.5461 72.3716 24.4143 72.3062 24.2502L65.1779 5.59176ZM61.8598 17.7781C61.0054 17.7781 60.1842 17.6463 59.3962 17.4168L61.7884 9.73004C61.8538 9.50058 61.9293 9.40195 62.0933 9.40195C62.2573 9.40195 62.3399 9.46737 62.4123 9.73004L64.4996 17.3736C63.7116 17.603 62.7132 17.7781 61.8598 17.7781Z" fill="#F6F6F1"/>
<path d="M86.3252 5.39752C86.305 5.3935 86.2819 5.39149 86.2577 5.39149H80.6743C80.5102 5.39149 80.4891 5.51527 80.5435 5.62094C81.729 7.95979 81.0537 10.6348 80.6411 11.9612L78.418 19.1247C78.3646 19.3109 78.2771 19.4528 78.113 19.4528C77.949 19.4528 77.8614 19.3562 77.794 19.1247L73.6477 5.62195C73.5823 5.4247 73.5158 5.39149 73.2864 5.39149H68.1699C67.9726 5.39149 67.9404 5.52332 68.0058 5.68736L75.1331 24.3458C75.1985 24.5099 75.2317 24.5431 75.3958 24.5431H79.4576C79.6216 24.5431 79.6548 24.5099 79.7202 24.3458L86.455 5.68736C86.4711 5.6461 86.4791 5.60685 86.4791 5.57163C86.4791 5.48307 86.4278 5.41665 86.3252 5.39752Z" fill="#F6F6F1"/>
<path d="M95.3847 5C89.7429 5 85.6207 9.32245 85.6207 14.9975C85.6207 20.6725 89.3494 24.995 94.9922 24.995C100.635 24.995 104.888 20.6725 104.888 14.9975C104.888 9.32245 100.993 5 95.3847 5ZM95.4743 23.3928C93.1334 23.3928 90.9133 19.9942 90.7956 15.3457C90.6768 10.6982 92.5598 6.60117 95.0586 6.60117C97.5575 6.60117 99.5834 10.4587 99.7021 15.1062C99.8209 19.7537 97.7537 23.3918 95.4753 23.3918" fill="#F6F6F1"/>
<path d="M5.43452 17.8244C6.5808 21.7705 10.3054 24.6679 14.3552 24.7534C15.5719 24.7947 16.8621 24.6015 18.0677 24.1597C18.1935 24.1134 18.1805 23.9292 18.0496 23.9C14.652 23.1593 11.7325 20.6142 11.0029 17.1401C10.3326 13.9478 11.2998 10.6821 12.9865 7.95979C13.2632 7.51296 13.545 7.08222 13.8671 6.65853C13.9878 6.50053 14.0694 6.3546 14.2847 6.40291C14.486 6.4482 14.5061 6.62935 14.5736 6.92019C15.2519 9.88703 18.106 12.1152 21.2671 12.2037C21.3747 12.2068 21.4633 12.1182 21.4633 12.0105V5.63201C21.4633 5.50018 21.3566 5.3935 21.2248 5.3935H14.649C10.6828 5.43476 7.28628 7.85211 5.81695 11.2899C5.81695 11.2899 4.26912 14.2195 5.43452 17.8244Z" fill="#F6F6F1"/>
</svg>
