<svg width="176" height="48" viewBox="0 0 176 48" fill="none" xmlns="http://www.w3.org/2000/svg">
<path d="M77.3617 20.3359L73.0913 18.9656C69.3492 17.7531 67.8195 16.3828 67.8195 13.8516C67.8195 11.9531 69.1366 10.3203 71.2992 10.3203C74.3038 10.3203 76.4132 13.1141 79.3116 18.65C79.4163 18.861 79.5226 18.9141 79.7335 18.7547L85.1101 13.9047C85.2679 13.8 85.2679 13.6938 85.1632 13.536C82.3695 10.2141 78.521 8 73.1445 8C65.6585 8 62.1788 12.7969 62.1788 17.3828C62.1788 21.9687 65.4476 24.9219 69.8757 26.3968L74.6726 27.9781C79.0476 29.4015 80.3132 31.089 80.3132 33.4077C80.3132 35.7265 78.7851 37.3093 76.307 37.3093C73.1445 37.3093 70.7195 34.8312 67.2929 28.0843C67.1866 27.9265 67.082 27.8734 66.9242 27.9797L61.3319 32.5318C61.1741 32.6364 61.1209 32.8474 61.2272 33.0068C64.5491 36.9084 68.6375 40 74.7789 40C81.7898 40 85.8492 35.7297 86.007 30.2469C86.1116 24.6594 82.5804 22.0234 77.3617 20.3359Z" fill="#1D1D1B"/>
<path d="M50.0796 8.94681C49.975 8.68435 49.8687 8.63121 49.6062 8.63121H43.299C43.0365 8.63121 42.9318 8.68435 42.8256 8.94681L31.4203 38.8004C31.3157 39.0629 31.4203 39.2738 31.7359 39.2738H40.5133C40.7757 39.2738 40.8289 39.0629 40.7226 38.9067C40.0914 37.8037 39.0931 35.4382 39.7243 32.7572C41.3007 33.1775 43.0349 33.3884 44.7707 33.3884C46.6627 33.3884 48.5918 33.1308 50.326 32.6042C51.2197 35.3368 49.9733 37.802 49.3437 38.9067C49.2391 39.0645 49.2906 39.2738 49.5531 39.2738H61.1692C61.4848 39.2738 61.5895 39.0629 61.4848 38.8004L50.0796 8.94681ZM44.7707 28.445C43.4036 28.445 42.0897 28.2341 40.8289 27.867L44.6564 15.5681C44.761 15.2009 44.8818 15.0431 45.1443 15.0431C45.4067 15.0431 45.5388 15.1478 45.6547 15.5681L48.9943 27.7977C47.7335 28.1648 46.1362 28.445 44.7707 28.445Z" fill="#1D1D1B"/>
<path d="M104.285 8.94681C104.18 8.68435 104.074 8.63121 103.811 8.63121H97.504C97.2415 8.63121 97.1368 8.68435 97.0306 8.94681L85.6253 38.8004C85.5207 39.0629 85.6253 39.2738 85.9409 39.2738H94.7183C94.9807 39.2738 95.0339 39.0629 94.9276 38.9067C94.2964 37.8037 93.2981 35.4382 93.9293 32.7572C95.5057 33.1775 97.2399 33.3884 98.9757 33.3884C100.868 33.3884 102.797 33.1308 104.531 32.6042C105.425 35.3368 104.178 37.802 103.549 38.9067C103.444 39.0645 103.496 39.2738 103.758 39.2738H115.374C115.69 39.2738 115.795 39.0629 115.69 38.8004L104.285 8.94681ZM98.9757 28.445C97.6086 28.445 96.2947 28.2341 95.0339 27.867L98.8614 15.5681C98.9661 15.2009 99.0868 15.0431 99.3493 15.0431C99.6117 15.0431 99.7438 15.1478 99.8597 15.5681L103.199 27.7977C101.939 28.1648 100.341 28.445 98.9757 28.445Z" fill="#1D1D1B"/>
<path d="M138.12 8.63604C138.088 8.6296 138.051 8.62638 138.012 8.62638H129.079C128.816 8.62638 128.783 8.82444 128.87 8.99351C130.766 12.7357 129.686 17.0156 129.026 19.1379L125.469 30.5995C125.383 30.8974 125.243 31.1244 124.981 31.1244C124.718 31.1244 124.578 30.9699 124.47 30.5995L117.836 8.99512C117.732 8.67951 117.625 8.62638 117.258 8.62638H109.072C108.756 8.62638 108.705 8.83732 108.809 9.09978L120.213 38.9534C120.318 39.2158 120.371 39.269 120.633 39.269H127.132C127.395 39.269 127.448 39.2158 127.552 38.9534L138.328 9.09978C138.354 9.03376 138.367 8.97097 138.367 8.91461C138.367 8.77291 138.285 8.66663 138.12 8.63604Z" fill="#1D1D1B"/>
<path d="M152.616 8C143.589 8 136.993 14.9159 136.993 23.996C136.993 33.076 142.959 39.9919 151.988 39.9919C161.016 39.9919 167.821 33.076 167.821 23.996C167.821 14.9159 161.589 8 152.616 8ZM152.759 37.4285C149.013 37.4285 145.461 31.9907 145.273 24.5531C145.083 17.1171 148.096 10.5619 152.094 10.5619C156.092 10.5619 159.333 16.7339 159.523 24.1699C159.713 31.6059 156.406 37.4269 152.76 37.4269" fill="#1D1D1B"/>
<path d="M8.69523 28.5191C10.5293 34.8328 16.4887 39.4686 22.9683 39.6055C24.915 39.6715 26.9793 39.3624 28.9084 38.6555C29.1097 38.5814 29.0887 38.2867 28.8794 38.24C23.4433 37.0549 18.772 32.9826 17.6046 27.4241C16.5322 22.3165 18.0796 17.0913 20.7784 12.7357C21.2212 12.0207 21.672 11.3316 22.1873 10.6537C22.3805 10.4008 22.511 10.1674 22.8555 10.2447C23.1776 10.3171 23.2098 10.607 23.3177 11.0723C24.403 15.8193 28.9696 19.3843 34.0273 19.526C34.1996 19.5308 34.3413 19.3891 34.3413 19.2168V9.01122C34.3413 8.80028 34.1706 8.6296 33.9597 8.6296H23.4384C17.0926 8.69562 11.658 12.5634 9.30711 18.0639C9.30711 18.0639 6.83059 22.7513 8.69523 28.5191Z" fill="#1D1D1B"/>
</svg>
