<svg width="156" height="64" viewBox="0 0 156 64" fill="none" xmlns="http://www.w3.org/2000/svg">
<path d="M68.6945 19.2939L64.9578 18.0949C61.6832 17.034 60.3447 15.835 60.3447 13.6201C60.3447 11.959 61.4972 10.5303 63.3895 10.5303C66.0188 10.5303 67.8646 12.9748 70.4008 17.8188C70.4924 18.0033 70.5854 18.0498 70.77 17.9104L75.4747 13.6666C75.6128 13.575 75.6128 13.482 75.5212 13.344C73.0765 10.4373 69.709 8.5 65.0043 8.5C58.4538 8.5 55.4089 12.6973 55.4089 16.7099C55.4089 20.7226 58.2692 23.3066 62.144 24.5972L66.3414 25.9808C70.1697 27.2263 71.2772 28.7029 71.2772 30.7318C71.2772 32.7607 69.9401 34.1457 67.7716 34.1457C65.0043 34.1457 62.8823 31.9773 59.8839 26.0738C59.7909 25.9357 59.6993 25.8892 59.5612 25.9822L54.6677 29.9653C54.5296 30.0569 54.4832 30.2415 54.5761 30.3809C57.4829 33.7948 61.0604 36.5 66.4344 36.5C72.5693 36.5 76.1214 32.7635 76.2595 27.966C76.3511 23.077 73.2611 20.7705 68.6945 19.2939Z" fill="#F6F6F1"/>
<path d="M44.8215 9.32846C44.7299 9.0988 44.6369 9.05231 44.4073 9.05231H38.8881C38.6585 9.05231 38.5669 9.0988 38.4739 9.32846L28.4938 35.4503C28.4022 35.68 28.4938 35.8646 28.77 35.8646H36.4505C36.6802 35.8646 36.7267 35.68 36.6337 35.5433C36.0814 34.5782 35.2078 32.5085 35.7601 30.1626C37.1396 30.5303 38.6571 30.7149 40.176 30.7149C41.8316 30.7149 43.5196 30.4894 45.0371 30.0287C45.8191 32.4197 44.7285 34.5768 44.1776 35.5433C44.086 35.6814 44.1311 35.8646 44.3608 35.8646H54.5254C54.8016 35.8646 54.8932 35.68 54.8016 35.4503L44.8215 9.32846ZM40.176 26.3894C38.9797 26.3894 37.83 26.2048 36.7267 25.8836L40.0759 15.122C40.1675 14.8008 40.2732 14.6627 40.5029 14.6627C40.7325 14.6627 40.8481 14.7543 40.9495 15.122L43.8718 25.823C42.7686 26.1442 41.3708 26.3894 40.176 26.3894Z" fill="#F6F6F1"/>
<path d="M92.2533 9.32846C92.1617 9.0988 92.0687 9.05231 91.839 9.05231H86.3199C86.0902 9.05231 85.9986 9.0988 85.9057 9.32846L75.9256 35.4503C75.834 35.68 75.9256 35.8646 76.2018 35.8646H83.8823C84.112 35.8646 84.1585 35.68 84.0655 35.5433C83.5131 34.5782 82.6396 32.5085 83.1919 30.1626C84.5713 30.5303 86.0888 30.7149 87.6077 30.7149C89.2633 30.7149 90.9513 30.4894 92.4689 30.0287C93.2509 32.4197 92.1603 34.5768 91.6094 35.5433C91.5178 35.6814 91.5629 35.8646 91.7925 35.8646H101.957C102.233 35.8646 102.325 35.68 102.233 35.4503L92.2533 9.32846ZM87.6077 26.3894C86.4115 26.3894 85.2617 26.2048 84.1585 25.8836L87.5077 15.122C87.5993 14.8008 87.705 14.6627 87.9346 14.6627C88.1643 14.6627 88.2798 14.7543 88.3813 15.122L91.3036 25.823C90.2003 26.1442 88.8026 26.3894 87.6077 26.3894Z" fill="#F6F6F1"/>
<path d="M121.861 9.05653C121.833 9.0509 121.8 9.04808 121.767 9.04808H113.949C113.72 9.04808 113.69 9.22138 113.766 9.36932C115.426 12.6437 114.481 16.3887 113.903 18.2457L110.79 28.2746C110.716 28.5352 110.593 28.7339 110.363 28.7339C110.134 28.7339 110.011 28.5986 109.917 28.2746L104.112 9.37073C104.02 9.09458 103.927 9.04808 103.606 9.04808H96.4423C96.1661 9.04808 96.121 9.23265 96.2126 9.46231L106.191 35.5842C106.283 35.8138 106.329 35.8603 106.559 35.8603H112.246C112.475 35.8603 112.522 35.8138 112.614 35.5842L122.043 9.46231C122.065 9.40454 122.077 9.34959 122.077 9.30028C122.077 9.17629 122.005 9.0833 121.861 9.05653Z" fill="#F6F6F1"/>
<path d="M134.545 8.5C126.646 8.5 120.875 14.5514 120.875 22.4965C120.875 30.4415 126.095 36.493 133.995 36.493C141.896 36.493 147.85 30.4415 147.85 22.4965C147.85 14.5514 142.397 8.5 134.545 8.5ZM134.67 34.2499C131.393 34.2499 128.285 29.4919 128.12 22.984C127.954 16.4775 130.59 10.7416 134.088 10.7416C137.587 10.7416 140.423 16.1421 140.59 22.6486C140.756 29.1552 137.862 34.2485 134.672 34.2485" fill="#F6F6F1"/>
<path d="M8.60836 26.4542C10.2132 31.9787 15.428 36.035 21.0979 36.1548C22.8014 36.2126 24.6078 35.9421 26.2958 35.3235C26.4719 35.2587 26.4536 35.0009 26.2704 34.96C21.5135 33.923 17.426 30.3598 16.4045 25.4961C15.466 21.0269 16.8201 16.4549 19.1816 12.6437C19.5691 12.0181 19.9636 11.4151 20.4145 10.8219C20.5836 10.6007 20.6977 10.3964 20.9993 10.4641C21.2811 10.5275 21.3092 10.7811 21.4036 11.1883C22.3533 15.3418 26.3493 18.4613 30.775 18.5852C30.9258 18.5895 31.0498 18.4655 31.0498 18.3147V9.38482C31.0498 9.20025 30.9004 9.0509 30.7158 9.0509H21.5093C15.9564 9.10866 11.2009 12.493 9.14378 17.3059C9.14378 17.3059 6.97671 21.4074 8.60836 26.4542Z" fill="#F6F6F1"/>
<path d="M8 44.9077H9.86435L13.1058 52.8224H13.2251L16.4666 44.9077H18.331V55.0895H16.8693V47.7216H16.7749L13.772 55.0746H12.5589L9.55611 47.7166H9.46165V55.0895H8V44.9077Z" fill="#F6F6F1"/>
<path d="M24.5825 51.9226V47.4531H26.074V55.0895H24.6123V53.767H24.5328C24.3571 54.1747 24.0754 54.5144 23.6876 54.7862C23.3031 55.0547 22.8242 55.1889 22.2508 55.1889C21.7603 55.1889 21.3261 55.0812 20.9483 54.8658C20.5737 54.647 20.2788 54.3239 20.0633 53.8963C19.8512 53.4688 19.7451 52.9401 19.7451 52.3104V47.4531H21.2316V52.1314C21.2316 52.6518 21.3758 53.0661 21.6642 53.3743C21.9525 53.6825 22.327 53.8366 22.7877 53.8366C23.0662 53.8366 23.3429 53.767 23.618 53.6278C23.8964 53.4886 24.1268 53.2782 24.3091 52.9964C24.4947 52.7147 24.5858 52.3568 24.5825 51.9226Z" fill="#F6F6F1"/>
<path d="M30.9359 47.4531V48.6463H26.7648V47.4531H30.9359ZM27.8834 45.6236H29.3699V52.8473C29.3699 53.1357 29.413 53.3527 29.4991 53.4986C29.5853 53.6411 29.6964 53.7389 29.8322 53.7919C29.9714 53.8416 30.1223 53.8665 30.2847 53.8665C30.404 53.8665 30.5084 53.8582 30.5979 53.8416C30.6874 53.825 30.757 53.8118 30.8067 53.8018L31.0751 55.0298C30.989 55.063 30.8663 55.0961 30.7072 55.1293C30.5482 55.1657 30.3493 55.1856 30.1107 55.1889C29.7196 55.1955 29.355 55.1259 29.0169 54.9801C28.6788 54.8343 28.4054 54.6089 28.1966 54.304C27.9878 53.9991 27.8834 53.6162 27.8834 53.1555V45.6236Z" fill="#F6F6F1"/>
<path d="M36.7176 51.9226V47.4531H38.2091V55.0895H36.7475V53.767H36.6679C36.4923 54.1747 36.2105 54.5144 35.8228 54.7862C35.4383 55.0547 34.9594 55.1889 34.386 55.1889C33.8954 55.1889 33.4613 55.0812 33.0834 54.8658C32.7089 54.647 32.4139 54.3239 32.1985 53.8963C31.9864 53.4688 31.8803 52.9401 31.8803 52.3104V47.4531H33.3668V52.1314C33.3668 52.6518 33.511 53.0661 33.7993 53.3743C34.0877 53.6825 34.4622 53.8366 34.9229 53.8366C35.2013 53.8366 35.4781 53.767 35.7532 53.6278C36.0316 53.4886 36.2619 53.2782 36.4442 52.9964C36.6298 52.7147 36.721 52.3568 36.7176 51.9226Z" fill="#F6F6F1"/>
<path d="M39.5065 55.0895V47.4531H40.993V55.0895H39.5065ZM40.2572 46.2749C39.9987 46.2749 39.7766 46.1887 39.591 46.0163C39.4087 45.8407 39.3175 45.6319 39.3175 45.3899C39.3175 45.1446 39.4087 44.9358 39.591 44.7635C39.7766 44.5878 39.9987 44.5 40.2572 44.5C40.5157 44.5 40.7361 44.5878 40.9184 44.7635C41.104 44.9358 41.1968 45.1446 41.1968 45.3899C41.1968 45.6319 41.104 45.8407 40.9184 46.0163C40.7361 46.1887 40.5157 46.2749 40.2572 46.2749Z" fill="#F6F6F1"/>
</svg>
