<svg width="110" height="47" viewBox="0 0 110 47" fill="none" xmlns="http://www.w3.org/2000/svg">
<path d="M48.351 13.21L45.6821 12.3535C43.3432 11.5957 42.3872 10.7393 42.3872 9.15722C42.3872 7.97069 43.2104 6.95021 44.562 6.95021C46.4399 6.95021 47.7583 8.6963 49.5698 12.1563C49.6352 12.2881 49.7016 12.3213 49.8335 12.2217L53.1938 9.19043C53.2924 9.12502 53.2924 9.0586 53.227 8.95997C51.4809 6.88379 49.0756 5.5 45.7153 5.5C41.0366 5.5 38.8618 8.49804 38.8618 11.3642C38.8618 14.2304 40.9048 16.0762 43.6723 16.998L46.6704 17.9863C49.4047 18.8759 50.1958 19.9306 50.1958 21.3798C50.1958 22.829 49.2407 23.8183 47.6919 23.8183C45.7153 23.8183 44.1997 22.2695 42.0581 18.0527C41.9917 17.9541 41.9262 17.9209 41.8276 17.9873L38.3324 20.8324C38.2338 20.8978 38.2006 21.0296 38.267 21.1292C40.3432 23.5677 42.8984 25.5 46.7368 25.5C51.1186 25.5 53.6557 22.8311 53.7544 19.4043C53.8198 15.9121 51.6128 14.2647 48.351 13.21Z" fill="#1D1D1B"/>
<path d="M31.2998 6.09176C31.2343 5.92772 31.1679 5.89451 31.0039 5.89451H27.0619C26.8978 5.89451 26.8324 5.92772 26.766 6.09176L19.6377 24.7502C19.5723 24.9143 19.6377 25.0461 19.835 25.0461H25.3208C25.4848 25.0461 25.518 24.9143 25.4516 24.8167C25.0571 24.1273 24.4332 22.6489 24.8277 20.9733C25.8129 21.2359 26.8968 21.3678 27.9817 21.3678C29.1642 21.3678 30.3699 21.2067 31.4537 20.8776C32.0123 22.5855 31.2333 24.1263 30.8398 24.8167C30.7744 24.9153 30.8066 25.0461 30.9707 25.0461H38.2308C38.428 25.0461 38.4934 24.9143 38.428 24.7502L31.2998 6.09176ZM27.9817 18.2781C27.1273 18.2781 26.3061 18.1463 25.518 17.9168L27.9102 10.23C27.9757 10.0006 28.0511 9.90195 28.2152 9.90195C28.3792 9.90195 28.4617 9.96737 28.5342 10.23L30.6215 17.8736C29.8335 18.103 28.8351 18.2781 27.9817 18.2781Z" fill="#1D1D1B"/>
<path d="M65.1779 6.09176C65.1125 5.92772 65.0461 5.89451 64.882 5.89451H60.94C60.7759 5.89451 60.7105 5.92772 60.6441 6.09176L53.5158 24.7502C53.4504 24.9143 53.5158 25.0461 53.7131 25.0461H59.1989C59.363 25.0461 59.3962 24.9143 59.3298 24.8167C58.9352 24.1273 58.3113 22.6489 58.7058 20.9733C59.6911 21.2359 60.7749 21.3678 61.8598 21.3678C63.0423 21.3678 64.248 21.2067 65.3319 20.8776C65.8904 22.5855 65.1115 24.1263 64.718 24.8167C64.6526 24.9153 64.6848 25.0461 64.8488 25.0461H72.1089C72.3062 25.0461 72.3716 24.9143 72.3062 24.7502L65.1779 6.09176ZM61.8598 18.2781C61.0054 18.2781 60.1842 18.1463 59.3962 17.9168L61.7884 10.23C61.8538 10.0006 61.9293 9.90195 62.0933 9.90195C62.2573 9.90195 62.3399 9.96737 62.4123 10.23L64.4996 17.8736C63.7116 18.103 62.7132 18.2781 61.8598 18.2781Z" fill="#1D1D1B"/>
<path d="M86.3252 5.89752C86.3051 5.8935 86.2819 5.89149 86.2578 5.89149H80.6743C80.5102 5.89149 80.4891 6.01527 80.5435 6.12094C81.729 8.45979 81.0537 11.1348 80.6411 12.4612L78.418 19.6247C78.3646 19.8109 78.2771 19.9528 78.113 19.9528C77.949 19.9528 77.8614 19.8562 77.794 19.6247L73.6477 6.12195C73.5823 5.9247 73.5158 5.89149 73.2864 5.89149H68.1699C67.9726 5.89149 67.9404 6.02332 68.0058 6.18736L75.1331 24.8458C75.1985 25.0099 75.2317 25.0431 75.3958 25.0431H79.4576C79.6216 25.0431 79.6548 25.0099 79.7202 24.8458L86.455 6.18736C86.4711 6.1461 86.4792 6.10685 86.4792 6.07163C86.4792 5.98307 86.4278 5.91665 86.3252 5.89752Z" fill="#1D1D1B"/>
<path d="M95.3847 5.5C89.7429 5.5 85.6207 9.82245 85.6207 15.4975C85.6207 21.1725 89.3494 25.495 94.9922 25.495C100.635 25.495 104.888 21.1725 104.888 15.4975C104.888 9.82245 100.993 5.5 95.3847 5.5ZM95.4743 23.8928C93.1334 23.8928 90.9133 20.4942 90.7956 15.8457C90.6768 11.1982 92.5598 7.10117 95.0586 7.10117C97.5575 7.10117 99.5834 10.9587 99.7021 15.6062C99.8209 20.2537 97.7538 23.8918 95.4753 23.8918" fill="#1D1D1B"/>
<path d="M5.43452 18.3244C6.5808 22.2705 10.3054 25.1679 14.3552 25.2534C15.5719 25.2947 16.8621 25.1015 18.0677 24.6597C18.1935 24.6134 18.1805 24.4292 18.0496 24.4C14.6521 23.6593 11.7325 21.1142 11.0029 17.6401C10.3326 14.4478 11.2998 11.1821 12.9865 8.45979C13.2632 8.01296 13.545 7.58222 13.8671 7.15853C13.9878 7.00053 14.0694 6.8546 14.2847 6.90291C14.486 6.9482 14.5061 7.12935 14.5736 7.42019C15.2519 10.387 18.106 12.6152 21.2671 12.7037C21.3747 12.7068 21.4633 12.6182 21.4633 12.5105V6.13201C21.4633 6.00018 21.3566 5.8935 21.2248 5.8935H14.649C10.6828 5.93476 7.28628 8.35211 5.81695 11.7899C5.81695 11.7899 4.26912 14.7195 5.43452 18.3244Z" fill="#1D1D1B"/>
<path d="M5 30.8494H6.59801L9.37642 37.6335H9.47869L12.2571 30.8494H13.8551V39.5767H12.6023V33.2614H12.5213L9.94744 39.5639H8.90767L6.33381 33.2571H6.25284V39.5767H5V30.8494Z" fill="#1D1D1B"/>
<path d="M19.2136 36.8622V33.0312H20.492V39.5767H19.2391V38.4432H19.171C19.0204 38.7926 18.7789 39.0838 18.4465 39.3168C18.117 39.5469 17.7065 39.6619 17.215 39.6619C16.7945 39.6619 16.4224 39.5696 16.0985 39.3849C15.7775 39.1974 15.5246 38.9205 15.34 38.554C15.1582 38.1875 15.0673 37.7344 15.0673 37.1946V33.0312H16.3414V37.0412C16.3414 37.4872 16.465 37.8423 16.7121 38.1065C16.9593 38.3707 17.2803 38.5028 17.6752 38.5028C17.9138 38.5028 18.1511 38.4432 18.3869 38.3239C18.6255 38.2045 18.8229 38.0241 18.9792 37.7827C19.1383 37.5412 19.2164 37.2344 19.2136 36.8622Z" fill="#1D1D1B"/>
<path d="M24.6594 33.0312V34.054H21.0841V33.0312H24.6594ZM22.0429 31.4631H23.317V37.6548C23.317 37.902 23.354 38.0881 23.4278 38.2131C23.5017 38.3352 23.5969 38.419 23.7134 38.4645C23.8327 38.5071 23.9619 38.5284 24.1011 38.5284C24.2034 38.5284 24.2929 38.5213 24.3696 38.5071C24.4463 38.4929 24.506 38.4815 24.5486 38.473L24.7787 39.5256C24.7048 39.554 24.5997 39.5824 24.4634 39.6108C24.327 39.642 24.1565 39.6591 23.952 39.6619C23.6168 39.6676 23.3043 39.608 23.0145 39.483C22.7247 39.358 22.4903 39.1648 22.3114 38.9034C22.1324 38.642 22.0429 38.3139 22.0429 37.919V31.4631Z" fill="#1D1D1B"/>
<path d="M29.6151 36.8622V33.0312H30.8935V39.5767H29.6407V38.4432H29.5725C29.4219 38.7926 29.1805 39.0838 28.8481 39.3168C28.5185 39.5469 28.108 39.6619 27.6165 39.6619C27.1961 39.6619 26.8239 39.5696 26.5001 39.3849C26.1791 39.1974 25.9262 38.9205 25.7415 38.554C25.5597 38.1875 25.4688 37.7344 25.4688 37.1946V33.0312H26.743V37.0412C26.743 37.4872 26.8665 37.8423 27.1137 38.1065C27.3609 38.3707 27.6819 38.5028 28.0768 38.5028C28.3154 38.5028 28.5526 38.4432 28.7884 38.3239C29.0271 38.2045 29.2245 38.0241 29.3808 37.7827C29.5398 37.5412 29.618 37.2344 29.6151 36.8622Z" fill="#1D1D1B"/>
<path d="M32.0055 39.5767V33.0312H33.2797V39.5767H32.0055ZM32.649 32.0213C32.4274 32.0213 32.2371 31.9474 32.078 31.7997C31.9217 31.6491 31.8436 31.4702 31.8436 31.2628C31.8436 31.0526 31.9217 30.8736 32.078 30.7259C32.2371 30.5753 32.4274 30.5 32.649 30.5C32.8706 30.5 33.0595 30.5753 33.2158 30.7259C33.3749 30.8736 33.4544 31.0526 33.4544 31.2628C33.4544 31.4702 33.3749 31.6491 33.2158 31.7997C33.0595 31.9474 32.8706 32.0213 32.649 32.0213Z" fill="#1D1D1B"/>
</svg>
