<svg width="111" height="47" viewBox="0 0 111 47" fill="none" xmlns="http://www.w3.org/2000/svg">
<path d="M49.0882 13.21L46.4192 12.3535C44.0804 11.5957 43.1243 10.7393 43.1243 9.15722C43.1243 7.97069 43.9475 6.95021 45.2991 6.95021C47.177 6.95021 48.4954 8.6963 50.3069 12.1563C50.3723 12.2881 50.4387 12.3213 50.5706 12.2217L53.9309 9.19043C54.0295 9.12502 54.0295 9.0586 53.9641 8.95997C52.218 6.88379 49.8128 5.5 46.4524 5.5C41.7737 5.5 39.5989 8.49804 39.5989 11.3642C39.5989 14.2304 41.6419 16.0762 44.4095 16.998L47.4075 17.9863C50.1418 18.8759 50.9329 19.9306 50.9329 21.3798C50.9329 22.829 49.9778 23.8183 48.429 23.8183C46.4524 23.8183 44.9368 22.2695 42.7952 18.0527C42.7288 17.9541 42.6634 17.9209 42.5647 17.9873L39.0695 20.8324C38.9709 20.8978 38.9377 21.0296 39.0041 21.1292C41.0803 23.5677 43.6355 25.5 47.4739 25.5C51.8557 25.5 54.3928 22.8311 54.4915 19.4043C54.5569 15.9121 52.3499 14.2647 49.0882 13.21Z" fill="#1D1D1B"/>
<path d="M32.0369 6.09176C31.9715 5.92772 31.905 5.89451 31.741 5.89451H27.799C27.6349 5.89451 27.5695 5.92772 27.5031 6.09176L20.3748 24.7502C20.3094 24.9143 20.3748 25.0461 20.5721 25.0461H26.0579C26.222 25.0461 26.2552 24.9143 26.1887 24.8167C25.7942 24.1273 25.1703 22.6489 25.5648 20.9733C26.55 21.2359 27.6339 21.3678 28.7188 21.3678C29.9013 21.3678 31.107 21.2067 32.1909 20.8776C32.7494 22.5855 31.9705 24.1263 31.577 24.8167C31.5115 24.9153 31.5438 25.0461 31.7078 25.0461H38.9679C39.1651 25.0461 39.2306 24.9143 39.1651 24.7502L32.0369 6.09176ZM28.7188 18.2781C27.8644 18.2781 27.0432 18.1463 26.2552 17.9168L28.6474 10.23C28.7128 10.0006 28.7883 9.90195 28.9523 9.90195C29.1163 9.90195 29.1989 9.96737 29.2713 10.23L31.3586 17.8736C30.5706 18.103 29.5722 18.2781 28.7188 18.2781Z" fill="#1D1D1B"/>
<path d="M65.915 6.09176C65.8496 5.92772 65.7832 5.89451 65.6191 5.89451H61.6771C61.5131 5.89451 61.4476 5.92772 61.3812 6.09176L54.253 24.7502C54.1875 24.9143 54.253 25.0461 54.4502 25.0461H59.936C60.1001 25.0461 60.1333 24.9143 60.0669 24.8167C59.6724 24.1273 59.0484 22.6489 59.4429 20.9733C60.4282 21.2359 61.5121 21.3678 62.5969 21.3678C63.7795 21.3678 64.9851 21.2067 66.069 20.8776C66.6275 22.5855 65.8486 24.1263 65.4551 24.8167C65.3897 24.9153 65.4219 25.0461 65.5859 25.0461H72.846C73.0433 25.0461 73.1087 24.9143 73.0433 24.7502L65.915 6.09176ZM62.5969 18.2781C61.7425 18.2781 60.9213 18.1463 60.1333 17.9168L62.5255 10.23C62.5909 10.0006 62.6664 9.90195 62.8304 9.90195C62.9945 9.90195 63.077 9.96737 63.1495 10.23L65.2367 17.8736C64.4487 18.103 63.4504 18.2781 62.5969 18.2781Z" fill="#1D1D1B"/>
<path d="M87.0623 5.89752C87.0422 5.8935 87.019 5.89149 86.9949 5.89149H81.4114C81.2474 5.89149 81.2262 6.01527 81.2806 6.12094C82.4661 8.45979 81.7908 11.1348 81.3782 12.4612L79.1551 19.6247C79.1017 19.8109 79.0142 19.9528 78.8501 19.9528C78.6861 19.9528 78.5985 19.8562 78.5311 19.6247L74.3848 6.12195C74.3194 5.9247 74.253 5.89149 74.0235 5.89149H68.907C68.7098 5.89149 68.6776 6.02332 68.743 6.18736L75.8702 24.8458C75.9356 25.0099 75.9688 25.0431 76.1329 25.0431H80.1947C80.3587 25.0431 80.3919 25.0099 80.4574 24.8458L87.1921 6.18736C87.2082 6.1461 87.2163 6.10685 87.2163 6.07163C87.2163 5.98307 87.165 5.91665 87.0623 5.89752Z" fill="#1D1D1B"/>
<path d="M96.1218 5.5C90.48 5.5 86.3578 9.82245 86.3578 15.4975C86.3578 21.1725 90.0865 25.495 95.7293 25.495C101.372 25.495 105.625 21.1725 105.625 15.4975C105.625 9.82245 101.73 5.5 96.1218 5.5ZM96.2114 23.8928C93.8705 23.8928 91.6504 20.4942 91.5327 15.8457C91.4139 11.1982 93.2969 7.10117 95.7958 7.10117C98.2946 7.10117 100.32 10.9587 100.439 15.6062C100.558 20.2537 98.4909 23.8918 96.2124 23.8918" fill="#1D1D1B"/>
<path d="M6.17164 18.3244C7.31792 22.2705 11.0426 25.1679 15.0923 25.2534C16.309 25.2947 17.5992 25.1015 18.8049 24.6597C18.9307 24.6134 18.9176 24.4292 18.7867 24.4C15.3892 23.6593 12.4696 21.1142 11.74 17.6401C11.0697 14.4478 12.0369 11.1821 13.7236 8.45979C14.0004 8.01296 14.2821 7.58222 14.6042 7.15853C14.725 7.00053 14.8065 6.8546 15.0218 6.90291C15.2231 6.9482 15.2432 7.12935 15.3107 7.42019C15.989 10.387 18.8431 12.6152 22.0042 12.7037C22.1119 12.7068 22.2004 12.6182 22.2004 12.5105V6.13201C22.2004 6.00018 22.0937 5.8935 21.9619 5.8935H15.3862C11.42 5.93476 8.0234 8.35211 6.55407 11.7899C6.55407 11.7899 5.00624 14.7195 6.17164 18.3244Z" fill="#1D1D1B"/>
<path d="M11.8522 33.0312L9.4786 39.5767H8.11496L5.73712 33.0312H7.10502L8.76269 38.0682H8.83087L10.4843 33.0312H11.8522Z" fill="#1D1D1B"/>
<path d="M12.4496 39.5767V33.0312H13.7238V39.5767H12.4496ZM13.0931 32.0213C12.8715 32.0213 12.6812 31.9474 12.5221 31.7997C12.3658 31.6491 12.2877 31.4702 12.2877 31.2628C12.2877 31.0526 12.3658 30.8736 12.5221 30.7259C12.6812 30.5753 12.8715 30.5 13.0931 30.5C13.3147 30.5 13.5036 30.5753 13.6598 30.7259C13.8189 30.8736 13.8985 31.0526 13.8985 31.2628C13.8985 31.4702 13.8189 31.6491 13.6598 31.7997C13.5036 31.9474 13.3147 32.0213 13.0931 32.0213Z" fill="#1D1D1B"/>
<path d="M14.8379 39.5767V33.0312H16.0694V34.071H16.1376C16.2569 33.7188 16.4672 33.4418 16.7683 33.2401C17.0723 33.0355 17.416 32.9332 17.7996 32.9332C17.8791 32.9332 17.9728 32.9361 18.0808 32.9418C18.1916 32.9474 18.2782 32.9545 18.3407 32.9631V34.1818C18.2896 34.1676 18.1987 34.152 18.068 34.1349C17.9373 34.1151 17.8067 34.1051 17.676 34.1051C17.3748 34.1051 17.1064 34.169 16.8706 34.2969C16.6376 34.4219 16.453 34.5966 16.3166 34.821C16.1802 35.0426 16.1121 35.2955 16.1121 35.5795V39.5767H14.8379Z" fill="#1D1D1B"/>
<path d="M22.2855 33.0312V34.054H18.7102V33.0312H22.2855ZM19.669 31.4631H20.9432V37.6548C20.9432 37.902 20.9801 38.0881 21.054 38.2131C21.1278 38.3352 21.223 38.419 21.3395 38.4645C21.4588 38.5071 21.588 38.5284 21.7273 38.5284C21.8295 38.5284 21.919 38.5213 21.9957 38.5071C22.0724 38.4929 22.1321 38.4815 22.1747 38.473L22.4048 39.5256C22.3309 39.554 22.2258 39.5824 22.0895 39.6108C21.9531 39.642 21.7826 39.6591 21.5781 39.6619C21.2429 39.6676 20.9304 39.608 20.6406 39.483C20.3508 39.358 20.1165 39.1648 19.9375 38.9034C19.7585 38.642 19.669 38.3139 19.669 37.919V31.4631Z" fill="#1D1D1B"/>
<path d="M27.2412 36.8622V33.0312H28.5196V39.5767H27.2668V38.4432H27.1986C27.0481 38.7926 26.8066 39.0838 26.4742 39.3168C26.1446 39.5469 25.7341 39.6619 25.2427 39.6619C24.8222 39.6619 24.45 39.5696 24.1262 39.3849C23.8052 39.1974 23.5523 38.9205 23.3677 38.554C23.1858 38.1875 23.0949 37.7344 23.0949 37.1946V33.0312H24.3691V37.0412C24.3691 37.4872 24.4927 37.8423 24.7398 38.1065C24.987 38.3707 25.308 38.5028 25.7029 38.5028C25.9415 38.5028 26.1787 38.4432 26.4145 38.3239C26.6532 38.2045 26.8506 38.0241 27.0069 37.7827C27.166 37.5412 27.2441 37.2344 27.2412 36.8622Z" fill="#1D1D1B"/>
<path d="M31.5365 39.7216C31.1217 39.7216 30.7467 39.6449 30.4115 39.4915C30.0763 39.3352 29.8106 39.1094 29.6146 38.8139C29.4214 38.5185 29.3248 38.1563 29.3248 37.7273C29.3248 37.358 29.3959 37.054 29.5379 36.8153C29.6799 36.5767 29.8717 36.3878 30.1132 36.2486C30.3547 36.1094 30.6245 36.0043 30.9228 35.9332C31.2211 35.8622 31.5251 35.8082 31.8348 35.7713C32.2268 35.7259 32.545 35.6889 32.7893 35.6605C33.0336 35.6293 33.2112 35.5795 33.322 35.5114C33.4328 35.4432 33.4882 35.3324 33.4882 35.179V35.1491C33.4882 34.777 33.3831 34.4886 33.1728 34.2841C32.9655 34.0795 32.6558 33.9773 32.2439 33.9773C31.8149 33.9773 31.4768 34.0724 31.2297 34.2628C30.9853 34.4503 30.8163 34.6591 30.7226 34.8892L29.5251 34.6165C29.6672 34.2187 29.8745 33.8977 30.1473 33.6534C30.4228 33.4062 30.7396 33.2273 31.0976 33.1165C31.4555 33.0028 31.8319 32.946 32.2268 32.946C32.4882 32.946 32.7652 32.9773 33.0578 33.0398C33.3532 33.0994 33.6288 33.2102 33.8845 33.3722C34.143 33.5341 34.3547 33.7656 34.5194 34.0668C34.6842 34.3651 34.7666 34.7528 34.7666 35.2301V39.5767H33.5223V38.6818H33.4711C33.3888 38.8466 33.2652 39.0085 33.1004 39.1676C32.9356 39.3267 32.724 39.4588 32.4655 39.5639C32.2069 39.669 31.8973 39.7216 31.5365 39.7216ZM31.8135 38.6989C32.1657 38.6989 32.4669 38.6293 32.7169 38.4901C32.9697 38.3509 33.1615 38.169 33.2922 37.9446C33.4257 37.7173 33.4924 37.4744 33.4924 37.2159V36.3722C33.447 36.4176 33.3589 36.4602 33.2282 36.5C33.1004 36.5369 32.9541 36.5696 32.7893 36.598C32.6245 36.6236 32.464 36.6477 32.3078 36.6705C32.1515 36.6903 32.0209 36.7074 31.9157 36.7216C31.6686 36.7528 31.4427 36.8054 31.2382 36.8793C31.0365 36.9531 30.8745 37.0597 30.7524 37.1989C30.6331 37.3352 30.5734 37.517 30.5734 37.7443C30.5734 38.0597 30.6899 38.2983 30.9228 38.4602C31.1558 38.6193 31.4527 38.6989 31.8135 38.6989Z" fill="#1D1D1B"/>
<path d="M37.1378 30.8494V39.5767H35.8637V30.8494H37.1378Z" fill="#1D1D1B"/>
<path d="M43.8831 33.0312V34.054H40.3079V33.0312H43.8831ZM41.2667 31.4631H42.5408V37.6548C42.5408 37.902 42.5777 38.0881 42.6516 38.2131C42.7255 38.3352 42.8206 38.419 42.9371 38.4645C43.0564 38.5071 43.1857 38.5284 43.3249 38.5284C43.4272 38.5284 43.5167 38.5213 43.5934 38.5071C43.6701 38.4929 43.7297 38.4815 43.7724 38.473L44.0025 39.5256C43.9286 39.554 43.8235 39.5824 43.6871 39.6108C43.5508 39.642 43.3803 39.6591 43.1758 39.6619C42.8405 39.6676 42.528 39.608 42.2383 39.483C41.9485 39.358 41.7141 39.1648 41.5351 38.9034C41.3562 38.642 41.2667 38.3139 41.2667 37.919V31.4631Z" fill="#1D1D1B"/>
<path d="M47.3794 39.7088C46.7657 39.7088 46.2302 39.5682 45.7728 39.2869C45.3155 39.0057 44.9603 38.6122 44.7075 38.1065C44.4547 37.6009 44.3282 37.0099 44.3282 36.3338C44.3282 35.6548 44.4547 35.0611 44.7075 34.5526C44.9603 34.044 45.3155 33.6491 45.7728 33.3679C46.2302 33.0866 46.7657 32.946 47.3794 32.946C47.993 32.946 48.5285 33.0866 48.9859 33.3679C49.4433 33.6491 49.7984 34.044 50.0513 34.5526C50.3041 35.0611 50.4305 35.6548 50.4305 36.3338C50.4305 37.0099 50.3041 37.6009 50.0513 38.1065C49.7984 38.6122 49.4433 39.0057 48.9859 39.2869C48.5285 39.5682 47.993 39.7088 47.3794 39.7088ZM47.3836 38.6392C47.7814 38.6392 48.1109 38.5341 48.3723 38.3239C48.6336 38.1136 48.8268 37.8338 48.9518 37.4844C49.0797 37.1349 49.1436 36.75 49.1436 36.3295C49.1436 35.9119 49.0797 35.5284 48.9518 35.179C48.8268 34.8267 48.6336 34.544 48.3723 34.331C48.1109 34.1179 47.7814 34.0114 47.3836 34.0114C46.9831 34.0114 46.6507 34.1179 46.3865 34.331C46.1251 34.544 45.9305 34.8267 45.8027 35.179C45.6777 35.5284 45.6152 35.9119 45.6152 36.3295C45.6152 36.75 45.6777 37.1349 45.8027 37.4844C45.9305 37.8338 46.1251 38.1136 46.3865 38.3239C46.6507 38.5341 46.9831 38.6392 47.3836 38.6392Z" fill="#1D1D1B"/>
<path d="M54.0098 39.7088C53.3962 39.7088 52.8607 39.5682 52.4033 39.2869C51.9459 39.0057 51.5908 38.6122 51.338 38.1065C51.0851 37.6009 50.9587 37.0099 50.9587 36.3338C50.9587 35.6548 51.0851 35.0611 51.338 34.5526C51.5908 34.044 51.9459 33.6491 52.4033 33.3679C52.8607 33.0866 53.3962 32.946 54.0098 32.946C54.6235 32.946 55.159 33.0866 55.6164 33.3679C56.0738 33.6491 56.4289 34.044 56.6817 34.5526C56.9346 35.0611 57.061 35.6548 57.061 36.3338C57.061 37.0099 56.9346 37.6009 56.6817 38.1065C56.4289 38.6122 56.0738 39.0057 55.6164 39.2869C55.159 39.5682 54.6235 39.7088 54.0098 39.7088ZM54.0141 38.6392C54.4118 38.6392 54.7414 38.5341 55.0027 38.3239C55.2641 38.1136 55.4573 37.8338 55.5823 37.4844C55.7101 37.1349 55.7741 36.75 55.7741 36.3295C55.7741 35.9119 55.7101 35.5284 55.5823 35.179C55.4573 34.8267 55.2641 34.544 55.0027 34.331C54.7414 34.1179 54.4118 34.0114 54.0141 34.0114C53.6135 34.0114 53.2812 34.1179 53.017 34.331C52.7556 34.544 52.561 34.8267 52.4331 35.179C52.3081 35.5284 52.2456 35.9119 52.2456 36.3295C52.2456 36.75 52.3081 37.1349 52.4331 37.4844C52.561 37.8338 52.7556 38.1136 53.017 38.3239C53.2812 38.5341 53.6135 38.6392 54.0141 38.6392Z" fill="#1D1D1B"/>
<path d="M59.1574 30.8494V39.5767H57.8832V30.8494H59.1574Z" fill="#1D1D1B"/>
<path d="M65.1763 34.6293L64.0215 34.8338C63.9732 34.6861 63.8965 34.5455 63.7914 34.4119C63.6891 34.2784 63.5499 34.169 63.3738 34.0838C63.1976 33.9986 62.9775 33.956 62.7133 33.956C62.3525 33.956 62.0513 34.0369 61.8098 34.1989C61.5684 34.358 61.4476 34.5639 61.4476 34.8168C61.4476 35.0355 61.5286 35.2116 61.6905 35.3452C61.8525 35.4787 62.1138 35.5881 62.4746 35.6733L63.5144 35.9119C64.1167 36.0511 64.5655 36.2656 64.861 36.5554C65.1564 36.8452 65.3042 37.2216 65.3042 37.6847C65.3042 38.0767 65.1905 38.4261 64.9633 38.733C64.7388 39.0369 64.4249 39.2756 64.0215 39.4489C63.6209 39.6222 63.1564 39.7088 62.628 39.7088C61.8951 39.7088 61.2971 39.5526 60.834 39.2401C60.3709 38.9247 60.0868 38.4773 59.9817 37.8977L61.2133 37.7102C61.29 38.0313 61.4476 38.2741 61.6863 38.4389C61.9249 38.6009 62.236 38.6818 62.6195 38.6818C63.0371 38.6818 63.3709 38.5952 63.6209 38.4219C63.8709 38.2457 63.9959 38.0313 63.9959 37.7784C63.9959 37.5739 63.9192 37.402 63.7658 37.2628C63.6152 37.1236 63.3837 37.0185 63.0712 36.9474L61.9633 36.7045C61.3525 36.5653 60.9008 36.3438 60.6081 36.0398C60.3184 35.7358 60.1735 35.3509 60.1735 34.8849C60.1735 34.4986 60.2814 34.1605 60.4973 33.8707C60.7133 33.581 61.0116 33.3551 61.3922 33.1932C61.7729 33.0284 62.209 32.946 62.7005 32.946C63.4079 32.946 63.9647 33.0994 64.3709 33.4062C64.7772 33.7102 65.0456 34.1179 65.1763 34.6293Z" fill="#1D1D1B"/>
</svg>
