<svg width="110" height="46" viewBox="0 0 110 46" fill="none" xmlns="http://www.w3.org/2000/svg">
<path d="M48.351 12.71L45.6821 11.8535C43.3432 11.0957 42.3872 10.2393 42.3872 8.65722C42.3872 7.47069 43.2104 6.45021 44.562 6.45021C46.4399 6.45021 47.7583 8.1963 49.5698 11.6563C49.6352 11.7881 49.7016 11.8213 49.8335 11.7217L53.1938 8.69043C53.2924 8.62502 53.2924 8.5586 53.227 8.45997C51.4809 6.38379 49.0756 5 45.7153 5C41.0366 5 38.8618 7.99804 38.8618 10.8642C38.8618 13.7304 40.9048 15.5762 43.6723 16.498L46.6704 17.4863C49.4047 18.3759 50.1958 19.4306 50.1958 20.8798C50.1958 22.329 49.2407 23.3183 47.6919 23.3183C45.7153 23.3183 44.1997 21.7695 42.0581 17.5527C41.9917 17.4541 41.9262 17.4209 41.8276 17.4873L38.3324 20.3324C38.2338 20.3978 38.2006 20.5296 38.267 20.6292C40.3432 23.0677 42.8984 25 46.7368 25C51.1186 25 53.6557 22.3311 53.7544 18.9043C53.8198 15.4121 51.6128 13.7647 48.351 12.71Z" fill="#F6F6F1"/>
<path d="M31.2998 5.59176C31.2343 5.42772 31.1679 5.39451 31.0039 5.39451H27.0619C26.8978 5.39451 26.8324 5.42772 26.766 5.59176L19.6377 24.2502C19.5723 24.4143 19.6377 24.5461 19.835 24.5461H25.3208C25.4848 24.5461 25.518 24.4143 25.4516 24.3167C25.0571 23.6273 24.4332 22.1489 24.8277 20.4733C25.8129 20.7359 26.8968 20.8678 27.9817 20.8678C29.1642 20.8678 30.3699 20.7067 31.4537 20.3776C32.0123 22.0855 31.2333 23.6263 30.8398 24.3167C30.7744 24.4153 30.8066 24.5461 30.9707 24.5461H38.2308C38.428 24.5461 38.4934 24.4143 38.428 24.2502L31.2998 5.59176ZM27.9817 17.7781C27.1273 17.7781 26.3061 17.6463 25.518 17.4168L27.9102 9.73004C27.9757 9.50058 28.0511 9.40195 28.2152 9.40195C28.3792 9.40195 28.4617 9.46737 28.5342 9.73004L30.6215 17.3736C29.8335 17.603 28.8351 17.7781 27.9817 17.7781Z" fill="#F6F6F1"/>
<path d="M65.1779 5.59176C65.1125 5.42772 65.0461 5.39451 64.882 5.39451H60.94C60.7759 5.39451 60.7105 5.42772 60.6441 5.59176L53.5158 24.2502C53.4504 24.4143 53.5158 24.5461 53.7131 24.5461H59.1989C59.363 24.5461 59.3962 24.4143 59.3298 24.3167C58.9352 23.6273 58.3113 22.1489 58.7058 20.4733C59.6911 20.7359 60.7749 20.8678 61.8598 20.8678C63.0423 20.8678 64.248 20.7067 65.3319 20.3776C65.8904 22.0855 65.1115 23.6263 64.718 24.3167C64.6526 24.4153 64.6848 24.5461 64.8488 24.5461H72.1089C72.3062 24.5461 72.3716 24.4143 72.3062 24.2502L65.1779 5.59176ZM61.8598 17.7781C61.0054 17.7781 60.1842 17.6463 59.3962 17.4168L61.7884 9.73004C61.8538 9.50058 61.9293 9.40195 62.0933 9.40195C62.2573 9.40195 62.3399 9.46737 62.4123 9.73004L64.4996 17.3736C63.7116 17.603 62.7132 17.7781 61.8598 17.7781Z" fill="#F6F6F1"/>
<path d="M86.3252 5.39752C86.3051 5.3935 86.2819 5.39149 86.2578 5.39149H80.6743C80.5102 5.39149 80.4891 5.51527 80.5435 5.62094C81.729 7.95979 81.0537 10.6348 80.6411 11.9612L78.418 19.1247C78.3646 19.3109 78.2771 19.4528 78.113 19.4528C77.949 19.4528 77.8614 19.3562 77.794 19.1247L73.6477 5.62195C73.5823 5.4247 73.5158 5.39149 73.2864 5.39149H68.1699C67.9726 5.39149 67.9404 5.52332 68.0058 5.68736L75.1331 24.3458C75.1985 24.5099 75.2317 24.5431 75.3958 24.5431H79.4576C79.6216 24.5431 79.6548 24.5099 79.7202 24.3458L86.455 5.68736C86.4711 5.6461 86.4792 5.60685 86.4792 5.57163C86.4792 5.48307 86.4278 5.41665 86.3252 5.39752Z" fill="#F6F6F1"/>
<path d="M95.3847 5C89.7429 5 85.6207 9.32245 85.6207 14.9975C85.6207 20.6725 89.3494 24.995 94.9922 24.995C100.635 24.995 104.888 20.6725 104.888 14.9975C104.888 9.32245 100.993 5 95.3847 5ZM95.4743 23.3928C93.1334 23.3928 90.9133 19.9942 90.7956 15.3457C90.6768 10.6982 92.5598 6.60117 95.0586 6.60117C97.5575 6.60117 99.5834 10.4587 99.7021 15.1062C99.8209 19.7537 97.7538 23.3918 95.4753 23.3918" fill="#F6F6F1"/>
<path d="M5.43452 17.8244C6.5808 21.7705 10.3054 24.6679 14.3552 24.7534C15.5719 24.7947 16.8621 24.6015 18.0677 24.1597C18.1935 24.1134 18.1805 23.9292 18.0496 23.9C14.6521 23.1593 11.7325 20.6142 11.0029 17.1401C10.3326 13.9478 11.2998 10.6821 12.9865 7.95979C13.2632 7.51296 13.545 7.08222 13.8671 6.65853C13.9878 6.50053 14.0694 6.3546 14.2847 6.40291C14.486 6.4482 14.5061 6.62935 14.5736 6.92019C15.2519 9.88703 18.106 12.1152 21.2671 12.2037C21.3747 12.2068 21.4633 12.1182 21.4633 12.0105V5.63201C21.4633 5.50018 21.3566 5.3935 21.2248 5.3935H14.649C10.6828 5.43476 7.28628 7.85211 5.81695 11.2899C5.81695 11.2899 4.26912 14.2195 5.43452 17.8244Z" fill="#F6F6F1"/>
<path d="M11.1151 32.5312L8.74148 39.0767H7.37784L5 32.5312H6.3679L8.02557 37.5682H8.09375L9.74716 32.5312H11.1151Z" fill="#F6F6F1"/>
<path d="M11.7125 39.0767V32.5312H12.9866V39.0767H11.7125ZM12.356 31.5213C12.1344 31.5213 11.944 31.4474 11.7849 31.2997C11.6287 31.1491 11.5506 30.9702 11.5506 30.7628C11.5506 30.5526 11.6287 30.3736 11.7849 30.2259C11.944 30.0753 12.1344 30 12.356 30C12.5776 30 12.7665 30.0753 12.9227 30.2259C13.0818 30.3736 13.1614 30.5526 13.1614 30.7628C13.1614 30.9702 13.0818 31.1491 12.9227 31.2997C12.7665 31.4474 12.5776 31.5213 12.356 31.5213Z" fill="#F6F6F1"/>
<path d="M14.1008 39.0767V32.5312H15.3323V33.571H15.4005C15.5198 33.2188 15.73 32.9418 16.0312 32.7401C16.3352 32.5355 16.6789 32.4332 17.0624 32.4332C17.142 32.4332 17.2357 32.4361 17.3437 32.4418C17.4545 32.4474 17.5411 32.4545 17.6036 32.4631V33.6818C17.5525 33.6676 17.4616 33.652 17.3309 33.6349C17.2002 33.6151 17.0695 33.6051 16.9388 33.6051C16.6377 33.6051 16.3692 33.669 16.1335 33.7969C15.9005 33.9219 15.7158 34.0966 15.5795 34.321C15.4431 34.5426 15.3749 34.7955 15.3749 35.0795V39.0767H14.1008Z" fill="#F6F6F1"/>
<path d="M21.5484 32.5312V33.554H17.9731V32.5312H21.5484ZM18.9319 30.9631H20.206V37.1548C20.206 37.402 20.243 37.5881 20.3168 37.7131C20.3907 37.8352 20.4859 37.919 20.6023 37.9645C20.7217 38.0071 20.8509 38.0284 20.9901 38.0284C21.0924 38.0284 21.1819 38.0213 21.2586 38.0071C21.3353 37.9929 21.395 37.9815 21.4376 37.973L21.6677 39.0256C21.5938 39.054 21.4887 39.0824 21.3523 39.1108C21.216 39.142 21.0455 39.1591 20.841 39.1619C20.5058 39.1676 20.1933 39.108 19.9035 38.983C19.6137 38.858 19.3793 38.6648 19.2004 38.4034C19.0214 38.142 18.9319 37.8139 18.9319 37.419V30.9631Z" fill="#F6F6F1"/>
<path d="M26.5041 36.3622V32.5312H27.7825V39.0767H26.5297V37.9432H26.4615C26.3109 38.2926 26.0695 38.5838 25.7371 38.8168C25.4075 39.0469 24.997 39.1619 24.5055 39.1619C24.0851 39.1619 23.7129 39.0696 23.3891 38.8849C23.068 38.6974 22.8152 38.4205 22.6305 38.054C22.4487 37.6875 22.3578 37.2344 22.3578 36.6946V32.5312H23.632V36.5412C23.632 36.9872 23.7555 37.3423 24.0027 37.6065C24.2499 37.8707 24.5709 38.0028 24.9658 38.0028C25.2044 38.0028 25.4416 37.9432 25.6774 37.8239C25.916 37.7045 26.1135 37.5241 26.2697 37.2827C26.4288 37.0412 26.507 36.7344 26.5041 36.3622Z" fill="#F6F6F1"/>
<path d="M30.7994 39.2216C30.3846 39.2216 30.0096 39.1449 29.6744 38.9915C29.3391 38.8352 29.0735 38.6094 28.8775 38.3139C28.6843 38.0185 28.5877 37.6563 28.5877 37.2273C28.5877 36.858 28.6587 36.554 28.8008 36.3153C28.9428 36.0767 29.1346 35.8878 29.3761 35.7486C29.6175 35.6094 29.8874 35.5043 30.1857 35.4332C30.484 35.3622 30.788 35.3082 31.0977 35.2713C31.4897 35.2259 31.8079 35.1889 32.0522 35.1605C32.2965 35.1293 32.4741 35.0795 32.5849 35.0114C32.6957 34.9432 32.7511 34.8324 32.7511 34.679V34.6491C32.7511 34.277 32.646 33.9886 32.4357 33.7841C32.2283 33.5795 31.9187 33.4773 31.5067 33.4773C31.0778 33.4773 30.7397 33.5724 30.4925 33.7628C30.2482 33.9503 30.0792 34.1591 29.9854 34.3892L28.788 34.1165C28.93 33.7187 29.1374 33.3977 29.4102 33.1534C29.6857 32.9062 30.0025 32.7273 30.3604 32.6165C30.7184 32.5028 31.0948 32.446 31.4897 32.446C31.7511 32.446 32.0281 32.4773 32.3207 32.5398C32.6161 32.5994 32.8917 32.7102 33.1474 32.8722C33.4059 33.0341 33.6175 33.2656 33.7823 33.5668C33.9471 33.8651 34.0295 34.2528 34.0295 34.7301V39.0767H32.7852V38.1818H32.734C32.6516 38.3466 32.5281 38.5085 32.3633 38.6676C32.1985 38.8267 31.9869 38.9588 31.7283 39.0639C31.4698 39.169 31.1602 39.2216 30.7994 39.2216ZM31.0763 38.1989C31.4286 38.1989 31.7298 38.1293 31.9798 37.9901C32.2326 37.8509 32.4244 37.669 32.555 37.4446C32.6886 37.2173 32.7553 36.9744 32.7553 36.7159V35.8722C32.7099 35.9176 32.6218 35.9602 32.4911 36C32.3633 36.0369 32.217 36.0696 32.0522 36.098C31.8874 36.1236 31.7269 36.1477 31.5707 36.1705C31.4144 36.1903 31.2837 36.2074 31.1786 36.2216C30.9315 36.2528 30.7056 36.3054 30.5011 36.3793C30.2994 36.4531 30.1374 36.5597 30.0153 36.6989C29.896 36.8352 29.8363 37.017 29.8363 37.2443C29.8363 37.5597 29.9528 37.7983 30.1857 37.9602C30.4187 38.1193 30.7156 38.1989 31.0763 38.1989Z" fill="#F6F6F1"/>
<path d="M36.4007 30.3494V39.0767H35.1266V30.3494H36.4007Z" fill="#F6F6F1"/>
<path d="M43.146 32.5312V33.554H39.5707V32.5312H43.146ZM40.5295 30.9631H41.8037V37.1548C41.8037 37.402 41.8406 37.5881 41.9145 37.7131C41.9884 37.8352 42.0835 37.919 42.2 37.9645C42.3193 38.0071 42.4486 38.0284 42.5878 38.0284C42.6901 38.0284 42.7795 38.0213 42.8563 38.0071C42.933 37.9929 42.9926 37.9815 43.0352 37.973L43.2653 39.0256C43.1915 39.054 43.0864 39.0824 42.95 39.1108C42.8136 39.142 42.6432 39.1591 42.4386 39.1619C42.1034 39.1676 41.7909 39.108 41.5011 38.983C41.2114 38.858 40.977 38.6648 40.798 38.4034C40.619 38.142 40.5295 37.8139 40.5295 37.419V30.9631Z" fill="#F6F6F1"/>
<path d="M46.6423 39.2088C46.0286 39.2088 45.4931 39.0682 45.0357 38.7869C44.5783 38.5057 44.2232 38.1122 43.9704 37.6065C43.7175 37.1009 43.5911 36.5099 43.5911 35.8338C43.5911 35.1548 43.7175 34.5611 43.9704 34.0526C44.2232 33.544 44.5783 33.1491 45.0357 32.8679C45.4931 32.5866 46.0286 32.446 46.6423 32.446C47.2559 32.446 47.7914 32.5866 48.2488 32.8679C48.7062 33.1491 49.0613 33.544 49.3141 34.0526C49.567 34.5611 49.6934 35.1548 49.6934 35.8338C49.6934 36.5099 49.567 37.1009 49.3141 37.6065C49.0613 38.1122 48.7062 38.5057 48.2488 38.7869C47.7914 39.0682 47.2559 39.2088 46.6423 39.2088ZM46.6465 38.1392C47.0442 38.1392 47.3738 38.0341 47.6352 37.8239C47.8965 37.6136 48.0897 37.3338 48.2147 36.9844C48.3425 36.6349 48.4065 36.25 48.4065 35.8295C48.4065 35.4119 48.3425 35.0284 48.2147 34.679C48.0897 34.3267 47.8965 34.044 47.6352 33.831C47.3738 33.6179 47.0442 33.5114 46.6465 33.5114C46.2459 33.5114 45.9136 33.6179 45.6494 33.831C45.388 34.044 45.1934 34.3267 45.0656 34.679C44.9406 35.0284 44.8781 35.4119 44.8781 35.8295C44.8781 36.25 44.9406 36.6349 45.0656 36.9844C45.1934 37.3338 45.388 37.6136 45.6494 37.8239C45.9136 38.0341 46.2459 38.1392 46.6465 38.1392Z" fill="#F6F6F1"/>
<path d="M53.2727 39.2088C52.6591 39.2088 52.1236 39.0682 51.6662 38.7869C51.2088 38.5057 50.8537 38.1122 50.6009 37.6065C50.348 37.1009 50.2216 36.5099 50.2216 35.8338C50.2216 35.1548 50.348 34.5611 50.6009 34.0526C50.8537 33.544 51.2088 33.1491 51.6662 32.8679C52.1236 32.5866 52.6591 32.446 53.2727 32.446C53.8864 32.446 54.4219 32.5866 54.8793 32.8679C55.3366 33.1491 55.6918 33.544 55.9446 34.0526C56.1974 34.5611 56.3239 35.1548 56.3239 35.8338C56.3239 36.5099 56.1974 37.1009 55.9446 37.6065C55.6918 38.1122 55.3366 38.5057 54.8793 38.7869C54.4219 39.0682 53.8864 39.2088 53.2727 39.2088ZM53.277 38.1392C53.6747 38.1392 54.0043 38.0341 54.2656 37.8239C54.527 37.6136 54.7202 37.3338 54.8452 36.9844C54.973 36.6349 55.0369 36.25 55.0369 35.8295C55.0369 35.4119 54.973 35.0284 54.8452 34.679C54.7202 34.3267 54.527 34.044 54.2656 33.831C54.0043 33.6179 53.6747 33.5114 53.277 33.5114C52.8764 33.5114 52.544 33.6179 52.2798 33.831C52.0185 34.044 51.8239 34.3267 51.696 34.679C51.571 35.0284 51.5085 35.4119 51.5085 35.8295C51.5085 36.25 51.571 36.6349 51.696 36.9844C51.8239 37.3338 52.0185 37.6136 52.2798 37.8239C52.544 38.0341 52.8764 38.1392 53.277 38.1392Z" fill="#F6F6F1"/>
<path d="M58.4202 30.3494V39.0767H57.1461V30.3494H58.4202Z" fill="#F6F6F1"/>
<path d="M64.4392 34.1293L63.2844 34.3338C63.2361 34.1861 63.1594 34.0455 63.0543 33.9119C62.952 33.7784 62.8128 33.669 62.6367 33.5838C62.4605 33.4986 62.2403 33.456 61.9761 33.456C61.6153 33.456 61.3142 33.5369 61.0727 33.6989C60.8312 33.858 60.7105 34.0639 60.7105 34.3168C60.7105 34.5355 60.7915 34.7116 60.9534 34.8452C61.1153 34.9787 61.3767 35.0881 61.7375 35.1733L62.7773 35.4119C63.3795 35.5511 63.8284 35.7656 64.1239 36.0554C64.4193 36.3452 64.567 36.7216 64.567 37.1847C64.567 37.5767 64.4534 37.9261 64.2261 38.233C64.0017 38.5369 63.6878 38.7756 63.2844 38.9489C62.8838 39.1222 62.4193 39.2088 61.8909 39.2088C61.158 39.2088 60.5599 39.0526 60.0969 38.7401C59.6338 38.4247 59.3497 37.9773 59.2446 37.3977L60.4761 37.2102C60.5528 37.5313 60.7105 37.7741 60.9491 37.9389C61.1878 38.1009 61.4989 38.1818 61.8824 38.1818C62.3 38.1818 62.6338 38.0952 62.8838 37.9219C63.1338 37.7457 63.2588 37.5313 63.2588 37.2784C63.2588 37.0739 63.1821 36.902 63.0287 36.7628C62.8781 36.6236 62.6466 36.5185 62.3341 36.4474L61.2261 36.2045C60.6153 36.0653 60.1636 35.8438 59.871 35.5398C59.5812 35.2358 59.4364 34.8509 59.4364 34.3849C59.4364 33.9986 59.5443 33.6605 59.7602 33.3707C59.9761 33.081 60.2744 32.8551 60.6551 32.6932C61.0358 32.5284 61.4719 32.446 61.9634 32.446C62.6707 32.446 63.2276 32.5994 63.6338 32.9062C64.0401 33.2102 64.3085 33.6179 64.4392 34.1293Z" fill="#F6F6F1"/>
</svg>
