<svg width="500" height="500" fill="none" xmlns="http://www.w3.org/2000/svg"><g clip-path="url(#a)" fill="#1E1E1C"><path d="M259.3 101.37c9.74-6.65 10.01-22.43 3.26-31.28-.69-.9-1.81-1.53-2.87-1.88-.37-.12-1.96-.41-1.28.48 6.39 8.36 6.09 23.7-3.14 30.01-.88.6 3.04 3.35 4.04 2.66l-.01.01z"/><path d="M259.32 65.77c-2.11-10.97-4.21-21.94-6.32-32.9-.3-1.58-.61-3.15-.91-4.73-.24-1.24-4.24 1.2-4.42 2.16-2.05 10.97-4.1 21.94-6.14 32.9-.29 1.58-.59 3.15-.88 4.73l.73-1.05c-1.22 1.08-2.43 2.16-3.65 3.24-1.72 1.52-2.63 3.53-3.39 5.68-1.91 5.44-2.01 11.63-.04 17.08 1.1 3.04 2.89 5.68 5.35 7.77.97.83 5.12-1.79 3.98-2.77-5.97-5.09-7.33-14.03-5.61-21.33.43-1.81 1.06-3.56 1.94-5.21.09-.17.23-.36.3-.54.3-.73-.06.17-.3.19.06 0 .17-.16.22-.2.46-.38.89-.79 1.34-1.19 1.09-.96 3.27-2.29 3.62-3.79.8-3.46 1.31-7 1.96-10.49 1.04-5.55 2.07-11.1 3.11-16.65l1.92-10.27-4.42 2.16c2.11 10.97 4.21 21.94 6.32 32.9.3 1.58.61 3.15.91 4.73.18.94 4.68-.85 4.38-2.42zM198.21 488.53c0-11.61 1.04-23.36 4.4-34.51 1.84-6.12 4.45-12.08 8.09-17.35 1.78-2.57 3.85-4.98 6.08-7.04 2.48-2.28 4.82-3.93 7.66-5.44.84-.45 1.1-.57 1.8-.89.91-.42 1.84-.8 2.78-1.16 1.49-.56 3.37-1.11 5.06-1.52 4.01-.97 8.18-1.4 12.3-1.46 8.36-.12 16.84 1.05 24.54 4.43 12.31 5.41 20.64 16.09 25.2 28.51 4.07 11.06 5.42 22.96 5.64 34.69.02 1.21.03 2.41.03 3.62 0 1.34 4.46-.5 4.46-1.89 0-11.77-1-23.7-4.47-34.99-3.93-12.81-11.5-24.53-23.52-31.04-7.22-3.92-15.44-5.72-23.6-6.14-8.87-.45-17.84.58-26.13 3.87a48.35 48.35 0 0 0-18.22 12.74c-4.47 5.02-7.81 10.97-10.22 17.23-4.48 11.62-6.05 24.19-6.31 36.58-.03 1.22-.04 2.43-.04 3.65 0 1.34 4.46-.5 4.46-1.89h.01zM150.06 491.4c8.98-14.63 17.5-29.54 25.53-44.71 4.04-7.64 7.96-15.34 11.76-23.11 3.41-6.97 7.65-14.52 6.53-22.57-.54-3.87-2.01-7.5-3.08-11.23-1.07-3.73-1.47-7.15.91-10.31h-1.27c3.63 2.73 8.35 2.55 12.22.4 4.42-2.46 6.73-7.13 8.07-11.82 1.62-5.67 2.35-11.62 3.47-17.41 1.12-5.79 2.36-11.87 3.56-17.8 1.38-6.84 2.72-13.69 3.96-20.57.23-1.27-1.34-4.15-2.86-3.72-5.14 1.44-7.76-5.22-3.65-8.17 2.83-2.04 8.08-2.15 9.42-5.81 2.15-5.86 2.93-12.43 4-18.54 3.55-20.22 6.5-40.64 8.34-61.1.46-5.09 1.09-10.34.24-15.42-.94-5.66-3.9-12.38-10.29-13.2l2.56 3.8c1.4-5.17 7.97-7.8 12.61-5.37.48.25.94-.08.98-.58 2.07-25.1 2.45-50.33 1.15-75.48-.06-1.09-.88-2.46-1.8-3.04-.86-.54-1.42-.2-1.37.81 1.28 24.86.89 49.77-1.16 74.58l.98-.58c-5.71-2.99-12.92.42-14.56 6.53-.35 1.3 1.23 3.62 2.56 3.8 5.53.71 5.7 8.03 5.56 12.36-.14 4.33-.57 8.27-.98 12.39-1.05 10.5-2.41 20.98-3.9 31.42-1.43 9.99-2.97 19.96-4.79 29.88-.64 3.48-1.31 6.96-2.12 10.4-.36 1.51-.57 3.29-1.46 4.6-.11.15.11-.11.11-.11-.34.4-.87.71-1.32.98-.79.48-1.65.84-2.51 1.17-1.63.65-3.34 1.18-4.78 2.21-2.29 1.65-3.08 4.25-2.66 6.98.8 5.17 5.59 11.43 11.4 9.8l-2.86-3.72c-2.56 14.24-5.65 28.37-8.32 42.59-1.23 6.52-1.76 13.9-5.53 19.57-2.97 4.45-9.8 7.98-14.67 4.33-.41-.31-.93-.45-1.27 0-4.11 5.45-.99 12.6.78 18.33 1.14 3.71 1.69 7.23.89 11.09-.86 4.13-2.78 7.97-4.6 11.74a800.082 800.082 0 0 1-23.89 45.61c-4.79 8.48-9.74 16.87-14.84 25.17-.81 1.32 2.1 5.27 2.97 3.84l-.02-.01zM352.39 488.9a810.378 810.378 0 0 1-25.7-45.04 774.79 774.79 0 0 1-11.76-23.18c-1.82-3.73-3.8-7.47-4.95-11.47-1.15-4-.93-7.75.19-11.69 1.05-3.68 2.61-7.29 3.02-11.12.41-3.83-.61-7.05-2.82-9.98-.28-.37-1.27-1.47-1.87-1.03-4.54 3.4-11.14 1.28-14.03-3.27-1.65-2.6-2.4-5.73-3.02-8.71-.72-3.46-1.28-6.96-1.94-10.43-2.61-13.74-5.58-27.4-8.05-41.17l-.98 1.03c4.85 1.36 9.04-2.84 9.58-7.51.29-2.55-.59-5.13-2.17-7.13-1.98-2.49-4.91-3.38-7.73-4.55-.71-.3-1.36-.73-2.05-1.04-.85-.39-.33-.47-.13.03-.09-.23.42.62.27.39.68.98-.19-.62.08.15-.33-.96-.59-1.94-.83-2.92-.77-3.09-1.38-6.21-1.97-9.34-3.8-20.2-6.68-40.64-8.79-61.08-.5-4.8-1.09-9.66-1.16-14.49-.07-5.25.99-13.74 7.52-14.58.79-.1.66-1.08.51-1.64-1.82-6.73-9.54-12.24-16.34-8.69l2.86 3.27a559.143 559.143 0 0 1-1.15-74.58c.06-1.14-.58-2.38-1.39-3.15-.44-.42-1.72-1.16-1.78.01-1.29 25.15-.91 50.38 1.16 75.48.08.94 1.51 3.97 2.86 3.27 3.36-1.76 9.67-1.1 10.83 3.2l.51-1.64c-10.68 1.37-8.88 17.04-8.23 24.63.86 10.03 2.12 20.04 3.47 30.02s2.96 20.71 4.75 31.01c1.13 6.52 2.04 13.33 4.09 19.64.37 1.14.79 2.31 1.54 3.26 1.89 2.41 5.08 3.14 7.74 4.31 1.26.56 2.37.92 2.42 2.28.04 1.21-.37 2.43-.94 3.48-1.29 2.37-3.9 4.4-6.72 3.61-.72-.2-1.1.32-.98 1.03 2.22 12.37 4.84 24.65 7.25 36.98 1.15 5.92 1.98 11.95 3.44 17.81 1.29 5.19 3.6 10.48 7.87 13.91 3.94 3.17 9.88 4.65 14.21 1.41l-1.87-1.03c1.87 2.48.64 6.47-.15 9.15-.92 3.12-2.11 6.18-2.72 9.39-1.51 7.96 2.22 15.49 5.6 22.46 7.43 15.31 15.34 30.4 23.72 45.22 4.79 8.48 9.74 16.87 14.84 25.17.34.56 1.4 2.08 2.24 1.58.84-.5 0-2.21-.3-2.72h-.05z"/><path d="M242.09 196.16c.94-.35 1.88-.69 2.83-1l1.23-.39.64-.18c.09-.02.38-.1.13-.04a17.222 17.222 0 0 1 2.52-.45c.38-.05-.61.01.04 0 .3 0 .59-.02.89-.01.3.01.59.03.88.05-.6-.04.25.04.43.07.64.1 1.28.24 1.91.39 1.59.39 2.92.82 4.64 1.34 1.09.33 2.58.4 3.43-.54.75-.84.09-1.94-.87-2.23-3.38-1.03-6.82-2.26-10.38-2.32-3.74-.07-7.36 1.21-10.82 2.49-.91.34-1.69 1.31-.93 2.2.76.89 2.37 1.01 3.41.63l.02-.01zM228.23 309.42c7.25-1.81 14.8-2.28 22.25-2.24 7.45.04 14.52.57 21.62 2.02.99.2 2.64 0 3.09-1.09.45-1.09-.84-1.83-1.72-2.01-7.52-1.53-15.28-2.11-22.95-2.15-7.87-.04-15.92.43-23.58 2.34-.91.23-2.17.8-1.77 1.97.36 1.05 2.13 1.4 3.06 1.17v-.01zM201.19 398.23c12.63-1.44 25.35-1.96 38.05-2.17 13.61-.22 27.23 0 40.83.65 6.58.32 13.15.74 19.71 1.36.94.09 2.48-.47 2.52-1.59.04-1.23-1.59-1.57-2.48-1.65-12.43-1.16-24.92-1.71-37.4-1.95-13.8-.28-27.61-.16-41.4.54-7.06.36-14.11.87-21.13 1.67-.94.11-2.15.88-1.77 1.97.39 1.14 2.1 1.28 3.06 1.17h.01zM251.56 374.9h16.3c.72 0 .65-.94.57-1.45-.94-5.58-1.89-11.15-2.83-16.73l-4.54-26.81c-.35-2.04-.69-4.09-1.04-6.13-.11-.65-.82-3.22-1.85-3.22l-9.62.03c-1.47 0-.01 4.67 1.29 4.67h1.64c1.46 0 .02-4.67-1.29-4.67l-9.62-.03c-.34 0-.52.13-.58.5-.94 5.58-1.89 11.15-2.83 16.73l-4.54 26.81c-.35 2.04-.69 4.09-1.04 6.13-.14.83.15 1.75.49 2.48.2.43.76 1.69 1.38 1.69h18.13c1.46 0 .02-4.67-1.29-4.67h-18.13l1.87 4.18c.94-5.58 1.89-11.15 2.83-16.73l4.54-26.81c.35-2.04.69-4.09 1.04-6.13l-.58.5 9.62.03-1.29-4.67h-1.64l1.29 4.67 9.62-.03-1.85-3.22c.94 5.58 1.89 11.15 2.83 16.73l4.54 26.81c.35 2.04.69 4.09 1.04 6.13l.57-1.45h-16.3c-1.46 0-.02 4.67 1.29 4.67l-.02-.01z"/></g><defs><clipPath id="a"><path fill="#fff" d="M0 0h500v500H0z"/></clipPath></defs></svg>