<svg width="75" height="76" fill="none" xmlns="http://www.w3.org/2000/svg"><g clip-path="url(#a)" fill="#1D1D1B"><path d="M39.56 15.59c1.5-1.03 1.54-3.38.49-4.75-.34-.44-.91-.77-1.44-.94-.17-.05-.44-.16-.61-.08-.14.06-.11.21-.03.32.06.08.12.16.17.25.03.04.05.09.08.13.06.1-.02-.04.01.02.08.19.15.38.2.58.1.41.13.84.1 1.26v-.11c-.06.75-.35 1.48-.95 1.96l.09-.07s-.08.06-.13.09c-.35.24.37.71.54.83.27.17.56.33.86.43.15.05.47.17.61.08h.01z"/><path d="m39.63 9.53-1.05-5.45c-.07-.36-1.06.06-1.17.12-.37.18-.95.5-1.04.96l-1.02 5.45.37-.52c-.21.19-.43.37-.64.57-.45.43-.68 1.07-.79 1.67-.2 1.09.05 2.34.91 3.09.6.53 2.54-.9 2.19-1.21-.87-.77-1.09-2-.81-3.09.03-.11.06-.22.11-.33.05-.13.27-.4.02-.16-.29.28.15-.11.23-.18.26-.23.55-.45.66-.8.14-.48.19-1.01.28-1.5l.45-2.39.29-1.53-2.21 1.08 1.05 5.45c.09.47 2.34-.43 2.19-1.21l-.02-.02zM30.79 70.84c0-1.58.13-3.18.55-4.71.42-1.53 1.2-3.24 2.6-3.97 1.78-.92 4.41-.63 6.16.24 1.65.82 2.72 2.33 3.33 4.04.61 1.71.76 3.54.77 5.35 0 .67 2.23-.25 2.23-.95 0-3.69-.76-8.15-4.49-9.89-4.51-2.11-10.44.08-12.34 4.68-.81 1.95-1.04 4.07-1.05 6.16 0 .67 2.23-.25 2.23-.95h.01z"/><path d="M23.56 72.27c1.69-2.76 3.27-5.59 4.73-8.48.62-1.23 1.46-2.55 1.64-3.94.15-1.16-.94-2.81-.34-3.79h-.64c1.85 1.13 3.15-.51 3.54-2.24.57-2.51 1.02-5.08 1.48-7.61.1-.53-.59-2-1.28-1.9-.32-.03-.35.06-.09.29.07.29.18.33.32.12.17-.03.53-.27.72-.37.26-.13.51-.24.68-.49.22-.35.28-.95.36-1.35.38-1.8.65-3.63.91-5.46s.53-3.76.65-5.65c.11-1.66-.25-4.31-2.24-4.75l1.05 2.03c.25-.65.84-1.02 1.53-.75.24.1.47-.02.49-.29.3-3.69.35-7.39.17-11.09-.04-.72-1.65-2.47-1.59-1.12.17 3.55.11 7.1-.17 10.64l.49-.29c-.98-.39-2.01-.05-2.4.97-.23.6.38 1.89 1.05 2.03.5.11.04-.14.06.12.02.24 0 .47 0 .7-.02.39-.06.78-.1 1.17-.09 1-.21 2-.34 3-.26 2-.55 4-.91 5.98-.11.59-.14 1.35-.39 1.89-.28.61-.89.5-1.37.95-1.3 1.2.51 4.15 2.11 3.92l-1.28-1.9c-.33 1.81-.71 3.62-1.06 5.42-.17.88-.26 1.83-.56 2.68-.24.69-1.07 1.97-2.02 1.39-.2-.12-.48-.26-.64 0-.57.94-.24 1.94.05 2.93.51 1.72-.59 3.3-1.35 4.8-1.46 2.89-3.04 5.72-4.73 8.48-.4.66 1.05 2.63 1.49 1.92l-.02.04zM52.67 71.03c-1.71-2.8-3.32-5.67-4.79-8.61-.35-.7-.78-1.41-1.03-2.15-.31-.91-.09-1.57.16-2.46.32-1.1.23-2-.37-2.99-.16-.27-.7-1.04-1.12-.79-1.75 1.06-1.76-2.23-1.97-3.27-.32-1.59-.65-3.18-.94-4.77l-.31.56c.84.12 1.46-.55 1.56-1.36.1-.9-.47-1.91-1.16-2.45-.17-.13-.51-.36-.73-.41-.73-.16.2.33.13.75.03-.15-.12-.45-.16-.61-.18-.74-.3-1.49-.42-2.24-.34-1.99-.63-3.99-.87-6-.13-1.09-1.06-5.02.53-5.38.51-.11.28-.77.15-1.1-.51-1.31-1.76-2.53-3.24-1.95l1.43 1.63c-.28-3.54-.34-7.09-.17-10.64.03-.56-.28-1.21-.7-1.57-.22-.2-.86-.59-.89 0-.18 3.7-.13 7.4.17 11.09.04.53.72 1.91 1.43 1.63.24-.04.47-.11.69-.22l.15-1.1c-1.89.42-1.51 2.94-1.37 4.4.19 2.03.47 4.06.78 6.08.25 1.64.48 3.31.89 4.92.14.53.3 1.06.65 1.5.26.34.62.61 1.01.78.09.05.19.08.28.12.34.16.25 0-.28-.48-.12-.02-.49.42-.83.38-.29-.04-.34.37-.31.56.5 2.73.87 5.61 1.63 8.27.45 1.59 2.15 4.24 4.13 3.04l-1.12-.79c.12.2-.39 1.25-.47 1.55-.17.64-.21 1.26-.08 1.92.29 1.47 1.13 2.86 1.8 4.18 1.48 2.92 3.07 5.77 4.78 8.56.17.28.7 1.04 1.12.79.42-.25 0-1.11-.15-1.36l.01-.01z"/><path d="M36.8 29.35c.25-.09.5-.18.75-.25l-.3.08c.15-.04.29-.07.44-.08l-.33.02h.34l-.33-.03c.23.02.45.08.67.14l-.3-.09.5.15c.32.1.63.15.96.09.24-.04.59-.16.75-.36.14-.17.24-.4.13-.62a.986.986 0 0 0-.57-.49c-.64-.19-1.27-.41-1.95-.42-.68-.01-1.37.19-2.02.43-.22.08-.48.25-.58.48a.59.59 0 0 0 .12.63c.41.44 1.16.51 1.71.31l.01.01zM34.58 45.8c.49-.12.99-.2 1.5-.25.09 0 .45-.03.18-.02.14 0 .28-.02.42-.02.3-.01.6-.02.89-.02.55 0 1.1.04 1.65.08.19.01-.22-.03-.04 0 .06 0 .13.01.19.02.12.01.25.03.37.05.24.03.48.08.72.13.5.1 1.32 0 1.54-.55.22-.55-.42-.92-.86-1.01-1.17-.24-2.37-.33-3.56-.34-1.19-.01-2.47.06-3.65.36-.44.11-1.11.41-.89.98.2.52 1.05.7 1.53.59h.01zM30.66 58.66c4.62-.52 9.41-.43 14.04 0 .47.04 1.24-.23 1.26-.79.02-.61-.8-.79-1.24-.83-4.86-.45-9.86-.49-14.71.05-.47.05-1.07.44-.89.98.2.57 1.05.64 1.53.59h.01zM37.95 55.55h2.36c.36 0 .33-.47.28-.73-.35-2.09-.71-4.19-1.06-6.28l-.15-.91c-.06-.37-.19-.72-.38-1.05-.09-.16-.31-.57-.54-.56h-1.39c-.46 0-.3.75-.22 1.03.09.31.21.61.39.88.09.14.28.43.47.43h.24c.46 0 .3-.74.22-1.02-.09-.31-.21-.61-.39-.88-.09-.14-.28-.43-.47-.43h-1.39c-.17 0-.26.06-.29.24-.35 2.09-.71 4.19-1.06 6.28l-.15.91c-.07.41.08.87.24 1.24.1.21.38.85.69.85h2.63c.46 0 .3-.74.22-1.02-.09-.31-.21-.61-.39-.88-.09-.14-.28-.43-.47-.43h-2.63l.93 2.09c.35-2.09.71-4.19 1.06-6.28l.15-.91-.29.25h1.39c-.21-.77-.43-1.55-.64-2.33h-.24l.64 2.34h1.39c-.31-.54-.62-1.08-.93-1.61.35 2.09.71 4.19 1.06 6.28l.15.91.28-.73H37.3c-.46 0-.3.74-.22 1.02.09.31.21.61.39.88.09.14.28.43.47.43l.01-.01z"/></g><defs><clipPath id="a"><path fill="#fff" transform="translate(0 .5)" d="M0 0h75v75H0z"/></clipPath></defs></svg>