<svg width="75" height="76" fill="none" xmlns="http://www.w3.org/2000/svg"><g clip-path="url(#a)" fill="#1D1D1B"><path d="M24.05 48.43v-.04.06c0-.14 0-.29.02-.43.02-.46.07-.93.13-1.39.08-.57.18-1.14.34-1.69.02-.06.03-.17.06-.21l-.03.09c.01-.03.02-.07.04-.1.05-.14.1-.27.16-.4.05-.12.11-.23.17-.35.08-.15-.15.23 0 .02.04-.05.07-.11.11-.16.14-.21-.15.15-.05.05.04-.04.08-.08.11-.12.06-.07-.29.24-.1.09.21-.17-.28.16-.08.05s-.29.14-.08.04c.02 0 .04-.01.06-.02.12-.06-.12.04-.14.04.04 0 .13-.02.17-.04.1-.03-.21 0 0 0 .07 0 .14 0 .2.01.03 0 .22.04.1.01s.06.02.09.03c.07.02.13.05.19.08.1.05.2.11.29.17-.12-.08-.01 0 .04.04s.09.09.13.13c.17.18.31.4.43.62.03.05.05.11.08.16.02.03.03.06.04.09-.06-.13-.02-.05 0-.02.05.13.1.27.15.4.18.54.29 1.1.36 1.66.07.56.11 1.08.11 1.63v.52l1.69-1.34h-5.19c-.57 0-1.18.42-1.48.88-.2.3-.4.96.19.96h5.19c.38 0 .75-.19 1.04-.42.25-.2.63-.57.65-.92.04-.76 0-1.53-.07-2.28-.13-1.16-.38-2.52-1.17-3.43-1.04-1.21-2.75-.95-3.87.02s-1.66 2.46-1.93 3.93c-.16.92-.24 1.87-.25 2.81 0 .2.25.29.4.31.25.02.56-.11.77-.24.46-.29.93-.73.93-1.3zM29.24 38.44c.04-.76 0-1.53-.07-2.28-.13-1.16-.38-2.52-1.17-3.43-1.04-1.21-2.75-.95-3.87.02s-1.66 2.46-1.93 3.93c-.16.92-.24 1.87-.25 2.81 0 .19.25.31.4.31h5.19c.57 0 1.18-.42 1.48-.88.2-.3.4-.96-.19-.96h-5.19l.4.31v-.04c-.03-.01 0-.17 0 .06 0-.14 0-.29.02-.43.02-.46.07-.93.13-1.39.08-.57.18-1.14.34-1.69.02-.06.03-.17.06-.21l-.03.09c.01-.03.02-.07.04-.1.05-.14.1-.27.16-.4.05-.12.11-.23.17-.35.08-.15-.15.23 0 .02.04-.05.07-.11.11-.16.14-.21-.15.15-.05.05.04-.04.08-.08.11-.12.06-.07-.29.24-.1.09.21-.17-.28.16-.08.05s-.29.14-.08.04c.02 0 .04-.01.06-.02.12-.06-.12.04-.14.04.04 0 .13-.02.17-.04.1-.03-.21 0 0 0 .07 0 .14 0 .2.01.03 0 .22.04.1.01s.06.02.09.03c.07.02.13.05.19.08.1.05.2.11.29.17-.12-.08-.01 0 .04.04s.09.09.13.13c.17.18.31.4.43.62.03.05.05.11.08.16.02.03.03.06.04.09-.06-.13-.02-.05 0-.02.05.13.1.27.15.4.18.54.29 1.1.36 1.66.07.56.11 1.08.11 1.63v.52c-.03.54.48.58.89.4.29-.13.58-.31.79-.55.16-.18.39-.44.4-.69l.02-.01zM9.04 19.18v9.08c0 .56 2.46.31 2.46-.43v-9.08c0-.56-2.46-.31-2.46.43zM26.42 10.06H11.98c-.49 0-.53.33-.2.61.43.37 1.13.54 1.68.54H27.9c.49 0 .53-.33.2-.61-.43-.37-1.13-.54-1.68-.54zM37.71 9.58h-2.47c-.21 0-.4.06-.5.26-.1.2-.03.52.05.71.13.29.32.57.58.78.2.16.47.35.74.35h2.47c.21 0 .4-.06.5-.26.1-.2.03-.52-.05-.71a2.1 2.1 0 0 0-.58-.78c-.2-.16-.47-.35-.74-.35zM42.06 28.5c-.03-2.77-.04-5.54-.05-8.31 0-.58-.56-1.02-1.06-1.22-.31-.12-1.21-.28-1.2.31.01 2.77.01 5.54.05 8.31 0 .58.56 1.02 1.06 1.22.31.12 1.21.28 1.2-.31z"/><path d="M41.68 54.08V27.84c0-.28-.1-1.02-.53-1.02H10.49c-.67 0-.96.89-.96 1.44V54.5c0 1.67 1.49.85 1.49-.41V27.84l-.96 1.44h30.66l-.53-1.02V54.5c0 1.67 1.49.85 1.49-.41v-.01z"/><path d="M31.03 53.63H10.86c-.55 0-1.73.16-1.73.91 0 4.86 0 9.73-.07 14.59-.01.75 2.43.39 2.44-.53.07-4.86.07-9.73.07-14.59l-1.73.91h20.17c.49 0 1.35-.08 1.63-.58.25-.46-.16-.72-.62-.73l.01.02zM54 53.2H38.28c-.91 0-2.01 2.16-.72 2.16h15.72c.91 0 2.01-2.16.72-2.16zM62.65 53.04h-1.7c-.25 0-.45.13-.6.33a1.6 1.6 0 0 0-.3.87c-.01.29.01.64.18.9.12.19.3.41.55.41h1.7c.25 0 .45-.13.6-.33.18-.23.29-.58.3-.87.01-.29-.01-.64-.18-.9-.12-.19-.3-.41-.55-.41zM65.9 68.37c-.02-2.75-.03-5.5-.03-8.25 0-.51-.37-.76-.83-.5-.48.27-.91.95-.91 1.52 0 2.75.01 5.5.03 8.25 0 .51.37.76.83.5.46-.26.91-.95.91-1.52zM10.87 6.84c-.11 2.99-.22 5.98-.35 8.96-.02.54-.05 1.08-.08 1.61-.01.19-.12.57-.06.75-.08-.26.66-.53.82-.55-.14.01.23.01.2.04-.02.02-.17-.04-.2-.05-.09-.03-.17-.05-.26-.08-.05-.02-.1-.03-.15-.05-.22-.07.19.07.03.01-.55-.2-1.1-.41-1.64-.63-.87-.35-1.73-.71-2.59-1.07l.86 1.03V7.56l-.9.59 2.8-.09c.65-.02 1.3-.04 1.96-.05h.68c.23 0 .55.11.06-.04l-1.02-.69c.36.48 1 .83 1.61.73.51-.08.81-.58.47-1.04-.85-1.12-2.72-.74-3.94-.7-1.06.03-2.13.06-3.19.1-.37.01-.9.11-.9.59v9.25c0 .47.46.86.86 1.03.81.35 1.62.68 2.43 1.01.58.23 1.17.47 1.76.68.52.19 1.08.42 1.63.46.59.04.95-.2 1.02-.77.05-.39.05-.78.07-1.17.08-1.51.14-3.03.2-4.54l.21-5.49c.04-1.03-2.33-1.78-2.37-.6l-.02.02zM37.89 6.84c.12 3.23.23 6.46.39 9.68.05 1.01-.12 2.22.99 2.72 1.11.5 2.47-.29 3.47-.68 1-.39 1.98-.8 2.96-1.22.2-.09.37-.29.37-.51V7.58c0-.68-.89-1.17-1.48-1.19-1.03-.04-2.05-.07-3.08-.1-.66-.02-1.31-.04-1.97-.05-.38 0-1.21-.14-1.47.21-.35.46-.04.96.39 1.26.35.24 1.29.58 1.63.12-.11.14-.49.23-.57.19.05.02.17 0 .22 0h.72c.66.01 1.31.03 1.97.05l2.74.09-1.48-1.19v9.25l.37-.51c-.79.34-1.58.67-2.38.99-.57.23-1.14.46-1.72.67-.23.08-.47.16-.71.24-.12.04.17.02-.03 0-.25-.02.09 0 .09 0l.62.16h-.01c.18.11.35.23.53.35.1.14.19.29.29.44 0 .01.02.29.02.08 0-.1-.02-.2-.02-.3-.02-.31-.04-.62-.05-.93-.05-1.01-.09-2.03-.14-3.04-.1-2.31-.18-4.62-.27-6.94-.04-1.03-2.42-1.76-2.37-.6l-.02.01z"/><path d="M61.76 48.76c.12 3.23.23 6.46.39 9.68.05 1.01-.12 2.22.99 2.72 1.11.5 2.47-.29 3.47-.68 1-.39 1.98-.8 2.96-1.22.2-.09.37-.29.37-.51V49.5c0-.68-.89-1.17-1.48-1.19-1.03-.04-2.05-.07-3.08-.1-.66-.02-1.31-.04-1.97-.05-.38 0-1.21-.14-1.47.21-.35.46-.04.96.39 1.26.35.24 1.29.58 1.63.12-.11.14-.49.23-.57.19.05.02.17 0 .22 0h.72c.66.01 1.31.03 1.97.05l2.74.09-1.48-1.19v9.25l.37-.51c-.79.34-1.58.67-2.38.99-.57.23-1.14.46-1.72.67-.23.08-.47.16-.71.24-.12.04.17.02-.03 0-.25-.02.09 0 .09 0l.62.16h-.01c.18.11.35.23.53.35.1.14.19.29.29.44 0 .01.02.29.02.08 0-.1-.02-.2-.02-.3-.02-.31-.04-.62-.05-.93-.05-1.01-.09-2.03-.14-3.04-.1-2.31-.18-4.62-.27-6.94-.04-1.03-2.42-1.76-2.37-.6l-.02.01zM27.62 6.84c.13 3.18.21 6.36.3 9.54.05 1.62-.02 3.29.15 4.9.22 1.99 2.27 3.28 4.14 3.32 1.87.04 3.5-1.11 3.58-3 .02-.43 0-.87 0-1.3V7.56c0-.68-.89-1.17-1.48-1.19l-3.16-.09c-.67-.02-1.34-.03-2.01-.04-.46 0-.96-.06-1.36.21-.92.64 1.17 1.97 2.02 1.38-.19.13-.46.21-.55.19.07.02.15 0 .22 0h.73c.65.01 1.29.03 1.94.04.92.02 1.83.05 2.75.08l-1.48-1.19v13.28c0 .51.06 1.05-.19 1.52-.61 1.19-2.64 1.56-2.81-.11-.14-1.47-.08-2.98-.13-4.46-.09-3.25-.18-6.51-.31-9.76-.04-1.03-2.42-1.76-2.37-.6l.02.02zM38.7 64.82c-.13-3.18-.21-6.36-.3-9.54-.05-1.62.02-3.29-.15-4.9-.22-1.99-2.27-3.28-4.14-3.32-1.87-.04-3.5 1.11-3.58 3-.02.43 0 .87 0 1.3V64.1c0 .68.89 1.17 1.48 1.19l3.16.09c.67.02 1.34.03 2.01.04.46 0 .96.06 1.36-.21.92-.64-1.17-1.97-2.02-1.38.19-.13.46-.21.55-.19-.07-.02-.15 0-.22 0h-.73c-.65-.01-1.29-.03-1.94-.04-.92-.02-1.83-.05-2.75-.08l1.48 1.19V51.43c0-.51-.06-1.05.19-1.52.61-1.19 2.64-1.56 2.81.11.14 1.47.08 2.98.13 4.46.09 3.25.18 6.51.31 9.76.04 1.03 2.42 1.76 2.37.6l-.02-.02zM61.75 64.82c-.13-3.18-.21-6.36-.3-9.54-.05-1.62.02-3.29-.15-4.9-.22-1.99-2.27-3.28-4.14-3.32-1.87-.04-3.5 1.11-3.58 3-.02.43 0 .87 0 1.3V64.1c0 .68.89 1.17 1.48 1.19l3.16.09c.67.02 1.34.03 2.01.04.46 0 .96.06 1.36-.21.92-.64-1.17-1.97-2.02-1.38.19-.13.46-.21.55-.19-.07-.02-.15 0-.22 0h-.73c-.65-.01-1.29-.03-1.94-.04-.92-.02-1.83-.05-2.75-.08l1.48 1.19V51.43c0-.51-.06-1.05.19-1.52.61-1.19 2.64-1.56 2.81.11.14 1.47.08 2.98.13 4.46.09 3.25.18 6.51.31 9.76.04 1.03 2.42 1.76 2.37.6l-.02-.02z"/></g><defs><clipPath id="a"><path fill="#fff" transform="translate(0 .5)" d="M0 0h75v75H0z"/></clipPath></defs></svg>