<svg width="500" height="500" fill="none" xmlns="http://www.w3.org/2000/svg"><g clip-path="url(#a)" fill="#1E1E1C"><path d="M160.22 316.68v-.67c.02-.91.06-1.82.11-2.74.15-2.89.42-5.77.81-8.64.89-6.54 2.39-13.79 6.1-18.91.05-.07.46-.58.1-.14.12-.15.25-.29.38-.44.21-.23.43-.46.66-.68.45-.45-.43.35.06-.05.14-.12.29-.23.43-.35.11-.09.62-.43.04-.04.15-.1.3-.2.46-.29.16-.09.31-.18.47-.26-.54.28 0 0 .1-.03.12-.05.93-.33.49-.2.7-.21 1.42-.31 1.92-.31 3.03-.05 5.77 1.17 7.85 3.37 4.55 4.81 5.99 12.11 6.82 18.44.43 3.32.65 6.66.71 10.01.02 1.05.02 2.11 0 3.16 0-.52-.02.36-.02.54 0 .1 0 .2-.01.3l3.38-2.69h-31.64c-1.16 0-2.32.84-2.96 1.77-.41.6-.79 1.92.38 1.92h31.64c1.24 0 3.31-1.3 3.38-2.69.21-4.34 0-8.74-.46-13.05-.74-6.83-2.14-14.65-6.66-20.09-4.52-5.44-12.7-6.09-18.17-1.25-5.68 5.03-7.82 13.09-9.08 20.29-.94 5.32-1.46 10.78-1.46 16.18 0 1.12 1.9.4 2.34.14.93-.55 1.85-1.47 1.86-2.61l-.03.01zM191.85 255c.21-4.34 0-8.74-.46-13.05-.74-6.83-2.14-14.65-6.66-20.09-4.69-5.65-12.7-6.09-18.17-1.25-5.68 5.03-7.82 13.09-9.08 20.29-.94 5.32-1.46 10.78-1.46 16.18 0 .38.5.61.81.61h31.64c1.16 0 2.32-.84 2.96-1.77.41-.6.79-1.92-.38-1.92h-31.64l.81.61c0-.07-.02-.17 0-.24.02-.08 0-.2 0-.28v-.15c.02-.91.06-1.82.11-2.74.15-2.89.42-5.77.81-8.64.89-6.54 2.39-13.79 6.1-18.91.05-.07.46-.58.1-.14.12-.15.25-.29.38-.44.21-.23.43-.46.66-.68.45-.45-.43.35.06-.05.14-.12.29-.23.43-.35.11-.09.62-.43.04-.04.15-.1.3-.2.46-.29.16-.09.31-.18.47-.26-.54.28 0 0 .1-.03.12-.05.93-.33.49-.2.7-.21 1.42-.31 1.92-.31 3.03-.05 5.77 1.17 7.85 3.37 4.55 4.81 5.99 12.11 6.82 18.44.43 3.32.65 6.66.71 10.01.02 1.05.02 2.11 0 3.16 0-.52-.01.36-.02.54 0 .1 0 .2-.01.3-.11 2.32 4.1-.07 4.18-1.68h-.03zM126.2 80.65V66.56c0-.56-.2-2.05-1.05-2.05h-11.99c-1.35 0-1.92 1.77-1.92 2.88v14.09c0 .79.33 2.31 1.45 2.03 1.12-.28 1.52-1.92 1.52-2.85V66.57l-1.92 2.88h11.99l-1.05-2.05v14.09c0 .79.33 2.31 1.45 2.03 1.12-.28 1.52-1.92 1.52-2.85v-.02zM159.61 80.65V66.56c0-.56-.2-2.05-1.05-2.05h-11.99c-1.35 0-1.92 1.77-1.92 2.88v14.09c0 .79.33 2.31 1.45 2.03 1.12-.28 1.52-1.92 1.52-2.85V66.57l-1.92 2.88h11.99l-1.05-2.05v14.09c0 .79.33 2.31 1.45 2.03 1.12-.28 1.52-1.92 1.52-2.85v-.02zM300.29 345.32v-14.09c0-.56-.2-2.05-1.05-2.05h-11.99c-1.35 0-1.92 1.77-1.92 2.88v14.09c0 .79.33 2.31 1.45 2.03 1.12-.28 1.52-1.92 1.52-2.85v-14.09l-1.92 2.88h11.99l-1.05-2.05v14.09c0 .79.33 2.31 1.45 2.03 1.12-.28 1.52-1.92 1.52-2.85v-.02zM333.7 345.32v-14.09c0-.56-.2-2.05-1.05-2.05h-11.99c-1.35 0-1.92 1.77-1.92 2.88v14.09c0 .79.33 2.31 1.45 2.03 1.12-.28 1.52-1.92 1.52-2.85v-14.09l-1.92 2.88h11.99l-1.05-2.05v14.09c0 .79.33 2.31 1.45 2.03 1.12-.28 1.52-1.92 1.52-2.85v-.02zM78.09 135v55.35c0 1.12 4.93.63 4.93-.86v-55.35c0-1.12-4.93-.63-4.93.86z"/><path d="M182 82.68H94c-.97 0-1.07.66-.4 1.22.87.73 2.24 1.09 3.36 1.09h88c.97 0 1.07-.66.4-1.22-.87-.73-2.24-1.09-3.36-1.09zM249.52 81.73h-15.07c-1.11 0-1.27 1.09-.89 1.96.41.93 1.47 2.25 2.63 2.25h15.07c1.11 0 1.27-1.09.89-1.96-.41-.93-1.47-2.25-2.63-2.25zM269.65 190.83c-.17-13.61-.2-27.21-.25-40.82-.01-3.27-.03-6.53-.04-9.8 0-1.16-1.13-2.05-2.12-2.45-.62-.25-2.41-.55-2.41.62.06 13.61.1 27.21.2 40.82.02 3.27.05 6.53.09 9.8.01 1.16 1.12 2.05 2.12 2.45.61.25 2.42.55 2.41-.62z"/><path d="M268.87 349.41v-140.3c0-6.44.11-12.89 0-19.34v-.27c0-.56-.2-2.05-1.05-2.05H88.57c-2.42 0-4.84-.03-7.26 0h-.32c-1.35 0-1.92 1.77-1.92 2.88v140.3c0 6.44-.1 12.89 0 19.34v.27c0 .84.32 2.25 1.45 2.03 1.13-.22 1.52-1.97 1.52-2.85V196.05c0-2.08.12-4.2 0-6.28v-.27l-1.92 2.88h179.25c2.38 0 4.89.23 7.26 0 .1-.01.21 0 .32 0l-1.05-2.05v140.3c0 6.44-.1 12.89 0 19.34v.27c0 .84.32 2.25 1.45 2.03 1.13-.22 1.52-1.97 1.52-2.85v-.01z"/><path d="M204.96 348.52c-32.02 0-64.04-.01-96.06-.01H82.01c-1.1 0-3.45.32-3.45 1.83 0 23.07 0 46.13-.21 69.2-.06 6.57-.14 13.15-.24 19.72-.02 1.49 4.86.79 4.89-1.06.34-23.05.42-46.11.44-69.16v-19.76l-3.45 1.83h122.94c1.04 0 2.61-.18 3.25-1.15.59-.9-.39-1.45-1.23-1.45l.01.01zM345.51 347.65h-95.82c-1.82 0-4.01 4.33-1.45 4.33 24.93 0 49.86-.01 74.79-.01h21.03c1.82 0 4.01-4.33 1.45-4.33v.01zM399.35 347.32H389c-1.16 0-1.76 1.38-1.8 2.38-.03.86.26 2.61 1.46 2.61h10.35c1.16 0 1.76-1.38 1.8-2.38.03-.86-.26-2.61-1.46-2.61zM415.97 437.72c-.13-16.75-.18-33.51-.21-50.26 0-1.04-.74-1.49-1.66-1-.97.52-1.82 1.92-1.82 3.03.02 16.75.08 33.51.21 50.26 0 1.04.73 1.5 1.66 1 .93-.5 1.83-1.92 1.82-3.03zM89.02 61.93c-.69 18.7-1.36 37.4-2.23 56.08-.14 3.12-.29 6.24-.48 9.36-.06.93-.11 1.86-.2 2.78-.02.23-.07.46-.07.69 0 .04-.04.14-.03.18-.11-.36.41-.74.61-.85.33-.18 1.14-.04.31-.16.99.14-.45-.13-.75-.21-1.21-.33-2.41-.73-3.6-1.15.63.22-.52-.19-.7-.25-.34-.12-.67-.24-1.01-.37-.86-.31-1.71-.64-2.56-.96-1.84-.7-3.66-1.42-5.49-2.15-5.4-2.16-10.77-4.39-16.11-6.69l1.71 2.06V70.88c-.01-2.32-.01-4.65-.01-6.97l-1.79 1.18c10.11-.35 20.23-.72 30.35-.87 1.13-.02 2.26-.03 3.39-.03.34 0 .67.02 1.01.02.12 0 .24.03.35.02.02 0 .07.01.08 0-.45.14-2.1-.96-2.14-1l-.65-1.35c.08 2.07 4.84 3.52 4.75 1.2-.1-2.66-3.71-2.48-5.57-2.47-2.74.01-5.48.08-8.22.15-6.6.16-13.2.37-19.8.59-1.58.05-3.15.11-4.73.16-.74.03-1.79.22-1.79 1.18v49.41c.01 2.32.01 4.65.01 6.97 0 .93.93 1.73 1.71 2.06 4.73 2.03 9.48 4.01 14.26 5.94 3.55 1.43 7.11 2.85 10.71 4.15 2.47.9 5.18 2.1 7.84 2.33.86.07 2.04.03 2.44-.9.22-.51.2-1.24.25-1.79.21-2.57.32-5.14.45-7.71.45-9.16.82-18.33 1.18-27.5.43-10.86.84-21.72 1.24-32.58.08-2.06-4.66-3.57-4.75-1.2l.03.06zM253.7 61.93c.71 19.19 1.39 38.38 2.29 57.56.14 3 .28 6 .48 9 .15 2.18.06 4.31 2.7 5.01 2.13.56 4.67-.59 6.65-1.27 3.43-1.16 6.81-2.49 10.17-3.83 5.71-2.27 11.4-4.63 17.04-7.06.4-.17.74-.57.74-1.03V70.9c.01-2.32.01-4.65.01-6.97 0-1.37-1.78-2.34-2.96-2.38-10.56-.37-21.14-.78-31.71-.89-1.18-.01-5.37-.62-5.44 1.26-.08 2.06 4.66 3.57 4.75 1.2-.12.25-.23.51-.35.77-.16.18-1.25.47-.53.33.49-.1-.44 0-.16 0h.54c.89-.01 1.79 0 2.68.01 2.83.03 5.67.11 8.5.18 6.22.16 12.44.36 18.67.57 1.41.05 2.81.09 4.22.14l-2.96-2.38v49.41c-.01 2.32-.01 4.65-.01 6.97l.74-1.03c-4.5 1.93-9.03 3.82-13.57 5.66-3.45 1.4-6.9 2.77-10.39 4.06-1.42.52-2.84 1.03-4.27 1.5-.53.17-1.07.34-1.61.49.56-.16-.22.05-.35.08-.2.05-.4.08-.6.13-.15.03-.33.01-.47.06.29-.11.45-.02.8.06.75.18 1.83.99 2.08 1.66-.11-.3.04.52.03.2-.02-.65-.12-1.3-.17-1.95-.2-2.81-.33-5.62-.46-8.43-.43-9.02-.79-18.05-1.15-27.08-.41-10.47-.8-20.95-1.19-31.42-.08-2.06-4.83-3.52-4.75-1.2l.01.02z"/><path d="M399.16 317.41c.71 19.19 1.39 38.38 2.29 57.56.14 3 .28 6 .48 9 .15 2.18.06 4.31 2.7 5.01 2.13.56 4.67-.59 6.65-1.27 3.43-1.16 6.81-2.49 10.17-3.83 5.71-2.27 11.4-4.63 17.04-7.06.4-.17.74-.57.74-1.03v-49.41c.01-2.32.01-4.65.01-6.97 0-1.37-1.78-2.34-2.96-2.38-10.56-.37-21.14-.78-31.71-.89-1.18-.01-5.37-.62-5.44 1.26-.08 2.06 4.66 3.57 4.75 1.2-.12.25-.23.51-.35.77-.16.18-1.25.47-.53.33.49-.1-.44 0-.16 0h.54c.89-.01 1.79 0 2.68.01 2.83.03 5.67.11 8.5.18 6.22.16 12.44.36 18.67.57 1.41.05 2.81.09 4.22.14l-2.96-2.38v49.41c-.01 2.32-.01 4.65-.01 6.97l.74-1.03c-4.5 1.93-9.03 3.82-13.57 5.66-3.45 1.4-6.9 2.77-10.39 4.06-1.42.52-2.84 1.03-4.27 1.5-.53.17-1.07.34-1.61.49.56-.16-.22.05-.35.08-.2.05-.4.08-.6.13-.15.03-.33.01-.47.06.29-.11.45-.02.8.06.75.18 1.83.99 2.08 1.66-.11-.3.04.52.03.2-.02-.65-.12-1.3-.17-1.95-.2-2.81-.33-5.62-.46-8.43-.43-9.02-.79-18.05-1.15-27.08-.41-10.47-.8-20.95-1.19-31.42-.08-2.06-4.83-3.52-4.75-1.2l.01.02zM191.11 61.92c.76 18.51 1.23 37.03 1.77 55.54.29 9.86.57 19.71.85 29.57.07 2.48.29 4.86 1.31 7.15 1.14 2.55 2.88 4.71 5.04 6.47 4.45 3.62 10.44 5.19 16.1 4.39 8.25-1.16 15.02-7.59 15.03-16.14V95.02c0-10.22.16-20.46 0-30.67v-.5c0-1.36-1.78-2.34-2.96-2.38-10.56-.33-21.14-.7-31.71-.8-1.19-.01-5.36-.62-5.44 1.26-.09 2.06 4.64 3.57 4.75 1.2-.12.25-.23.51-.35.77-.18.19-1.24.45-.53.33.4-.06-.65 0-.16 0h3.22c2.83.03 5.67.09 8.5.16 6.22.15 12.44.32 18.67.51 1.41.04 2.81.08 4.22.13l-2.96-2.38v85.41c-.03 3.71-1.58 7.11-4.32 9.61-7.1 6.5-20.39 4.94-23.22-5.15-.58-2.08-.46-4.31-.52-6.45-.06-2.14-.13-4.47-.19-6.71l-.42-14.77c-.56-19.18-1.08-38.36-1.79-57.54l-.15-3.94c-.08-2.06-4.84-3.51-4.75-1.2l.01.01zM248.89 412.79c-.76-18.51-1.23-37.03-1.77-55.54-.29-9.86-.57-19.71-.85-29.57-.07-2.48-.29-4.86-1.31-7.15-1.14-2.55-2.88-4.71-5.04-6.47-4.45-3.62-10.44-5.19-16.1-4.39-8.25 1.16-15.02 7.59-15.03 16.14v53.88c0 10.22-.16 20.46 0 30.67v.5c0 1.36 1.78 2.34 2.96 2.38 10.56.33 21.14.7 31.71.8 1.19.01 5.36.62 5.44-1.26.09-2.06-4.64-3.57-4.75-1.2.12-.25.23-.51.35-.77.18-.19 1.24-.45.53-.33-.4.06.65 0 .16 0h-3.22c-2.83-.03-5.67-.09-8.5-.16-6.22-.15-12.44-.32-18.67-.51-1.41-.04-2.81-.08-4.22-.13l2.96 2.38v-85.41c.03-3.71 1.58-7.11 4.32-9.61 7.1-6.5 20.39-4.94 23.22 5.15.58 2.08.46 4.31.52 6.45.06 2.14.13 4.47.19 6.71l.42 14.77c.56 19.18 1.08 38.36 1.79 57.54l.15 3.94c.08 2.06 4.84 3.51 4.75 1.2l-.01-.01zM389.37 412.79c-.76-18.51-1.23-37.03-1.77-55.54-.29-9.86-.57-19.71-.85-29.57-.07-2.48-.29-4.86-1.31-7.15-1.14-2.55-2.88-4.71-5.04-6.47-4.45-3.62-10.44-5.19-16.1-4.39-8.25 1.16-15.02 7.59-15.03 16.14v53.88c0 10.22-.16 20.46 0 30.67v.5c0 1.36 1.78 2.34 2.96 2.38 10.56.33 21.14.7 31.71.8 1.19.01 5.36.62 5.44-1.26.09-2.06-4.64-3.57-4.75-1.2.12-.25.23-.51.35-.77.18-.19 1.24-.45.53-.33-.4.06.65 0 .16 0h-3.22c-2.83-.03-5.67-.09-8.5-.16-6.22-.15-12.44-.32-18.67-.51-1.41-.04-2.81-.08-4.22-.13l2.96 2.38v-85.41c.03-3.71 1.58-7.11 4.32-9.61 7.1-6.5 20.39-4.94 23.22 5.15.58 2.08.46 4.31.52 6.45.06 2.14.13 4.47.19 6.71l.42 14.77c.56 19.18 1.08 38.36 1.79 57.54l.15 3.94c.08 2.06 4.84 3.51 4.75 1.2l-.01-.01z"/></g><defs><clipPath id="a"><path fill="#fff" d="M0 0h500v500H0z"/></clipPath></defs></svg>