<svg width="500" height="500" fill="none" xmlns="http://www.w3.org/2000/svg"><g clip-path="url(#a)" fill="#1E1E1C"><path d="M114.81 484.88c2.24-9.13 4.47-18.26 6.71-27.39 3.54-14.44 7.07-28.87 10.61-43.31.81-3.3 1.62-6.6 2.42-9.89l-.81 1.39c7.14-7.72 14.28-15.43 21.42-23.15l3.03-3.27-3.24 1.01c4.16 7.71 8.32 15.41 12.49 23.12.59 1.1 1.19 2.2 1.78 3.3l-.13-.72c-1.95 9.07-3.9 18.14-5.85 27.2l-9.33 43.39c-.72 3.33-1.43 6.67-2.15 10-.24 1.12 1.09 1.08 1.79.81 1.02-.4 2.15-1.36 2.39-2.48l3.06-14.23 6.52-30.33c1.99-9.27 3.98-18.54 5.98-27.8l1.56-7.26c.09-.4.29-.95.22-1.36-.16-.85-.96-1.83-1.36-2.57l-12.72-23.55-.33-.62c-.6-1.11-2.86.59-3.24 1.01l-17.5 18.91c-2.3 2.48-4.65 4.92-6.89 7.45-1.11 1.25-1.29 3.2-1.68 4.78-2.08 8.49-4.16 16.97-6.23 25.46-2.68 10.94-5.36 21.88-8.04 32.83l-3.05 12.46c-.51 2.07-1.12 4.15-1.53 6.24-.02.09-.05.18-.07.28-.28 1.12 1.12 1.07 1.79.81 1.05-.41 2.12-1.36 2.39-2.48l-.01-.04zM126.81 350.52V156.85c0-3.66.04-7.33 0-10.99 0-.59-.19.48.09-.14.46-1.05.72-2.24 1.07-3.33l4.57-14.27 9.67-30.15c.2-.62.4-1.25.6-1.87l-4.19 2.07c2.27 7.07 4.54 14.14 6.8 21.22 2.91 9.07 5.82 18.14 8.72 27.21.24.76.48 1.35.49 2.13l.05 4.29c.07 6.19.13 12.39.2 18.58l.3 28.58.36 33.79.37 35.08.33 31.48c.08 7.98.17 15.95.25 23.93l.12 11.66v.52c.02 1.12 1.9.4 2.35.14.92-.54 1.87-1.48 1.86-2.61l-.09-8.13-.22-21.23-.32-30.23-.36-34.42c-.12-11.47-.24-23.13-.37-34.69-.11-10.03-.21-20.06-.32-30.09-.08-7.17-.15-14.34-.23-21.51l-.06-6.03c0-.71.09-1.51-.02-2.21-.09-.53-.35-1.08-.51-1.59l-1.45-4.52-4.69-14.63c-2.94-9.17-5.88-18.33-8.82-27.5l-.54-1.68c-.3-.92-1.42-.59-2.07-.28-.99.49-1.78 1.29-2.12 2.35-2.5 7.79-5 15.59-7.5 23.38l-5.42 16.89c-.99 3.1-2.28 6.23-3.02 9.4-.16.68-.08 1.43-.08 2.13v203.41c0 1.12 1.9.4 2.34.14.93-.54 1.86-1.47 1.86-2.61zM186.16 311.33V117.66c0-3.66.04-7.33 0-10.99 0-.59-.19.48.09-.14.46-1.05.72-2.24 1.07-3.33l4.57-14.27c3.22-10.05 6.44-20.1 9.67-30.15.2-.62.4-1.25.6-1.87l-4.19 2.07c2.27 7.07 4.54 14.14 6.8 21.22 2.91 9.07 5.82 18.14 8.72 27.21.24.76.48 1.35.49 2.13l.05 4.29.2 18.58.3 28.58.36 33.79.37 35.08.33 31.48.25 23.93.12 11.66v.52c.02 1.12 1.9.4 2.35.14.92-.54 1.87-1.48 1.86-2.61l-.09-8.13-.22-21.23c-.11-10.08-.21-20.15-.32-30.23l-.36-34.42c-.12-11.47-.24-23.13-.37-34.69l-.32-30.09c-.08-7.17-.15-14.34-.23-21.51l-.06-6.03c0-.71.09-1.51-.02-2.21-.09-.53-.35-1.08-.51-1.59l-1.45-4.52c-1.56-4.88-3.13-9.75-4.69-14.63-2.94-9.17-5.88-18.33-8.82-27.5l-.54-1.68c-.3-.92-1.42-.59-2.07-.28-.99.49-1.78 1.29-2.12 2.35-2.5 7.79-5 15.59-7.5 23.38l-5.42 16.89c-.99 3.1-2.28 6.23-3.02 9.4-.16.68-.08 1.43-.08 2.13V313.8c0 1.12 1.9.4 2.34.14.93-.54 1.86-1.47 1.86-2.61z"/><path d="M412.49 484.49c-1.33-5.35-2.66-10.7-3.98-16.05l-8.82-35.55-8.94-36.03-3.1-12.48c-.43-1.74-.64-3.84-1.36-5.49-.35-.81-1.48-1.36-2.19-1.87l-6.3-4.51-22.79-16.32c-10.3-7.38-20.6-14.75-30.9-22.13-10.68-7.65-21.36-15.29-32.03-22.94-8.72-6.24-17.44-12.49-26.16-18.73l-13.61-9.74c-.2-.15-.41-.29-.61-.44-.67-.48-1.98.42-2.47.77-3.16 2.26-6.32 4.53-9.48 6.79-7.95 5.69-15.89 11.38-23.84 17.07-10.47 7.5-20.94 14.99-31.41 22.49-10.47 7.5-21.12 15.12-31.67 22.68-8.5 6.08-16.99 12.17-25.49 18.25-4 2.86-8.11 5.62-12.02 8.61-1.39 1.07-1.61 2.3-2 3.86l-2.32 9.34c-2.77 11.15-5.53 22.29-8.3 33.44-3.1 12.48-6.19 24.96-9.29 37.43l-5.59 22.53-.27 1.09c-.28 1.14 1.12 1.05 1.79.81 1.05-.39 2.12-1.37 2.39-2.48 2.96-11.9 5.91-23.81 8.87-35.71l14.13-56.91 3.24-13.05-1.3 1.84c4.46-3.2 8.93-6.39 13.39-9.59 10.67-7.64 21.34-15.28 32.02-22.92 12.9-9.24 25.81-18.48 38.71-27.72 11.19-8.01 22.38-16.03 33.57-24.04l10.99-7.87c1.74-1.25 3.59-2.41 5.26-3.76.07-.06.15-.11.23-.16l-2.47.77c4.46 3.2 8.93 6.39 13.39 9.59 10.67 7.64 21.34 15.28 32.02 22.92 12.9 9.24 25.81 18.48 38.71 27.72 11.19 8.01 22.38 16.03 33.57 24.04l10.99 7.87c1.68 1.2 3.41 2.83 5.26 3.76.08.04.15.11.23.16l-.42-.53c2.96 11.9 5.91 23.81 8.87 35.71l14.13 56.91 3.24 13.05c.46 1.86 4.61-.82 4.2-2.47l-.07-.01z"/><path d="M389.1 484.49c-1.27-5.18-2.54-10.35-3.8-15.53-2.61-10.67-5.23-21.35-7.84-32.02-2.25-9.2-4.51-18.41-6.76-27.61-.43-1.76-.72-3.64-1.31-5.35-.19-.56-.64-.92-1.03-1.35l-3.6-3.89c-6.51-7.04-13.03-14.08-19.54-21.12l-.43-.47c-1.16-1.25-3.39 1.01-3.9 1.95-3.91 7.25-7.83 14.5-11.74 21.74l-2.23 4.13c-.29.53-.49 1-.4 1.62.28 1.9.82 3.79 1.22 5.67 1.88 8.75 3.76 17.51 5.65 26.26 2.22 10.34 4.45 20.68 6.67 31.02l2.46 11.44c.41 1.89.72 3.84 1.23 5.71.02.09.04.18.06.26.4 1.84 4.56-.8 4.2-2.47-1.95-9.07-3.9-18.14-5.85-27.2l-9.33-43.39c-.72-3.33-1.43-6.67-2.15-10l-.15.84c4.16-7.71 8.32-15.41 12.49-23.12.59-1.1 1.19-2.2 1.78-3.3l-3.9 1.95c5.78 6.25 11.56 12.49 17.34 18.74l4.69 5.07 1.54 1.67c.23.25.5.69.8.86.25.15-.08-.45-.04-.12.03.22.11.45.16.67l.69 2.81c2.09 8.51 4.17 17.03 6.26 25.54 2.67 10.89 5.34 21.79 8 32.68 1.51 6.15 2.77 12.42 4.53 18.5.03.09.05.18.07.28.45 1.86 4.6-.82 4.2-2.47h-.04zM171.94 484.88l3.6-13.21c2.86-10.49 5.72-20.98 8.57-31.48 3.47-12.72 6.93-25.44 10.4-38.17 2.99-10.99 5.99-21.99 8.98-32.98l2.95-10.84c.47-1.71 1.04-3.42 1.4-5.16l.06-.23-.81 1.39 14.63-14.93 23.34-23.82c1.8-1.83 3.59-3.67 5.39-5.5l-3.24 1.01 10.17 10.38c6.55 6.68 13.09 13.36 19.64 20.04l13.12 13.39c.11.11.24.31.38.39.2.12-.12-.36-.08-.23.08.25.14.51.21.76l1.16 4.11 4.78 16.91 6.93 24.53 7.83 27.72c2.61 9.24 4.98 17.62 7.47 26.43l5.86 20.74c.98 3.45 1.9 6.93 2.93 10.37.05.15.09.31.13.46.53 1.87 4.65-.85 4.2-2.47l-2.04-7.23c-1.76-6.22-3.52-12.45-5.27-18.67-2.4-8.49-4.79-16.97-7.19-25.46-2.63-9.31-5.26-18.62-7.89-27.94l-7.26-25.69-5.4-19.13-1.6-5.65c-.21-.74-.35-1.56-.64-2.28-.42-1.02-1.66-1.88-2.41-2.65-2.29-2.34-4.58-4.67-6.87-7.01-6.51-6.64-13.01-13.28-19.52-19.92-4.66-4.76-9.33-9.52-13.99-14.27-.24-.25-.48-.49-.72-.74-.9-.92-2.62.38-3.24 1.01l-10.17 10.38c-6.57 6.71-13.15 13.41-19.72 20.12-4.35 4.44-8.71 8.88-13.06 13.32-1.61 1.64-1.9 4.3-2.49 6.45l-4.53 16.63-6.69 24.57c-2.53 9.3-5.06 18.59-7.6 27.89s-4.84 17.76-7.26 26.64l-5.65 20.75c-.95 3.49-1.99 6.97-2.86 10.48-.04.16-.08.31-.13.47-.31 1.12 1.14 1.06 1.79.81 1.07-.42 2.09-1.35 2.39-2.48l.02-.01z"/><path d="M212.09 484.88A235870.488 235870.488 0 0 0 227.87 420c.74-3.02 1.47-6.05 2.21-9.07l-.81 1.39 18.95-21.65 2.74-3.13-3.24 1.01c5.16 5.89 10.31 11.78 15.47 17.68l4.12 4.71c.61.7 1.26 1.78 2.03 2.32.17.12-.08-.46-.05-.13.02.2.11.42.16.61l.66 2.62 5.91 23.43 7.55 29.92c1.42 5.64 2.63 11.39 4.28 16.96.03.09.04.18.07.26.47 1.86 4.61-.82 4.2-2.47-1.19-4.73-2.39-9.46-3.58-14.2-2.47-9.8-4.94-19.6-7.42-29.4-2.13-8.44-4.26-16.87-6.38-25.31-.41-1.62-.69-3.37-1.25-4.95-.18-.51-.55-.85-.91-1.25l-3.22-3.67-17.32-19.79-.4-.46c-.82-.94-2.7.39-3.24 1.01l-15.54 17.76c-2.03 2.32-4.09 4.62-6.1 6.97-1.04 1.22-1.22 2.97-1.59 4.49-1.89 7.75-3.77 15.5-5.66 23.25-2.45 10.08-4.9 20.16-7.36 30.24l-2.77 11.39c-.46 1.9-1.03 3.81-1.4 5.74l-.06.27c-.27 1.12 1.11 1.07 1.79.81 1.05-.41 2.12-1.36 2.39-2.48h-.01zM377.38 352.77V151.62c0-1.16.11-2.38 0-3.54-.12-1.28-.77-2.63-1.16-3.85-1.52-4.76-3.05-9.51-4.57-14.27l-9.67-30.15c-.2-.62-.4-1.25-.6-1.87-.3-.92-1.42-.59-2.07-.28-.99.49-1.78 1.29-2.12 2.35-2.27 7.07-4.54 14.14-6.8 21.22-2.91 9.08-5.83 18.17-8.74 27.25-.28.87-.47 1.56-.48 2.46l-.04 4.22-.2 18.58-.3 28.44-.36 34.02c-.12 11.34-.25 23.3-.37 34.95l-.33 31.61c-.08 7.95-.17 15.91-.25 23.86l-.12 11.73v.52c-.02 1.12 1.9.39 2.34.14.94-.55 1.84-1.47 1.86-2.61l.09-8.07c.08-7.1.15-14.19.23-21.29.11-10.04.21-20.08.32-30.11.12-11.51.24-23.03.37-34.54l.36-34.45.32-30.23c.08-7.16.15-14.33.23-21.49l.06-6.08c0-.73-.08-1.54.02-2.27-.1.68.02.25.12 0 .15-.39.26-.8.38-1.2l1.48-4.6c1.55-4.85 3.11-9.7 4.66-14.55 2.94-9.17 5.88-18.33 8.82-27.5l.54-1.68-4.19 2.07c2.5 7.79 5 15.59 7.5 23.38 1.81 5.63 3.61 11.26 5.42 16.89.99 3.1 2.25 6.22 3.01 9.39.14.58.08 1.18.08 1.77V355.22c0 1.12 1.9.4 2.34.14.93-.54 1.86-1.47 1.86-2.61l-.04.02zM318.03 313.58V112.43c0-1.16.11-2.38 0-3.54-.12-1.28-.77-2.63-1.16-3.85-1.52-4.76-3.05-9.51-4.57-14.27-3.22-10.05-6.44-20.1-9.67-30.15-.2-.62-.4-1.25-.6-1.87-.3-.92-1.42-.59-2.07-.28-.99.49-1.78 1.29-2.12 2.35-2.27 7.07-4.54 14.14-6.8 21.22l-8.74 27.25c-.28.87-.47 1.56-.48 2.46l-.04 4.22-.2 18.58-.3 28.44-.36 34.02c-.12 11.34-.25 23.3-.37 34.95l-.33 31.61c-.08 7.95-.17 15.91-.25 23.86l-.12 11.73v.52c-.02 1.12 1.9.39 2.34.14.94-.55 1.84-1.47 1.86-2.61l.09-8.07c.08-7.1.15-14.19.23-21.29.11-10.04.21-20.08.32-30.11.12-11.51.24-23.03.37-34.54l.36-34.45.32-30.23c.08-7.16.15-14.33.23-21.49l.06-6.08c0-.73-.08-1.54.02-2.27-.1.68.02.25.12 0 .15-.39.26-.8.38-1.2l1.48-4.6 4.66-14.55 8.82-27.5.54-1.68-4.19 2.07c2.5 7.79 5 15.59 7.5 23.38 1.81 5.63 3.61 11.26 5.42 16.89.99 3.1 2.25 6.22 3.01 9.39.14.58.08 1.18.08 1.77V316.03c0 1.12 1.9.4 2.34.14.93-.54 1.86-1.47 1.86-2.61l-.04.02zM232.66 141.5l30.25.39 4.32.06c1.18.02 1.52-4.96.53-4.97l-30.25-.39-4.32-.06c-1.18-.02-1.52 4.96-.53 4.97zM154.02 64.25c-.06 4.64-3.49 8.5-7.84 9.82-4.97 1.51-10.4-.17-13.69-4.17-2.87-3.49-3.61-8.69-1.04-12.54 2.75-4.13 8.07-5.95 12.84-4.85 5.47 1.26 9.66 6.06 9.73 11.74.01.94.6 1.9 1.62 1.44 1.02-.46 1.51-2.09 1.5-3.12-.08-6.35-3.84-12.27-9.93-14.42-6.15-2.17-12.86.24-16.81 5.26-3.95 5.02-4.96 13.14-1.45 18.91 3.26 5.37 9.73 8.25 15.89 6.74 7.5-1.83 12.2-9.01 12.3-16.51.01-.94-.61-1.89-1.62-1.44-1.07.48-1.49 2.08-1.5 3.12v.02zM213.15 28.76c-.06 4.64-3.49 8.5-7.84 9.82-4.97 1.51-10.4-.17-13.69-4.17-2.87-3.49-3.61-8.69-1.04-12.54 2.75-4.13 8.07-5.95 12.84-4.85 5.47 1.26 9.66 6.06 9.73 11.74.01.94.6 1.9 1.62 1.44 1.02-.46 1.51-2.09 1.5-3.12-.08-6.35-3.84-12.27-9.93-14.42-6.09-2.15-12.86.24-16.81 5.26-3.95 5.02-4.96 13.14-1.45 18.91 3.26 5.37 9.73 8.25 15.89 6.74 7.5-1.83 12.2-9.01 12.3-16.51.01-.94-.61-1.89-1.62-1.44-1.07.48-1.49 2.08-1.5 3.12v.02zM311.01 28.76c-.06 4.64-3.49 8.5-7.84 9.82-4.97 1.51-10.4-.17-13.69-4.17-2.87-3.49-3.61-8.69-1.04-12.54 2.75-4.13 8.07-5.95 12.84-4.85 5.47 1.26 9.66 6.06 9.73 11.74.01.94.6 1.9 1.62 1.44 1.02-.46 1.51-2.09 1.5-3.12-.08-6.35-3.84-12.27-9.93-14.42-6.09-2.15-12.86.24-16.81 5.26-3.95 5.02-4.96 13.14-1.45 18.91 3.26 5.37 9.73 8.25 15.89 6.74 7.5-1.83 12.2-9.01 12.3-16.51.01-.94-.61-1.89-1.62-1.44-1.07.48-1.49 2.08-1.5 3.12v.02zM261.23 212.56c-.01 7.85-.6 15.73-2.17 23.44-.59 2.9-1.37 5.77-2.39 8.55-.67 1.83-1.64 3.78-2.81 5.33-.08.11-.17.21-.25.31.02-.03.21-.23.05-.06-.12.14-.25.27-.39.4-.15.14-.3.28-.46.41-.06.05-.13.11-.2.16-.18.14.23-.14-.07.04-.72.44-.84.5-1.59.58-1.15.13-2.32-.61-3.27-1.59-3.27-3.37-4.65-8.81-5.7-13.26-1.76-7.42-2.47-15.07-2.65-22.68-.18-8.06.26-16.17 1.63-24.12.54-3.1 1.23-6.17 2.19-9.17.43-1.35.78-2.33 1.3-3.49.23-.51.47-1.02.73-1.52.13-.25.27-.5.4-.75.24-.43.03-.07.22-.36.27-.42.56-.82.86-1.22.07-.1.38-.45.14-.18.16-.18.34-.36.51-.53.15-.14.3-.27.46-.4.26-.22.07-.06.14-.1.32-.21.66-.4 1.02-.52-.26.09.05 0 .15-.03.16-.03.32-.06.49-.08.46-.06.35-.05.73.04.71.16 1.19.4 1.63.74 3.43 2.64 4.92 7.72 6.02 11.73 1.96 7.16 2.82 14.61 3.15 22.01.09 2.11.14 4.22.14 6.33 0 .94.6 1.89 1.62 1.44 1.02-.45 1.5-2.08 1.5-3.12-.01-8.59-.67-17.27-2.5-25.68-1.17-5.39-2.74-11.49-6.41-15.78-1.11-1.3-2.6-2.4-4.35-2.53-1.75-.13-3.4.78-4.67 1.98-4.03 3.82-5.85 9.98-7.14 15.2-2.01 8.15-2.85 16.56-3.06 24.94-.22 8.84.31 17.77 1.9 26.47 1.06 5.78 2.49 12.23 5.9 17.15 2.09 3.02 5.4 5.29 8.9 2.89 4.29-2.95 6.28-8.92 7.66-13.68 2.25-7.76 3.19-15.88 3.59-23.94.11-2.34.17-4.68.17-7.02 0-.94-.6-1.89-1.62-1.44-1.02.45-1.5 2.08-1.5 3.12v-.01zM370.36 64.25c-.06 4.64-3.49 8.5-7.84 9.82-4.97 1.51-10.4-.17-13.69-4.17-2.87-3.49-3.61-8.69-1.04-12.54 2.75-4.13 8.07-5.95 12.84-4.85 5.47 1.26 9.66 6.06 9.73 11.74.01.94.6 1.9 1.62 1.44 1.02-.46 1.51-2.09 1.5-3.12-.08-6.35-3.84-12.27-9.93-14.42-6.15-2.17-12.86.24-16.81 5.26-3.95 5.02-4.96 13.14-1.45 18.91 3.26 5.37 9.73 8.25 15.89 6.74 7.5-1.83 12.2-9.01 12.3-16.51.01-.94-.61-1.89-1.62-1.44-1.07.48-1.49 2.08-1.5 3.12v.02z"/></g><defs><clipPath id="a"><path fill="#fff" d="M0 0h500v500H0z"/></clipPath></defs></svg>