<svg width="75" height="76" fill="none" xmlns="http://www.w3.org/2000/svg"><g clip-path="url(#a)" fill="#1D1D1B"><path d="M21.76 69.68c.8-3.28 1.61-6.57 2.41-9.85l-.4.69 2.99-3.23-1.62.5c.58 1.08 1.16 2.15 1.74 3.23l-.07-.36c-.71 3.28-1.41 6.57-2.12 9.85-.12.56.55.54.89.4.51-.2 1.08-.68 1.2-1.24l1.2-5.56.72-3.36c.13-.6.29-.99 0-1.55-.53-.99-1.07-1.98-1.6-2.97-.3-.56-1.43.3-1.62.5l-2.17 2.35c-.55.6-1.1 1.1-1.3 1.91l-1.73 7.07-.6 2.44c-.14.56.56.53.89.4.52-.21 1.06-.68 1.2-1.24l-.01.02zM20.66 53.73v-25.2c0-1.88-.18-3.87 0-5.75 0-.06.03-.22 0-.03-.04.22.12-.3.14-.36.27-.75.49-1.52.73-2.28.47-1.46.94-2.93 1.41-4.39l-2.09 1.04c.34 1.07.69 2.14 1.03 3.21.4 1.24.99 2.55 1.23 3.83.22 1.18.05 2.54.07 3.73l.19 18.95.05 5.33c0 .83 2.11-.36 2.1-1.23-.05-4.57-.09-9.14-.14-13.71l-.1-9.66c-.01-1.46.16-3.09-.05-4.54-.15-1.07-.7-2.2-1.03-3.22-.42-1.31-.84-2.61-1.26-3.92-.34-1.07-1.94.56-2.09 1.04-.39 1.23-.79 2.46-1.18 3.68-.37 1.16-.98 2.43-1.11 3.64-.15 1.48 0 3.05 0 4.53v26.55c0 .83 2.1-.36 2.1-1.23v-.01zM30.13 47.32V21.91c0-1.88-.18-3.85 0-5.73v-.12c-.07.45.11-.19.14-.27.28-.74.49-1.52.73-2.28.47-1.46.94-2.93 1.41-4.39l-2.09 1.04c.34 1.07.69 2.14 1.03 3.21.4 1.24.99 2.55 1.23 3.83.22 1.18.05 2.54.07 3.73l.19 18.95.05 5.33c0 .83 2.11-.36 2.1-1.23-.05-4.57-.09-9.14-.14-13.71l-.1-9.66c-.01-1.46.16-3.09-.05-4.54-.15-1.07-.7-2.2-1.03-3.22-.42-1.31-.84-2.61-1.26-3.92-.34-1.07-1.94.56-2.09 1.04-.39 1.23-.79 2.46-1.18 3.68-.37 1.15-.99 2.43-1.11 3.64-.15 1.5 0 3.1 0 4.61v26.66c0 .83 2.1-.36 2.1-1.23v-.01z"/><path d="M61.46 71.05c-.62-2.52-1.25-5.03-1.87-7.55l-1.27-5.1c-.18-.73-.24-1.79-.61-2.44-.24-.43-.85-.72-1.24-1.01l-3.17-2.27-9.13-6.54c-1.94-1.39-3.88-2.78-5.83-4.17-.33-.24-.99.21-1.23.38L23.04 52.43c-1.67 1.2-3.52 2.3-5.08 3.64-.72.61-.8 1.5-1.02 2.37l-1.16 4.66c-.74 2.99-1.49 5.99-2.23 8.98-.14.57.56.52.89.4.53-.19 1.06-.69 1.2-1.24l3.75-15.09-.65.92c5.58-4 11.17-8 16.75-11.99.8-.58 1.61-1.15 2.41-1.73l-1.23.38 13.71 9.81c1.8 1.29 3.57 2.64 5.41 3.87-.23-.15-.11-.34-.09.08.02.42.22.89.32 1.29l1.18 4.75c.72 2.92 1.45 5.83 2.17 8.75.23.93 2.3-.41 2.1-1.23h-.01z"/><path d="m55.3 69.48-1.44-5.87-.82-3.36c-.05-.2-.08-.43-.15-.62-.12-.3-.41-.53-.62-.77-.81-.88-1.62-1.76-2.44-2.63-.58-.62-1.7.5-1.95.97-.48.89-.96 1.77-1.44 2.66-.17.31-.4.63-.38 1 .01.21.09.43.14.63l1.51 7.01c.16.73.32 1.47.47 2.2.2.92 2.28-.4 2.1-1.23-.71-3.28-1.41-6.57-2.12-9.85l-.08.42c.58-1.08 1.16-2.15 1.74-3.23l-1.95.97c.7.75 1.4 1.51 2.09 2.26.29.32.58.65.88.95-.1-.1-.05-.21-.03-.04 0 .11.06.23.08.34l1.73 7.08.57 2.33c.23.93 2.3-.41 2.1-1.23l.01.01zM31.4 66.75c1.07-3.92 2.14-7.84 3.2-11.76l-.4.69c1.29-1.31 2.57-2.63 3.86-3.94l-1.62.5c.88.89 1.75 1.79 2.63 2.68.39.4.77.83 1.19 1.21.14.13-.07-.23 0-.03.04.13.07.26.11.39l2.4 8.51c.26.93.52 1.86.79 2.78.27.92 2.33-.42 2.1-1.23-.67-2.38-1.35-4.77-2.02-7.15l-1.11-3.93c-.06-.21-.1-.47-.19-.67-.17-.37-.54-.64-.82-.93l-3.11-3.17c-.45-.46-1.31.19-1.62.5-.91.93-1.82 1.86-2.73 2.78-.66.67-1.37 1.24-1.62 2.17l-2.32 8.53c-.26.97-.53 1.94-.79 2.92-.15.57.57.52.89.4.54-.2 1.05-.69 1.2-1.24l-.02-.01zM56.44 53.24V28.38c0-1.72.23-3.62 0-5.33-.13-1.01-.64-2.07-.95-3.04l-1.33-4.16c-.34-1.07-1.94.56-2.09 1.04-.73 2.28-1.75 4.62-2.23 6.97-.23 1.13-.08 2.43-.09 3.58-.06 6.14-.13 12.28-.19 18.42l-.06 5.28c0 .82 2.09-.36 2.1-1.23.05-4.45.09-8.89.14-13.34l.1-9.19c.01-1.41-.18-3 .05-4.39-.05.3.02.09.07-.05.1-.27.18-.55.26-.83l.76-2.38 1.18-3.68-2.09 1.04 1.14 3.56c.36 1.13.96 2.38 1.14 3.56.22 1.41 0 3.03 0 4.46V54.48c0 .83 2.1-.36 2.1-1.23l-.01-.01zM46.97 47.64V22.78c0-1.72.23-3.62 0-5.33-.13-1.01-.64-2.07-.95-3.04l-1.33-4.16c-.34-1.07-1.94.56-2.09 1.04-.73 2.28-1.75 4.62-2.23 6.97-.23 1.13-.08 2.43-.09 3.58-.06 6.14-.13 12.28-.19 18.42l-.06 5.28c0 .82 2.09-.36 2.1-1.23.05-4.45.09-8.89.14-13.34l.1-9.19c.01-1.41-.18-3 .05-4.39-.05.3.02.09.07-.05.1-.27.18-.55.26-.83l.76-2.38 1.18-3.68-2.09 1.04 1.14 3.56c.36 1.13.96 2.38 1.14 3.56.22 1.41 0 3.03 0 4.46V48.88c0 .83 2.1-.36 2.1-1.23l-.01-.01zM23.24 11.77c0 .21.03-.24 0-.12 0 .04-.01.09-.02.13-.02.21.09-.32.03-.12l-.03.1c-.06.2.15-.3.05-.12-.02.03-.03.06-.05.09-.08.18.17-.25.05-.09-.03.03-.05.07-.07.1-.06.08-.14.1.07-.07l-.09.09c-.03.03-.06.06-.09.08-.12.11.15-.09.06-.04-.16.09-.31.18-.48.24l.2-.07c-.26.08-.52.11-.79.1h.2c-.3-.01-.58-.1-.84-.25l.17.1c-.22-.13-.41-.3-.56-.51l.13.17c-.08-.11-.15-.23-.21-.35-.11-.23.03.15-.01-.01-.02-.07-.04-.13-.05-.2-.05-.27 0 .19 0 .01v-.11c0-.12 0-.07-.01.14l.03-.21c-.04.39-.05.22-.01.1.08-.25-.14.28-.04.09.01-.03.03-.06.05-.09.06-.1.03-.06-.08.13.04-.05.08-.11.12-.17.11-.15-.21.21-.01.02.05-.04.11-.08.15-.13-.13.09-.15.11-.07.05.03-.02.06-.04.09-.05.12-.07.24-.13.37-.17l-.2.07c.26-.08.52-.11.79-.1h-.2c.3.01.58.1.84.25l-.17-.1c.22.13.41.3.56.51l-.13-.17c.06.08.11.15.15.24.02.04.04.08.06.11.04.09.03.18 0-.04.01.08.05.17.07.25.02.13-.03.16 0-.06v.16c0 .42.31 1.01.81.72.5-.29.76-1 .75-1.56-.02-1.12-.61-2.22-1.71-2.61-1.1-.39-2.28.16-2.97 1.06-.8 1.05-1.09 2.72-.39 3.89.53.89 1.58 1.43 2.62 1.18 1.57-.37 2.43-2 2.45-3.52 0-.43-.32-1-.81-.72-.52.3-.74.99-.75 1.56l-.03.02zM32.68 5.7c0 .21.03-.24 0-.12 0 .04-.01.09-.02.13-.02.21.09-.32.03-.12l-.03.1c-.06.2.15-.3.05-.12-.02.03-.03.06-.05.09-.08.18.17-.25.05-.09-.03.03-.05.07-.07.1-.06.08-.14.1.07-.07l-.09.09c-.03.03-.06.06-.09.08-.12.11.15-.09.06-.04-.16.09-.31.18-.48.24l.2-.07c-.26.08-.52.11-.79.1h.2c-.3-.01-.58-.1-.84-.25l.17.1c-.22-.13-.41-.3-.56-.51l.13.17c-.08-.11-.15-.23-.21-.35-.11-.23.03.15-.01-.01-.02-.07-.04-.13-.05-.2-.05-.27 0 .19 0 .01v-.11c0-.12 0-.07-.01.14l.03-.21c-.04.39-.05.22-.01.1.08-.25-.14.28-.04.09.01-.03.03-.06.05-.09.06-.1.03-.06-.08.13.04-.05.08-.11.12-.17.11-.15-.21.21-.01.02.05-.04.11-.08.15-.13-.13.09-.15.11-.07.05.03-.02.06-.04.09-.05.12-.07.24-.13.37-.17l-.2.07c.26-.08.52-.11.79-.1h-.2c.3.01.58.1.84.25l-.17-.1c.22.13.41.3.56.51l-.13-.17c.06.08.11.15.15.24.02.04.04.08.06.11.04.09.03.18 0-.04.01.08.05.17.07.25.02.13-.03.16 0-.06v.16c0 .42.31 1.01.81.72.5-.29.76-1 .75-1.56-.02-1.12-.61-2.22-1.71-2.61-1.1-.39-2.28.16-2.97 1.06-.8 1.05-1.09 2.72-.39 3.89.53.89 1.58 1.43 2.62 1.18 1.57-.37 2.43-2 2.45-3.52 0-.43-.32-1-.81-.72-.52.3-.74.99-.75 1.56l-.03.02zM44.66 6.7c0 .21.03-.24 0-.12 0 .04-.01.09-.02.13-.02.21.09-.32.03-.12l-.03.1c-.06.2.15-.3.05-.12-.02.03-.03.06-.05.09-.08.18.17-.25.05-.09-.03.03-.05.07-.07.1-.06.08-.14.1.07-.07l-.09.09c-.03.03-.06.06-.09.08-.12.11.15-.09.06-.04-.16.09-.31.18-.48.24l.2-.07c-.26.08-.52.11-.79.1h.2c-.3-.01-.58-.1-.84-.25l.17.1c-.22-.13-.41-.3-.56-.51l.13.17c-.08-.11-.15-.23-.21-.35-.11-.23.03.15-.01-.01-.02-.07-.04-.13-.05-.2-.05-.27 0 .19 0 .01v-.11c0-.12 0-.07-.01.14l.03-.21c-.04.39-.05.22-.01.1.08-.25-.14.28-.04.09.01-.03.03-.06.05-.09.06-.1.03-.06-.08.13.04-.05.08-.11.12-.17.11-.15-.21.21-.01.02.05-.04.11-.08.15-.13-.13.09-.15.11-.07.05.03-.02.06-.04.09-.05.12-.07.24-.13.37-.17l-.2.07c.26-.08.52-.11.79-.1h-.2c.3.01.58.1.84.25l-.17-.1c.22.13.41.3.56.51l-.13-.17c.06.08.11.15.15.24.02.04.04.08.06.11.04.09.03.18 0-.04.01.08.05.17.07.25.02.13-.03.16 0-.06v.16c0 .42.31 1.01.81.72.5-.29.76-1 .75-1.56-.02-1.12-.61-2.22-1.71-2.61-1.1-.39-2.28.16-2.97 1.06-.8 1.05-1.09 2.72-.39 3.89.53.89 1.58 1.43 2.62 1.18 1.57-.37 2.43-2 2.45-3.52 0-.43-.32-1-.81-.72-.52.3-.74.99-.75 1.56l-.03.02zM54.13 11.77c0 .21.03-.24 0-.12 0 .04-.01.09-.02.13-.02.21.09-.32.03-.12l-.03.1c-.06.2.15-.3.05-.12-.02.03-.03.06-.05.09-.08.18.17-.25.05-.09-.03.03-.05.07-.07.1-.06.08-.14.1.07-.07l-.09.09c-.03.03-.06.06-.09.08-.12.11.15-.09.06-.04-.16.09-.31.18-.48.24l.2-.07c-.26.08-.52.11-.79.1h.2c-.3-.01-.58-.1-.84-.25l.17.1c-.22-.13-.41-.3-.56-.51l.13.17c-.08-.11-.15-.23-.21-.35-.11-.23.03.15-.01-.01-.02-.07-.04-.13-.05-.2-.05-.27 0 .19 0 .01v-.11c0-.12 0-.07-.01.14l.03-.21c-.04.39-.05.22-.01.1.08-.25-.14.28-.04.09.01-.03.03-.06.05-.09.06-.1.03-.06-.08.13.04-.05.08-.11.12-.17.11-.15-.21.21-.01.02.05-.04.11-.08.15-.13-.13.09-.15.11-.07.05.03-.02.06-.04.09-.05.12-.07.24-.13.37-.17l-.2.07c.26-.08.52-.11.79-.1h-.2c.3.01.58.1.84.25l-.17-.1c.22.13.41.3.56.51l-.13-.17c.06.08.11.15.15.24.02.04.04.08.06.11.04.09.03.18 0-.04.01.08.05.17.07.25.02.13-.03.16 0-.06v.16c0 .42.31 1.01.81.72.5-.29.76-1 .75-1.56-.02-1.12-.61-2.22-1.71-2.61-1.1-.39-2.28.16-2.97 1.06-.8 1.05-1.09 2.72-.39 3.89.53.89 1.58 1.43 2.62 1.18 1.57-.37 2.43-2 2.45-3.52 0-.43-.32-1-.81-.72-.52.3-.74.99-.75 1.56l-.03.02z"/></g><defs><clipPath id="a"><path fill="#fff" transform="translate(0 .5)" d="M0 0h75v75H0z"/></clipPath></defs></svg>