<svg width="75" height="76" fill="none" xmlns="http://www.w3.org/2000/svg"><g clip-path="url(#a)" fill="#1D1D1B"><path d="M23.36 60.29V54.6c0-.28-.1-1.02-.53-1.02H3c-.67 0-.96.89-.96 1.44v5.69c0 .28.1 1.02.53 1.02H72c.67 0 .96-.89.96-1.44V54.6c0-.28-.1-1.02-.53-1.02H52.6c-.67 0-.96.89-.96 1.44v5.69c0 1.67 1.49.85 1.49-.41v-5.69l-.96 1.44H72l-.53-1.02v5.69l.96-1.44H3l.53 1.02v-5.69l-.96 1.44H22.4l-.53-1.02v5.69c0 1.67 1.49.85 1.49-.41v-.02z"/><path d="M53.26 54.66v-6.59c0-.28-.1-1.02-.53-1.02H22.7c-.67 0-.96.89-.96 1.44v6.59c0 1.67 1.49.85 1.49-.41v-6.59l-.96 1.44H52.3l-.53-1.02v6.59c0 1.67 1.49.85 1.49-.41v-.02zM23.54 31.42h27.48c1.02 0 1.36-2.46.43-2.46H23.97c-1.02 0-1.36 2.46-.43 2.46zM23.97 33.83H5.95c-1.02 0-1.36 2.46-.43 2.46h18.02c1.02 0 1.36-2.46.43-2.46zM69.48 33.83H51.45c-1.02 0-1.36 2.46-.43 2.46h18.03c1.02 0 1.36-2.46.43-2.46zM38.75 17.95c0 .2.04-.33 0-.03-.02.12-.09.24.03-.11-.02.06-.04.12-.05.18-.03.1.15-.34.03-.09-.11.23.06-.06.05-.08 0 .02-.11.15-.12.17-.11.15.19-.18.04-.05-.04.04-.09.08-.13.13-.16.15.16-.09 0 0-.05.03-.09.06-.14.08-.06.03-.13.07-.19.09l-.05.02c-.08.03-.07.03.05-.02 0 .03-.35.08-.38.08-.13.01-.26.01-.39 0h.2c-.31-.02-.6-.11-.87-.27l.17.1c-.17-.11-.33-.23-.47-.39 0 0-.08-.1-.09-.1.07.1.08.12.03.04l-.03-.04c-.06-.09-.1-.19-.15-.28-.07-.15.05.16.02.05-.01-.05-.03-.1-.04-.16l-.03-.13c-.04-.2.01.24 0 .05 0-.03.01-.14 0-.17.03.06-.03.31 0 .08 0-.06.05-.23 0 0s0 .03.01-.02c.07-.22-.03.13-.06.13l.07-.14c.09-.19-.17.25-.05.08l.08-.11c.13-.18-.12.12-.04.05l.09-.09c.03-.03.1-.06.12-.1-.12.08-.15.11-.09.07.02-.02.04-.03.07-.04.08-.05.17-.1.26-.14.02-.01.05-.02.07-.03.07-.03.07-.03 0 0-.07.02-.07.02 0 0h.05c.22-.07.44-.08.66-.07h-.2c.31.02.6.11.87.27l-.17-.1c.14.08.26.18.38.29.06.06.1.12.16.18.07.07-.08-.13-.03-.04.02.04.05.07.07.11.04.06.07.12.1.19.01.02.07.19.02.03-.05-.14 0-.02 0 .01l.06.24c.03.18-.01-.21-.01-.08v.14c0 .42.31 1.01.81.72.5-.29.76-1 .75-1.56-.02-1.16-.63-2.29-1.76-2.69-1.13-.4-2.35.16-3.06 1.09-.83 1.07-1.11 2.79-.39 3.99.55.92 1.63 1.47 2.71 1.22 1.61-.38 2.49-2.04 2.51-3.6 0-.43-.32-1-.81-.72-.52.3-.74.99-.75 1.56l.01.01zM12.98 28.47v.06l.02-.31c0 .06-.01.11-.02.17l.07-.33c-.01.06-.03.11-.05.16l.12-.31c-.02.05-.05.1-.07.15l.16-.26c-.03.06-.07.11-.11.16l.18-.21c-.05.06-.1.1-.16.15l.2-.14c-.09.07-.19.12-.29.16l.2-.07c-.14.05-.28.06-.43.05h.2c-.16 0-.31-.05-.45-.13l.17.1c-.12-.07-.22-.16-.31-.28l.13.17c-.06-.08-.11-.17-.15-.27l.08.23c-.03-.08-.05-.16-.06-.25l.03.27v-.18l-.02.31c0-.06.01-.11.02-.17l-.07.33a.75.75 0 0 1 .05-.16l-.12.31c.02-.05.05-.1.07-.15l-.16.26c.03-.06.07-.11.11-.16l-.18.21c.05-.06.1-.1.16-.15l-.2.14c.09-.07.19-.12.29-.16l-.2.07c.14-.05.28-.06.43-.05h-.2c.16 0 .31.05.45.13l-.17-.1c.12.07.22.16.31.28l-.13-.17c.06.08.11.17.15.27l-.08-.23c.03.08.05.16.06.25l-.03-.27v.12c0 .22.07.52.24.68.16.14.39.15.57.04.24-.14.42-.37.54-.62.14-.3.22-.61.21-.94-.01-.75-.38-1.51-1.12-1.77-.17-.06-.36-.07-.54-.07-.12 0-.24.02-.36.06-.17.06-.34.11-.48.22-.24.17-.42.33-.6.56-.19.25-.31.53-.42.83-.08.2-.13.43-.15.64-.04.48-.01 1 .24 1.43.19.32.44.54.78.7.11.05.22.08.34.09.18.02.35.03.53-.01 1.17-.28 1.75-1.55 1.77-2.66 0-.21-.07-.53-.24-.68a.481.481 0 0 0-.57-.04c-.52.3-.74.99-.75 1.56l.01-.02zM62.63 28.47v.06l.02-.31c0 .06-.01.11-.02.17l.07-.33a.75.75 0 0 1-.05.16l.12-.31c-.02.05-.05.1-.07.15l.16-.26c-.03.06-.07.11-.11.16l.18-.21c-.05.06-.1.1-.16.15l.2-.14c-.09.07-.19.12-.29.16l.2-.07c-.14.05-.28.06-.43.05h.2c-.16 0-.31-.05-.45-.13l.17.1c-.12-.07-.22-.16-.31-.28l.13.17c-.06-.08-.11-.17-.15-.27l.08.23c-.03-.08-.05-.16-.06-.25l.03.27v-.18l-.02.31c0-.06.01-.11.02-.17l-.07.33a.75.75 0 0 1 .05-.16l-.12.31c.02-.05.05-.1.07-.15l-.16.26c.03-.06.07-.11.11-.16l-.18.21c.05-.06.1-.1.16-.15l-.2.14c.09-.07.19-.12.29-.16l-.2.07c.14-.05.28-.06.43-.05h-.2c.16 0 .31.05.45.13l-.17-.1c.12.07.22.16.31.28l-.13-.17c.06.08.11.17.15.27l-.08-.23c.03.08.05.16.06.25l-.03-.27v.12c0 .22.07.52.24.68.16.14.39.15.57.04.24-.14.42-.37.54-.62.14-.3.22-.61.21-.94-.01-.75-.38-1.51-1.12-1.77-.17-.06-.36-.07-.54-.07-.12 0-.24.02-.36.06-.17.06-.34.11-.48.22-.24.17-.42.33-.6.56-.19.25-.31.53-.42.83-.08.2-.13.43-.15.64-.04.48-.01 1 .24 1.43.19.32.44.54.78.7.11.05.22.08.34.09.18.02.35.03.53-.01 1.17-.28 1.75-1.55 1.77-2.66 0-.21-.07-.53-.24-.68a.481.481 0 0 0-.57-.04c-.52.3-.74.99-.75 1.56l.01-.02z"/><path d="M30.82 29.36c0-2.34.93-5.49 2.95-6.72 1.74-1.05 4.66-.76 6.49.24 1.66.9 2.73 2.5 3.33 4.25.34 1.01.58 2.1.58 3.18 0 .67 2.23-.25 2.23-.95 0-3.05-1.44-6.43-4.22-7.9-4.69-2.48-10.94.09-12.8 4.94-.47 1.23-.8 2.59-.8 3.91 0 .67 2.23-.25 2.23-.95h.01zM12.21 34.74c.44-1.24.89-2.49 1.33-3.73.06-.18.13-.36.19-.54l-2.15.92c.46 1.24.91 2.49 1.37 3.73l.2.54c.06.16.38.13.48.11.28-.04.6-.17.84-.31.24-.14.53-.31.71-.55.1-.13.23-.29.16-.47-.46-1.24-.91-2.49-1.37-3.73l-.2-.54c-.11-.31-.87-.02-1.02.05-.2.09-.4.2-.58.32-.16.11-.48.35-.55.55-.44 1.24-.89 2.49-1.33 3.73-.06.18-.13.36-.19.54-.05.15-.1.29.06.38.16.09.48.02.64-.03.31-.1.61-.24.87-.42.19-.14.47-.32.55-.55h-.01zM61.86 34.74c.44-1.24.89-2.49 1.33-3.73.06-.18.13-.36.19-.54l-2.15.92c.46 1.24.91 2.49 1.37 3.73l.2.54c.06.16.38.13.48.11.28-.04.6-.17.84-.31.24-.14.53-.31.71-.55.1-.13.23-.29.16-.47-.46-1.24-.91-2.49-1.37-3.73l-.2-.54c-.11-.31-.87-.02-1.02.05-.2.09-.4.2-.58.32-.16.11-.48.35-.55.55-.44 1.24-.89 2.49-1.33 3.73-.06.18-.13.36-.19.54-.05.15-.1.29.06.38.16.09.48.02.64-.03.31-.1.61-.24.87-.42.19-.14.47-.32.55-.55h-.01zM8.6 53.83V36.86c0-1.1-2.49-1.28-2.49-.2v16.97c0 1.1 2.49 1.28 2.49.2zM19.29 53.83V36.86c0-1.1-2.49-1.28-2.49-.2v16.97c0 1.1 2.49 1.28 2.49.2zM58.22 53.83V36.86c0-1.1-2.49-1.28-2.49-.2v16.97c0 1.1 2.49 1.28 2.49.2zM68.84 53.83V36.86c0-1.1-2.49-1.28-2.49-.2v16.97c0 1.1 2.49 1.28 2.49.2zM27.26 47.08V31.99c0-1.1-2.49-1.28-2.49-.2v15.09c0 1.1 2.49 1.28 2.49.2zM34.82 47.08V31.99c0-1.1-2.49-1.28-2.49-.2v15.09c0 1.1 2.49 1.28 2.49.2zM42.37 47.08V31.99c0-1.1-2.49-1.28-2.49-.2v15.09c0 1.1 2.49 1.28 2.49.2zM49.93 47.08V31.99c0-1.1-2.49-1.28-2.49-.2v15.09c0 1.1 2.49 1.28 2.49.2z"/></g><defs><clipPath id="a"><path fill="#fff" transform="translate(0 .5)" d="M0 0h75v75H0z"/></clipPath></defs></svg>