<svg width="500" height="500" fill="none" xmlns="http://www.w3.org/2000/svg"><g clip-path="url(#a)" fill="#1E1E1C"><path d="M151.48 400.79v-38.27c0-.56-.2-2.05-1.05-2.05H17.15c-1.35 0-1.92 1.77-1.92 2.88v38.27c0 .56.2 2.05 1.05 2.05h447.63c6.05 0 12.1.04 18.15 0h.79c1.35 0 1.92-1.77 1.92-2.88v-38.27c0-.56-.2-2.05-1.05-2.05H350.43c-1.35 0-1.92 1.77-1.92 2.88v38.27c0 .89.32 2.18 1.45 2.03 1.13-.15 1.52-2.03 1.52-2.85v-38.27l-1.92 2.88h133.29l-1.05-2.05v38.27l1.92-2.88H24.18c-2.04 0-4.21-.22-6.24 0-.26.03-.53 0-.79 0l1.05 2.05v-38.27l-1.92 2.88h133.29l-1.05-2.05v38.27c0 .89.32 2.18 1.45 2.03 1.13-.15 1.52-2.03 1.52-2.85l-.01-.02z"/><path d="M352.4 362.93v-44.3c0-.56-.2-2.05-1.05-2.05H157.72c-2.62 0-5.24-.03-7.86 0h-.34c-1.35 0-1.92 1.77-1.92 2.88v44.3c0 .84.32 2.25 1.45 2.03 1.13-.22 1.52-1.97 1.52-2.85v-44.3l-1.92 2.88h193.63c2.58 0 5.29.24 7.86 0 .11-.01.23 0 .34 0l-1.05-2.05v44.3c0 .84.32 2.25 1.45 2.03 1.13-.22 1.52-1.97 1.52-2.85v-.02zM157.21 200h177.22c2.39 0 4.79.03 7.18 0h.31c1.13 0 1.68-1.25 1.85-2.21.11-.65.12-2.71-.99-2.71H165.57c-2.39 0-4.79-.03-7.18 0h-.31c-1.13 0-1.68 1.25-1.85 2.21-.11.65-.12 2.71.99 2.71h-.01zM158.08 227.78H51.87c-4.91 0-9.82-.08-14.73 0h-.21c-1.13 0-1.68 1.25-1.85 2.21-.11.65-.12 2.71.99 2.71H142.28c4.91 0 9.82.08 14.73 0h.21c1.13 0 1.68-1.25 1.85-2.21.11-.65.12-2.71-.99-2.71zM463.94 227.78H357.73c-4.91 0-9.82-.08-14.73 0h-.21c-1.13 0-1.68 1.25-1.85 2.21-.11.65-.12 2.71.99 2.71h106.21c4.91 0 9.82.08 14.73 0h.21c1.13 0 1.68-1.25 1.85-2.21.11-.65.12-2.71-.99-2.71zM262.08 113.27c-.06 4.64-3.49 8.5-7.84 9.82-4.97 1.51-10.4-.17-13.69-4.17-2.87-3.49-3.61-8.69-1.04-12.54 2.75-4.13 8.07-5.95 12.84-4.85 5.47 1.26 9.66 6.06 9.73 11.74.01.94.6 1.9 1.62 1.44 1.02-.46 1.51-2.09 1.5-3.12-.08-6.35-3.84-12.27-9.93-14.42-6.15-2.17-12.86.24-16.81 5.26-3.95 5.02-4.96 13.14-1.45 18.91 3.26 5.37 9.73 8.25 15.89 6.74 7.5-1.83 12.2-9.01 12.3-16.51.01-.94-.61-1.89-1.62-1.44-1.07.48-1.49 2.08-1.5 3.12v.02zM88.89 183.96c0 .65.08-.46 0 .18-.02.13-.04.26-.05.39-.07.63.18-.49-.02.1-.04.12-.08.24-.11.36-.18.6.26-.47-.03.08-.06.11-.11.23-.17.34-.25.55.29-.37-.07.11l-.33.45c-.34.47.18-.18-.06.07l-.33.33c-.09.08-.19.16-.28.24-.41.38.27-.15-.2.16-.47.31-1.15.65-1.55.77-2.51.75-5.12-.07-6.76-2.05-.25-.3-.57-.9-.82-1.4-.02-.04-.14-.33-.04-.07-.07-.18-.12-.36-.16-.55-.03-.12-.06-.25-.08-.38-.02-.13-.05-.25-.06-.38.02.19.03.21.02.06 0-.16.01-.99-.03-.48.02-.2.05-.39.07-.58.06-.46 0 0-.03.08.05-.18.11-.37.16-.55.14-.47-.04.05-.04.09 0-.15.18-.37.24-.51.21-.44-.25.31.07-.11.09-.12.18-.25.27-.38.06-.09.35-.39.05-.08.21-.23.44-.43.67-.64.42-.39-.15.09.12-.1.13-.09.26-.17.39-.25.32-.19.66-.36 1.01-.5.92-.36 2.29-.47 3.4-.22 1.4.31 2.52.98 3.46 2.06.89 1.01 1.27 2.32 1.29 3.35.01.89.61 1.96 1.62 1.44 1.01-.52 1.52-2.04 1.5-3.12-.05-3.61-2.09-7.04-5.57-8.27-3.48-1.23-7.35.3-9.58 3.19-2.41 3.13-3.06 7.95-.98 11.41 1.78 2.98 5.32 4.67 8.76 3.85 4.61-1.09 7.32-5.66 7.38-10.19.01-.9-.62-1.95-1.62-1.44-1.06.54-1.49 2.03-1.5 3.12l-.01.02zM422.57 183.96c0 .65.08-.46 0 .18-.02.13-.04.26-.05.39-.07.63.18-.49-.02.1-.04.12-.08.24-.11.36-.18.6.26-.47-.03.08-.06.11-.11.23-.17.34-.25.55.29-.37-.07.11l-.33.45c-.34.47.18-.18-.06.07l-.33.33c-.09.08-.19.16-.28.24-.41.38.27-.15-.2.16-.47.31-1.15.65-1.55.77-2.51.75-5.12-.07-6.76-2.05-.25-.3-.57-.9-.82-1.4-.02-.04-.14-.33-.04-.07-.07-.18-.12-.36-.16-.55-.03-.12-.06-.25-.08-.38-.02-.13-.05-.25-.06-.38.02.19.03.21.02.06 0-.16.01-.99-.03-.48.02-.2.05-.39.07-.58.06-.46 0 0-.03.08.05-.18.11-.37.16-.55.14-.47-.04.05-.04.09 0-.15.18-.37.24-.51.21-.44-.25.31.07-.11.09-.12.18-.25.27-.38.06-.09.35-.39.05-.08.21-.23.44-.43.67-.64.42-.39-.15.09.12-.1.13-.09.26-.17.39-.25.32-.19.66-.36 1.01-.5.92-.36 2.29-.47 3.4-.22 1.4.31 2.52.98 3.46 2.06.89 1.01 1.27 2.32 1.29 3.35.01.89.61 1.96 1.62 1.44 1.01-.52 1.52-2.04 1.5-3.12-.05-3.61-2.09-7.04-5.57-8.27-3.48-1.23-7.35.3-9.58 3.19-2.41 3.13-3.06 7.95-.98 11.41 1.78 2.98 5.32 4.67 8.76 3.85 4.61-1.09 7.32-5.66 7.38-10.19.01-.9-.62-1.95-1.62-1.44-1.06.54-1.49 2.03-1.5 3.12l-.01.02z"/><path d="M199.84 194.19c0-6.44 1.26-13.05 3.01-19.22 1.63-5.73 3.97-11.29 7.16-16.34 1.71-2.71 3.7-5.24 5.93-7.54.96-.99 2.39-2.28 3.66-3.3.46-.38.15-.13.62-.48.35-.26.69-.51 1.04-.76.35-.25.71-.49 1.08-.73l.6-.39c.46-.29-.27.15.25-.15 3.18-1.89 6.14-3.18 9.85-4.23 4.18-1.17 8.55-1.74 12.89-1.84 8.73-.21 17.57 1.14 25.48 4.97 12.05 5.83 20.13 16.88 24.5 29.3 2.53 7.18 3.86 14.66 4.23 22.25v.37c0 1.34 4.46-.5 4.46-1.89 0-6.63-1.35-13.45-3.23-19.77-3.75-12.59-11.05-24.28-22.52-31.14-7.33-4.39-15.83-6.48-24.31-6.92-9.21-.48-18.62.77-27.07 4.57-13.28 5.97-22.61 17.39-27.47 30.93a80.055 80.055 0 0 0-3.84 15.39c-.41 2.77-.79 5.62-.78 8.42v.41c0 1.34 4.46-.5 4.46-1.89v-.02zM75.06 229.58c2.98-8.37 5.97-16.74 8.95-25.11.43-1.2.85-2.4 1.28-3.6l-4.31 1.84c3.07 8.38 6.15 16.76 9.22 25.15l1.31 3.56c.4 1.09 4.89-1.02 4.38-2.42-3.07-8.38-6.15-16.76-9.22-25.15l-1.31-3.56c-.46-1.25-4.05 1.11-4.31 1.84-2.98 8.37-5.97 16.74-8.95 25.11-.43 1.2-.85 2.4-1.28 3.6-.61 1.72 3.8-.04 4.24-1.26zM408.74 229.58c2.98-8.37 5.97-16.74 8.95-25.11.43-1.2.85-2.4 1.28-3.6l-4.31 1.84c3.07 8.38 6.15 16.76 9.22 25.15l1.31 3.56c.4 1.09 4.89-1.02 4.38-2.42-3.07-8.38-6.15-16.76-9.22-25.15l-1.31-3.56c-.46-1.25-4.05 1.11-4.31 1.84-2.98 8.37-5.97 16.74-8.95 25.11-.43 1.2-.85 2.4-1.28 3.6-.61 1.72 3.8-.04 4.24-1.26zM56.02 231.19c0 1.18-.23 2.39-.54 3.52-.29 1.05-.73 2.07-1.32 3.02-.25.4-.53.77-.95 1.2.21-.22-.39.35-.49.43.35-.28.07-.06 0 0-.11.08-.23.16-.34.23.24-.15.28-.17.11-.08-.12.07-.55.26-.08.05-.14.06-.27.12-.41.18.42-.17-.3.09-.31.1-.15.04-.31.09-.47.12-.7.15-1.65.21-2.45.18-1.65-.05-3.24-.38-4.71-1.15-2.24-1.19-3.72-3.3-4.55-5.66-.47-1.33-.76-2.64-.76-4.04s-4.47.5-4.46 1.89c.01 4.18 2.08 8.66 5.89 10.62 6.77 3.49 16.31-.16 19.15-7.14.68-1.68 1.17-3.55 1.18-5.37 0-1.34-4.46.49-4.46 1.89l-.03.01zM127.92 231.19c0 1.18-.23 2.39-.54 3.52-.29 1.05-.73 2.07-1.32 3.02-.25.4-.53.77-.95 1.2.21-.22-.39.35-.49.43.35-.28.07-.06 0 0-.11.08-.23.16-.34.23.24-.15.28-.17.11-.08-.12.07-.55.26-.08.05-.14.06-.27.12-.41.18.42-.17-.3.09-.31.1-.15.04-.31.09-.47.12-.7.15-1.65.21-2.45.18-1.65-.05-3.24-.38-4.71-1.15-2.24-1.19-3.72-3.3-4.55-5.66-.47-1.33-.76-2.64-.76-4.04s-4.47.5-4.46 1.89c.01 4.18 2.08 8.66 5.89 10.62 6.77 3.49 16.31-.16 19.15-7.14.68-1.68 1.17-3.55 1.18-5.37 0-1.34-4.46.49-4.46 1.89l-.03.01z"/><path d="M49.87 349.16v-94.12c0-4.34.17-8.71 0-13.05v-.18c0-2.21-4.98-2.55-4.98-.41v94.12c0 4.34-.17 8.71 0 13.05v.18c0 2.21 4.98 2.55 4.98.41zM121.77 349.16v-94.12c0-4.34.17-8.71 0-13.05v-.18c0-2.21-4.98-2.55-4.98-.41v94.12c0 4.34-.17 8.71 0 13.05v.18c0 2.21 4.98 2.55 4.98.41zM439.67 231.19c.01 4.18 2.01 8.74 5.84 10.7 3.58 1.82 8.27 1.46 11.85-.16 3.2-1.45 5.91-3.91 7.23-7.21.66-1.63 1.14-3.45 1.14-5.23 0-1.34-4.46.49-4.46 1.89 0 1.17-.23 2.37-.55 3.49-.29 1.01-.72 2.02-1.3 2.95-.22.35-.48.69-.86 1.12-.41.46.29-.25-.17.17l-.29.26c-.5.43.38-.28-.16.12-.11.08-.64.4-.13.1-.12.07-.25.15-.37.2.56-.25-.13.05-.2.08-.05.02-.41.14-.08.03-.19.06-.38.12-.57.17-.67.17-1.59.27-2.38.27-1.64 0-3.25-.28-4.72-1.03-2.24-1.15-3.72-3.23-4.55-5.57-.5-1.39-.81-2.79-.81-4.25 0-1.34-4.47.5-4.46 1.89v.01zM368.26 231.19c.01 4.18 2.01 8.74 5.84 10.7 3.58 1.82 8.27 1.46 11.85-.16 3.2-1.45 5.91-3.91 7.23-7.21.66-1.63 1.14-3.45 1.14-5.23 0-1.34-4.46.49-4.46 1.89 0 1.17-.23 2.37-.55 3.49-.29 1.01-.72 2.02-1.3 2.95-.22.35-.48.69-.86 1.12-.41.46.29-.25-.17.17l-.29.26c-.5.43.38-.28-.16.12-.11.08-.64.4-.13.1-.12.07-.25.15-.37.2.56-.25-.13.05-.2.08-.05.02-.41.14-.08.03-.19.06-.38.12-.57.17-.67.17-1.59.27-2.38.27-1.64 0-3.25-.28-4.72-1.03-2.24-1.15-3.72-3.23-4.55-5.57-.5-1.39-.81-2.79-.81-4.25 0-1.34-4.47.5-4.46 1.89v.01z"/><path d="M383.34 349.16v-94.12c0-4.34.17-8.71 0-13.05v-.18c0-2.21-4.98-2.55-4.98-.41v94.12c0 4.34-.17 8.71 0 13.05v.18c0 2.21 4.98 2.55 4.98.41zM454.75 349.16v-94.12c0-4.34.17-8.71 0-13.05v-.18c0-2.21-4.98-2.55-4.98-.41v94.12c0 4.34-.17 8.71 0 13.05v.18c0 2.21 4.98 2.55 4.98.41zM214.53 198.48c0 3.71 1.02 8.32 4.15 10.64 2.75 2.04 6.75 1.32 9.51-.32 2.76-1.64 4.52-4.15 5.41-7.23.47-1.6.75-3.32.75-4.99 0-1.34-4.46.49-4.46 1.89 0 1.18-.16 2.37-.4 3.52-.24 1.15-.48 1.99-.88 2.91-.23.52-.5 1.01-.81 1.5l-.11.17c.01-.02.17-.23.05-.08-.08.11-.17.22-.25.32-.08.1-.19.2-.27.31-.12.18.13-.12.14-.13-.07.06-.13.13-.2.19-.04.03-.28.28-.31.26.04.02.46-.31.03-.05.27-.17.39-.29.09-.07-.3.22.52-.22.02-.02-.13.05.47-.15.02-.01-.07.02-.14.04-.22.06.01 0 .37-.07.14-.03-.16.03-.31.05-.47.07-.08 0-.54.04-.31.03-1.25.03-2.34-.26-3.4-1-1.79-1.26-2.71-3.57-3.22-5.63-.35-1.38-.55-2.74-.56-4.22 0-1.34-4.46.5-4.46 1.89l.02.02zM163.75 198.48c0 3.71 1.02 8.32 4.15 10.64 2.75 2.04 6.75 1.32 9.51-.32 2.76-1.64 4.52-4.15 5.41-7.23.47-1.6.75-3.32.75-4.99 0-1.34-4.46.49-4.46 1.89 0 1.18-.16 2.37-.4 3.52-.24 1.15-.48 1.99-.88 2.91-.23.52-.5 1.01-.81 1.5l-.11.17c.01-.02.17-.23.05-.08-.08.11-.17.22-.25.32-.08.1-.19.2-.27.31-.12.18.13-.12.14-.13-.07.06-.13.13-.2.19-.04.03-.28.28-.31.26.04.02.46-.31.03-.05.27-.17.39-.29.09-.07-.3.22.52-.22.02-.02-.13.05.47-.15.02-.01-.07.02-.14.04-.22.06.01 0 .37-.07.14-.03-.16.03-.31.05-.47.07-.08 0-.54.04-.31.03-1.25.03-2.34-.26-3.4-1-1.79-1.26-2.71-3.57-3.22-5.63-.35-1.38-.55-2.74-.56-4.22 0-1.34-4.46.5-4.46 1.89l.02.02zM316.42 198.48c0 3.71 1.02 8.32 4.15 10.64 2.75 2.04 6.75 1.32 9.51-.32 2.76-1.64 4.52-4.15 5.41-7.23.47-1.6.75-3.32.75-4.99 0-1.34-4.46.49-4.46 1.89 0 1.18-.16 2.37-.4 3.52-.24 1.15-.48 1.99-.88 2.91-.23.52-.5 1.01-.81 1.5l-.11.17c.01-.02.17-.23.05-.08-.08.11-.17.22-.25.32-.08.1-.19.2-.27.31-.12.18.13-.12.14-.13-.07.06-.13.13-.2.19-.04.03-.28.28-.31.26.04.02.46-.31.03-.05.27-.17.39-.29.09-.07-.3.22.52-.22.02-.02-.13.05.47-.15.02-.01-.07.02-.14.04-.22.06.01 0 .37-.07.14-.03-.16.03-.31.05-.47.07-.08 0-.54.04-.31.03-1.25.03-2.34-.26-3.4-1-1.79-1.26-2.71-3.57-3.22-5.63-.35-1.38-.55-2.74-.56-4.22 0-1.34-4.46.5-4.46 1.89l.02.02zM265.64 198.48c0 3.71 1.02 8.32 4.15 10.64 2.75 2.04 6.75 1.32 9.51-.32 2.76-1.64 4.52-4.15 5.41-7.23.47-1.6.75-3.32.75-4.99 0-1.34-4.46.49-4.46 1.89 0 1.18-.16 2.37-.4 3.52-.24 1.15-.48 1.99-.88 2.91-.23.52-.5 1.01-.81 1.5l-.11.17c.01-.02.17-.23.05-.08-.08.11-.17.22-.25.32-.08.1-.19.2-.27.31-.12.18.13-.12.14-.13-.07.06-.13.13-.2.19-.04.03-.28.28-.31.26.04.02.46-.31.03-.05.27-.17.39-.29.09-.07-.3.22.52-.22.02-.02-.13.05.47-.15.02-.01-.07.02-.14.04-.22.06.01 0 .37-.07.14-.03-.16.03-.31.05-.47.07-.08 0-.54.04-.31.03-1.25.03-2.34-.26-3.4-1-1.79-1.26-2.71-3.57-3.22-5.63-.35-1.38-.55-2.74-.56-4.22 0-1.34-4.46.5-4.46 1.89l.02.02z"/><path d="M175.31 303.8v-82.99c0-3.83.16-7.7 0-11.53v-.17c0-2.21-4.98-2.55-4.98-.41v82.99c0 3.83-.16 7.7 0 11.53v.17c0 2.21 4.98 2.55 4.98.41zM226.1 303.8v-82.99c0-3.83.16-7.7 0-11.53v-.17c0-2.21-4.98-2.55-4.98-.41v82.99c0 3.83-.16 7.7 0 11.53v.17c0 2.21 4.98 2.55 4.98.41zM276.88 303.8v-82.99c0-3.83.16-7.7 0-11.53v-.17c0-2.21-4.98-2.55-4.98-.41v82.99c0 3.83-.16 7.7 0 11.53v.17c0 2.21 4.98 2.55 4.98.41zM327.67 303.8v-82.99c0-3.83.16-7.7 0-11.53v-.17c0-2.21-4.98-2.55-4.98-.41v82.99c0 3.83-.16 7.7 0 11.53v.17c0 2.21 4.98 2.55 4.98.41z"/><path d="M184.31 301.44h-25.2c-1.17 0 .83 4.3 2.23 4.3h25.21c1.17 0-.83-4.3-2.23-4.3h-.01zM235.1 301.44h-25.2c-1.17 0 .83 4.3 2.23 4.3h25.21c1.17 0-.83-4.3-2.23-4.3h-.01zM58.87 348.14h-25.2c-1.17 0 .83 4.3 2.23 4.3h25.21c1.17 0-.83-4.3-2.23-4.3h-.01zM130.77 348.14h-25.2c-1.17 0 .83 4.3 2.23 4.3h25.21c1.17 0-.83-4.3-2.23-4.3h-.01zM392.54 346.84h-25.21c-1.17 0 .83 4.3 2.23 4.3h25.21c1.17 0-.83-4.3-2.23-4.3zM464.44 346.84h-25.21c-1.17 0 .83 4.3 2.23 4.3h25.21c1.17 0-.83-4.3-2.23-4.3zM285.88 301.44h-25.2c-1.17 0 .83 4.3 2.23 4.3h25.21c1.17 0-.83-4.3-2.23-4.3h-.01zM336.67 301.44h-25.2c-1.17 0 .83 4.3 2.23 4.3h25.21c1.17 0-.83-4.3-2.23-4.3h-.01z"/></g><defs><clipPath id="a"><path fill="#fff" d="M0 0h500v500H0z"/></clipPath></defs></svg>