<svg width="500" height="500" fill="none" xmlns="http://www.w3.org/2000/svg"><g clip-path="url(#a)" fill="#1E1E1C"><path d="M88.35 434.77V153.12c0-3.8.14-7.62 0-11.42v-.5l-1.92 2.88h65.52l-1.05-2.05v281.65c0 3.81-.03 7.61 0 11.42v.5c0 .84.32 2.25 1.45 2.03 1.13-.22 1.52-1.97 1.52-2.85V153.13c0-3.81.03-7.61 0-11.42v-.5c0-.56-.2-2.05-1.05-2.05H87.3c-1.35 0-1.92 1.77-1.92 2.88v281.64c0 3.81-.03 7.61 0 11.42v.5c0 .84.32 2.25 1.45 2.03 1.13-.22 1.52-1.97 1.52-2.85v-.01z"/><path d="M153.88 434.77V333.23c0-1.37.1-2.78 0-4.15v-.19l-1.92 2.88h65.53l-1.05-2.05v92.83c0 4.28-.08 8.58 0 12.86v.19c0 .84.32 2.25 1.45 2.03 1.13-.22 1.52-1.97 1.52-2.85v-92.83c0-4.28.08-8.58 0-12.86v-.19c0-.56-.2-2.05-1.05-2.05h-65.53c-1.35 0-1.92 1.77-1.92 2.88v92.83c0 4.28-.08 8.58 0 12.86v.19c0 .84.32 2.25 1.45 2.03 1.13-.22 1.52-1.97 1.52-2.85v-.02z"/><path d="M217.48 331.77h65.53l-1.05-2.05v92.83c0 4.28-.08 8.58 0 12.86v.19c0 .84.32 2.25 1.45 2.03 1.13-.22 1.52-1.97 1.52-2.85v-92.83c0-4.28.08-8.58 0-12.86v-.19c0-.56-.2-2.05-1.05-2.05h-65.53c-1.13 0-1.68 1.25-1.85 2.21-.11.65-.12 2.71.99 2.71h-.01z"/><path d="M283.01 331.77h65.53l-1.05-2.05v92.83c0 4.28-.08 8.58 0 12.86v.19c0 .84.32 2.25 1.45 2.03 1.13-.22 1.52-1.97 1.52-2.85v-92.83c0-4.28.08-8.58 0-12.86v-.19c0-.56-.2-2.05-1.05-2.05h-65.53c-1.13 0-1.68 1.25-1.85 2.21-.11.65-.12 2.71.99 2.71h-.01zM153.88 310.04v-47.58l-1.92 2.88h65.53l-1.05-2.05v47.58c0 .84.32 2.25 1.45 2.03 1.13-.22 1.52-1.97 1.52-2.85v-47.58c0-.56-.2-2.05-1.05-2.05h-65.53c-1.35 0-1.92 1.77-1.92 2.88v47.58c0 .84.32 2.25 1.45 2.03 1.13-.22 1.52-1.97 1.52-2.85v-.02z"/><path d="M217.48 265.34h65.53l-1.05-2.05v47.58c0 .84.32 2.25 1.45 2.03 1.13-.22 1.52-1.97 1.52-2.85v-47.58c0-.56-.2-2.05-1.05-2.05h-65.53c-1.13 0-1.68 1.25-1.85 2.21-.11.65-.12 2.71.99 2.71h-.01z"/><path d="M283.01 265.34h65.53l-1.05-2.05v47.58c0 .84.32 2.25 1.45 2.03 1.13-.22 1.52-1.97 1.52-2.85v-47.58c0-.56-.2-2.05-1.05-2.05h-65.53c-1.13 0-1.68 1.25-1.85 2.21-.11.65-.12 2.71.99 2.71h-.01zM413 257.93v170.44c0 2.31-.03 4.62 0 6.93v.3c0 .84.32 2.25 1.45 2.03 1.13-.22 1.52-1.97 1.52-2.85V264.34c0-4.87.03-4.62 0-6.93v-.3c0-.84-.32-2.25-1.45-2.03-1.13.22-1.52 1.97-1.52 2.85z"/><path d="M350.45 434.77V264.33c0-2.31.03-4.62 0-6.93v-.3c0-.84-.32-2.25-1.45-2.03-1.13.22-1.52 1.97-1.52 2.85v170.44c0 2.31-.03 4.62 0 6.93v.3c0 .84.32 2.25 1.45 2.03 1.13-.22 1.52-1.97 1.52-2.85z"/><path d="M350.45 257.1v-28.07l-1.92 2.88h17.73l-1.05-2.05v28.08c0 .84.32 2.25 1.45 2.03 1.13-.22 1.52-1.97 1.52-2.85v-28.08c0-.56-.2-2.05-1.05-2.05H349.4c-1.35 0-1.92 1.77-1.92 2.88v28.07c0 .84.32 2.25 1.45 2.03 1.13-.22 1.52-1.97 1.52-2.85v-.02zM374.35 257.1v-28.07l-1.92 2.88h17.73l-1.05-2.05v28.08c0 .84.32 2.25 1.45 2.03 1.13-.22 1.52-1.97 1.52-2.85v-28.08c0-.56-.2-2.05-1.05-2.05H373.3c-1.35 0-1.92 1.77-1.92 2.88v28.07c0 .84.32 2.25 1.45 2.03 1.13-.22 1.52-1.97 1.52-2.85v-.02zM398.24 257.1v-28.07l-1.92 2.88h17.73l-1.05-2.05v28.08c0 .84.32 2.25 1.45 2.03 1.13-.22 1.52-1.97 1.52-2.85v-28.08c0-.56-.2-2.05-1.05-2.05h-17.73c-1.35 0-1.92 1.77-1.92 2.88v28.07c0 .84.32 2.25 1.45 2.03 1.13-.22 1.52-1.97 1.52-2.85v-.02zM268.26 437.11V402.3c0-4.13-.14-8.17-1.44-12.15-2.07-6.32-6.98-12.5-13.92-13.5-6.94-1-12.68 3.43-16.01 9.03-4.78 8.06-3.8 17.72-3.8 26.69v25.56c0 .84.32 2.25 1.45 2.03 1.13-.22 1.52-1.97 1.52-2.85v-33.68c0-3.09-.11-6.15.58-9.19 1.33-5.91 5.67-11.59 11.91-12.64 6.26-1.05 11.75 3.34 14.43 8.66 1.89 3.76 2.31 7.77 2.31 11.9v11.4c0 7.97-.06 15.94 0 23.91v.47c0 .84.32 2.25 1.45 2.03 1.13-.22 1.52-1.97 1.52-2.85v-.01zM202.74 437.11v-16.2c0-6.02.91-12.88-2.65-18.12-6.08-8.96-19.76-9.64-27.38-2.36-3.31 3.17-5.1 7.57-5.14 12.14-.02 2.2 0 4.41 0 6.61v18.76c0 .84.32 2.25 1.45 2.03 1.13-.22 1.52-1.97 1.52-2.85V413.4c0-2.26.05-4.16 1.19-6.19 4.85-8.56 18.3-8.83 24.77-2.16 2.15 2.22 3.27 4.99 3.27 8.06v24.84c0 .84.32 2.25 1.45 2.03 1.13-.22 1.52-1.97 1.52-2.85v-.02zM333.79 437.11v-16.2c0-6.02.91-12.88-2.65-18.12-6.08-8.96-19.76-9.64-27.38-2.36-3.31 3.17-5.1 7.57-5.14 12.14-.02 2.2 0 4.41 0 6.61v18.76c0 .84.32 2.25 1.45 2.03 1.13-.22 1.52-1.97 1.52-2.85V413.4c0-2.26.05-4.16 1.19-6.19 4.85-8.56 18.3-8.83 24.77-2.16 2.15 2.22 3.27 4.99 3.27 8.06v24.84c0 .84.32 2.25 1.45 2.03 1.13-.22 1.52-1.97 1.52-2.85v-.02zM155.98 126.82c0-4.36-.89-8.85-2.13-13-2.46-8.25-7.28-15.88-14.81-20.36-4.85-2.88-10.48-4.23-16.08-4.49-6.13-.29-12.38.59-18 3.13-8.88 4.01-15.27 11.48-18.57 20.56-1.2 3.31-2.07 6.73-2.59 10.21-.27 1.82-.56 3.73-.52 5.57v.27c0 1.34 4.46-.5 4.46-1.89 0-4.16.81-8.42 1.93-12.4 1.04-3.68 2.53-7.24 4.56-10.49 1.08-1.73 2.33-3.34 3.75-4.82a29 29 0 0 1 2.21-2.01c.12-.1.24-.19.36-.29-.04.03-.23.18-.02.02.21-.16.44-.33.66-.48.22-.15.45-.32.68-.47.13-.09.27-.17.4-.26.35-.22-.31.18.05-.03.49-.29.98-.57 1.49-.84.6-.31.57-.3 1.33-.62 1.22-.52 2.09-.82 3.43-1.19 2.68-.73 5.48-1.06 8.25-1.1 5.6-.08 11.24.83 16.29 3.33 7.72 3.82 12.86 10.95 15.67 18.94 1.64 4.67 2.42 9.45 2.73 14.36v.24c0 1.34 4.46-.5 4.46-1.89h.01z"/><path d="M114.73 87.85c2.05-7.69 4.11-15.38 6.16-23.07l.87-3.25-4.42 2.16c2.11 7.69 4.22 15.38 6.34 23.07.3 1.08.59 2.17.89 3.25.28 1.02 4.79-.93 4.38-2.42-2.11-7.69-4.22-15.38-6.34-23.07-.3-1.08-.59-2.17-.89-3.25-.2-.73-2.07.1-2.34.24-.79.39-1.83 1-2.08 1.92-2.05 7.69-4.11 15.38-6.16 23.07l-.87 3.25c-.25.95 1.81.28 2.09.17.88-.37 2.11-1.06 2.37-2.06v-.01zM186.04 254.27c13.83-3.97 25.32-14.61 30.46-28.04l-.39.29H256.63c.96 0 .07-1.75-.12-2.07-.41-.71-1.36-2.11-2.33-2.11h-40.52c-.2 0-.33.09-.39.29-5.08 13.28-16.51 23.68-30.17 27.61-.83.24 1.42 4.48 2.95 4.04l-.01-.01z"/><path d="M325.32 250.23c-12.69-3.65-23.29-12.86-28.03-25.25-.32-.83-1.52-2.64-2.61-2.64h-40.52c-.96 0-.07 1.75.12 2.07.41.71 1.36 2.11 2.33 2.11H297.13l-2.61-2.64c5.47 14.3 17.82 26.15 32.59 30.39 1.02.29.73-.89.48-1.46-.38-.87-1.28-2.28-2.28-2.57l.01-.01z"/></g><defs><clipPath id="a"><path fill="#fff" d="M0 0h500v500H0z"/></clipPath></defs></svg>