<svg width="75" height="76" fill="none" xmlns="http://www.w3.org/2000/svg"><g clip-path="url(#a)" fill="#1D1D1B"><path d="M10.66 69.31V19.66L9.7 21.1h11.08l-.53-1.02v49.64c0 1.67 1.49.85 1.49-.41V19.66c0-.28-.1-1.02-.53-1.02H10.13c-.67 0-.96.89-.96 1.44v49.64c0 1.67 1.49.85 1.49-.41z"/><path d="M21.74 69.31v-17.9l-.96 1.44h11.08l-.53-1.02v17.9c0 .42.16 1.13.72 1.01.56-.12.76-.99.76-1.43v-17.9c0-.28-.1-1.02-.53-1.02H21.2c-.67 0-.96.89-.96 1.44v17.9c0 .42.16 1.13.72 1.01.56-.12.76-.99.76-1.43h.02z"/><path d="M31.86 52.84h11.08l-.53-1.02v17.9c0 .42.16 1.13.72 1.01.56-.12.76-.99.76-1.43V51.4c0-.28-.1-1.02-.53-1.02H32.28c-1.02 0-1.36 2.46-.43 2.46h.01z"/><path d="M42.94 52.84h11.08l-.53-1.02v17.9c0 .42.16 1.13.72 1.01.56-.12.76-.99.76-1.43V51.4c0-.28-.1-1.02-.53-1.02H43.36c-1.02 0-1.36 2.46-.43 2.46h.01zM21.74 48.21v-8.05l-.96 1.44h11.08c.56 0 .84-.62.93-1.11.06-.32.06-1.36-.49-1.36H21.22c-.67 0-.96.89-.96 1.44v8.05c0 .42.16 1.12.72 1.01.56-.11.76-.99.76-1.43v.01z"/><path d="M31.86 41.61h11.08c.56 0 .84-.62.93-1.11.06-.32.06-1.36-.49-1.36H32.3c-.56 0-.84.62-.93 1.11-.06.32-.06 1.36.49 1.36z"/><path d="M42.94 41.61h11.08l-.53-1.02v8.05c0 .42.16 1.12.72 1.01.56-.11.76-.99.76-1.43v-8.05c0-.28-.1-1.02-.53-1.02H43.36c-.56 0-.84.62-.93 1.11-.06.32-.06 1.36.49 1.36l.02-.01zM64.57 39.68v30.04c0 1.67 1.49.85 1.49-.41V39.27c0-1.67-1.49-.85-1.49.41z"/><path d="M54.98 69.31V39.27c0-1.67-1.49-.85-1.49.41v30.04c0 1.67 1.49.85 1.49-.41z"/><path d="M54.98 39.26v-4.75l-.96 1.44H65.1l-.53-1.02v4.75c0 .42.16 1.12.72 1.01.56-.11.76-.99.76-1.43v-4.75c0-.28-.1-1.02-.53-1.02H54.44c-.67 0-.96.89-.96 1.44v4.75c0 .42.16 1.12.72 1.01.56-.11.76-.99.76-1.43h.02zM22.34 17.06c0-2.29-1.07-4.8-3.16-5.91-3.62-1.91-8.57.19-10.01 3.92-.36.92-.6 1.94-.61 2.94 0 .67 2.23-.25 2.23-.95 0-.65.12-1.32.29-1.95.16-.59.39-1.16.7-1.69.16-.28.3-.46.52-.71.15-.16.4-.37.49-.42.05-.03.08-.04.17-.08.09-.04.19-.08.41-.14.42-.11.89-.14 1.33-.13.89.02 1.76.2 2.55.62 1.22.66 2 1.84 2.44 3.12.25.74.42 1.53.43 2.32 0 .67 2.23-.25 2.23-.95l-.01.01z"/><path d="M15.36 10.46c.35-1.3.69-2.6 1.04-3.89l.15-.56-2.21 1.08c.36 1.3.71 2.6 1.07 3.89l.15.56c.04.16.4.12.48.11.28-.04.6-.17.84-.31.31-.18.99-.57.87-1.02-.36-1.3-.71-2.6-1.07-3.89l-.15-.56c-.04-.15-.4-.13-.48-.11a2.8 2.8 0 0 0-.69.23c-.4.19-.92.5-1.04.96-.35 1.3-.69 2.6-1.04 3.89l-.15.56c-.05.17.17.24.29.26.24.02.55-.08.76-.17.44-.19 1.05-.52 1.19-1.03h-.01zM27.17 40.59c2.54-.77 4.29-3.46 5.2-5.81l-.2.14h6.85c.48 0 .03-.87-.06-1.04-.21-.35-.68-1.05-1.16-1.05h-6.85c-.1 0-.17.05-.2.14-.89 2.29-2.58 4.85-5.05 5.6-.42.13.72 2.25 1.47 2.02z"/><path d="M49.94 38.57c-2.02-.61-3.26-2.55-3.98-4.42-.16-.42-.76-1.32-1.3-1.32h-6.85c-.48 0-.03.87.06 1.04.21.35.68 1.05 1.16 1.05h6.85l-1.3-1.32c.6 1.55 1.48 2.99 2.54 4.26.98 1.17 2.23 2.28 3.72 2.73.51.16.36-.45.24-.73-.19-.44-.64-1.13-1.14-1.28v-.01z"/></g><defs><clipPath id="a"><path fill="#fff" transform="translate(0 .5)" d="M0 0h75v75H0z"/></clipPath></defs></svg>