<svg width="500" height="500" fill="none" xmlns="http://www.w3.org/2000/svg"><g clip-path="url(#a)" fill="#1E1E1C"><path d="M267.58 471.25v-34.8c0-4.13-.14-8.17-1.44-12.15-2.07-6.32-6.98-12.5-13.92-13.5-6.94-1-12.68 3.43-16.01 9.03-4.78 8.06-3.8 17.72-3.8 26.69v25.56c0 .84.32 2.25 1.45 2.03 1.13-.22 1.52-1.97 1.52-2.85v-33.67c0-3.09-.11-6.15.58-9.19 1.33-5.91 5.67-11.59 11.91-12.64 6.24-1.05 11.75 3.34 14.43 8.66 1.89 3.76 2.31 7.77 2.31 11.9v11.4c0 7.97-.06 15.94 0 23.91v.47c0 .84.32 2.25 1.45 2.03 1.13-.22 1.52-1.97 1.52-2.85v-.03zM164.08 471.25V294.87c0-2.38.03-4.77 0-7.16v-.31c0-.56-.2-2.05-1.05-2.05H120.1c-1.35 0-1.92 1.77-1.92 2.88v176.38c0 2.38-.03 4.77 0 7.16v.31c0 .84.32 2.25 1.45 2.03 1.13-.22 1.52-1.97 1.52-2.85V294.89c0-2.38.11-4.78 0-7.16v-.31l-1.92 2.88h42.93l-1.05-2.05v176.38c0 2.38-.03 4.77 0 7.16v.31c0 .84.32 2.25 1.45 2.03 1.13-.22 1.52-1.97 1.52-2.85v-.03z"/><path d="M216.65 471.25V294.87c0-2.38.03-4.77 0-7.16v-.31c0-.56-.2-2.05-1.05-2.05h-51.57c-1.13 0-1.68 1.25-1.85 2.21-.11.65-.12 2.71.99 2.71h51.57l-1.05-2.05V464.6c0 2.38-.03 4.77 0 7.16v.31c0 .84.32 2.25 1.45 2.03 1.13-.22 1.52-1.97 1.52-2.85h-.01zM338.89 471.25V294.87c0-2.38.11-4.78 0-7.16v-.31l-1.92 2.88h42.93l-1.05-2.05v176.38c0 2.38-.03 4.77 0 7.16v.31c0 .84.32 2.25 1.45 2.03 1.13-.22 1.52-1.97 1.52-2.85V294.88c0-2.38.03-4.77 0-7.16v-.31c0-.56-.2-2.05-1.05-2.05h-42.93c-1.35 0-1.92 1.77-1.92 2.88v176.38c0 2.38-.03 4.77 0 7.16v.31c0 .84.32 2.25 1.45 2.03 1.13-.22 1.52-1.97 1.52-2.85v-.02z"/><path d="M286.32 471.25V294.87c0-2.38.11-4.78 0-7.16v-.31l-1.92 2.88h51.57c1.13 0 1.68-1.25 1.85-2.21.11-.65.12-2.71-.99-2.71h-51.57c-1.35 0-1.92 1.77-1.92 2.88v176.38c0 2.38-.03 4.77 0 7.16v.31c0 .84.32 2.25 1.45 2.03 1.13-.22 1.52-1.97 1.52-2.85l.01-.02z"/><path d="M285.26 285.36H215.6c-1.13 0-1.68 1.25-1.85 2.21-.11.65-.12 2.71.99 2.71h69.66c1.13 0 1.68-1.25 1.85-2.21.11-.65.12-2.71-.99-2.71z"/><path d="M218.06 290.29c1.13 0 1.68-1.25 1.85-2.21.11-.65.12-2.71-.99-2.71-1.11 0-1.68 1.25-1.85 2.21-.11.65-.12 2.71.99 2.71zM281.07 290.29c1.13 0 1.68-1.25 1.85-2.21.11-.65.12-2.71-.99-2.71-1.11 0-1.68 1.25-1.85 2.21-.11.65-.12 2.71.99 2.71zM183.98 286.65V159.7c0-5.82.1-11.65 0-17.48v-.25c0-.56-.2-2.05-1.05-2.05h-33.16c-1.35 0-1.92 1.77-1.92 2.88V269.75c0 5.82-.09 11.65 0 17.48v.25c0 .84.32 2.25 1.45 2.03 1.13-.22 1.52-1.97 1.52-2.85V147.92c0-1.88.11-3.8 0-5.68v-.25l-1.92 2.88h33.16l-1.05-2.05V269.77c0 5.82-.09 11.65 0 17.48v.25c0 .84.32 2.25 1.45 2.03 1.13-.22 1.52-1.97 1.52-2.85v-.03z"/><path d="M224.58 286.65V159.7c0-5.82.1-11.65 0-17.48v-.25c0-.56-.2-2.05-1.05-2.05H183.7c-1.13 0-1.68 1.25-1.85 2.21-.11.65-.12 2.71.99 2.71h39.83l-1.05-2.05V269.74c0 5.82-.09 11.65 0 17.48v.25c0 .84.32 2.25 1.45 2.03 1.13-.22 1.52-1.97 1.52-2.85h-.01zM319 286.65V147.91c0-1.88.11-3.8 0-5.68v-.25l-1.92 2.88h33.16l-1.05-2.05V269.76c0 5.82-.09 11.65 0 17.48v.25c0 .84.32 2.25 1.45 2.03 1.13-.22 1.52-1.97 1.52-2.85V159.72c0-5.82.1-11.65 0-17.48v-.25c0-.56-.2-2.05-1.05-2.05h-33.16c-1.35 0-1.92 1.77-1.92 2.88V269.77c0 5.82-.09 11.65 0 17.48v.25c0 .84.32 2.25 1.45 2.03 1.13-.22 1.52-1.97 1.52-2.85v-.03z"/><path d="M278.39 286.65V147.91c0-1.88.11-3.8 0-5.68v-.25l-1.92 2.88h39.83c1.13 0 1.68-1.25 1.85-2.21.11-.65.12-2.71-.99-2.71h-39.83c-1.35 0-1.92 1.77-1.92 2.88V269.77c0 5.82-.09 11.65 0 17.48v.25c0 .84.32 2.25 1.45 2.03 1.13-.22 1.52-1.97 1.52-2.85l.01-.03z"/><path d="M277.34 139.91h-53.81c-1.13 0-1.68 1.25-1.85 2.21-.11.65-.12 2.71.99 2.71h53.81c1.13 0 1.68-1.25 1.85-2.21.11-.65.12-2.71-.99-2.71z"/><path d="M225.23 144.84c1.13 0 1.68-1.25 1.85-2.21.11-.65.12-2.71-.99-2.71-1.11 0-1.68 1.25-1.85 2.21-.11.65-.12 2.71.99 2.71zM273.9 144.84c1.13 0 1.68-1.25 1.85-2.21.11-.65.12-2.71-.99-2.71-1.11 0-1.68 1.25-1.85 2.21-.11.65-.12 2.71.99 2.71zM255.57 60.32c0 .65.08-.46 0 .18-.02.13-.04.26-.05.39-.07.63.18-.49-.02.1-.04.12-.08.24-.11.36-.18.6.26-.47-.03.08-.06.11-.11.23-.17.34-.25.55.29-.37-.07.11l-.33.45c-.34.47.18-.18-.06.07l-.33.33c-.09.08-.19.16-.28.24-.41.38.27-.15-.2.16-.47.31-1.15.65-1.55.77-2.51.75-5.12-.07-6.76-2.05-.25-.3-.57-.9-.82-1.4-.02-.04-.14-.33-.04-.07-.07-.18-.12-.36-.16-.55-.03-.12-.06-.25-.08-.38-.02-.13-.05-.25-.06-.38.02.19.03.21.02.06 0-.16.01-.99-.03-.48.02-.2.05-.39.07-.58.06-.46 0 0-.03.08.05-.18.11-.37.16-.55.14-.47-.04.05-.04.09 0-.15.18-.37.24-.51.21-.44-.25.31.07-.11.09-.12.18-.25.27-.38.06-.09.35-.39.05-.08.21-.23.44-.43.67-.64.42-.39-.15.09.12-.1.13-.09.26-.17.39-.25.32-.19.66-.36 1.01-.5.92-.36 2.29-.47 3.4-.22 1.4.31 2.52.98 3.46 2.06.89 1.01 1.27 2.32 1.29 3.35.01.89.61 1.96 1.62 1.44 1.01-.52 1.52-2.04 1.5-3.12-.05-3.61-2.09-7.04-5.57-8.27-3.48-1.23-7.35.3-9.58 3.19-2.41 3.13-3.06 7.95-.98 11.41 1.78 2.98 5.32 4.67 8.76 3.85 4.61-1.09 7.32-5.66 7.38-10.19.01-.9-.62-1.95-1.62-1.44-1.06.54-1.49 2.03-1.5 3.12l-.01.02zM279.13 104.94c0-3.46-.71-7.03-1.69-10.33-1.95-6.53-5.78-12.57-11.75-16.1-7.92-4.68-18.88-4.74-27.18-1.01-7.17 3.22-12.43 9.16-15.12 16.49-1.49 4.05-2.52 8.5-2.52 12.84 0 .33.24.51.57.51h53.81c1.14 0 2.32-.61 3.16-1.36.37-.33 1.31-1.56.16-1.56h-53.81l.57.51c0-3.29.64-6.66 1.53-9.81.81-2.85 1.96-5.6 3.53-8.11.84-1.36 1.83-2.63 2.94-3.79.34-.36 1.07-1.01 1.63-1.48.56-.47-.35.25.25-.2l.47-.35c.16-.12.32-.22.49-.34a9.05 9.05 0 0 1 .45-.29c.98-.57 1.15-.66 2.07-1.05.92-.39 1.62-.62 2.7-.9 2.08-.54 4.25-.76 6.4-.77 4.36-.02 8.72.73 12.63 2.72 5.99 3.04 9.96 8.63 12.13 14.86 1.26 3.6 2.12 7.56 2.12 11.39 0 1.34 4.46-.5 4.46-1.89v.02zM196.41 229.26c.13-2.18.34-4.35.6-6.52.42-3.55.88-7.35 2.13-10.68.24-.64.52-1.25.88-1.82 0 0-.18.14.05-.06.32-.27-.1.07-.05.04.19-.16-.35.26-.29.22.16-.12.37-.19-.34.21-.48.27-.94.42-1.48.47.11-.01.29.09.16 0-.18-.12.12.06.15.08.19.14.34.23.39.28.41.42.7.95.95 1.48 1.52 3.15 2.02 6.87 2.49 10.3.37 2.62.66 5.26.83 7.9.09 1.41 4.55-.54 4.46-1.89-.16-2.45-.42-4.89-.75-7.32-.5-3.78-.99-7.93-2.66-11.41-.52-1.07-1.29-2.21-2.58-2.34-2.12-.2-4.38 1.51-5.49 3.19-.93 1.4-1.41 3.11-1.82 4.73-.51 2-.86 4.03-1.16 6.07-.43 2.97-.75 5.97-.92 8.96-.07 1.27 4.38-.47 4.46-1.89h-.01zM181.43 369.32c.23-2.18.6-4.35 1.06-6.5.77-3.65 1.75-7.51 3.83-10.66.06-.09.34-.47.59-.76.11-.14.41-.42.1-.13.14-.14.29-.26.44-.39-.62.55.53-.23-.35.24.39-.21-.59.27-.05.02.23-.11-.27.09-.25.09.02 0 .22-.09.26-.07.01 0-.51.02-.12.04.09 0 .18-.03.27-.03-.35 0 .58.08.62.09.17.04.6.22.85.35.63.33 1.15.8 1.61 1.33 2.46 2.82 3.6 6.82 4.49 10.37.66 2.61 1.18 5.25 1.49 7.92.11.94 1.56.39 2.09.17.58-.25 2.48-1.18 2.37-2.06-.29-2.52-.77-5.04-1.35-7.5-.9-3.83-2.05-8.18-4.67-11.24-1.08-1.27-2.49-2.26-4.21-2.32-2.35-.08-4.7 1.17-6.39 2.71-3.14 2.87-4.52 7.32-5.54 11.32-.74 2.92-1.31 5.92-1.62 8.92-.1.96 1.71.33 2.09.17.75-.32 2.27-1.09 2.37-2.06l.02-.02zM165.05 132.87c.12-1.09.34-2.18.59-3.25.11-.47.23-.93.36-1.39l.21-.69c.04-.13.09-.26.13-.39-.09.27.03-.09.06-.17.17-.46.37-.91.59-1.35.1-.2.21-.4.33-.6.06-.09.12-.19.17-.28.22-.35-.15.17.01-.02.12-.14.31-.31.39-.47 0 0-.41.37-.19.2.03-.03.06-.06.09-.08.36-.25-.51.36-.16.12.38-.26-.56.33-.27.17-.8.45-.57.26-.39.19.09-.03.25-.09-.14.05s-.2.07-.1.04c.18-.05-.38.07-.33.07.05 0 .1-.03.15-.02h-.2c.05.03.25 0 .31 0 .05 0 .36.06.14.01-.22-.05.08.03.13.05.1.03.19.07.28.12.16.08.32.18.47.29.03.03.25.2.15.12-.08-.07.13.13.17.17 1.32 1.38 1.98 3.39 2.48 5.19.26.93.47 1.86.64 2.81l.09.49c.03.15-.04-.25 0 0 0 .06.02.11.03.17.02.11.03.23.05.34.12.93 1.56.4 2.09.17.58-.26 1.17-.58 1.64-1.01.25-.23.78-.67.73-1.05-.17-1.29-.43-2.58-.76-3.84-.51-1.96-1.18-4.18-2.61-5.67-.69-.72-1.53-1.24-2.55-1.27-1.8-.05-3.63.89-4.96 2.04-1.84 1.6-2.75 3.9-3.39 6.19-.41 1.45-.72 2.95-.89 4.44-.11.96 1.72.33 2.09.17.58-.26 1.17-.58 1.64-1.01.29-.27.69-.62.73-1.05zM185.74 132.87c.12-1.09.34-2.18.59-3.25.11-.47.23-.93.36-1.39l.21-.69c.04-.13.09-.26.13-.39-.09.27.03-.09.06-.17.17-.46.37-.91.59-1.35.1-.2.21-.4.33-.6.06-.09.12-.19.17-.28.22-.35-.15.17.01-.02.12-.14.31-.31.39-.47 0 0-.41.37-.19.2.03-.03.06-.06.09-.08.36-.25-.51.36-.16.12.38-.26-.56.33-.27.17-.8.45-.57.26-.39.19.09-.03.25-.09-.14.05s-.2.07-.1.04c.18-.05-.38.07-.33.07.05 0 .1-.03.15-.02h-.2c.05.03.25 0 .31 0 .05 0 .36.06.14.01-.22-.05.08.03.13.05.1.03.19.07.28.12.16.08.32.18.47.29.03.03.25.2.15.12-.08-.07.13.13.17.17 1.32 1.38 1.98 3.39 2.48 5.19.26.93.47 1.86.64 2.81l.09.49c.03.15-.04-.25 0 0 0 .06.02.11.03.17.02.11.03.23.05.34.12.93 1.56.4 2.09.17.58-.26 1.17-.58 1.64-1.01.25-.23.78-.67.73-1.05-.17-1.29-.43-2.58-.76-3.84-.51-1.96-1.18-4.18-2.61-5.67-.69-.72-1.53-1.24-2.55-1.27-1.8-.05-3.63.89-4.96 2.04-1.84 1.6-2.75 3.9-3.39 6.19-.41 1.45-.72 2.95-.89 4.44-.11.96 1.72.33 2.09.17.58-.26 1.17-.58 1.64-1.01.29-.27.69-.62.73-1.05zM206.42 132.87c.12-1.09.34-2.18.59-3.25.11-.47.23-.93.36-1.39l.21-.69c.04-.13.09-.26.13-.39-.09.27.03-.09.06-.17.17-.46.37-.91.59-1.35.1-.2.21-.4.33-.6.06-.09.12-.19.17-.28.22-.35-.15.17.01-.02.12-.14.31-.31.39-.47 0 0-.41.37-.19.2.03-.03.06-.06.09-.08.36-.25-.51.36-.16.12.38-.26-.56.33-.27.17-.8.45-.57.26-.39.19.09-.03.25-.09-.14.05s-.2.07-.1.04c.18-.05-.38.07-.33.07.05 0 .1-.03.15-.02h-.2c.05.03.25 0 .31 0 .05 0 .36.06.14.01-.22-.05.08.03.13.05.1.03.19.07.28.12.16.08.32.18.47.29.03.03.25.2.15.12-.08-.07.13.13.17.17 1.32 1.38 1.98 3.39 2.48 5.19.26.93.47 1.86.64 2.81l.09.49c.03.15-.04-.25 0 0 0 .06.02.11.03.17.02.11.03.23.05.34.12.93 1.56.4 2.09.17.58-.26 1.17-.58 1.64-1.01.25-.23.78-.67.73-1.05-.17-1.29-.43-2.58-.76-3.84-.51-1.96-1.18-4.18-2.61-5.67-.69-.72-1.53-1.24-2.55-1.27-1.8-.05-3.63.89-4.96 2.04-1.84 1.6-2.75 3.9-3.39 6.19-.41 1.45-.72 2.95-.89 4.44-.11.96 1.72.33 2.09.17.58-.26 1.17-.58 1.64-1.01.29-.27.69-.62.73-1.05zM227.1 132.87c.12-1.09.34-2.18.59-3.25.11-.47.23-.93.36-1.39l.21-.69c.04-.13.09-.26.13-.39-.09.27.03-.09.06-.17.17-.46.37-.91.59-1.35.1-.2.21-.4.33-.6.06-.09.12-.19.17-.28.22-.35-.15.17.01-.02.12-.14.31-.31.39-.47 0 0-.41.37-.19.2.03-.03.06-.06.09-.08.36-.25-.51.36-.16.12.38-.26-.56.33-.27.17-.8.45-.57.26-.39.19.09-.03.25-.09-.14.05s-.2.07-.1.04c.18-.05-.38.07-.33.07.05 0 .1-.03.15-.02h-.2c.05.03.25 0 .31 0 .05 0 .36.06.14.01-.22-.05.08.03.13.05.1.03.19.07.28.12.16.08.32.18.47.29.03.03.25.2.15.12-.08-.07.13.13.17.17 1.32 1.38 1.98 3.39 2.48 5.19.26.93.47 1.86.64 2.81l.09.49c.03.15-.04-.25 0 0 0 .06.02.11.03.17.02.11.03.23.05.34.12.93 1.56.4 2.09.17.58-.26 1.17-.58 1.64-1.01.25-.23.78-.67.73-1.05-.17-1.29-.43-2.58-.76-3.84-.51-1.96-1.18-4.18-2.61-5.67-.69-.72-1.53-1.24-2.55-1.27-1.8-.05-3.63.89-4.96 2.04-1.84 1.6-2.75 3.9-3.39 6.19-.41 1.45-.72 2.95-.89 4.44-.11.96 1.72.33 2.09.17.58-.26 1.17-.58 1.64-1.01.29-.27.69-.62.73-1.05zM247.78 132.87c.12-1.09.34-2.18.59-3.25.11-.47.23-.93.36-1.39l.21-.69c.04-.13.09-.26.13-.39-.09.27.03-.09.06-.17.17-.46.37-.91.59-1.35.1-.2.21-.4.33-.6.06-.09.12-.19.17-.28.22-.35-.15.17.01-.02.12-.14.31-.31.39-.47 0 0-.41.37-.19.2.03-.03.06-.06.09-.08.36-.25-.51.36-.16.12.38-.26-.56.33-.27.17-.8.45-.57.26-.39.19.09-.03.25-.09-.14.05s-.2.07-.1.04c.18-.05-.38.07-.33.07.05 0 .1-.03.15-.02h-.2c.05.03.25 0 .31 0 .05 0 .36.06.14.01-.22-.05.08.03.13.05.1.03.19.07.28.12.16.08.32.18.47.29.03.03.25.2.15.12-.08-.07.13.13.17.17 1.32 1.38 1.98 3.39 2.48 5.19.26.93.47 1.86.64 2.81l.09.49c.03.15-.04-.25 0 0 0 .06.02.11.03.17.02.11.03.23.05.34.12.93 1.56.4 2.09.17.58-.26 1.17-.58 1.64-1.01.25-.23.78-.67.73-1.05-.17-1.29-.43-2.58-.76-3.84-.51-1.96-1.18-4.18-2.61-5.67-.69-.72-1.53-1.24-2.55-1.27-1.8-.05-3.63.89-4.96 2.04-1.84 1.6-2.75 3.9-3.39 6.19-.41 1.45-.72 2.95-.89 4.44-.11.96 1.72.33 2.09.17.58-.26 1.17-.58 1.64-1.01.29-.27.69-.62.73-1.05zM268.46 132.87c.12-1.09.34-2.18.59-3.25.11-.47.23-.93.36-1.39l.21-.69c.04-.13.09-.26.13-.39-.09.27.03-.09.06-.17.17-.46.37-.91.59-1.35.1-.2.21-.4.33-.6.06-.09.12-.19.17-.28.22-.35-.15.17.01-.02.12-.14.31-.31.39-.47 0 0-.41.37-.19.2.03-.03.06-.06.09-.08.36-.25-.51.36-.16.12.38-.26-.56.33-.27.17-.8.45-.57.26-.39.19.09-.03.25-.09-.14.05s-.2.07-.1.04c.18-.05-.38.07-.33.07.05 0 .1-.03.15-.02h-.2c.05.03.25 0 .31 0 .05 0 .36.06.14.01-.22-.05.08.03.13.05.1.03.19.07.28.12.16.08.32.18.47.29.03.03.25.2.15.12-.08-.07.13.13.17.17 1.32 1.38 1.98 3.39 2.48 5.19.26.93.47 1.86.64 2.81l.09.49c.03.15-.04-.25 0 0 0 .06.02.11.03.17.02.11.03.23.05.34.12.93 1.56.4 2.09.17.58-.26 1.17-.58 1.64-1.01.25-.23.78-.67.73-1.05-.17-1.29-.43-2.58-.76-3.84-.51-1.96-1.18-4.18-2.61-5.67-.69-.72-1.53-1.24-2.55-1.27-1.8-.05-3.63.89-4.96 2.04-1.84 1.6-2.75 3.9-3.39 6.19-.41 1.45-.72 2.95-.89 4.44-.11.96 1.72.33 2.09.17.58-.26 1.17-.58 1.64-1.01.29-.27.69-.62.73-1.05zM289.14 132.87c.12-1.09.34-2.18.59-3.25.11-.47.23-.93.36-1.39l.21-.69c.04-.13.09-.26.13-.39-.09.27.03-.09.06-.17.17-.46.37-.91.59-1.35.1-.2.21-.4.33-.6.06-.09.12-.19.17-.28.22-.35-.15.17.01-.02.12-.14.31-.31.39-.47 0 0-.41.37-.19.2.03-.03.06-.06.09-.08.36-.25-.51.36-.16.12.38-.26-.56.33-.27.17-.8.45-.57.26-.39.19.09-.03.25-.09-.14.05s-.2.07-.1.04c.18-.05-.38.07-.33.07.05 0 .1-.03.15-.02h-.2c.05.03.25 0 .31 0 .05 0 .36.06.14.01-.22-.05.08.03.13.05.1.03.19.07.28.12.16.08.32.18.47.29.03.03.25.2.15.12-.08-.07.13.13.17.17 1.32 1.38 1.98 3.39 2.48 5.19.26.93.47 1.86.64 2.81l.09.49c.03.15-.04-.25 0 0 0 .06.02.11.03.17.02.11.03.23.05.34.12.93 1.56.4 2.09.17.58-.26 1.17-.58 1.64-1.01.25-.23.78-.67.73-1.05-.17-1.29-.43-2.58-.76-3.84-.51-1.96-1.18-4.18-2.61-5.67-.69-.72-1.53-1.24-2.55-1.27-1.8-.05-3.63.89-4.96 2.04-1.84 1.6-2.75 3.9-3.39 6.19-.41 1.45-.72 2.95-.89 4.44-.11.96 1.72.33 2.09.17.58-.26 1.17-.58 1.64-1.01.29-.27.69-.62.73-1.05zM309.83 132.87c.12-1.09.34-2.18.59-3.25.11-.47.23-.93.36-1.39l.21-.69c.04-.13.09-.26.13-.39-.09.27.03-.09.06-.17.17-.46.37-.91.59-1.35.1-.2.21-.4.33-.6.06-.09.12-.19.17-.28.22-.35-.15.17.01-.02.12-.14.31-.31.39-.47 0 0-.41.37-.19.2.03-.03.06-.06.09-.08.36-.25-.51.36-.16.12.38-.26-.56.33-.27.17-.8.45-.57.26-.39.19.09-.03.25-.09-.14.05s-.2.07-.1.04c.18-.05-.38.07-.33.07.05 0 .1-.03.15-.02h-.2c.05.03.25 0 .31 0 .05 0 .36.06.14.01-.22-.05.08.03.13.05.1.03.19.07.28.12.16.08.32.18.47.29.03.03.25.2.15.12-.08-.07.13.13.17.17 1.32 1.38 1.98 3.39 2.48 5.19.26.93.47 1.86.64 2.81l.09.49c.03.15-.04-.25 0 0 0 .06.02.11.03.17.02.11.03.23.05.34.12.93 1.56.4 2.09.17.58-.26 1.17-.58 1.64-1.01.25-.23.78-.67.73-1.05-.17-1.29-.43-2.58-.76-3.84-.51-1.96-1.18-4.18-2.61-5.67-.69-.72-1.53-1.24-2.55-1.27-1.8-.05-3.63.89-4.96 2.04-1.84 1.6-2.75 3.9-3.39 6.19-.41 1.45-.72 2.95-.89 4.44-.11.96 1.72.33 2.09.17.58-.26 1.17-.58 1.64-1.01.29-.27.69-.62.73-1.05zM330.51 132.87c.12-1.09.34-2.18.59-3.25.11-.47.23-.93.36-1.39l.21-.69c.04-.13.09-.26.13-.39-.09.27.03-.09.06-.17.17-.46.37-.91.59-1.35.1-.2.21-.4.33-.6.06-.09.12-.19.17-.28.22-.35-.15.17.01-.02.12-.14.31-.31.39-.47 0 0-.41.37-.19.2.03-.03.06-.06.09-.08.36-.25-.51.36-.16.12.38-.26-.56.33-.27.17-.8.45-.57.26-.39.19.09-.03.25-.09-.14.05s-.2.07-.1.04c.18-.05-.38.07-.33.07.05 0 .1-.03.15-.02h-.2c.05.03.25 0 .31 0 .05 0 .36.06.14.01-.22-.05.08.03.13.05.1.03.19.07.28.12.16.08.32.18.47.29.03.03.25.2.15.12-.08-.07.13.13.17.17 1.32 1.38 1.98 3.39 2.48 5.19.26.93.47 1.86.64 2.81l.09.49c.03.15-.04-.25 0 0 0 .06.02.11.03.17.02.11.03.23.05.34.12.93 1.56.4 2.09.17.58-.26 1.17-.58 1.64-1.01.25-.23.78-.67.73-1.05-.17-1.29-.43-2.58-.76-3.84-.51-1.96-1.18-4.18-2.61-5.67-.69-.72-1.53-1.24-2.55-1.27-1.8-.05-3.63.89-4.96 2.04-1.84 1.6-2.75 3.9-3.39 6.19-.41 1.45-.72 2.95-.89 4.44-.11.96 1.72.33 2.09.17.58-.26 1.17-.58 1.64-1.01.29-.27.69-.62.73-1.05zM162.68 229.26c-.14-2.17-.2-4.35-.22-6.52-.03-3.57-.03-7.28.75-10.78.16-.72.26-1.11.54-1.68.06-.11.12-.22.18-.34.17-.33-.18.18 0 0 .09-.09-.24.22-.3.26-.58.44-1.32.85-2.06.91-.17.01.05.11-.16-.03.06.04.15.04.21.08.29.2.17.06.35.29.34.44.56.95.74 1.47 1.11 3.24 1.05 6.97 1.08 10.35.02 2.63-.03 5.26-.2 7.88-.08 1.27 4.37-.47 4.46-1.89.15-2.46.21-4.93.2-7.39-.01-3.7.05-7.82-1.17-11.37-.37-1.08-1-2.19-2.25-2.3-2.04-.18-4.36 1.49-5.28 3.24-.74 1.41-1 3.11-1.19 4.68-.25 2.01-.33 4.05-.37 6.07-.05 2.99.02 5.99.21 8.97.09 1.41 4.55-.54 4.46-1.89l.02-.01zM137.46 369.32c-.26-2.18-.36-4.38-.39-6.57-.05-3.45-.04-7.44 1.31-10.63.14-.32.29-.63.46-.93.06-.11.29-.44.09-.17.12-.16.25-.31.38-.46.05-.06-.3.3.04-.02.03-.02-.43.34-.23.19.26-.19-.45.26-.5.28 0 0-.56.23-.3.13-.4.15-.15 0 .11 0-.41 0 .59.11.45.07.29.08.57.22.83.38.5.31.88.82 1.21 1.35 1.79 2.96 1.9 6.93 1.95 10.29.04 2.65-.05 5.33-.34 7.97-.11.96 1.72.32 2.09.17.76-.32 2.27-1.09 2.37-2.06.27-2.45.37-4.94.35-7.41-.01-2.05-.12-4.1-.43-6.12-.28-1.79-.66-3.68-1.61-5.25-2.31-3.81-7.41-2.18-9.85.71-2.44 2.89-2.72 7.39-2.82 11.04-.08 2.97.03 5.97.38 8.92.11.93 1.56.39 2.09.17.58-.24 2.48-1.18 2.37-2.06l-.01.01zM333.63 229.26c-.14-2.17-.2-4.35-.22-6.52-.03-3.57-.03-7.28.75-10.78.16-.72.26-1.11.54-1.68.06-.11.12-.22.18-.34.17-.33-.18.18 0 0 .09-.09-.24.22-.3.26-.58.44-1.32.85-2.06.91-.17.01.05.11-.16-.03.06.04.15.04.21.08.29.2.17.06.35.29.34.44.56.95.74 1.47 1.11 3.24 1.05 6.97 1.08 10.35.02 2.63-.03 5.26-.2 7.88-.08 1.27 4.37-.47 4.46-1.89.15-2.46.21-4.93.2-7.39-.01-3.7.05-7.82-1.17-11.37-.37-1.08-1-2.19-2.25-2.3-2.04-.18-4.36 1.49-5.28 3.24-.74 1.41-1 3.11-1.19 4.68-.25 2.01-.33 4.05-.37 6.07-.05 2.99.02 5.99.21 8.97.09 1.41 4.55-.54 4.46-1.89l.02-.01zM356.37 369.32c-.26-2.18-.36-4.38-.39-6.57-.05-3.45-.04-7.44 1.31-10.63.14-.32.29-.63.46-.93.06-.11.29-.44.09-.17.12-.16.25-.31.38-.46.05-.06-.3.3.04-.02.03-.02-.43.34-.23.19.26-.19-.45.26-.5.28 0 0-.56.23-.3.13-.4.15-.15 0 .11 0-.41 0 .59.11.45.07.29.08.57.22.83.38.5.31.88.82 1.21 1.35 1.79 2.96 1.9 6.93 1.95 10.29.04 2.65-.05 5.33-.34 7.97-.11.96 1.72.32 2.09.17.76-.32 2.27-1.09 2.37-2.06.27-2.45.37-4.94.35-7.41-.01-2.05-.12-4.1-.43-6.12-.28-1.79-.66-3.68-1.61-5.25-2.31-3.81-7.41-2.18-9.85.71-2.44 2.89-2.72 7.39-2.82 11.04-.08 2.97.03 5.97.38 8.92.11.93 1.56.39 2.09.17.58-.24 2.48-1.18 2.37-2.06l-.01.01zM294.37 229.26c.13-2.18.34-4.35.6-6.52.42-3.55.88-7.35 2.13-10.68.24-.64.52-1.25.88-1.82 0 0-.18.14.05-.06.32-.27-.1.07-.05.04.19-.16-.35.26-.29.22.16-.12.37-.19-.34.21-.48.27-.94.42-1.48.47.11-.01.29.09.16 0-.18-.12.12.06.15.08.19.14.34.23.39.28.41.42.7.95.95 1.48 1.52 3.15 2.02 6.87 2.49 10.3.37 2.62.66 5.26.83 7.9.09 1.41 4.55-.54 4.46-1.89-.16-2.45-.42-4.89-.75-7.32-.5-3.78-.99-7.93-2.66-11.41-.52-1.07-1.29-2.21-2.58-2.34-2.12-.2-4.38 1.51-5.49 3.19-.93 1.4-1.41 3.11-1.82 4.73-.51 2-.86 4.03-1.16 6.07-.43 2.97-.75 5.97-.92 8.96-.07 1.27 4.38-.47 4.46-1.89h-.01zM303.19 369.32c.23-2.18.6-4.35 1.06-6.5.77-3.65 1.75-7.51 3.83-10.66.06-.09.34-.47.59-.76.11-.14.41-.42.1-.13.14-.14.29-.26.44-.39-.62.55.53-.23-.35.24.39-.21-.59.27-.05.02.23-.11-.27.09-.25.09.02 0 .22-.09.26-.07.01 0-.51.02-.12.04.09 0 .18-.03.27-.03-.35 0 .58.08.62.09.17.04.6.22.85.35.63.33 1.15.8 1.61 1.33 2.46 2.82 3.6 6.82 4.49 10.37.66 2.61 1.18 5.25 1.49 7.92.11.94 1.56.39 2.09.17.58-.25 2.48-1.18 2.37-2.06-.29-2.52-.77-5.04-1.35-7.5-.9-3.83-2.05-8.18-4.67-11.24-1.08-1.27-2.49-2.26-4.21-2.32-2.35-.08-4.7 1.17-6.39 2.71-3.14 2.87-4.52 7.32-5.54 11.32-.74 2.92-1.31 5.92-1.62 8.92-.1.96 1.71.33 2.09.17.75-.32 2.27-1.09 2.37-2.06l.02-.02zM235.66 229.26c.65-4.68 1.5-9.33 2.45-13.96 1.56-7.6 3.24-15.59 6.7-22.59.65-1.31 1.32-2.49 2.09-3.39.09-.11.19-.21.28-.32.31-.36-.34.3.01-.02.1-.09.2-.17.29-.26.34-.32-.47.32-.09.07.59-.39-.69.33-.37.19.4-.18-.57.18-.16.06.2-.05.14-.04-.21.04l.21-.03c.07-.13-.21-.01-.02 0 .08 0 .18 0 .26.02.39.09 0-.04.34.08.47.17.91.42 1.3.74.92.74 1.64 1.79 2.26 2.8 1.84 3 3.06 6.4 4.14 9.74 1.28 3.95 2.31 7.98 3.24 12.02 1.26 5.51 2.39 11.27 3.2 16.7.22 1.47 4.65-.61 4.46-1.89-.74-5.02-1.7-10.02-2.78-14.98-.92-4.21-1.94-8.4-3.2-12.53-1.11-3.66-2.36-7.36-4.24-10.71-1.14-2.03-2.82-4.58-5.35-4.88-3.15-.37-6.24 2.16-7.96 4.55-2.13 2.96-3.43 6.46-4.58 9.9-1.37 4.07-2.44 8.24-3.38 12.43-.86 3.82-1.62 7.66-2.29 11.51-.36 2.07-.85 4.2-1.02 6.3 0 .1-.03.2-.04.31-.13.96 1.74.32 2.09.17.78-.33 2.24-1.08 2.37-2.06v-.01zM245.1 44.52c2.05-7.69 4.11-15.38 6.16-23.07l.87-3.25-4.42 2.16c2.11 7.69 4.22 15.38 6.34 23.07.3 1.08.59 2.17.89 3.25.28 1.02 4.79-.93 4.38-2.42-2.11-7.69-4.22-15.38-6.34-23.07-.3-1.08-.59-2.17-.89-3.25-.2-.73-2.07.1-2.34.24-.79.39-1.83 1-2.08 1.92-2.05 7.69-4.11 15.38-6.16 23.07l-.87 3.25c-.25.95 1.81.28 2.09.17.88-.37 2.11-1.06 2.37-2.06v-.01zM225.36 369.32c1.16-4.68 2.65-9.31 4.3-13.84 2.86-7.83 6.25-16.16 11.84-22.48.7-.79.99-1.1 1.79-1.8.15-.13.31-.26.46-.39.33-.28.06-.06.15-.12l.47-.35c.12-.09.71-.47.43-.3-.33.21.91-.5.55-.31-.34.17.29-.12.36-.16.08-.04.17-.07.25-.1.31-.13-.38.12-.07.02.17-.05.34-.1.51-.16.36-.11.07-.03.17-.05.4-.08.8-.14 1.21-.17 1.11-.07 2.78.3 4.04.87 1.55.7 2.95 1.72 4.19 2.88 6.16 5.75 9.9 14.13 13 21.81 1.41 3.5 2.69 7.06 3.84 10.66.61 1.91.99 4.02 1.76 5.87.04.09.05.19.07.28.27 1.01 4.77-.92 4.38-2.42-1.32-5.05-3.03-10.02-4.91-14.88-3.14-8.12-6.91-16.89-13.15-23.14-2.45-2.45-5.46-4.55-9.02-4.81-4.14-.3-8.12 1.82-11.22 4.38-6.79 5.62-10.77 14.5-13.95 22.5a156.6 156.6 0 0 0-4.03 11.5c-.63 2.04-1.45 4.19-1.8 6.3-.02.1-.05.2-.08.3-.24.95 1.8.29 2.09.17.87-.37 2.13-1.06 2.37-2.06z"/></g><defs><clipPath id="a"><path fill="#fff" d="M0 0h500v500H0z"/></clipPath></defs></svg>