<svg width="75" height="76" fill="none" xmlns="http://www.w3.org/2000/svg"><g clip-path="url(#a)" fill="#1D1D1B"><path d="M41.95 70.42v-4.37c0-1.75.17-3.64-.3-5.33-.34-1.22-1.17-2.71-2.55-2.91-1.38-.2-2.41.94-2.96 2.03-.92 1.84-.8 3.86-.8 5.85v5.15c0 .42.16 1.12.72 1.01.56-.11.76-.99.76-1.43v-3.91c0-1.31-.09-2.65.01-3.95.07-.89.49-2.19 1.55-2.3 1.06-.11 1.67 1.03 1.91 1.86.37 1.27.17 2.81.17 4.12v4.6c0 .42.16 1.12.72 1.01.56-.11.76-.99.76-1.43h.01zM25.44 70.42V44.55c0-.28-.1-1.02-.53-1.02h-6.84c-.67 0-.96.89-.96 1.44v25.87c0 1.67 1.49.85 1.49-.41V44.56L17.64 46h6.84l-.53-1.02v25.87c0 1.67 1.49.85 1.49-.41v-.02z"/><path d="M33.83 70.42V44.55c0-.28-.1-1.02-.53-1.02h-8.22c-1.02 0-1.36 2.46-.43 2.46h8.22l-.53-1.02v25.87c0 1.67 1.49.85 1.49-.41v-.01zM53.31 70.42V44.55l-.96 1.44h6.84l-.53-1.02v25.87c0 1.67 1.49.85 1.49-.41V44.56c0-.28-.1-1.02-.53-1.02h-6.84c-.67 0-.96.89-.96 1.44v25.87c0 1.67 1.49.85 1.49-.41v-.02z"/><path d="M44.93 70.42V44.55l-.96 1.44h8.22c1.02 0 1.36-2.46.43-2.46H44.4c-.67 0-.96.89-.96 1.44v25.87c0 1.67 1.49.85 1.49-.41v-.01z"/><path d="M44.41 43.52H33.3c-.56 0-.84.62-.93 1.11-.06.32-.06 1.36.49 1.36h11.11c.56 0 .84-.62.93-1.11.06-.32.06-1.36-.49-1.36z"/><path d="M33.4 45.99c1.02 0 1.36-2.46.43-2.46-1.02 0-1.36 2.46-.43 2.46zM43.44 45.99c1.02 0 1.36-2.46.43-2.46-1.02 0-1.36 2.46-.43 2.46zM28.62 44.44V24.08c0-.28-.1-1.02-.53-1.02H22.8c-.67 0-.96.89-.96 1.44v20.36c0 .42.16 1.13.72 1.01.56-.12.76-.99.76-1.43V24.08l-.96 1.44h5.29l-.53-1.02v20.36c0 .42.16 1.13.72 1.01.56-.12.76-.99.76-1.43h.02z"/><path d="M35.09 44.44V24.08c0-.28-.1-1.02-.53-1.02h-6.35c-1.02 0-1.36 2.46-.43 2.46h6.35l-.53-1.02v20.36c0 .42.16 1.13.72 1.01.56-.12.76-.99.76-1.43h.01zM50.14 44.44V24.08l-.96 1.44h5.29l-.53-1.02v20.36c0 .42.16 1.13.72 1.01.56-.12.76-.99.76-1.43V24.08c0-.28-.1-1.02-.53-1.02H49.6c-.67 0-.96.89-.96 1.44v20.36c0 .42.16 1.13.72 1.01.56-.12.76-.99.76-1.43h.02z"/><path d="M43.67 44.44V24.08l-.96 1.44h6.35c1.02 0 1.36-2.46.43-2.46h-6.35c-.67 0-.96.89-.96 1.44v20.36c0 .42.16 1.13.72 1.01.56-.12.76-.99.76-1.43h.01z"/><path d="M43.14 23.06h-8.58c-.56 0-.84.62-.93 1.11-.06.32-.06 1.36.49 1.36h8.58c.56 0 .84-.62.93-1.11.06-.32.06-1.36-.49-1.36z"/><path d="M34.54 25.52c1.02 0 1.36-2.46.43-2.46-1.02 0-1.36 2.46-.43 2.46zM42.3 25.52c1.02 0 1.36-2.46.43-2.46-1.02 0-1.36 2.46-.43 2.46zM44.04 18.68c0-1.61-.89-3.25-2.36-3.94-2.75-1.3-6.74.08-7.97 2.9-.27.62-.47 1.32-.47 1.99 0 .16.12.26.29.26h8.58c.57 0 1.16-.31 1.58-.68.19-.17.66-.78.08-.78h-8.58l.29.26c0-.44.1-.89.22-1.31.07-.23.28-.7.49-1.02-.1.15.1-.13.14-.17.06-.07.24-.23.07-.09.05-.04.11-.08.14-.13.1-.13-.23.17-.02.01.04-.03.09-.06.13-.09-.29.21-.07.05 0 0-.38.25.32-.1 0 0l.18-.06c.3-.09-.1.02.08-.02.34-.07.68-.09 1.02-.08.64.02 1.26.13 1.84.42.83.41 1.4 1.14 1.73 1.99.21.55.31.94.31 1.48 0 .67 2.23-.25 2.23-.95v.01zM37.5 12.08c.65-2.19 1.29-4.38 1.94-6.56.09-.32.19-.64.28-.95l-2.21 1.08c.66 2.19 1.33 4.38 1.99 6.56l.29.95c.16.52 2.41-.48 2.19-1.21-.66-2.19-1.33-4.38-1.99-6.56l-.29-.95c-.11-.36-1.03.05-1.17.12-.41.2-.9.5-1.04.96-.65 2.19-1.29 4.38-1.94 6.56-.09.32-.19.64-.28.95-.14.47.91.14 1.04.08.45-.2 1.04-.52 1.19-1.03z"/></g><defs><clipPath id="a"><path fill="#fff" transform="translate(0 .5)" d="M0 0h75v75H0z"/></clipPath></defs></svg>